<?xml version="1.0" encoding="UTF-8"?>
<!DOCTYPE svg PUBLIC "-//W3C//DTD SVG 1.1//EN" "http://www.w3.org/Graphics/SVG/1.1/DTD/svg11.dtd">
<svg version="1.1" xmlns="http://www.w3.org/2000/svg" xmlns:xlink="http://www.w3.org/1999/xlink" x="0" y="0" width="716" height="1000" viewBox="0, 0, 716, 1000">
  <g id="Layer_1">
    <path d="M0,714 Q0,651 28,616 Q51,585 102,571 Q86,531 86,512 Q86,479 121,442 Q158,407 190,407 Q207,407 230,416 Q182,279 161,208 Q137,127 137,93 Q137,45 161,18 Q186,-10 228,-10 Q300,-10 401,285 L418,334 Q424,319 430,301 Q530,9 610,9 Q650,9 673,36 Q697,63 697,106 Q697,134 673,219 Q652,292 607,419 Q664,433 689,473 Q716,516 716,606 Q716,784 610,897 Q502,1010 336,1010 Q270,1010 209,986 Q150,965 102,920 Q51,872 26,821 Q0,767 0,714 z M65,709 Q65,734 79,768 Q92,800 118,835 Q159,888 215,916 Q272,944 344,944 Q473,944 561,847 Q648,751 648,604 Q648,558 642,533 Q637,511 623,499 Q596,476 517,459 Q438,441 349,441 Q327,441 321,447 Q314,450 314,467 Q314,508 360,525 Q410,546 525,546 L553,546 Q569,546 576,557 Q584,565 587,588 Q570,605 532,619 Q496,632 479,645 Q439,674 415,714 Q392,753 392,788 Q392,809 402,839 Q413,872 413,882 L413,888 L409,903 Q365,900 345,862 Q328,830 326,780 Q323,781 314,781 L303,781 Q304,786 304,793 Q304,823 281,844 Q258,865 227,865 Q180,865 132,820 Q84,774 84,730 Q84,722 87,714 Q88,707 103,692 Q128,723 137,735 Q179,794 213,794 Q222,794 230,788 Q236,782 236,778 Q236,770 224,749 Q216,734 187,696 Q159,660 142,646 Q127,632 120,632 Q101,632 83,654 Q65,676 65,709 z M155,518 Q155,531 171,563 Q185,590 216,631 Q247,671 272,693 Q296,713 308,713 Q315,713 322,706 Q329,698 329,690 Q329,678 311,632 Q290,581 265,540 Q243,505 226,491 Q210,476 195,476 Q184,476 170,491 Q155,506 155,518 z M200,86 Q200,120 224,193 Q246,264 290,383 Q300,377 318,377 Q319,377 324.5,377.5 Q330,378 335,378 Q339,378 361,380 L292,180 Q264,100 248,76 Q235,55 222,55 Q213,55 207,63 Q200,72 200,86 z M366,596 Q375,619 385,646 Q405,623 425,608 Q420,607 410,605.5 Q400,604 395,603 Q375,599 366,596 z M471,392 L538,404 Q583,280 607,205 Q632,124 632,109 Q632,93 625,84 Q621,77 610,77 Q596,77 579,104 Q560,133 536,205 z" fill="#FFFFFF"/>
  </g>
</svg>
