<?xml version="1.0" encoding="UTF-8"?>
<!DOCTYPE svg PUBLIC "-//W3C//DTD SVG 1.1//EN" "http://www.w3.org/Graphics/SVG/1.1/DTD/svg11.dtd">
<svg version="1.1" xmlns="http://www.w3.org/2000/svg" xmlns:xlink="http://www.w3.org/1999/xlink" x="0" y="0" width="100" height="100" viewBox="0, 0, 100, 100">
  <g id="Layer_1">
    <path d="M95,59.727 L95,93 L75.71,93 L75.71,61.955 C75.71,54.156 72.92,48.834 65.938,48.834 C60.608,48.834 57.436,52.421 56.041,55.891 C55.532,57.131 55.401,58.858 55.401,60.594 L55.401,93 L36.104,93 C36.104,93 36.364,40.42 36.104,34.972 L55.398,34.972 L55.398,43.197 C55.359,43.259 55.308,43.325 55.271,43.385 L55.398,43.385 L55.398,43.197 C57.961,39.249 62.54,33.609 72.787,33.609 C85.482,33.609 95,41.903 95,59.727 z M15.919,7 C9.318,7 5,11.33 5,17.024 C5,22.594 9.193,27.055 15.663,27.055 L15.792,27.055 C22.521,27.055 26.706,22.595 26.706,17.024 C26.579,11.33 22.521,7 15.919,7 z M6.146,93 L25.435,93 L25.435,34.972 L6.146,34.972 L6.146,93 z" fill="#FFFFFF" id="LinkedIn"/>
  </g>
</svg>
