<?xml version="1.0" encoding="UTF-8"?>
<!DOCTYPE svg PUBLIC "-//W3C//DTD SVG 1.1//EN" "http://www.w3.org/Graphics/SVG/1.1/DTD/svg11.dtd">
<svg version="1.1" xmlns="http://www.w3.org/2000/svg" xmlns:xlink="http://www.w3.org/1999/xlink" x="0" y="0" width="100" height="100" viewBox="0, 0, 100, 100">
  <g id="Layer_1">
    <path d="M99.919,19.036 C96.246,20.665 92.298,21.766 88.155,22.261 C92.384,19.726 95.632,15.713 97.161,10.929 C93.202,13.276 88.819,14.981 84.152,15.899 C80.417,11.918 75.093,9.431 69.202,9.431 C57.89,9.431 48.719,18.602 48.719,29.914 C48.719,31.519 48.9,33.082 49.249,34.581 C32.226,33.727 17.133,25.572 7.03,13.18 C5.266,16.205 4.256,19.723 4.256,23.477 C4.256,30.583 7.872,36.853 13.368,40.526 C10.011,40.42 6.852,39.498 4.09,37.964 C4.088,38.049 4.088,38.135 4.088,38.221 C4.088,48.145 11.149,56.424 20.519,58.306 C18.8,58.775 16.991,59.025 15.123,59.025 C13.803,59.025 12.52,58.896 11.269,58.658 C13.875,66.795 21.44,72.717 30.404,72.882 C23.393,78.376 14.562,81.651 4.965,81.651 C3.312,81.651 1.681,81.554 0.079,81.365 C9.144,87.177 19.911,90.568 31.478,90.568 C69.155,90.568 89.757,59.357 89.757,32.288 C89.757,31.4 89.737,30.517 89.697,29.638 C93.7,26.751 97.172,23.144 99.919,19.036 L99.919,19.036 z" fill="#FFFFFF" id="path5"/>
  </g>
</svg>
