<?xml version="1.0" encoding="UTF-8"?>
<!DOCTYPE svg PUBLIC "-//W3C//DTD SVG 1.1//EN" "http://www.w3.org/Graphics/SVG/1.1/DTD/svg11.dtd">
<svg version="1.1" xmlns="http://www.w3.org/2000/svg" xmlns:xlink="http://www.w3.org/1999/xlink" x="0" y="0" width="353.325" height="90.819" viewBox="0, 0, 353.325, 90.819">
  <g id="Layer_1">
    <path d="M52.237,90.303 C50.452,84.106 45.766,78.908 40.645,75.141 C33.78,70.219 24.838,71.26 17.252,68.395 C11.073,63.804 16.983,58.739 21.138,55.595 C30.421,47.543 29.28,32.526 21.888,23.624 C16.95,17.243 6.507,12.96 1.358,11.144 C-6.402,3.383 22.042,-3.408 12.651,1.869 C9.475,3.229 6.221,5.77 12.086,7.302 C18.94,9.426 35.172,22.687 37.048,35.846 C38.488,42.829 36.542,50.727 33.954,57.217 C50.853,62.561 58.111,74.592 66.177,90.157 C66.144,90.13 62.353,90.388 52.237,90.303 z" fill="#000000" id="path3046"/>
    <path d="M83.943,90.802 C85.729,84.605 90.414,79.407 95.535,75.64 C102.4,70.719 111.342,71.759 118.928,68.894 C125.108,64.303 119.198,59.238 115.043,56.095 C105.76,48.042 106.9,33.026 114.292,24.123 C119.23,17.742 129.673,13.459 134.822,11.643 C142.583,3.883 114.138,-2.908 123.53,2.369 C126.705,3.729 129.96,6.269 124.094,7.801 C117.241,9.925 101.008,23.187 99.132,36.346 C97.692,43.328 99.638,51.226 102.226,57.717 C85.327,63.06 78.069,75.092 70.004,90.656 C70.036,90.63 73.827,90.888 83.943,90.802 z" fill="#000000" id="path3046-4"/>
    <path d="M149.669,29.146 Q150.533,30.73 151.661,33.058 Q152.789,35.386 154.013,38.098 Q155.237,40.81 156.437,43.642 Q157.637,46.474 158.693,48.97 Q159.749,46.474 160.949,43.642 Q162.149,40.81 163.373,38.098 Q164.597,35.386 165.725,33.058 Q166.853,30.73 167.717,29.146 L174.533,29.146 Q175.013,32.458 175.421,36.562 Q175.829,40.666 176.141,45.106 Q176.453,49.546 176.717,54.01 Q176.981,58.474 177.173,62.41 L169.877,62.41 Q169.733,57.562 169.493,51.85 Q169.253,46.138 168.773,40.33 Q167.909,42.346 166.853,44.794 Q165.797,47.242 164.765,49.69 Q163.733,52.138 162.773,54.37 Q161.813,56.602 161.141,58.186 L155.909,58.186 Q155.237,56.602 154.277,54.37 Q153.317,52.138 152.285,49.69 Q151.253,47.242 150.197,44.794 Q149.141,42.346 148.277,40.33 Q147.797,46.138 147.557,51.85 Q147.317,57.562 147.173,62.41 L139.877,62.41 Q140.069,58.474 140.333,54.01 Q140.597,49.546 140.909,45.106 Q141.221,40.666 141.629,36.562 Q142.037,32.458 142.517,29.146 z" fill="#000000"/>
    <path d="M193.061,57.418 Q194.117,57.418 195.077,57.37 Q196.037,57.322 196.613,57.226 L196.613,51.802 Q196.181,51.706 195.317,51.61 Q194.453,51.514 193.733,51.514 Q192.725,51.514 191.837,51.634 Q190.949,51.754 190.277,52.09 Q189.605,52.426 189.221,53.002 Q188.837,53.578 188.837,54.442 Q188.837,56.122 189.965,56.77 Q191.093,57.418 193.061,57.418 z M192.485,36.49 Q195.653,36.49 197.765,37.21 Q199.877,37.93 201.149,39.274 Q202.421,40.618 202.949,42.538 Q203.477,44.458 203.477,46.81 L203.477,61.69 Q201.941,62.026 199.205,62.482 Q196.469,62.938 192.581,62.938 Q190.133,62.938 188.141,62.506 Q186.149,62.074 184.709,61.09 Q183.269,60.106 182.501,58.522 Q181.733,56.938 181.733,54.634 Q181.733,52.426 182.621,50.89 Q183.509,49.354 184.997,48.442 Q186.485,47.53 188.405,47.122 Q190.325,46.714 192.389,46.714 Q193.781,46.714 194.861,46.834 Q195.941,46.954 196.613,47.146 L196.613,46.474 Q196.613,44.65 195.509,43.546 Q194.405,42.442 191.669,42.442 Q189.845,42.442 188.069,42.706 Q186.293,42.97 184.997,43.45 L184.085,37.69 Q184.709,37.498 185.645,37.282 Q186.581,37.066 187.685,36.898 Q188.789,36.73 190.013,36.61 Q191.237,36.49 192.485,36.49 z" fill="#000000"/>
    <path d="M216.053,49.594 Q216.053,52.906 217.541,54.922 Q219.029,56.938 221.957,56.938 Q222.917,56.938 223.733,56.866 Q224.549,56.794 225.077,56.698 L225.077,43.69 Q224.405,43.258 223.325,42.97 Q222.245,42.682 221.141,42.682 Q216.053,42.682 216.053,49.594 z M232.229,61.594 Q231.269,61.882 230.021,62.146 Q228.773,62.41 227.405,62.602 Q226.037,62.794 224.621,62.914 Q223.205,63.034 221.909,63.034 Q218.789,63.034 216.341,62.122 Q213.893,61.21 212.213,59.506 Q210.533,57.802 209.645,55.378 Q208.757,52.954 208.757,49.93 Q208.757,46.858 209.525,44.386 Q210.293,41.914 211.733,40.186 Q213.173,38.458 215.261,37.546 Q217.349,36.634 220.037,36.634 Q221.525,36.634 222.701,36.922 Q223.877,37.21 225.077,37.738 L225.077,26.314 L232.229,25.162 z" fill="#000000"/>
    <path d="M259.061,62.41 Q258.053,60.778 256.685,58.882 Q255.317,56.986 253.709,55.09 Q252.101,53.194 250.373,51.442 Q248.645,49.69 246.917,48.346 L246.917,62.41 L239.429,62.41 L239.429,29.146 L246.917,29.146 L246.917,41.722 Q249.845,38.65 252.797,35.314 Q255.749,31.978 258.293,29.146 L267.173,29.146 Q263.765,33.178 260.333,36.922 Q256.901,40.666 253.109,44.458 Q257.093,47.77 260.813,52.33 Q264.533,56.89 267.941,62.41 z" fill="#000000"/>
    <path d="M291.701,61.546 Q289.877,62.074 286.997,62.53 Q284.117,62.986 280.949,62.986 Q277.733,62.986 275.597,62.122 Q273.461,61.258 272.213,59.698 Q270.965,58.138 270.437,55.978 Q269.909,53.818 269.909,51.226 L269.909,37.162 L277.061,37.162 L277.061,50.362 Q277.061,53.818 277.973,55.354 Q278.885,56.89 281.381,56.89 Q282.149,56.89 283.013,56.818 Q283.877,56.746 284.549,56.65 L284.549,37.162 L291.701,37.162 z" fill="#000000"/>
    <path d="M304.517,49.594 Q304.517,52.906 306.005,54.922 Q307.493,56.938 310.421,56.938 Q311.381,56.938 312.197,56.866 Q313.013,56.794 313.541,56.698 L313.541,43.69 Q312.869,43.258 311.789,42.97 Q310.709,42.682 309.605,42.682 Q304.517,42.682 304.517,49.594 z M320.693,61.594 Q319.733,61.882 318.485,62.146 Q317.237,62.41 315.869,62.602 Q314.501,62.794 313.085,62.914 Q311.669,63.034 310.373,63.034 Q307.253,63.034 304.805,62.122 Q302.357,61.21 300.677,59.506 Q298.997,57.802 298.109,55.378 Q297.221,52.954 297.221,49.93 Q297.221,46.858 297.989,44.386 Q298.757,41.914 300.197,40.186 Q301.637,38.458 303.725,37.546 Q305.813,36.634 308.501,36.634 Q309.989,36.634 311.165,36.922 Q312.341,37.21 313.541,37.738 L313.541,26.314 L320.693,25.162 z" fill="#000000"/>
    <path d="M348.965,61.546 Q347.141,62.074 344.261,62.53 Q341.381,62.986 338.213,62.986 Q334.997,62.986 332.861,62.122 Q330.725,61.258 329.477,59.698 Q328.229,58.138 327.701,55.978 Q327.173,53.818 327.173,51.226 L327.173,37.162 L334.325,37.162 L334.325,50.362 Q334.325,53.818 335.237,55.354 Q336.149,56.89 338.645,56.89 Q339.413,56.89 340.277,56.818 Q341.141,56.746 341.813,56.65 L341.813,37.162 L348.965,37.162 z" fill="#000000"/>
  </g>
</svg>
