<?xml version="1.0" encoding="UTF-8"?>
<!DOCTYPE svg PUBLIC "-//W3C//DTD SVG 1.1//EN" "http://www.w3.org/Graphics/SVG/1.1/DTD/svg11.dtd">
<svg version="1.1" xmlns="http://www.w3.org/2000/svg" xmlns:xlink="http://www.w3.org/1999/xlink" x="0" y="0" width="353.325" height="90.819" viewBox="0, 0, 353.325, 90.819">
  <g id="Layer_1">
    <path d="M52.237,90.303 C50.452,84.106 45.766,78.908 40.645,75.141 C33.78,70.219 24.838,71.26 17.252,68.395 C11.073,63.804 16.983,58.739 21.138,55.595 C30.421,47.543 29.28,32.526 21.888,23.624 C16.95,17.243 6.507,12.96 1.358,11.144 C-6.402,3.383 22.042,-3.408 12.651,1.869 C9.475,3.229 6.221,5.77 12.086,7.302 C18.94,9.426 35.172,22.687 37.048,35.846 C38.488,42.829 36.542,50.727 33.954,57.217 C50.853,62.561 58.111,74.592 66.177,90.157 C66.144,90.13 62.353,90.388 52.237,90.303 z" fill="#FFFFFF" id="path3046"/>
    <path d="M83.943,90.802 C85.729,84.605 90.414,79.407 95.535,75.64 C102.4,70.719 111.342,71.759 118.928,68.894 C125.108,64.303 119.198,59.238 115.043,56.095 C105.76,48.042 106.9,33.026 114.292,24.123 C119.23,17.742 129.673,13.459 134.822,11.643 C142.583,3.883 114.138,-2.908 123.53,2.369 C126.705,3.729 129.96,6.269 124.094,7.801 C117.241,9.925 101.008,23.187 99.132,36.346 C97.692,43.328 99.638,51.226 102.226,57.717 C85.327,63.06 78.069,75.092 70.004,90.656 C70.036,90.63 73.827,90.888 83.943,90.802 z" fill="#FFFFFF" id="path3046-4"/>
    <text transform="matrix(1, 0, 0, 1, 245.161, 44.91)">
      <tspan x="-108.164" y="17.5" font-family="Ubuntu-Bold" font-size="48" fill="#FFFFFF">MadKudu</tspan>
    </text>
  </g>
</svg>
