<?xml version="1.0" encoding="UTF-8"?>
<!DOCTYPE svg PUBLIC "-//W3C//DTD SVG 1.1//EN" "http://www.w3.org/Graphics/SVG/1.1/DTD/svg11.dtd">
<svg version="1.1" xmlns="http://www.w3.org/2000/svg" xmlns:xlink="http://www.w3.org/1999/xlink" x="0" y="0" width="800" height="250" viewBox="0, 0, 800, 250">
  <g id="Layer_1">
    <path d="M156.381,212.493 C152.902,200.416 143.77,190.285 133.789,182.944 C120.41,173.351 102.983,175.38 88.198,169.796 C76.156,160.849 87.674,150.977 95.772,144.85 C113.863,129.157 111.64,99.89 97.233,82.541 C87.609,70.105 67.257,61.758 57.222,58.218 C42.098,43.093 97.533,29.858 79.231,40.142 C73.041,42.793 66.699,47.745 78.13,50.731 C91.488,54.87 123.123,80.715 126.779,106.361 C129.585,119.97 125.793,135.363 120.749,148.011 C153.684,158.426 167.829,181.874 183.549,212.209 C183.485,212.156 176.096,212.659 156.381,212.493 z" fill="#FFFFFF" id="path3046"/>
    <path d="M218.174,213.466 C221.654,201.388 230.785,191.258 240.766,183.916 C254.145,174.325 271.572,176.352 286.357,170.769 C298.401,161.821 286.883,151.95 278.785,145.824 C260.693,130.13 262.915,100.865 277.322,83.513 C286.945,71.077 307.298,62.73 317.333,59.191 C332.458,44.067 277.021,30.832 295.326,41.116 C301.513,43.767 307.857,48.717 296.425,51.703 C283.069,55.843 251.432,81.689 247.776,107.335 C244.969,120.942 248.762,136.335 253.806,148.986 C220.871,159.399 206.726,182.848 191.008,213.181 C191.07,213.13 198.458,213.633 218.174,213.466 z" fill="#FFFFFF" id="path3046-4"/>
    <path d="M361.86,93.162 Q363.516,96.198 365.678,100.66 Q367.84,105.122 370.186,110.32 Q372.532,115.518 374.832,120.946 Q377.132,126.374 379.156,131.158 Q381.18,126.374 383.48,120.946 Q385.78,115.518 388.126,110.32 Q390.472,105.122 392.634,100.66 Q394.796,96.198 396.452,93.162 L409.516,93.162 Q410.436,99.51 411.218,107.376 Q412,115.242 412.598,123.752 Q413.196,132.262 413.702,140.818 Q414.208,149.374 414.576,156.918 L400.592,156.918 Q400.316,147.626 399.856,136.678 Q399.396,125.73 398.476,114.598 Q396.82,118.462 394.796,123.154 Q392.772,127.846 390.794,132.538 Q388.816,137.23 386.976,141.508 Q385.136,145.786 383.848,148.822 L373.82,148.822 Q372.532,145.786 370.692,141.508 Q368.852,137.23 366.874,132.538 Q364.896,127.846 362.872,123.154 Q360.848,118.462 359.192,114.598 Q358.272,125.73 357.812,136.678 Q357.352,147.626 357.076,156.918 L343.092,156.918 Q343.46,149.374 343.966,140.818 Q344.472,132.262 345.07,123.752 Q345.668,115.242 346.45,107.376 Q347.232,99.51 348.152,93.162 z" fill="#FFFFFF"/>
    <path d="M445.028,147.35 Q447.052,147.35 448.892,147.258 Q450.732,147.166 451.836,146.982 L451.836,136.586 Q451.008,136.402 449.352,136.218 Q447.696,136.034 446.316,136.034 Q444.384,136.034 442.682,136.264 Q440.98,136.494 439.692,137.138 Q438.404,137.782 437.668,138.886 Q436.932,139.99 436.932,141.646 Q436.932,144.866 439.094,146.108 Q441.256,147.35 445.028,147.35 z M443.924,107.238 Q449.996,107.238 454.044,108.618 Q458.092,109.998 460.53,112.574 Q462.968,115.15 463.98,118.83 Q464.992,122.51 464.992,127.018 L464.992,155.538 Q462.048,156.182 456.804,157.056 Q451.56,157.93 444.108,157.93 Q439.416,157.93 435.598,157.102 Q431.78,156.274 429.02,154.388 Q426.26,152.502 424.788,149.466 Q423.316,146.43 423.316,142.014 Q423.316,137.782 425.018,134.838 Q426.72,131.894 429.572,130.146 Q432.424,128.398 436.104,127.616 Q439.784,126.834 443.74,126.834 Q446.408,126.834 448.478,127.064 Q450.548,127.294 451.836,127.662 L451.836,126.374 Q451.836,122.878 449.72,120.762 Q447.604,118.646 442.36,118.646 Q438.864,118.646 435.46,119.152 Q432.056,119.658 429.572,120.578 L427.824,109.538 Q429.02,109.17 430.814,108.756 Q432.608,108.342 434.724,108.02 Q436.84,107.698 439.186,107.468 Q441.532,107.238 443.924,107.238 z" fill="#FFFFFF"/>
    <path d="M489.096,132.354 Q489.096,138.702 491.948,142.566 Q494.8,146.43 500.412,146.43 Q502.252,146.43 503.816,146.292 Q505.38,146.154 506.392,145.97 L506.392,121.038 Q505.104,120.21 503.034,119.658 Q500.964,119.106 498.848,119.106 Q489.096,119.106 489.096,132.354 z M520.1,155.354 Q518.26,155.906 515.868,156.412 Q513.476,156.918 510.854,157.286 Q508.232,157.654 505.518,157.884 Q502.804,158.114 500.32,158.114 Q494.34,158.114 489.648,156.366 Q484.956,154.618 481.736,151.352 Q478.516,148.086 476.814,143.44 Q475.112,138.794 475.112,132.998 Q475.112,127.11 476.584,122.372 Q478.056,117.634 480.816,114.322 Q483.576,111.01 487.578,109.262 Q491.58,107.514 496.732,107.514 Q499.584,107.514 501.838,108.066 Q504.092,108.618 506.392,109.63 L506.392,87.734 L520.1,85.526 z" fill="#FFFFFF"/>
    <path d="M571.528,156.918 Q569.596,153.79 566.974,150.156 Q564.352,146.522 561.27,142.888 Q558.188,139.254 554.876,135.896 Q551.564,132.538 548.252,129.962 L548.252,156.918 L533.9,156.918 L533.9,93.162 L548.252,93.162 L548.252,117.266 Q553.864,111.378 559.522,104.984 Q565.18,98.59 570.056,93.162 L587.076,93.162 Q580.544,100.89 573.966,108.066 Q567.388,115.242 560.12,122.51 Q567.756,128.858 574.886,137.598 Q582.016,146.338 588.548,156.918 z" fill="#FFFFFF"/>
    <path d="M634.088,155.262 Q630.592,156.274 625.072,157.148 Q619.552,158.022 613.48,158.022 Q607.316,158.022 603.222,156.366 Q599.128,154.71 596.736,151.72 Q594.344,148.73 593.332,144.59 Q592.32,140.45 592.32,135.482 L592.32,108.526 L606.028,108.526 L606.028,133.826 Q606.028,140.45 607.776,143.394 Q609.524,146.338 614.308,146.338 Q615.78,146.338 617.436,146.2 Q619.092,146.062 620.38,145.878 L620.38,108.526 L634.088,108.526 z" fill="#FFFFFF"/>
    <path d="M658.652,132.354 Q658.652,138.702 661.504,142.566 Q664.356,146.43 669.968,146.43 Q671.808,146.43 673.372,146.292 Q674.936,146.154 675.948,145.97 L675.948,121.038 Q674.66,120.21 672.59,119.658 Q670.52,119.106 668.404,119.106 Q658.652,119.106 658.652,132.354 z M689.656,155.354 Q687.816,155.906 685.424,156.412 Q683.032,156.918 680.41,157.286 Q677.788,157.654 675.074,157.884 Q672.36,158.114 669.876,158.114 Q663.896,158.114 659.204,156.366 Q654.512,154.618 651.292,151.352 Q648.072,148.086 646.37,143.44 Q644.668,138.794 644.668,132.998 Q644.668,127.11 646.14,122.372 Q647.612,117.634 650.372,114.322 Q653.132,111.01 657.134,109.262 Q661.136,107.514 666.288,107.514 Q669.14,107.514 671.394,108.066 Q673.648,108.618 675.948,109.63 L675.948,87.734 L689.656,85.526 z" fill="#FFFFFF"/>
    <path d="M743.844,155.262 Q740.348,156.274 734.828,157.148 Q729.308,158.022 723.236,158.022 Q717.072,158.022 712.978,156.366 Q708.884,154.71 706.492,151.72 Q704.1,148.73 703.088,144.59 Q702.076,140.45 702.076,135.482 L702.076,108.526 L715.784,108.526 L715.784,133.826 Q715.784,140.45 717.532,143.394 Q719.28,146.338 724.064,146.338 Q725.536,146.338 727.192,146.2 Q728.848,146.062 730.136,145.878 L730.136,108.526 L743.844,108.526 z" fill="#FFFFFF"/>
  </g>
</svg>
