<?xml version="1.0" encoding="UTF-8"?>
<!DOCTYPE svg PUBLIC "-//W3C//DTD SVG 1.1//EN" "http://www.w3.org/Graphics/SVG/1.1/DTD/svg11.dtd">
<svg version="1.1" xmlns="http://www.w3.org/2000/svg" xmlns:xlink="http://www.w3.org/1999/xlink" x="0" y="0" width="400" height="400" viewBox="0, 0, 400, 400">
  <g id="Image">
    <path d="M160.045,272.608 C155.235,255.916 142.615,241.914 128.819,231.767 C110.326,218.509 86.239,221.312 65.806,213.596 C49.16,201.228 65.08,187.583 76.272,179.117 C101.278,157.425 98.206,116.975 78.293,92.995 C64.993,75.806 36.862,64.268 22.992,59.377 C2.087,38.472 78.708,20.179 53.411,34.394 C44.856,38.057 36.09,44.9 51.891,49.028 C70.351,54.749 114.077,90.472 119.13,125.918 C123.01,144.726 117.767,166.002 110.797,183.486 C156.316,197.88 175.869,230.289 197.594,272.216 C197.506,272.144 187.294,272.839 160.045,272.608 z" fill="#000000" id="path3046"/>
    <path d="M245.452,273.953 C250.262,257.261 262.883,243.259 276.678,233.112 C295.171,219.854 319.258,222.657 339.692,214.941 C356.337,202.573 340.418,188.928 329.225,180.462 C304.219,158.77 307.292,118.32 327.204,94.34 C340.505,77.151 368.635,65.614 382.506,60.722 C403.41,39.817 326.789,21.524 352.087,35.739 C360.641,39.402 369.408,46.245 353.607,50.373 C335.146,56.094 291.42,91.817 286.367,127.263 C282.488,146.071 287.731,167.347 294.701,184.831 C249.181,199.225 229.629,231.634 207.903,273.561 C207.991,273.489 218.203,274.184 245.452,273.953 z" fill="#000000" id="path3046-4"/>
    <path d="M41.68,302.06 Q43.12,304.7 45,308.58 Q46.88,312.46 48.92,316.98 Q50.96,321.5 52.96,326.22 Q54.96,330.94 56.72,335.1 Q58.48,330.94 60.48,326.22 Q62.48,321.5 64.52,316.98 Q66.56,312.46 68.44,308.58 Q70.32,304.7 71.76,302.06 L83.12,302.06 Q83.92,307.58 84.6,314.42 Q85.28,321.26 85.8,328.66 Q86.32,336.06 86.76,343.5 Q87.2,350.94 87.52,357.5 L75.36,357.5 Q75.12,349.42 74.72,339.9 Q74.32,330.38 73.52,320.7 Q72.08,324.06 70.32,328.14 Q68.56,332.22 66.84,336.3 Q65.12,340.38 63.52,344.1 Q61.92,347.82 60.8,350.46 L52.08,350.46 Q50.96,347.82 49.36,344.1 Q47.76,340.38 46.04,336.3 Q44.32,332.22 42.56,328.14 Q40.8,324.06 39.36,320.7 Q38.56,330.38 38.16,339.9 Q37.76,349.42 37.52,357.5 L25.36,357.5 Q25.68,350.94 26.12,343.5 Q26.56,336.06 27.08,328.66 Q27.6,321.26 28.28,314.42 Q28.96,307.58 29.76,302.06 z" fill="#000000"/>
    <path d="M114,349.18 Q115.76,349.18 117.36,349.1 Q118.96,349.02 119.92,348.86 L119.92,339.82 Q119.2,339.66 117.76,339.5 Q116.32,339.34 115.12,339.34 Q113.44,339.34 111.96,339.54 Q110.48,339.74 109.36,340.3 Q108.24,340.86 107.6,341.82 Q106.96,342.78 106.96,344.22 Q106.96,347.02 108.84,348.1 Q110.72,349.18 114,349.18 z M113.04,314.3 Q118.32,314.3 121.84,315.5 Q125.36,316.7 127.48,318.94 Q129.6,321.18 130.48,324.38 Q131.36,327.58 131.36,331.5 L131.36,356.3 Q128.8,356.86 124.24,357.62 Q119.68,358.38 113.2,358.38 Q109.12,358.38 105.8,357.66 Q102.48,356.94 100.08,355.3 Q97.68,353.66 96.4,351.02 Q95.12,348.38 95.12,344.54 Q95.12,340.86 96.6,338.3 Q98.08,335.74 100.56,334.22 Q103.04,332.7 106.24,332.02 Q109.44,331.34 112.88,331.34 Q115.2,331.34 117,331.54 Q118.8,331.74 119.92,332.06 L119.92,330.94 Q119.92,327.9 118.08,326.06 Q116.24,324.22 111.68,324.22 Q108.64,324.22 105.68,324.66 Q102.72,325.1 100.56,325.9 L99.04,316.3 Q100.08,315.98 101.64,315.62 Q103.2,315.26 105.04,314.98 Q106.88,314.7 108.92,314.5 Q110.96,314.3 113.04,314.3 z" fill="#000000"/>
    <path d="M152.32,336.14 Q152.32,341.66 154.8,345.02 Q157.28,348.38 162.16,348.38 Q163.76,348.38 165.12,348.26 Q166.48,348.14 167.36,347.98 L167.36,326.3 Q166.24,325.58 164.44,325.1 Q162.64,324.62 160.8,324.62 Q152.32,324.62 152.32,336.14 z M179.28,356.14 Q177.68,356.62 175.6,357.06 Q173.52,357.5 171.24,357.82 Q168.96,358.14 166.6,358.34 Q164.24,358.54 162.08,358.54 Q156.88,358.54 152.8,357.02 Q148.72,355.5 145.92,352.66 Q143.12,349.82 141.64,345.78 Q140.16,341.74 140.16,336.7 Q140.16,331.58 141.44,327.46 Q142.72,323.34 145.12,320.46 Q147.52,317.58 151,316.06 Q154.48,314.54 158.96,314.54 Q161.44,314.54 163.4,315.02 Q165.36,315.5 167.36,316.38 L167.36,297.34 L179.28,295.42 z" fill="#000000"/>
    <path d="M224,357.5 Q222.32,354.78 220.04,351.62 Q217.76,348.46 215.08,345.3 Q212.4,342.14 209.52,339.22 Q206.64,336.3 203.76,334.06 L203.76,357.5 L191.28,357.5 L191.28,302.06 L203.76,302.06 L203.76,323.02 Q208.64,317.9 213.56,312.34 Q218.48,306.78 222.72,302.06 L237.52,302.06 Q231.84,308.78 226.12,315.02 Q220.4,321.26 214.08,327.58 Q220.72,333.1 226.92,340.7 Q233.12,348.3 238.8,357.5 z" fill="#000000"/>
    <path d="M278.4,356.06 Q275.36,356.94 270.56,357.7 Q265.76,358.46 260.48,358.46 Q255.12,358.46 251.56,357.02 Q248,355.58 245.92,352.98 Q243.84,350.38 242.96,346.78 Q242.08,343.18 242.08,338.86 L242.08,315.42 L254,315.42 L254,337.42 Q254,343.18 255.52,345.74 Q257.04,348.3 261.2,348.3 Q262.48,348.3 263.92,348.18 Q265.36,348.06 266.48,347.9 L266.48,315.42 L278.4,315.42 z" fill="#000000"/>
    <path d="M299.76,336.14 Q299.76,341.66 302.24,345.02 Q304.72,348.38 309.6,348.38 Q311.2,348.38 312.56,348.26 Q313.92,348.14 314.8,347.98 L314.8,326.3 Q313.68,325.58 311.88,325.1 Q310.08,324.62 308.24,324.62 Q299.76,324.62 299.76,336.14 z M326.72,356.14 Q325.12,356.62 323.04,357.06 Q320.96,357.5 318.68,357.82 Q316.4,358.14 314.04,358.34 Q311.68,358.54 309.52,358.54 Q304.32,358.54 300.24,357.02 Q296.16,355.5 293.36,352.66 Q290.56,349.82 289.08,345.78 Q287.6,341.74 287.6,336.7 Q287.6,331.58 288.88,327.46 Q290.16,323.34 292.56,320.46 Q294.96,317.58 298.44,316.06 Q301.92,314.54 306.4,314.54 Q308.88,314.54 310.84,315.02 Q312.8,315.5 314.8,316.38 L314.8,297.34 L326.72,295.42 z" fill="#000000"/>
    <path d="M373.84,356.06 Q370.8,356.94 366,357.7 Q361.2,358.46 355.92,358.46 Q350.56,358.46 347,357.02 Q343.44,355.58 341.36,352.98 Q339.28,350.38 338.4,346.78 Q337.52,343.18 337.52,338.86 L337.52,315.42 L349.44,315.42 L349.44,337.42 Q349.44,343.18 350.96,345.74 Q352.48,348.3 356.64,348.3 Q357.92,348.3 359.36,348.18 Q360.8,348.06 361.92,347.9 L361.92,315.42 L373.84,315.42 z" fill="#000000"/>
  </g>
</svg>
