<?xml version="1.0" encoding="UTF-8" ?>
<!DOCTYPE svg PUBLIC "-//W3C//DTD SVG 1.1//EN" "http://www.w3.org/Graphics/SVG/1.1/DTD/svg11.dtd">
<svg width="1200pt" height="289pt" viewBox="0 0 1200 289" version="1.1" xmlns="http://www.w3.org/2000/svg">
<g id="#3c4655ff">
<path fill="#3c4655" opacity="1.00" d=" M 136.38 0.00 L 152.59 0.00 C 182.04 1.79 210.89 12.61 233.95 31.05 C 258.84 50.73 277.06 78.75 284.59 109.60 C 292.15 140.12 289.57 173.13 276.97 201.97 C 264.15 231.78 240.90 256.91 212.28 272.17 C 193.93 282.09 173.38 287.62 152.60 289.00 L 136.37 289.00 C 103.59 287.15 71.59 273.86 47.37 251.66 C 19.38 226.56 2.07 190.15 0.00 152.62 L 0.00 136.33 C 2.10 98.85 19.35 62.49 47.30 37.40 C 71.53 15.16 103.57 1.86 136.38 0.00 M 128.49 15.76 C 103.34 18.82 79.22 29.57 60.05 46.13 C 37.95 65.01 22.48 91.53 17.10 120.11 C 10.95 151.37 17.03 184.82 33.75 211.94 C 48.29 235.90 70.82 254.88 96.89 265.17 C 124.44 276.18 155.81 277.18 184.01 267.96 C 209.00 259.98 231.33 244.06 247.22 223.22 C 262.30 203.64 271.56 179.65 273.51 155.00 C 275.92 126.50 268.46 97.26 252.63 73.43 C 242.11 57.30 227.89 43.62 211.45 33.61 C 186.86 18.55 157.10 12.12 128.49 15.76 Z" />
<path fill="#3c4655" opacity="1.00" d=" M 109.13 77.19 C 118.91 74.42 128.97 72.57 139.11 71.86 C 151.89 71.15 164.62 73.37 176.99 76.36 C 181.90 77.78 187.06 78.88 191.44 81.62 C 193.00 82.50 192.35 84.56 192.52 86.00 C 192.46 93.21 192.53 100.42 192.49 107.62 C 178.28 97.61 162.42 90.08 145.90 84.77 C 144.61 84.20 143.33 84.19 142.05 84.76 C 126.17 90.09 111.06 97.66 97.24 107.11 C 97.25 98.81 97.27 90.50 97.24 82.19 C 100.77 79.65 105.01 78.42 109.13 77.19 Z" />
<path fill="#3c4655" opacity="1.00" d=" M 128.81 101.81 C 133.74 99.60 138.71 97.28 144.00 96.05 C 147.01 96.22 149.77 97.67 152.62 98.55 C 171.54 105.62 189.00 116.50 203.96 130.04 C 191.55 143.14 182.53 159.47 177.98 176.91 C 185.14 170.13 191.43 162.23 199.81 156.88 C 204.59 153.65 210.56 155.57 215.51 157.31 C 229.29 162.68 241.69 170.94 253.79 179.33 C 248.54 197.57 237.80 214.02 224.31 227.27 C 204.19 246.67 176.98 258.81 148.97 259.77 C 122.25 260.99 95.37 252.07 74.26 235.74 C 58.83 223.94 46.48 208.16 38.78 190.33 C 51.35 185.18 65.71 183.10 78.87 187.23 C 89.67 190.12 98.97 196.93 109.92 199.34 C 122.57 202.59 136.14 201.75 148.40 197.33 C 149.64 196.83 150.80 196.16 151.96 195.50 C 135.05 194.82 119.90 185.13 108.33 173.39 L 108.98 172.87 C 104.43 157.00 96.34 141.95 84.80 130.04 C 97.64 118.10 112.87 108.98 128.81 101.81 M 144.24 105.81 C 142.29 114.90 140.07 123.95 138.37 133.09 C 138.68 141.08 139.04 149.08 139.50 157.07 C 140.63 167.78 142.18 178.44 143.37 189.15 C 143.63 190.83 143.54 192.69 144.56 194.15 C 146.18 177.40 148.75 160.74 149.32 143.90 C 149.41 138.93 150.51 133.87 149.19 128.97 C 147.41 121.28 146.47 113.36 144.24 105.81 Z" />
<path fill="#3c4655" opacity="1.00" d=" M 389.59 100.81 C 401.90 98.94 415.54 100.56 425.72 108.23 C 428.19 110.20 431.29 112.52 431.03 116.07 C 431.00 121.23 424.00 124.39 420.16 120.89 C 412.79 113.45 401.38 111.88 391.46 113.63 C 378.04 116.12 367.26 128.29 366.31 141.89 C 365.26 153.14 370.92 164.67 380.40 170.79 C 389.57 176.99 401.70 177.31 411.95 173.82 C 415.43 172.67 418.24 170.29 420.93 167.90 C 424.80 164.80 431.07 168.19 431.03 173.00 C 431.25 176.51 428.18 178.80 425.74 180.76 C 417.33 187.24 406.34 189.17 395.96 188.90 C 385.10 188.46 374.31 184.08 366.64 176.30 C 355.94 166.18 351.22 150.42 354.08 136.04 C 357.16 118.46 371.97 103.74 389.59 100.81 Z" />
<path fill="#3c4655" opacity="1.00" d=" M 498.53 100.63 C 509.55 98.85 521.22 101.36 530.47 107.63 C 540.64 114.47 547.80 125.69 549.47 137.86 C 551.09 148.27 548.83 159.24 543.22 168.16 C 536.49 179.01 524.85 186.68 512.18 188.42 C 500.12 190.29 487.34 186.91 477.84 179.25 C 468.58 172.00 462.59 160.82 461.46 149.13 C 460.28 137.94 463.42 126.29 470.34 117.39 C 477.10 108.44 487.47 102.34 498.53 100.63 M 498.62 113.79 C 484.86 116.74 474.12 129.87 474.18 143.97 C 473.73 156.78 482.14 169.20 494.06 173.78 C 506.71 179.07 522.48 174.61 530.57 163.57 C 537.22 155.05 538.93 143.00 534.85 132.98 C 529.58 118.87 513.29 110.09 498.62 113.79 Z" />
<path fill="#3c4655" opacity="1.00" d=" M 846.41 100.64 C 856.57 98.84 867.77 99.58 876.58 105.39 C 878.93 107.04 881.90 108.82 882.04 112.05 C 881.43 117.29 873.97 118.59 870.51 115.37 C 866.79 112.15 861.89 110.42 856.98 110.46 C 851.95 110.39 846.38 111.12 842.59 114.74 C 839.28 117.82 838.91 123.16 840.91 127.05 C 842.65 130.22 845.62 132.48 848.66 134.33 C 857.63 139.57 867.95 142.37 876.25 148.78 C 881.07 152.35 884.79 157.87 884.99 164.01 C 885.58 171.42 882.32 179.00 876.49 183.63 C 869.95 188.91 861.38 191.17 853.07 191.03 C 843.67 191.43 833.94 188.51 826.87 182.19 C 824.90 180.54 824.56 177.23 826.30 175.31 C 828.87 172.78 833.43 172.41 836.25 174.75 C 843.87 181.33 855.66 182.26 864.44 177.53 C 869.43 174.77 872.67 168.76 871.23 163.08 C 869.89 158.46 865.69 155.51 861.68 153.31 C 852.79 148.44 842.80 145.54 834.72 139.27 C 829.99 135.65 826.22 130.16 826.23 124.03 C 825.89 118.66 827.34 113.01 830.97 108.94 C 834.82 104.31 840.61 101.78 846.41 100.64 Z" />
<path fill="#3c4655" opacity="1.00" d=" M 596.23 101.34 C 601.16 101.11 606.10 101.32 611.04 101.25 C 618.75 101.35 626.55 100.80 634.16 102.34 C 645.36 104.62 655.68 111.36 661.91 121.00 C 670.67 134.19 671.04 152.32 663.16 166.01 C 656.68 177.31 644.78 185.15 631.94 187.05 C 620.68 188.41 609.31 187.46 598.01 187.76 C 594.47 188.09 590.33 185.89 590.26 181.99 C 590.23 157.32 590.28 132.64 590.24 107.97 C 589.84 104.54 592.83 101.39 596.23 101.34 M 603.00 113.75 C 603.00 134.25 603.00 154.75 603.00 175.25 C 611.69 175.06 620.42 175.68 629.07 174.89 C 643.97 173.11 656.56 159.23 655.79 144.04 C 656.10 128.79 643.02 115.28 628.04 113.97 C 619.71 113.47 611.34 113.88 603.00 113.75 Z" />
<path fill="#3c4655" opacity="1.00" d=" M 709.00 107.99 C 708.58 104.07 712.30 101.02 716.03 101.27 C 735.67 101.23 755.32 101.25 774.97 101.27 C 778.45 101.00 782.43 103.12 782.53 106.98 C 783.08 110.65 779.65 114.01 776.05 113.74 C 757.95 113.77 739.85 113.73 721.75 113.75 C 721.74 121.59 721.74 129.42 721.75 137.25 C 735.82 137.29 749.89 137.19 763.95 137.29 C 767.39 137.33 770.34 140.59 769.86 144.05 C 769.78 147.54 766.32 150.01 763.00 149.74 C 749.25 149.77 735.50 149.73 721.76 149.75 C 721.74 158.25 721.74 166.75 721.76 175.25 C 739.85 175.27 757.95 175.23 776.04 175.26 C 780.48 174.83 784.03 179.96 782.03 183.96 C 781.03 186.79 777.78 187.84 775.03 187.75 C 755.36 187.74 735.68 187.77 716.00 187.73 C 712.32 187.98 708.68 184.92 709.00 181.09 C 709.00 156.72 709.00 132.35 709.00 107.99 Z" />
<path fill="#3c4655" opacity="1.00" d=" M 929.50 107.06 C 929.19 103.14 933.39 100.09 937.06 100.94 C 939.97 101.38 942.34 104.07 942.24 107.05 C 942.26 116.68 942.27 126.32 942.22 135.96 C 961.56 136.05 980.90 135.98 1000.25 136.00 C 1000.27 126.30 1000.22 116.60 1000.26 106.91 C 1000.01 102.58 1005.21 99.57 1009.00 101.29 C 1011.37 102.04 1013.10 104.44 1012.99 106.95 C 1013.00 132.00 1013.01 157.06 1012.99 182.12 C 1013.22 186.77 1007.37 189.66 1003.54 187.44 C 1001.55 186.45 1000.13 184.32 1000.26 182.07 C 1000.23 170.88 1000.27 159.70 1000.25 148.51 C 980.89 148.58 961.52 148.32 942.17 148.64 C 942.34 159.75 942.22 170.86 942.24 181.97 C 942.44 186.13 937.80 189.21 933.98 187.91 C 931.32 187.27 929.32 184.69 929.50 181.94 C 929.49 156.98 929.49 132.02 929.50 107.06 Z" />
<path fill="#3c4655" opacity="1.00" d=" M 1067.25 101.35 C 1071.16 99.42 1076.36 102.64 1076.24 107.02 C 1076.26 132.00 1076.26 156.98 1076.24 181.97 C 1076.36 186.06 1071.75 189.28 1067.92 187.89 C 1065.29 187.23 1063.31 184.72 1063.50 181.97 C 1063.50 157.02 1063.50 132.06 1063.50 107.10 C 1063.33 104.61 1064.87 102.16 1067.25 101.35 Z" />
<path fill="#3c4655" opacity="1.00" d=" M 1126.50 108.97 C 1126.04 105.15 1128.91 101.19 1132.94 101.31 C 1143.94 101.15 1154.94 101.32 1165.95 101.24 C 1172.30 101.14 1178.99 101.18 1184.77 104.23 C 1193.00 108.15 1198.65 116.45 1200.00 125.39 L 1200.00 132.67 C 1198.40 145.47 1187.02 156.30 1174.05 156.71 C 1162.57 156.77 1151.09 156.79 1139.62 156.69 C 1139.31 165.12 1139.64 173.57 1139.47 182.01 C 1139.54 184.43 1138.04 186.82 1135.73 187.62 C 1131.79 189.61 1126.49 186.48 1126.57 182.02 C 1126.40 157.67 1126.55 133.32 1126.50 108.97 M 1139.67 144.31 C 1150.77 144.18 1161.87 144.28 1172.98 144.26 C 1177.66 144.28 1182.23 141.60 1184.69 137.64 C 1188.27 132.35 1188.02 124.96 1184.24 119.84 C 1181.49 115.93 1176.76 113.60 1171.99 113.74 C 1161.21 113.72 1150.42 113.82 1139.64 113.69 C 1139.42 123.89 1139.37 134.12 1139.67 144.31 Z" />
</g>
<g id="#747582ff">
<path fill="#747582" opacity="1.00" d=" M 133.93 34.09 C 142.90 32.05 152.41 32.92 161.05 35.96 C 163.22 36.83 165.83 37.65 166.91 39.94 C 167.11 47.85 166.90 55.77 167.00 63.68 C 159.09 62.27 151.09 61.10 143.04 61.23 C 135.87 61.33 128.78 62.46 121.73 63.65 C 121.83 55.44 121.64 47.23 121.84 39.02 C 125.26 36.18 129.67 35.04 133.93 34.09 Z" />
<path fill="#747582" opacity="1.00" d=" M 33.92 176.31 C 42.96 168.19 53.85 161.54 66.06 159.80 C 81.22 157.50 97.17 163.07 108.33 173.39 C 119.90 185.13 135.05 194.82 151.96 195.50 C 150.80 196.16 149.64 196.83 148.40 197.33 C 136.14 201.75 122.57 202.59 109.92 199.34 C 98.97 196.93 89.67 190.12 78.87 187.23 C 65.71 183.10 51.35 185.18 38.78 190.33 C 36.88 185.76 35.15 181.11 33.92 176.31 Z" />
</g>
</svg>
