<?xml version="1.0" encoding="utf-8"?>
<!-- Generator: Adobe Illustrator 18.1.1, SVG Export Plug-In . SVG Version: 6.00 Build 0)  -->
<!DOCTYPE svg PUBLIC "-//W3C//DTD SVG 1.1//EN" "http://www.w3.org/Graphics/SVG/1.1/DTD/svg11.dtd">
<svg version="1.1" id="Layer_1" xmlns="http://www.w3.org/2000/svg" xmlns:xlink="http://www.w3.org/1999/xlink" x="0px" y="0px"
	 width="200px" height="21.5px" viewBox="0 0 200 21.5" enable-background="new 0 0 200 21.5" xml:space="preserve">
<g>
	<g>
		<rect x="14.9" y="15.4" opacity="0.5" fill-rule="evenodd" clip-rule="evenodd" fill="#FFFFFF" width="5.7" height="5.7"/>
		<rect x="7.4" y="0.5" opacity="0.5" fill-rule="evenodd" clip-rule="evenodd" fill="#FFFFFF" width="5.7" height="5.7"/>
		<rect x="0" y="7.9" opacity="0.5" fill-rule="evenodd" clip-rule="evenodd" fill="#FFFFFF" width="5.7" height="5.7"/>
		<rect x="14.9" y="0.5" fill-rule="evenodd" clip-rule="evenodd" fill="#FFFFFF" width="5.7" height="5.7"/>
		<rect x="14.9" y="7.9" fill-rule="evenodd" clip-rule="evenodd" fill="#FFFFFF" width="5.7" height="5.7"/>
		<rect x="7.4" y="7.9" fill-rule="evenodd" clip-rule="evenodd" fill="#FFFFFF" width="5.7" height="5.7"/>
		<rect x="7.4" y="15.4" fill-rule="evenodd" clip-rule="evenodd" fill="#FFFFFF" width="5.7" height="5.7"/>
		<rect x="0" y="0.5" fill-rule="evenodd" clip-rule="evenodd" fill="#FFFFFF" width="5.7" height="5.7"/>
		<rect x="0" y="15.4" fill-rule="evenodd" clip-rule="evenodd" fill="#FFFFFF" width="5.7" height="5.7"/>
	</g>
	<g>
		<path fill="#FFFFFF" d="M28.7,0.5h6.9c1,0,1.9,0.1,2.8,0.3c0.9,0.2,1.7,0.5,2.4,1c0.7,0.5,1.2,1.1,1.7,1.8
			c0.4,0.8,0.6,1.7,0.6,2.8c0,1.3-0.2,2.3-0.7,3.1c-0.4,0.8-1,1.4-1.8,1.8c-0.8,0.4-1.6,0.7-2.6,0.9c-1,0.2-2,0.2-3.1,0.2h-2.6V21
			h-3.6V0.5z M34.5,9.4c0.5,0,1.1,0,1.6-0.1c0.6,0,1.1-0.2,1.5-0.3c0.5-0.2,0.9-0.5,1.2-0.9c0.3-0.4,0.4-0.9,0.4-1.6
			c0-0.6-0.1-1.1-0.4-1.5c-0.3-0.4-0.6-0.7-1-0.9c-0.4-0.2-0.9-0.3-1.4-0.4c-0.5-0.1-1-0.1-1.5-0.1h-2.6v5.7H34.5z"/>
		<path fill="#FFFFFF" d="M46.3,0.5h3.6V21h-3.6V0.5z"/>
		<path fill="#FFFFFF" d="M54.4,0.5h4.8l9.9,15.2h0.1V0.5h3.6V21h-4.6L58.1,5.3H58V21h-3.6V0.5z"/>
		<path fill="#FFFFFF" d="M95.5,19.5c-2.5,1.3-5.3,2-8.5,2c-1.6,0-3-0.3-4.3-0.8c-1.3-0.5-2.5-1.2-3.4-2.2c-1-0.9-1.7-2.1-2.2-3.4
			c-0.5-1.3-0.8-2.8-0.8-4.4c0-1.6,0.3-3.1,0.8-4.5c0.5-1.3,1.3-2.5,2.2-3.4c1-0.9,2.1-1.7,3.4-2.2C84,0.3,85.5,0,87,0
			c1.6,0,3,0.2,4.4,0.6c1.4,0.4,2.6,1,3.7,2l-2.7,2.7C91.8,4.6,91,4.2,90,3.8c-0.9-0.3-1.9-0.5-3-0.5c-1.1,0-2,0.2-2.9,0.6
			c-0.9,0.4-1.6,0.9-2.2,1.6c-0.6,0.7-1.1,1.4-1.4,2.3c-0.3,0.9-0.5,1.8-0.5,2.9c0,1.1,0.2,2.1,0.5,3c0.3,0.9,0.8,1.7,1.4,2.4
			c0.6,0.7,1.4,1.2,2.2,1.6c0.9,0.4,1.8,0.6,2.9,0.6c0.9,0,1.8-0.1,2.6-0.3c0.8-0.2,1.5-0.4,2.2-0.8v-4.8h-4.2V9h7.8V19.5z"/>
		<path fill="#FFFFFF" d="M99.8,0.5h8c0.8,0,1.5,0.1,2.3,0.3c0.8,0.2,1.4,0.5,2,0.9c0.6,0.4,1.1,0.9,1.4,1.6
			c0.4,0.7,0.5,1.4,0.5,2.4c0,1.2-0.3,2.1-1,2.9c-0.7,0.8-1.5,1.3-2.6,1.6v0.1c0.6,0.1,1.2,0.3,1.8,0.5c0.5,0.3,1,0.6,1.4,1.1
			c0.4,0.4,0.7,0.9,0.9,1.5c0.2,0.6,0.3,1.2,0.3,1.8c0,1.1-0.2,2-0.7,2.8c-0.4,0.7-1,1.3-1.7,1.8c-0.7,0.5-1.5,0.8-2.5,1
			c-0.9,0.2-1.9,0.3-2.8,0.3h-7.4V0.5z M103.4,8.8h3.3c1.2,0,2.1-0.2,2.7-0.7c0.6-0.5,0.9-1.1,0.9-1.9c0-0.9-0.3-1.5-0.9-2
			c-0.6-0.4-1.6-0.6-3-0.6h-3V8.8z M103.4,17.8h3.3c0.5,0,1,0,1.5-0.1c0.5-0.1,1-0.2,1.5-0.4c0.4-0.2,0.8-0.5,1.1-0.9
			c0.3-0.4,0.4-0.9,0.4-1.6c0-1.1-0.4-1.8-1.1-2.3c-0.7-0.4-1.8-0.6-3.3-0.6h-3.5V17.8z"/>
		<path fill="#FFFFFF" d="M117.4,10.8c0-1.6,0.3-3.1,0.8-4.5c0.5-1.3,1.3-2.5,2.2-3.4c1-0.9,2.1-1.7,3.4-2.2
			c1.3-0.5,2.8-0.8,4.3-0.8c1.6,0,3.1,0.2,4.4,0.7c1.3,0.5,2.5,1.2,3.4,2.2c1,0.9,1.7,2.1,2.3,3.4c0.5,1.3,0.8,2.8,0.8,4.4
			c0,1.6-0.3,3-0.8,4.4c-0.5,1.3-1.3,2.4-2.3,3.4c-1,0.9-2.1,1.7-3.4,2.2c-1.3,0.5-2.8,0.8-4.4,0.8c-1.6,0-3-0.3-4.3-0.8
			c-1.3-0.5-2.5-1.2-3.4-2.2c-1-0.9-1.7-2.1-2.2-3.4C117.7,13.9,117.4,12.4,117.4,10.8z M121.2,10.6c0,1.1,0.2,2.1,0.5,3
			c0.3,0.9,0.8,1.7,1.4,2.4c0.6,0.7,1.4,1.2,2.2,1.6c0.9,0.4,1.8,0.6,2.9,0.6c1.1,0,2-0.2,2.9-0.6c0.9-0.4,1.6-0.9,2.2-1.6
			c0.6-0.7,1.1-1.5,1.4-2.4c0.3-0.9,0.5-1.9,0.5-3c0-1-0.2-2-0.5-2.9c-0.3-0.9-0.8-1.7-1.4-2.3c-0.6-0.7-1.4-1.2-2.2-1.6
			c-0.9-0.4-1.8-0.6-2.9-0.6c-1.1,0-2,0.2-2.9,0.6c-0.9,0.4-1.6,0.9-2.2,1.6c-0.6,0.7-1.1,1.4-1.4,2.3
			C121.4,8.6,121.2,9.6,121.2,10.6z"/>
		<path fill="#FFFFFF" d="M149.1,0.5h3.1l8.8,20.4h-4.2l-1.9-4.7h-8.9l-1.8,4.7h-4.1L149.1,0.5z M153.8,13.2l-3.1-8.3l-3.2,8.3
			H153.8z"/>
		<path fill="#FFFFFF" d="M163.4,0.5h7.1c1,0,1.9,0.1,2.8,0.3c0.9,0.2,1.7,0.5,2.4,0.9c0.7,0.4,1.3,1,1.7,1.8
			c0.4,0.8,0.6,1.7,0.6,2.9c0,1.5-0.4,2.7-1.2,3.7c-0.8,1-2,1.6-3.5,1.8l5.4,9h-4.4l-4.7-8.7H167V21h-3.6V0.5z M169.8,9.2
			c0.5,0,1,0,1.6-0.1c0.5,0,1-0.2,1.4-0.3c0.4-0.2,0.8-0.5,1.1-0.8c0.3-0.4,0.4-0.9,0.4-1.6c0-0.6-0.1-1.1-0.4-1.4
			c-0.3-0.4-0.6-0.6-1-0.8c-0.4-0.2-0.9-0.3-1.3-0.4c-0.5-0.1-1-0.1-1.4-0.1H167v5.5H169.8z"/>
		<path fill="#FFFFFF" d="M181.6,0.5h8.1c1.3,0,2.6,0.2,3.9,0.6c1.3,0.4,2.4,1,3.3,1.9c1,0.8,1.7,1.9,2.3,3.2
			c0.6,1.3,0.9,2.8,0.9,4.5c0,1.8-0.3,3.3-1,4.5c-0.7,1.3-1.5,2.3-2.6,3.2c-1,0.8-2.2,1.5-3.5,1.9c-1.3,0.4-2.5,0.6-3.8,0.6h-7.6
			V0.5z M187.9,17.7c1.1,0,2.2-0.1,3.2-0.4c1-0.3,1.9-0.7,2.6-1.2c0.8-0.5,1.3-1.3,1.8-2.1c0.4-0.9,0.6-1.9,0.6-3.2
			c0-1.2-0.2-2.3-0.6-3.2c-0.4-0.9-0.9-1.6-1.6-2.2c-0.7-0.5-1.5-1-2.4-1.2c-0.9-0.3-2-0.4-3.1-0.4h-3.3v13.9H187.9z"/>
	</g>
</g>
<g>
</g>
<g>
</g>
<g>
</g>
<g>
</g>
<g>
</g>
</svg>
