<?xml version="1.0" encoding="utf-8"?>
<!-- Generator: Adobe Illustrator 20.1.0, SVG Export Plug-In . SVG Version: 6.00 Build 0)  -->
<svg version="1.1" id="Layer_1" xmlns="http://www.w3.org/2000/svg" xmlns:xlink="http://www.w3.org/1999/xlink" x="0px" y="0px"
	 viewBox="0 0 359.6 77.3" style="enable-background:new 0 0 359.6 77.3;" xml:space="preserve">
<style type="text/css">
	.st0{fill:#49B881;}
	.st1{fill:#99CFAC;}
</style>
<g>
	<g>
		<path class="st0" d="M133.9,36.9l-6.5-1.4c-3.3-0.7-5.1-2.7-5.1-5.7c0-3.8,3.3-6.6,7.8-6.6c6.1,0,7.9,4.5,8.4,5.9
			c0.1,0.5,0.5,0.8,0.9,1.1c0.4,0.2,0.9,0.2,1.3,0.1l3.5-1.2c0.9-0.3,1.3-1.2,1.1-2.1c-0.9-3.1-4.2-10.4-15.2-10.4
			c-8.2,0-15.1,6.3-15.1,13.7c0,6.4,4.2,11.1,11.2,12.6l6.2,1.4c3.8,0.8,6,3.1,6,6.1c0,3.9-3.2,6.3-8.3,6.3c-6,0-9-4-9.7-7.7
			c-0.1-0.5-0.4-0.9-0.8-1.2c-0.4-0.2-0.9-0.3-1.4-0.2l-3.8,1.2c-0.8,0.3-1.3,1.1-1.2,1.9c1.2,6.1,6.2,12.7,16.9,12.7
			c9,0,15.8-5.9,15.8-13.7C145.8,43.3,141.5,38.6,133.9,36.9z"/>
		<path class="st0" d="M165.3,30.6c-7.3,0-14.9,6.1-14.9,16.4c0,4.9,1.6,9.2,4.7,12.2c2.8,2.8,6.7,4.4,10.9,4.4
			c6.3,0,11.3-3.3,13.6-8.8c0.2-0.4,0.2-0.9,0-1.4c-0.2-0.4-0.6-0.8-1-0.9l-3.1-1.1c-0.9-0.3-1.8,0.1-2.1,0.9
			c-1.3,3.1-3.8,4.7-7.4,4.7c-4.3,0-7.6-2.9-8.2-7.2c0-0.1,0-0.2,0.1-0.3c0,0,0.1-0.1,0.3-0.1h20.3c0.9,0,1.7-0.7,1.7-1.6
			c0-0.3,0-0.6,0-0.9C180.2,36.8,174.5,30.6,165.3,30.6z M172.7,42.9c0,0.1,0,0.2-0.1,0.3c0,0-0.1,0.1-0.3,0.1h-13.9
			c-0.1,0-0.2-0.1-0.3-0.1c0,0-0.1-0.1-0.1-0.3c0.6-2.9,3.1-5.8,7.2-5.8C169.4,37.1,172.1,39.3,172.7,42.9z"/>
		<path class="st0" d="M212.8,31.5h-3.7c-0.9,0-1.7,0.8-1.7,1.8c0,0.2-0.2,0.3-0.2,0.3c-0.1,0-0.2,0.1-0.3,0
			c-1.9-1.7-4.5-2.6-7.9-2.6c-8.3,0-14.3,6.4-14.3,15.1c0,8.7,6,15.1,14.3,15.1c3.1,0,5.8-1,7.8-2.8c0.1-0.1,0.3-0.1,0.3-0.1
			c0.1,0,0.2,0.1,0.2,0.3v1.3c0,6.1-2.7,8.9-8.4,8.9c-3.6,0-6.5-2.2-7.3-5.7c-0.1-0.4-0.4-0.8-0.8-1.1c-0.4-0.2-0.9-0.3-1.3-0.2
			l-3.6,0.8c-0.9,0.2-1.5,1.1-1.3,2.1c1.3,6.3,7,10.6,14.2,10.6c5.4,0,9.5-1.6,12.2-4.9c2.2-2.7,3.4-6.4,3.4-10.7V33.2
			C214.5,32.3,213.7,31.5,212.8,31.5z M199.8,54.9c-4.9,0-7.9-3.4-7.9-8.8c0-5.4,3.1-8.8,7.9-8.8c4.6,0,7.8,3.5,7.8,8.8
			C207.6,51.4,204.4,54.9,199.8,54.9z"/>
		<path class="st0" d="M256.4,30.7c-4.1,0-7.4,1.5-9.6,4.4c-0.1,0.1-0.2,0.2-0.3,0.2c-0.1,0-0.2-0.1-0.2-0.1c-1.8-2.8-5-4.5-8.7-4.5
			c-2.9,0-5.8,1-7.7,2.8c-0.2,0.1-0.3,0.1-0.4,0.1c-0.1,0-0.2-0.1-0.2-0.3c0-0.9-0.8-1.7-1.7-1.7H224c-0.9,0-1.7,0.8-1.7,1.7v27.6
			c0,1,0.8,1.7,1.7,1.7h3.7c0.9,0,1.7-0.8,1.7-1.7V44c0-4.1,2.5-6.8,6.2-6.8c4.9,0,5.6,3.8,5.6,6.1v17.6c0,1,0.8,1.7,1.7,1.7l3.7,0
			c0.9,0,1.7-0.8,1.7-1.7V43.9c0-4,2.5-6.8,6.2-6.8c4.9,0,5.6,3.8,5.6,6.1v17.6c0,1,0.8,1.7,1.7,1.7h3.7c0.9,0,1.7-0.8,1.7-1.7V42.6
			C267.3,34.4,261.9,30.7,256.4,30.7z"/>
		<path class="st0" d="M288,30.6c-7.3,0-14.9,6.1-14.9,16.4c0,4.9,1.6,9.2,4.7,12.2c2.8,2.8,6.7,4.4,10.9,4.4
			c6.3,0,11.3-3.3,13.6-8.8c0.2-0.4,0.2-0.9,0-1.4c-0.2-0.4-0.6-0.8-1-0.9l-3.1-1.1c-0.9-0.3-1.8,0.1-2.1,0.9
			c-1.3,3.1-3.8,4.7-7.4,4.7c-4.3,0-7.6-2.9-8.2-7.2c0-0.1,0-0.2,0.1-0.3c0,0,0.1-0.1,0.3-0.1h20.3c0.9,0,1.7-0.7,1.7-1.6
			c0-0.3,0-0.6,0-0.9C303,36.8,297.3,30.6,288,30.6z M281.2,43.3c-0.1,0-0.2-0.1-0.3-0.1c0,0-0.1-0.1-0.1-0.3
			c0.6-2.9,3.1-5.8,7.2-5.8c4,0,6.8,2.2,7.4,5.8c0,0.1,0,0.2-0.1,0.3c0,0-0.1,0.1-0.3,0.1H281.2z"/>
		<path class="st0" d="M324.8,30.7c-3.1,0-5.8,1.1-7.9,3.1c-0.1,0.1-0.3,0.1-0.4,0.1c-0.1,0-0.2-0.1-0.2-0.3v-0.2
			c0-0.9-0.8-1.7-1.7-1.7H311c-0.9,0-1.7,0.8-1.7,1.7v27.6c0,1,0.8,1.7,1.7,1.7h3.7c0.9,0,1.7-0.8,1.7-1.7V44.7
			c0-3.6,1.6-7.5,6.2-7.5c4.1,0,6.2,2.3,6.2,6.8v16.8c0,1,0.8,1.7,1.7,1.7h3.7c0.9,0,1.7-0.8,1.7-1.7V43.1
			C336.1,35.4,331.8,30.7,324.8,30.7z"/>
		<path class="st0" d="M353.5,38.1h4.3c0.9,0,1.7-0.8,1.7-1.7v-3.2c0-0.9-0.8-1.7-1.7-1.7h-4.3c-0.2,0-0.3-0.2-0.3-0.3v-7.3
			c0-0.9-0.8-1.7-1.7-1.7h-3.2c-0.9,0-1.7,0.8-1.7,1.7v3.8c0,1.8-0.7,3.9-3.9,3.9H342c-0.9,0-1.7,0.8-1.7,1.7v3.2
			c0,0.9,0.8,1.7,1.7,1.7h3.6c0.2,0,0.4,0.2,0.4,0.3v15.3c0,5.6,3.4,9.1,9,9.1c1.5,0,2.7-0.2,3.3-0.3c0.8-0.2,1.3-0.9,1.3-1.7v-2.9
			c0-0.5-0.2-1-0.6-1.3c-0.4-0.3-0.9-0.5-1.3-0.4c-0.4,0-0.8,0.1-1.1,0.1c-2.5,0-3.5-0.9-3.5-3.4V38.5
			C353.2,38.3,353.3,38.1,353.5,38.1z"/>
	</g>
	<g>
		<path class="st1" d="M51.9,52.8H4c-2.2,0-4-1.8-4-4c0-2.2,1.8-4,4-4h47.9c2.2,0,4,1.8,4,4C55.9,51,54.1,52.8,51.9,52.8z"/>
		<path class="st0" d="M41.7,77.3c-3.9,0-7.8-0.6-11.5-1.7c-2.1-0.7-3.3-2.9-2.6-5c0.7-2.1,2.9-3.3,5-2.6c2.9,0.9,6,1.4,9.1,1.4
			c13.6,0,25.4-8.7,29.3-21.7c0.6-2.1,2.9-3.3,5-2.7c2.1,0.6,3.3,2.9,2.7,5C73.6,66.3,58.8,77.3,41.7,77.3z"/>
		<path class="st1" d="M79.3,32.5H31.4c-2.2,0-4-1.8-4-4s1.8-4,4-4h47.9c2.2,0,4,1.8,4,4S81.5,32.5,79.3,32.5z"/>
		<path class="st0" d="M8.5,32.5c-0.4,0-0.8-0.1-1.2-0.2c-2.1-0.6-3.3-2.9-2.7-5C9.7,11,24.5,0,41.7,0c3.9,0,7.8,0.6,11.5,1.7
			c2.1,0.7,3.3,2.9,2.6,5c-0.7,2.1-2.9,3.3-5,2.6c-2.9-0.9-6-1.4-9.1-1.4c-13.6,0-25.4,8.7-29.3,21.7C11.8,31.4,10.2,32.5,8.5,32.5z
			"/>
		<circle class="st1" cx="65.4" cy="13.3" r="4"/>
		<circle class="st1" cx="17.9" cy="64.1" r="4"/>
	</g>
</g>
</svg>
