<?xml version="1.0" encoding="UTF-8"?>
<!DOCTYPE svg PUBLIC "-//W3C//DTD SVG 1.1//EN" "http://www.w3.org/Graphics/SVG/1.1/DTD/svg11.dtd">
<svg version="1.1" xmlns="http://www.w3.org/2000/svg" xmlns:xlink="http://www.w3.org/1999/xlink" x="0" y="0" width="200" height="60" viewBox="0, 0, 200, 60">
  <g id="Layer_1">
    <path d="M48.08,9.408 Q48.08,7.728 46.544,6.24 Q44.336,4.128 40.448,4.128 Q37.04,4.128 32.912,5.616 Q30.752,6.384 29.168,7.728 Q26.72,9.84 26.72,11.952 Q26.72,14.784 30.32,17.04 Q31.664,17.856 35.72,19.704 Q39.776,21.552 41.648,22.704 Q44.48,24.432 45.56,26.4 Q46.64,28.368 46.64,30.048 Q46.64,32.448 45.056,34.944 Q42.272,39.408 36.896,42.624 Q30.704,46.368 21.968,46.368 Q13.568,46.368 8.624,42.096 Q4.784,38.832 4.784,33.696 Q4.784,30.432 7.16,26.496 Q9.536,22.56 12.992,20.928 Q13.712,20.64 14.072,20.736 Q14.432,20.832 13.472,21.648 Q11.408,23.28 10.16,25.248 Q7.472,29.472 7.472,34.416 Q7.472,37.68 9.296,40.128 Q12.56,44.496 20.624,45.072 Q21.536,45.168 23.336,45.168 Q25.136,45.168 28.232,44.52 Q31.328,43.872 34.208,42.384 Q40.4,39.12 42.224,33.936 Q42.8,32.4 42.8,30.96 Q42.8,27.696 39.872,25.2 Q38.288,23.952 33.416,21.864 Q28.544,19.776 26.864,18.672 Q23.168,16.176 23.168,12.768 Q23.168,9.792 26.48,6.96 Q31.232,2.928 39.92,2.928 Q44,2.928 46.568,4.152 Q49.136,5.376 49.712,7.824 Q49.808,8.304 49.808,8.784 Q49.808,10.656 48.08,12.144 Q46.88,13.104 44.864,13.68 Q44,13.92 43.904,13.488 Q43.808,12.864 45.104,12.72 Q47.408,12.432 47.936,10.416 Q48.08,9.888 48.08,9.408 z" fill="#000000"/>
    <path d="M59.36,39.84 Q59.36,41.184 60.32,41.184 Q62.576,41.184 66.704,32.736 Q67.04,32.064 67.304,32.208 Q67.568,32.352 67.568,32.592 Q67.568,32.832 67.016,33.96 Q66.464,35.088 65.912,36.12 Q65.36,37.152 64.304,38.832 Q62.096,42.192 59.6,42.192 Q57.968,42.192 57.008,40.848 Q56.576,40.224 56.576,39.144 Q56.576,38.064 57.056,36.528 Q57.536,34.992 59.696,31.536 Q60.224,30.672 60.224,30.168 Q60.224,29.664 59.408,29.664 Q58.592,29.664 56.288,31.824 Q52.832,34.992 49.568,41.328 Q49.232,42.048 47.792,42.048 Q46.496,42.144 46.16,42.336 Q55.28,23.376 59.36,15.888 Q60.272,14.208 60.968,13.536 Q61.664,12.864 62.624,12.864 Q62.864,12.864 63.632,12.984 Q64.4,13.104 64.784,13.056 Q63.344,14.544 59.624,21.288 Q55.904,28.032 52.496,34.992 Q54.752,32.16 56.552,30.576 Q58.352,28.992 60.944,27.576 Q63.536,26.16 64.736,26.16 Q65.024,26.16 65.264,26.256 Q59.36,36.624 59.36,39.84 z" fill="#000000"/>
    <path d="M75.488,25.2 Q78.992,25.2 78.992,29.616 Q78.992,31.632 77.936,33.936 Q76.592,37.056 73.904,39.6 Q74.528,40.8 76.16,40.8 Q77.456,40.8 78.608,39.504 Q80.048,38.016 80.672,36.888 Q81.296,35.76 81.584,35.232 Q81.872,34.704 82.328,33.72 Q82.784,32.736 82.88,32.52 Q82.976,32.304 83.216,32.304 Q83.696,32.256 83.696,32.64 Q83.696,32.784 83.6,32.976 L83.312,33.648 Q83.024,34.32 82.88,34.608 Q82.736,34.896 82.376,35.64 Q82.016,36.384 81.752,36.816 Q81.488,37.248 81.032,37.968 Q80.576,38.688 80.216,39.12 Q79.856,39.552 79.328,40.08 Q78.8,40.608 78.32,40.896 Q77.12,41.616 76.064,41.616 Q74.096,41.616 72.992,40.368 Q70.784,42 68.912,42 Q65.408,42 65.408,37.584 Q65.408,35.568 66.464,33.264 Q67.904,29.904 70.52,27.552 Q73.136,25.2 75.488,25.2 z M76.016,26.688 Q74.72,26.688 72.944,28.416 Q71.168,30.144 69.776,33.12 Q68.096,36.576 68.096,38.784 Q68.096,40.992 69.776,40.992 Q70.976,40.992 72.464,39.696 Q71.696,38.592 71.696,37.344 Q71.792,35.28 73.376,35.28 Q74,35.28 74.408,35.712 Q74.816,36.144 74.816,36.504 Q74.816,36.864 74.72,37.248 Q75.536,36.048 76.592,33.84 Q77.792,31.392 77.792,29.04 Q77.792,26.688 76.016,26.688 z" fill="#000000"/>
    <path d="M97.232,28.944 Q97.232,31.056 96.128,33.6 Q95.024,36.144 93.08,38.496 Q91.136,40.848 88.352,41.712 Q87.296,42 85.928,42 Q84.56,42 82.928,41.136 L78.368,52.512 Q77.648,54.048 77.024,54.528 Q76.4,55.008 75.824,55.008 Q75.248,55.008 75.128,55.008 Q75.008,55.008 74.264,54.864 Q73.52,54.72 73.136,54.768 Q74.192,53.76 78.488,45.192 Q82.784,36.624 83.36,33.648 Q82.832,34.416 82.352,34.464 Q82.064,34.464 82.352,33.912 Q82.64,33.36 83.312,31.776 Q84.176,29.712 84.176,27.96 Q84.176,26.208 83.504,25.92 Q86.384,25.44 86.864,25.464 Q87.344,25.488 87.464,25.872 Q87.584,26.256 87.584,26.736 Q87.584,29.664 86.24,33.264 L87.2,31.728 Q88.928,28.944 89.72,28.128 Q90.512,27.312 91.424,26.448 Q92.816,25.104 94.112,25.104 Q94.496,25.104 94.832,25.2 Q97.232,25.824 97.232,28.944 z M94.928,28.464 Q94.928,27.696 94.616,27.048 Q94.304,26.4 93.632,26.4 Q91.952,26.4 89.72,29.52 Q87.488,32.64 83.312,40.416 Q83.936,41.04 85.04,41.04 Q86.144,41.04 88.16,39.36 Q91.376,36.672 93.536,32.688 Q94.928,30.096 94.928,28.464 z" fill="#000000"/>
    <path d="M111.728,25.248 L111.488,26.112 Q109.04,33.744 106.976,37.248 Q103.952,42.336 100.64,42.336 Q97.952,42.336 97.952,39.744 Q97.952,37.776 99.392,33.648 Q98.912,34.416 98.648,34.152 Q98.384,33.888 98.528,33.504 L99.392,31.872 Q100.304,30 100.304,28.128 Q100.304,26.256 99.536,25.92 Q102.416,25.44 102.896,25.464 Q103.376,25.488 103.496,25.872 Q103.616,26.256 103.616,26.736 Q103.616,29.664 102.104,33.648 Q100.592,37.632 100.592,39 Q100.592,40.368 101.024,40.584 Q101.456,40.8 101.888,40.8 Q103.136,40.8 104.72,38.784 Q106.304,36.768 107.888,32.832 Q107.216,31.296 107.216,30.12 Q107.216,28.944 107.504,28.032 Q108.368,25.296 110.24,24.624 Q110.624,24.48 110.96,24.48 Q111.728,24.48 111.728,25.248 z" fill="#000000"/>
    <path d="M113.648,34.608 Q112.976,36.24 112.976,38.256 Q112.976,39.6 113.576,40.392 Q114.176,41.184 115.28,41.184 Q119.648,41.184 123.2,32.976 Q123.536,32.208 124.016,32.304 Q124.208,32.352 124.208,32.544 Q124.208,32.736 123.128,35.064 Q122.048,37.392 120.944,38.832 Q118.496,42.192 114.896,42.192 Q112.976,42.192 111.632,40.944 Q110.288,39.696 110.288,37.536 Q110.288,35.376 111.32,32.952 Q112.352,30.528 114.128,28.44 Q115.904,26.352 118.208,25.392 Q119.312,24.912 120.32,24.912 Q121.328,24.912 122.192,25.488 Q123.008,26.16 123.008,26.976 Q123.008,29.856 119.552,32.496 Q118.496,33.312 116.576,33.96 Q114.656,34.608 113.648,34.608 z M121.712,26.928 Q121.712,25.968 120.944,25.968 Q119.6,25.968 116.864,29.28 Q115.232,31.296 113.984,33.792 Q114.8,33.792 116.36,33.216 Q117.92,32.64 119.072,31.68 Q121.712,29.424 121.712,26.928 z" fill="#000000"/>
    <path d="M137.84,26.256 Q131.936,36.624 131.936,39.792 Q131.936,41.04 132.848,41.04 Q135.296,41.04 139.424,32.736 Q139.712,32.064 140,32.208 Q140.288,32.352 140.288,32.592 Q140.288,32.832 140.096,33.168 Q137.552,38.304 135.8,40.248 Q134.048,42.192 132.296,42.192 Q130.544,42.192 129.632,40.848 Q129.152,40.224 129.152,39.144 Q129.152,38.064 129.632,36.528 Q130.112,34.992 132.272,31.536 Q132.8,30.672 132.8,30.168 Q132.8,29.664 131.984,29.664 Q131.168,29.664 128.864,31.824 Q125.408,34.992 122.192,41.328 Q121.904,41.808 121.544,41.928 Q121.184,42.048 120.128,42.096 Q119.072,42.144 118.736,42.336 Q119.504,40.8 121.76,36.048 Q125.792,27.648 127.04,26.448 Q127.616,25.872 128.624,25.872 Q128.816,25.872 129.608,26.016 Q130.4,26.16 130.784,26.064 Q129.008,27.024 124.976,35.088 Q127.232,32.304 129.08,30.648 Q130.928,28.992 133.52,27.576 Q136.112,26.16 137.312,26.16 Q137.6,26.16 137.84,26.256 z" fill="#000000"/>
    <path d="M138.224,38.16 Q138.224,34.176 142.064,24.816 L139.568,24.816 Q139.328,24.816 139.256,24.552 Q139.184,24.288 139.304,24.024 Q139.424,23.76 139.664,23.76 L142.544,23.76 Q144.272,19.968 145.76,17.424 Q147.248,14.88 148.496,13.992 Q149.744,13.104 150.296,13.104 Q150.848,13.104 151.088,13.2 Q152.192,13.728 152.192,15.384 Q152.192,17.04 151.088,19.392 Q149.984,21.744 148.928,23.76 L151.232,23.76 Q151.472,23.76 151.544,24.024 Q151.616,24.288 151.496,24.552 Q151.376,24.816 151.136,24.816 L148.352,24.816 Q145.712,29.28 141.968,32.736 L140.864,37.632 Q140.72,38.256 140.72,38.856 Q140.72,39.456 141.056,40.08 Q141.392,40.704 142.112,40.704 Q142.928,40.704 143.936,40.128 Q146.24,38.4 149.024,32.88 Q149.216,32.448 149.48,32.352 Q149.744,32.256 149.792,32.472 Q149.84,32.688 149.648,33.168 Q148.064,36.48 147.152,37.872 Q144.56,42.048 141.632,42.048 Q140.144,42.048 139.184,40.944 Q138.224,39.84 138.224,38.16 z M147.872,23.76 Q151.04,18.096 151.04,15.888 Q151.04,14.928 150.704,14.928 Q150.176,14.928 149.096,16.464 Q148.016,18 145.472,23.76 z M147.248,24.816 L144.992,24.816 Q144.416,26.16 142.4,31.2 Q144.992,28.512 147.248,24.816 z" fill="#000000"/>
    <path d="M157.76,25.2 Q161.264,25.2 161.264,29.616 Q161.264,31.632 160.208,33.936 Q158.864,37.056 156.176,39.6 Q156.8,40.8 158.432,40.8 Q159.728,40.8 160.88,39.504 Q162.32,38.016 162.944,36.888 Q163.568,35.76 163.856,35.232 Q164.144,34.704 164.6,33.72 Q165.056,32.736 165.152,32.52 Q165.248,32.304 165.488,32.304 Q165.968,32.256 165.968,32.64 Q165.968,32.784 165.872,32.976 L165.584,33.648 Q165.296,34.32 165.152,34.608 Q165.008,34.896 164.648,35.64 Q164.288,36.384 164.024,36.816 Q163.76,37.248 163.304,37.968 Q162.848,38.688 162.488,39.12 Q162.128,39.552 161.6,40.08 Q161.072,40.608 160.592,40.896 Q159.392,41.616 158.336,41.616 Q156.368,41.616 155.264,40.368 Q153.056,42 151.184,42 Q147.68,42 147.68,37.584 Q147.68,35.568 148.736,33.264 Q150.176,29.904 152.792,27.552 Q155.408,25.2 157.76,25.2 z M158.288,26.688 Q156.992,26.688 155.216,28.416 Q153.44,30.144 152.048,33.12 Q150.368,36.576 150.368,38.784 Q150.368,40.992 152.048,40.992 Q153.248,40.992 154.736,39.696 Q153.968,38.592 153.968,37.344 Q154.064,35.28 155.648,35.28 Q156.272,35.28 156.68,35.712 Q157.088,36.144 157.088,36.504 Q157.088,36.864 156.992,37.248 Q157.808,36.048 158.864,33.84 Q160.064,31.392 160.064,29.04 Q160.064,26.688 158.288,26.688 z" fill="#000000"/>
    <path d="M171.584,22.752 Q171.584,24.912 168.848,26.832 Q169.808,26.88 171.416,26.88 Q173.024,26.88 175.472,26.64 Q175.568,26.784 175.568,27.408 Q175.568,28.032 174.992,29.256 Q174.416,30.48 173.96,31.368 Q173.504,32.256 173.096,33.048 Q172.688,33.84 172.184,34.992 Q171.68,36.144 171.344,37.104 Q170.144,40.752 171.728,40.752 Q173.744,40.752 177.68,32.736 Q178.016,32.112 178.232,32.256 Q178.448,32.4 178.448,32.616 Q178.448,32.832 177.824,34.104 Q177.2,35.376 176.48,36.72 Q175.76,38.064 174.224,39.84 Q172.4,42.048 170.72,42.048 Q168.848,42.048 168.128,39.792 Q167.984,39.36 167.984,38.496 Q167.984,37.632 168.536,36.192 Q169.088,34.752 170.288,32.688 Q171.488,30.624 171.632,30.264 Q171.776,29.904 171.776,29.568 Q171.776,28.08 167.936,27.984 L167.36,29.52 Q164.336,37.44 161.552,40.128 Q161.072,40.56 161.072,39.84 Q161.072,39.696 161.168,39.504 Q163.856,35.952 165.824,31.104 Q167.792,26.256 168.56,21.888 Q168.848,20.4 169.904,20.4 Q170.96,20.4 171.44,21.744 Q171.584,22.176 171.584,22.752 z" fill="#000000"/>
    <path d="M170.96,57.168 Q168.848,57.168 167.696,56.28 Q166.544,55.392 166.544,54.144 Q166.544,52.896 167.264,51.312 Q168.512,48.864 171.776,47.376 Q174.224,46.224 178.256,45.24 Q182.288,44.256 183.44,43.92 Q185.168,40.896 187.568,33.12 Q184.784,38.016 182.912,39.984 Q181.04,41.952 179.12,41.952 Q176.528,41.952 176.096,39.792 Q175.904,39.456 176,38.784 Q176.096,38.112 176.12,37.824 Q176.144,37.536 176.432,36.888 Q176.72,36.24 176.816,35.952 Q177.344,34.848 177.728,34.224 Q176.96,34.224 177.296,33.456 L178.16,31.776 Q179.792,28.656 180.848,26.496 Q181.328,25.488 182.72,25.488 L185.648,25.488 Q185.552,25.584 185.168,25.872 Q184.304,26.448 183.872,27.216 Q182.144,30.192 179.552,35.712 Q178.496,37.968 178.496,39.024 Q178.496,40.08 178.856,40.512 Q179.216,40.944 179.84,40.944 Q180.752,40.944 182.384,39.024 Q185.792,35.04 189.92,26.496 Q190.448,25.488 191.792,25.488 L194.384,25.488 Q193.136,26.352 192.416,27.672 Q191.696,28.992 190.856,31.248 Q190.016,33.504 188.744,37.248 Q187.472,40.992 186.8,42.864 Q191.312,41.52 193.712,38.112 Q194.768,36.624 196.736,32.832 Q197.072,32.16 197.336,32.304 Q197.6,32.448 197.6,32.688 Q197.6,32.928 196.808,34.536 Q196.016,36.144 195.2,37.512 Q194.384,38.88 193.088,40.32 Q191.792,41.76 190.208,42.6 Q188.624,43.44 185.984,44.4 Q182.288,51.12 178.544,54.288 Q175.04,57.168 170.96,57.168 z M168.176,52.416 Q167.648,53.472 167.648,54.36 Q167.648,55.248 168.32,55.728 Q168.992,56.208 170,56.208 Q172.784,56.208 175.952,53.352 Q179.12,50.496 181.52,47.232 L182.576,45.456 Q174.656,47.52 172.592,48.432 Q169.52,49.776 168.176,52.416 z" fill="#000000"/>
  </g>
</svg>
