<?xml version="1.0" encoding="UTF-8"?>
<!DOCTYPE svg PUBLIC "-//W3C//DTD SVG 1.1//EN" "http://www.w3.org/Graphics/SVG/1.1/DTD/svg11.dtd">
<svg version="1.1" xmlns="http://www.w3.org/2000/svg" xmlns:xlink="http://www.w3.org/1999/xlink" x="0" y="0" width="600" height="240" viewBox="0, 0, 600, 240">
  <g id="#333333ff">
    <path d="M496.39,47.56 C501.99,45.23 509.16,49.76 508.98,55.94 C509.02,90.99 509,126.04 508.99,161.09 C509.17,166.33 504.08,170.72 498.95,170.21 C494.29,169.97 490.09,165.83 490.26,161.08 C490.25,126.03 490.23,90.98 490.27,55.94 C490.21,52.19 492.87,48.73 496.39,47.56 z" fill="#333333"/>
    <path d="M465.19,68.28 C470.86,66.14 477.77,70.85 477.5,76.99 C477.5,105 477.51,133 477.49,161 C477.67,165.35 474.19,169.3 469.98,170.04 C464.49,171.35 458.49,166.71 458.76,160.98 C458.74,133.01 458.75,105.03 458.76,77.05 C458.58,73.09 461.48,69.43 465.19,68.28 z" fill="#333333"/>
    <path d="M98.1,89.42 C112.9,85.73 129.69,89.19 140.94,99.76 C137.98,104.65 135.08,109.58 132.15,114.48 C126.16,107.15 116.24,103.49 106.92,104.47 C103.04,104.96 98.41,106.82 97.53,111.08 C96.94,114.36 100.68,115.88 103.17,116.78 C113.69,120.05 125.5,120.57 134.6,127.39 C145.62,135.39 145.48,153.74 135.25,162.32 C129.4,167.4 121.57,169.52 113.98,170.09 C100.17,171.11 85.38,167.18 75.55,157.01 C78.65,152.12 81.76,147.23 84.9,142.37 C90.89,148.71 99.21,152.7 107.86,153.64 C112.35,153.99 117.31,153.75 121.08,151.01 C123.52,149.17 124.97,145.01 122.53,142.62 C119.53,139.64 115.12,139.02 111.22,137.94 C102.16,135.77 92.23,134.42 84.95,128.1 C78.17,122.35 76.91,112.07 79.99,104.09 C82.97,96.44 90.38,91.43 98.1,89.42 z" fill="#333333"/>
    <path d="M253.46,96.53 C265.01,84.6 287.39,85.52 297.09,99.31 C304.19,91.1 315.57,87.2 326.25,88.53 C332.14,89.13 338.17,91.26 342.19,95.78 C347.22,101.17 348.86,108.8 348.99,115.96 C349.01,133.39 348.99,150.82 349,168.25 C342.66,168.25 336.33,168.25 330,168.25 C330,151.5 330,134.75 330,118 C330.17,113.59 327.8,108.99 323.7,107.13 C317.05,104.3 308.61,106.49 304.4,112.43 C302.36,115.15 301.26,118.52 301.25,121.92 C301.24,137.36 301.26,152.81 301.25,168.25 C294.91,168.25 288.58,168.25 282.25,168.25 C282.24,151.48 282.26,134.71 282.25,117.95 C282.33,113.78 280.24,109.45 276.42,107.55 C270.21,104.35 261.79,105.91 257.34,111.38 C254.59,114.57 253.42,118.83 253.49,122.99 C253.51,138.08 253.5,153.17 253.49,168.25 C247.16,168.25 240.84,168.25 234.51,168.25 C234.49,142.33 234.5,116.42 234.5,90.5 C240.84,90.5 247.17,90.5 253.51,90.5 C253.5,92.51 253.49,94.52 253.46,96.53 z" fill="#333333"/>
    <path d="M396.22,93.34 C398.29,89.13 403.8,87.1 408.1,88.98 C410.88,89.97 412.64,92.5 413.93,95.02 C425.04,115.56 436.32,136.01 447.4,156.56 C449.91,161.2 447.55,167.61 442.63,169.51 C438.28,171.43 432.76,169.45 430.63,165.2 C421.9,149.32 413.3,133.37 404.56,117.49 C396.04,133.3 387.33,148.99 378.79,164.79 C377.63,167.2 375.48,169.06 372.9,169.82 C367.95,171.49 362.05,168.1 361,162.99 C360.26,160.32 361.04,157.54 362.41,155.22 C373.71,134.61 384.92,113.95 396.22,93.34 z" fill="#333333"/>
    <path d="M154.24,90.51 C160.49,90.49 166.75,90.5 173,90.5 C173.01,105.33 172.99,120.16 173,134.99 C173.14,139.83 173.7,145.11 176.89,149 C180.99,153.82 188.44,154.23 193.99,152 C199.68,149.4 201.59,142.7 201.73,136.93 C201.79,121.45 201.73,105.98 201.75,90.5 C208.08,90.5 214.42,90.5 220.76,90.5 C220.73,105 220.78,119.51 220.74,134.01 C220.49,141.73 220.15,150.03 215.66,156.64 C210.45,164.47 201.39,169.18 192.12,169.98 C180.63,171.39 167.94,167.84 160.57,158.49 C155.76,152.86 154.26,145.28 154.25,138.06 C154.24,122.21 154.26,106.36 154.24,90.51 z" fill="#333333"/>
  </g>
</svg>
