<?xml version="1.0" encoding="utf-8"?>
<!-- Generator: Adobe Illustrator 18.0.0, SVG Export Plug-In . SVG Version: 6.00 Build 0)  -->
<!DOCTYPE svg PUBLIC "-//W3C//DTD SVG 1.1//EN" "http://www.w3.org/Graphics/SVG/1.1/DTD/svg11.dtd">
<svg version="1.1" id="Layer_1" xmlns="http://www.w3.org/2000/svg" xmlns:xlink="http://www.w3.org/1999/xlink" x="0px" y="0px"
	 viewBox="0 0 168.4 167.7" enable-background="new 0 0 168.4 167.7" xml:space="preserve">
<g>
	<path fill="#0000000" d="M36.9,65.6v28c0,1.2,0,2.4,0.1,3.5c0.1,1.1,0.3,2.1,0.6,2.9c0.4,0.8,0.9,1.4,1.7,1.9
		c0.7,0.5,1.8,0.7,3.2,0.7c2.2,0,3.8-0.7,4.6-2c0.8-1.3,1.3-3.6,1.3-6.7V65.6h4.4v28c0,0.7,0,1.5-0.1,2.5c0,0.9-0.2,1.9-0.3,2.8
		c-0.2,0.9-0.5,1.9-0.9,2.8c-0.4,0.9-1,1.7-1.8,2.4c-0.8,0.7-1.7,1.3-2.9,1.7c-1.2,0.4-2.6,0.7-4.4,0.7c-2.5,0-4.4-0.4-5.8-1.2
		c-1.4-0.8-2.4-1.8-3-3c-0.6-1.2-1-2.6-1.1-4.1c-0.1-1.5-0.2-3-0.2-4.5v-28H36.9z"/>
	<path fill="#0000000" d="M56.9,65.6h4.9L67.2,80l5.6-14.4h4.5L69.4,84l8.9,21.6h-5.2L66.7,89l-6.4,16.7h-4.5l8.8-20.9L56.9,65.6z"/>
	<path fill="#0000000" d="M82.2,65.6H90c2.1,0,3.9,0.2,5.4,0.6c1.4,0.4,2.7,1.3,3.8,2.6c0.3,0.4,0.6,0.8,0.9,1.3
		c0.3,0.5,0.6,1.1,0.9,1.8c0.3,0.7,0.5,1.5,0.6,2.4c0.2,0.9,0.2,2,0.2,3.2c0,1.6-0.2,3.1-0.6,4.5c-0.4,1.4-1,2.7-1.9,3.8
		c-0.9,1.1-2,1.9-3.4,2.6c-1.4,0.6-3.1,0.9-5.2,0.9h-3.9v16.3h-4.6V65.6z M86.8,85.5h3.8c0.9,0,1.8-0.1,2.6-0.3
		c0.8-0.2,1.5-0.6,2.1-1.1c0.6-0.6,1.1-1.4,1.4-2.4c0.3-1,0.5-2.4,0.5-4c0-2-0.3-3.6-0.8-4.7c-0.5-1.1-1.2-1.9-1.9-2.4
		c-0.7-0.5-1.5-0.8-2.3-0.9c-0.8-0.1-1.4-0.1-2-0.1h-3.5V85.5z"/>
	<path fill="#0000000" d="M109.8,65.6v5.1h-4.5v-5.1H109.8z M105.5,76h4.1v29.6h-4.1V76z"/>
	<path fill="#0000000" d="M114.3,76h3.8v4.5c0.1-0.3,0.3-0.8,0.6-1.4c0.3-0.6,0.7-1.2,1.2-1.7c0.5-0.6,1.2-1.1,1.9-1.5
		c0.8-0.4,1.7-0.6,2.8-0.6c1.3,0,2.4,0.3,3.3,0.8c0.9,0.6,1.7,1.3,2.1,2.2c0.5,0.9,0.8,2.1,0.9,3.7c0.1,1.5,0.1,3.1,0.1,4.8v18.8
		H127V86.9c0-0.9,0-1.8-0.1-2.8c0-0.9-0.2-1.7-0.4-2.5c-0.2-0.7-0.6-1.3-1.1-1.8c-0.5-0.5-1.2-0.7-2.1-0.7c-1.1,0-1.9,0.3-2.6,1
		c-0.6,0.7-1.1,1.5-1.4,2.4c-0.3,1-0.5,2-0.6,3.1s-0.1,2.1-0.1,2.9v17.1h-4.1V76z"/>
</g>
</svg>
