<?xml version="1.0" encoding="UTF-8"?>
<!DOCTYPE svg PUBLIC "-//W3C//DTD SVG 1.1//EN" "http://www.w3.org/Graphics/SVG/1.1/DTD/svg11.dtd">
<svg version="1.1" xmlns="http://www.w3.org/2000/svg" xmlns:xlink="http://www.w3.org/1999/xlink" x="0" y="0" width="550" height="221" viewBox="0, 0, 550, 221">
  <g id="Layer_1">
    <path d="M86.64,29.47 C86.94,29.44 87.55,29.39 87.85,29.36 C111.44,51.92 134.78,74.77 158.55,97.13 C146.23,108.98 133.84,120.79 121.65,132.76 C122.44,142.52 122.19,152.31 122.62,162.08 C122.52,166.16 125.63,169.79 124.55,173.9 C122.68,177.19 117.16,177.06 115.48,173.63 C115.31,172.38 115.49,171.11 115.55,169.86 C117.09,167.5 118.29,164.83 118.37,161.97 C118.67,153.13 118.68,144.29 118.58,135.45 C114.26,139.7 110.03,144.05 105.45,148.01 C105.69,158.68 105.79,169.35 105.7,180.01 C105.59,183.94 106.11,187.85 106.81,191.71 C107.72,195.59 109.61,199.57 108.47,203.62 C107.72,205.5 106.18,207.43 104.04,207.69 C99.61,208.72 95.58,203.8 96.8,199.6 C97.93,195 100.42,190.76 100.63,185.93 C101.12,174.54 101.47,163.13 101.55,151.73 C96.97,156.52 92.05,160.98 87.26,165.58 C69.29,148.26 51.24,131.01 33.31,113.64 C27.58,108.13 21.65,102.82 16.17,97.07 C27.22,87.16 37.44,76.36 48.41,66.36 C61.01,53.92 73.99,41.86 86.64,29.47 M77.05,49.96 C79.85,53.48 83.43,56.34 86.57,59.56 C86.9,59.6 87.55,59.69 87.87,59.73 C91.38,56.7 94.58,53.29 97.87,50.02 C94.54,46.66 90.88,43.63 87.78,40.05 C83.64,42.64 80.58,46.63 77.05,49.96 M60.28,65.83 C64,69.06 67.41,72.61 71.03,75.95 C74.49,72.52 78.03,69.17 81.55,65.8 C78.12,62.59 74.85,58.84 71.09,56.2 C66.93,58.53 63.95,62.73 60.28,65.83 M93.14,65.88 C96.25,69.26 99.95,72.02 102.99,75.47 C103.32,75.48 103.98,75.51 104.31,75.52 C107.32,72.4 110.59,69.54 113.6,66.42 C113.61,66.11 113.63,65.48 113.64,65.16 C110.29,62.08 106.98,58.95 103.75,55.74 C100.02,58.9 96.57,62.39 93.14,65.88 M44.17,81.17 C47.23,85.07 51.24,88.15 54.7,91.7 C58.08,88.34 61.51,85.01 65.08,81.84 C62.14,77.85 57.95,75.06 54.76,71.3 C51.15,74.5 48.01,78.23 44.17,81.17 M85.83,72.53 C83.25,75.91 79.16,78.1 77.11,81.8 C80.25,85.37 84.14,88.19 87.2,91.85 C90.49,88.48 94.05,85.38 97.27,81.95 L97.41,81.1 C94.27,78.02 91.02,75.04 87.95,71.89 C87.42,72.05 86.36,72.37 85.83,72.53 M109.49,81.73 C113.13,84.9 116.44,88.42 119.94,91.74 C123.61,88.51 126.91,84.9 130.55,81.63 C127.1,78.09 123.57,74.63 119.95,71.26 C116.49,74.77 112.78,78.04 109.49,81.73 M33.54,91.59 C31.68,93.63 28.95,95.15 28.13,97.93 C31.17,100.19 33.64,103.07 36.44,105.6 C37.18,106.28 38.29,107.52 39.28,106.42 C42.67,103.52 45.7,100.23 48.9,97.13 C45.56,93.85 41.82,90.95 38.85,87.31 C36.54,87.87 35.31,90.19 33.54,91.59 M60.28,97.09 C63.71,100.69 67.48,103.95 70.99,107.47 C74.38,103.88 78.21,100.75 81.59,97.14 C77.93,93.92 74.46,90.51 71.04,87.04 C67.44,90.38 64.14,94.04 60.28,97.09 M93.12,97.07 C96.39,100.47 99.68,103.87 103.27,106.93 C103.59,106.83 104.23,106.62 104.55,106.52 C107.76,103.38 111.15,100.41 114.15,97.06 C110.66,93.93 107.49,90.47 103.97,87.38 C99.93,89.88 96.83,93.98 93.12,97.07 M126.44,96.65 C126.41,96.93 126.34,97.51 126.31,97.79 C129.8,100.87 132.83,104.51 136.67,107.19 C140.08,103.83 143.56,100.56 146.91,97.15 C143.63,93.71 139.7,90.92 136.76,87.16 C132.93,89.85 129.77,93.38 126.44,96.65 M44.04,113.05 C47.58,116.2 50.74,119.78 54.42,122.77 C58.47,120.44 61.2,116.15 65.01,113.36 C61.95,109.43 58.19,106.05 54.38,102.86 C50.96,106.29 47.44,109.6 44.04,113.05 M86.67,103.52 C83.4,106.6 79.89,109.57 77.06,113.02 C80.37,116.56 83.8,120.05 87.58,123.08 C90.8,119.51 94.53,116.45 97.84,112.98 C94.51,109.78 91.42,106.29 87.84,103.36 C87.55,103.4 86.96,103.48 86.67,103.52 M119.43,103.3 C116.12,106.59 112.64,109.7 109.41,113.06 C113.11,116.2 116.43,119.75 119.98,123.05 C123.59,119.77 126.95,116.23 130.62,113.02 C127.28,109.83 124.09,106.49 120.59,103.48 C120.3,103.44 119.72,103.35 119.43,103.3 M60.66,128.23 C63.44,132.34 67.59,135.26 70.95,138.87 C73.65,136.25 76.42,133.7 79.08,131.05 C79.86,130.21 80.92,129.45 80.97,128.19 C77.83,124.78 74.28,121.77 71.04,118.45 C67.53,121.66 64.24,125.1 60.66,128.23 M93.13,128.8 C96.45,131.19 98.61,135.27 102.51,136.73 L102.48,137.5 L103.74,137.47 L103.71,139.07 C106.15,136.4 108.76,133.88 111.45,131.45 C112.33,130.44 113.84,129.64 113.74,128.11 C110.56,125.26 107.63,122.13 104.38,119.37 C104.05,119.3 103.39,119.16 103.07,119.09 C99.69,122.25 96.37,125.49 93.13,128.8 M87.2,134.3 C83.75,137.72 79.96,140.81 76.88,144.58 C80.32,147.93 83.97,151.08 87.26,154.6 C90.8,151.13 94.51,147.81 97.87,144.15 C94.14,141.06 90.88,137.45 87.2,134.3" fill="#9B9B9B"/>
    <path d="M342.87,52.86 C347.12,48.03 354.15,47.82 360.01,48.89 C362.34,49.57 360.71,51.82 360.47,53.4 C356.21,53.16 351.13,52.39 347.82,55.76 C343.24,60.07 344.55,66.89 344.31,72.53 C349.8,72.52 355.29,72.53 360.79,72.52 C360.8,74.11 360.8,75.69 360.81,77.28 C355.34,77.27 349.88,77.28 344.41,77.27 C344.4,92.7 344.41,108.13 344.4,123.55 C342.39,123.59 340.39,123.62 338.39,123.63 C338.33,108.24 338.36,92.85 338.37,77.46 C330.34,77.08 322.29,77.76 314.27,77.25 C314.22,92.65 314.23,108.04 314.26,123.44 C312.28,123.55 310.3,123.66 308.33,123.76 C307.99,108.31 308.3,92.84 308.17,77.38 C305.27,77.19 302.38,76.91 299.51,76.48 C299.46,75.16 299.43,73.85 299.39,72.53 C302.33,72.53 305.26,72.52 308.19,72.5 C307.92,65.33 307.81,56.87 313.72,51.73 C318.32,47.62 324.8,48.38 330.48,48.71 C330.77,50.25 330.76,51.81 330.46,53.36 C326.12,53.23 321.02,52.33 317.56,55.65 C313.14,59.98 313.88,66.79 313.73,72.44 C321.95,72.61 330.16,72.49 338.38,72.5 C338.15,65.78 337.97,58.14 342.87,52.86 M365.58,47.26 C367.46,47.26 369.35,47.27 371.24,47.28 C371.29,72.7 371.15,98.12 371.3,123.54 C369.39,123.58 367.47,123.61 365.56,123.63 C365.59,98.18 365.56,72.72 365.58,47.26 M460.96,53.01 C461.54,51.22 462.96,49.77 465.01,50.33 C467.76,50.13 467.52,53.37 467.58,55.24 C465.69,56.39 463.55,56.93 461.66,55.48 C461.49,54.86 461.14,53.63 460.96,53.01 M241.84,70.8 C243.51,70.78 245.17,70.76 246.84,70.74 C246.46,75.34 244.39,79.55 243.06,83.92 C238.43,97.13 234.42,110.55 229.67,123.72 C227.58,123.67 225.24,123.86 223.86,121.94 C221.33,112.93 217.82,104.22 215.03,95.29 C213.25,90.08 211.84,84.74 209.5,79.75 C205.38,91.23 201.77,102.88 197.66,114.36 C196.51,117.32 195.87,120.54 194.1,123.23 C192.63,123.74 191.03,123.6 189.49,123.73 C183.52,106.29 177.88,88.74 171.95,71.29 C174.04,71.19 176.14,71.24 178.23,71.44 C182.71,86.03 187.88,100.43 191.98,115.13 C196.99,102.08 201.23,88.72 205.61,75.45 C206.22,73.59 206.81,71.45 208.8,70.6 C211.05,70.16 212.88,71.9 213.35,73.97 C217.66,87.79 222.76,101.35 226.9,115.22 C231.44,102.4 235.45,89.39 239.49,76.41 C240.08,74.47 240.92,72.61 241.84,70.8 M386.25,86.27 C388.49,78.57 394.99,72.1 403,70.71 C408.63,69.94 414.84,69.9 419.78,73.15 C427.06,77.79 430.1,87.1 429.06,95.4 C416.2,95.68 403.34,95.4 390.48,95.55 C390.72,102.21 391.78,109.5 396.6,114.51 C401.88,119.67 410.18,120.45 416.95,118.13 C419.71,117.33 422,115.54 424.57,114.33 C426.27,113.28 427.45,115.41 428.76,116.13 C425.03,120.98 418.94,123.14 413.08,124.01 C404.31,125.5 394.38,122.2 389.53,114.43 C384.4,106.14 383.48,95.53 386.25,86.27 M401.3,76.17 C395.24,78.8 391.37,85.21 391.1,91.71 C401.99,91.73 412.87,91.71 423.76,91.72 C423.9,87.03 422.59,82.13 419.05,78.86 C414.53,74.18 407.07,73.78 401.3,76.17 M255.13,78.94 C260.74,72.49 269.45,69.11 277.96,70.42 C285.82,70.89 291.16,78.52 291.44,85.94 C291.56,98.51 291.46,111.08 291.47,123.65 C290.51,123.65 288.59,123.63 287.63,123.63 C286.73,121.46 286.41,119.14 286.16,116.83 C282.87,118.53 280.27,121.37 276.76,122.7 C271.07,124.93 264.2,125.5 258.78,122.26 C251.46,117.92 250.78,105.73 258.03,100.97 C266.01,95.35 276.31,94.77 285.75,94.43 C285.79,88.84 286.34,82.28 282.02,77.97 C278.98,74.69 274.12,74.86 270.06,75.4 C265.81,76.24 262.6,79.34 259,81.5 C257.16,82.23 256.38,79.75 255.13,78.94 M261.47,104.5 C256.22,108.44 258.48,117.66 264.68,119.26 C272.5,121.43 280.24,117.26 285.63,111.85 C285.8,107.45 285.75,103.05 285.71,98.66 C277.48,99.21 268.37,99.4 261.47,104.5 M499.29,71.26 C507.62,69.73 517.28,72.86 521.71,80.43 C525.98,87.74 526.83,96.74 525.31,104.96 C524.37,110.46 521.98,115.99 517.53,119.54 C512,124.19 504.15,125.11 497.29,123.57 C490.49,122.18 485.01,116.76 482.66,110.36 C479.71,101.9 479.72,92.38 483.01,84.03 C485.73,77.33 491.95,71.95 499.29,71.26 M497.39,73.57 C489.17,75.66 484.13,83.87 483.2,91.91 C482.1,100.24 483,109.67 488.75,116.23 C495.37,123.51 507.69,124.19 515.48,118.43 C521.76,113.76 523.89,105.46 523.63,97.98 C523.98,89.98 521.7,80.96 514.75,76.22 C509.81,72.41 503.21,72.94 497.39,73.57 M463.38,123.61 C463.42,106.15 463.11,88.68 463.54,71.23 C464.01,71.43 464.96,71.85 465.43,72.06 C465.75,89.22 465.51,106.41 465.55,123.59 C465,123.59 463.92,123.6 463.38,123.61 M439.44,121.02 C438.96,118.24 442.44,115.33 444.96,117.01 C446.58,117.78 446.91,119.71 447.69,121.15 C446.58,122.37 445.69,123.97 444.04,124.54 C441.94,124.84 439.51,123.23 439.44,121.02" fill="#4E4E4E"/>
  </g>
</svg>
