<?xml version="1.0" encoding="UTF-8"?>
<!DOCTYPE svg PUBLIC "-//W3C//DTD SVG 1.1//EN" "http://www.w3.org/Graphics/SVG/1.1/DTD/svg11.dtd">
<svg version="1.1" xmlns="http://www.w3.org/2000/svg" xmlns:xlink="http://www.w3.org/1999/xlink" x="0" y="0" width="200" height="60" viewBox="0, 0, 200, 60">
  <g id="Layer_1">
    <text transform="matrix(1, 0, 0, 1, 90.87, 30)" id="tspan3624">
      <tspan x="-70.529" y="10.5" font-family="ArialMT" font-size="36" fill="#202020">chargify</tspan>
    </text>
    <path d="M159.273,51.206 C159.157,51.09 158.952,50.747 158.818,50.444 C158.508,49.744 157.622,46.751 157.473,45.901 C157.181,44.243 157.652,43.383 160.84,39.755 C163.905,36.267 165.924,33.152 168.074,28.594 C169.973,24.569 171.385,20.396 173.031,13.948 C173.931,10.423 174.912,7.621 175.381,7.236 C175.519,7.123 175.566,7.14 175.707,7.354 C176.713,8.889 175.294,21.409 173.178,29.669 C171.12,37.706 165.724,47.269 161.442,50.469 C160.157,51.429 159.663,51.597 159.273,51.206 z" fill="#00FF00" id="path3630"/>
    <path d="M176.28,51.951 C176.228,51.851 175.942,51.045 175.645,50.161 C175.127,48.623 175.104,48.509 175.104,47.499 C175.104,46.496 175.121,46.412 175.444,45.792 C175.897,44.921 176.185,44.506 177.572,42.725 C182.288,36.667 183.616,33.848 186.815,23.102 C187.557,20.607 187.974,19.349 187.996,19.536 C188.034,19.849 187.767,25.381 187.606,27.66 C187.113,34.594 184.965,41.446 181.792,46.208 C180.679,47.879 179.84,48.843 177.899,50.686 C176.578,51.939 176.361,52.108 176.28,51.951 z" fill="#00FF00" id="path3636"/>
  </g>
</svg>
