<?xml version="1.0" encoding="UTF-8"?>
<!DOCTYPE svg PUBLIC "-//W3C//DTD SVG 1.1//EN" "http://www.w3.org/Graphics/SVG/1.1/DTD/svg11.dtd">
<svg version="1.1" xmlns="http://www.w3.org/2000/svg" xmlns:xlink="http://www.w3.org/1999/xlink" x="0" y="0" width="500" height="120" viewBox="0, 0, 500, 120">
  <g id="Layer_1">
    <path d="M72.14,51.952 Q87.041,51.952 99.993,49.249 Q112.944,46.546 120.426,41.264 L120.426,51.952 Q120.426,56.291 113.95,60 Q107.475,63.709 96.346,65.879 Q85.218,68.048 72.14,68.048 Q59.063,68.048 47.935,65.879 Q36.806,63.709 30.331,60 Q23.855,56.291 23.855,51.952 L23.855,41.264 Q31.337,46.546 44.288,49.249 Q57.24,51.952 72.14,51.952 z M72.14,100.238 Q87.041,100.238 99.993,97.535 Q112.944,94.83 120.426,89.549 L120.426,100.238 Q120.426,104.576 113.95,108.285 Q107.475,111.994 96.346,114.164 Q85.218,116.334 72.14,116.334 Q59.063,116.334 47.935,114.164 Q36.806,111.994 30.331,108.285 Q23.855,104.576 23.855,100.238 L23.855,89.549 Q31.337,94.83 44.288,97.535 Q57.24,100.238 72.14,100.238 z M72.14,76.095 Q87.041,76.095 99.993,73.392 Q112.944,70.688 120.426,65.407 L120.426,76.095 Q120.426,80.434 113.95,84.143 Q107.475,87.853 96.346,90.021 Q85.218,92.19 72.14,92.19 Q59.063,92.19 47.935,90.021 Q36.806,87.853 30.331,84.143 Q23.855,80.434 23.855,76.095 L23.855,65.407 Q31.337,70.688 44.288,73.392 Q57.24,76.095 72.14,76.095 z M72.14,3.667 Q85.218,3.667 96.346,5.836 Q107.475,8.005 113.95,11.715 Q120.426,15.424 120.426,19.761 L120.426,27.809 Q120.426,32.147 113.95,35.856 Q107.475,39.567 96.346,41.736 Q85.218,43.904 72.14,43.904 Q59.063,43.904 47.935,41.736 Q36.806,39.567 30.331,35.856 Q23.855,32.147 23.855,27.809 L23.855,19.761 Q23.855,15.424 30.331,11.715 Q36.806,8.005 47.935,5.836 Q59.063,3.667 72.14,3.667 z" fill="#000000"/>
    <text transform="matrix(1, 0, 0, 1, 314.117, 64.791)">
      <tspan x="-169.883" y="21.791" font-family="OpenSans-Bold" font-size="72" fill="#000000">Database</tspan>
    </text>
  </g>
</svg>
