<?xml version="1.0" encoding="UTF-8"?>
<!DOCTYPE svg PUBLIC "-//W3C//DTD SVG 1.1//EN" "http://www.w3.org/Graphics/SVG/1.1/DTD/svg11.dtd">
<svg version="1.1" xmlns="http://www.w3.org/2000/svg" xmlns:xlink="http://www.w3.org/1999/xlink" x="0" y="0" width="1408.126" height="326.324" viewBox="0, 0, 1408.126, 326.324">
  <g id="Layer_1">
    <path d="M377.485,321.875 C354.385,319.412 335.349,317.266 335.183,317.104 C335.017,316.942 335.195,313.348 335.578,309.116 C336.185,302.421 336.564,301.311 338.494,300.578 C341.281,299.518 341.985,297.688 341.985,291.499 L341.985,286.581 L347.235,286.564 C353.25,286.546 359.065,283.742 362.391,279.258 C365.54,275.012 365.372,264.325 362.084,259.714 C357.479,253.258 354.433,252.627 327.703,252.603 C308.526,252.585 303.208,252.879 300.239,254.119 C293.136,257.087 289.754,262.074 289.754,269.581 C289.754,279.324 296.183,285.744 306.605,286.408 L312.985,286.814 L312.985,295.197 C312.985,302.864 312.817,303.581 311.02,303.581 C308.526,303.581 306.985,306.438 306.985,311.06 C306.985,314.58 306.903,314.658 303.735,314.123 C301.947,313.822 282.777,311.746 261.134,309.511 L221.784,305.448 L188.634,308.023 C146.916,311.265 147.985,311.261 147.985,308.152 C147.985,306.817 147.31,305.049 146.485,304.224 C145.399,303.138 144.985,300.494 144.985,294.652 L144.985,286.581 L150.328,286.581 C167.032,286.581 175.143,268.414 163.358,257.395 C158.57,252.917 156.3,252.581 130.888,252.581 C104.206,252.581 102.554,252.891 97.287,258.89 C91.447,265.541 91.862,275.176 98.254,281.342 C102.318,285.261 105.792,286.581 112.05,286.581 L116.985,286.581 L116.985,290.381 C116.985,292.471 117.394,294.608 117.895,295.131 C118.395,295.653 119.123,300.018 119.513,304.831 C120.22,313.564 120.217,313.581 117.853,313.598 C116.551,313.607 95.292,315.165 70.611,317.06 C16.126,321.242 19.725,321.923 17.867,307.081 C17.385,303.231 16.615,296.405 16.157,291.913 C15.643,286.878 14.617,282.668 13.481,280.935 C11.461,277.851 11.299,272.336 12.87,260.081 C13.589,254.471 12.402,235.31 6.891,163.581 C3.11,114.356 0.008,71.248 0,67.785 C-0.019,59.999 2.194,57.227 9.275,56.165 C14.685,55.353 15.167,54.789 16.181,48.081 C16.596,45.331 17.285,40.831 17.711,38.081 L18.485,33.081 L25.866,32.345 C29.925,31.94 33.842,31.115 34.57,30.51 C35.335,29.876 36.019,26.808 36.189,23.246 L36.485,17.081 L46.819,16.581 C58.817,16 59.985,15.191 59.985,7.461 C59.985,1.808 61.851,-0.561 65.774,0.111 C67.265,0.367 90.76,2.865 117.985,5.662 C147.66,8.711 167.958,11.216 168.665,11.915 C169.554,12.793 169.587,15.262 168.797,21.927 C167.914,29.379 167.981,31.005 169.223,32.248 C171.06,34.085 210.497,38.49 225.985,38.588 C231.76,38.625 276.193,35.622 324.725,31.915 L412.965,25.175 L415.725,27.23 C417.243,28.36 418.875,30.589 419.352,32.183 C420.969,37.588 421.532,38.065 426.959,38.62 C434.734,39.416 436.98,42.383 437,51.887 C437.008,55.843 437.399,59.685 437.867,60.424 C438.335,61.163 441.473,62.092 444.84,62.489 C453.185,63.473 455.985,66.084 455.985,72.879 C455.985,75.602 451.712,118.548 446.491,168.315 C437.368,255.254 437.035,259.246 437.989,270.13 C438.649,277.661 438.647,282.338 437.983,284.084 C437.434,285.529 436.985,289.069 436.985,291.952 C436.985,295.905 436.398,297.987 434.598,300.427 C432.808,302.854 432.032,305.586 431.492,311.371 C430.661,320.27 429.193,323.709 425.512,325.386 C422.331,326.836 427.734,327.231 377.485,321.875 z M250.95,226.647 C252.274,224.172 252.274,208.957 250.95,200.794 C248.28,184.341 240.084,171.774 225.949,162.461 L223.491,160.841 L227.827,156.136 C232.95,150.579 236.587,143.098 238.072,135.069 C241.058,118.912 231.305,100.757 215.485,93.026 C210.014,90.352 208.56,90.093 198.985,90.087 C189.257,90.081 187.992,90.314 181.784,93.255 C173.259,97.294 166.698,103.855 162.659,112.38 C159.752,118.518 159.485,119.922 159.485,129.081 C159.485,138.196 159.76,139.662 162.593,145.639 C164.302,149.246 167.565,154.158 169.845,156.554 C172.124,158.95 173.875,160.965 173.737,161.032 C173.598,161.1 171.594,162.422 169.283,163.971 C159.151,170.76 150.702,182.891 147.474,195.284 C145.984,201.005 145.351,223.765 146.592,226.999 C147.134,228.413 152.648,228.581 198.557,228.581 C248.309,228.581 249.947,228.52 250.95,226.647 z M323.785,208.381 C325.289,206.876 325.418,186.149 323.97,178.467 C321.641,166.109 311.079,150.398 301.054,144.377 C299.091,143.198 297.313,142.102 297.103,141.942 C296.893,141.781 298.999,139.158 301.782,136.112 C308.965,128.253 311.396,121.578 311.446,109.581 C311.481,100.929 311.2,99.479 308.292,93.34 C298.372,72.4 273.926,64.033 253.879,74.718 C247.073,78.345 240.668,84.593 241.509,86.783 C241.836,87.634 243.867,89.126 246.024,90.099 C248.181,91.071 252.009,93.901 254.532,96.388 C269.133,110.783 269.241,133.401 254.778,147.879 C252.142,150.517 249.988,153.442 249.993,154.379 C249.997,155.325 251.859,157.143 254.187,158.473 C268.466,166.63 277.985,182.686 277.985,198.615 C277.985,210.228 276.608,209.581 301.32,209.581 C316.526,209.581 322.927,209.239 323.785,208.381 z M832.485,258.101 C819.13,255.621 808.144,250.228 798.465,241.4 C775.939,220.854 769.636,182.448 783.969,153.081 C792.167,136.283 805.329,124.883 823.485,118.853 C830.671,116.466 833.012,116.19 846.485,116.138 C858.688,116.092 862.511,116.433 866.985,117.969 C875.947,121.046 881.36,124.157 887.475,129.746 L893.244,135.018 L889.455,138.294 L885.666,141.569 L880.493,136.677 C871.32,128.001 859.655,123.581 845.935,123.581 C817.965,123.581 795.002,141.645 787.957,169.19 C785.475,178.893 785.305,195.167 787.587,204.517 C792.939,226.449 809.252,243.739 829.528,248.97 C850.242,254.313 869.002,249.98 883.378,236.532 L889.642,230.672 L892.796,232.877 C894.531,234.089 895.958,235.541 895.968,236.103 C896.003,238.223 889.81,244.488 883.269,248.947 C869.383,258.414 851.517,261.634 832.485,258.101 z M616.905,257.626 C606.73,255.78 598.585,249.184 594.771,239.702 C592.601,234.305 592.498,232.697 592.189,199.331 L591.867,164.581 L601.926,164.581 L611.985,164.581 L611.985,191.871 C611.985,221.098 612.799,227.702 617.155,233.82 C623.243,242.369 639.17,242.64 647.734,234.34 C649.524,232.604 651.889,228.781 652.987,225.845 C654.809,220.976 654.985,218.046 654.985,192.543 L654.985,164.581 L664.985,164.581 L674.985,164.581 L674.985,210.081 L674.985,255.581 L665.485,255.581 L655.985,255.581 L655.985,249.081 C655.985,243.406 655.748,242.581 654.121,242.581 C653.081,242.581 651.056,244.314 649.541,246.501 C646.694,250.608 641.383,254.758 636.746,256.496 C632.77,257.987 622.208,258.589 616.905,257.626 z M943.985,257.462 C940.96,256.975 935.264,254.998 931.327,253.069 C909.167,242.213 900.445,213.56 912.067,189.801 C919.482,174.644 934.981,165.581 953.485,165.581 C979.099,165.581 997.308,182.304 999.538,207.879 C1001.699,232.649 985.746,253.74 961.985,257.529 C954.56,258.713 951.693,258.703 943.985,257.462 z M960.774,250.621 C972.33,248.429 982.911,240.388 987.489,230.317 C999.667,203.524 983.684,174.415 955.9,172.787 C929.715,171.253 910.777,193.514 915.94,219.757 C920.268,241.757 939.112,254.729 960.774,250.621 z M1141.706,257.161 C1136.027,255.633 1132.393,252.537 1129.875,247.081 C1128.201,243.454 1128.027,240.034 1128.007,210.402 C1127.988,182.047 1127.777,177.516 1126.413,176.152 C1125.234,174.972 1122.743,174.581 1116.413,174.581 L1107.985,174.581 L1107.985,171.081 L1107.985,167.581 L1117.378,167.581 C1125.021,167.581 1126.884,167.286 1127.378,165.999 C1127.712,165.129 1127.985,159.279 1127.985,152.999 L1127.985,141.581 L1131.985,141.581 L1135.985,141.581 L1135.985,152.999 C1135.985,159.279 1136.258,165.129 1136.592,165.999 C1137.1,167.324 1139.214,167.581 1149.592,167.581 L1161.985,167.581 L1161.985,171.081 L1161.985,174.581 L1150.185,174.581 C1142.34,174.581 1137.983,174.983 1137.185,175.781 C1136.301,176.664 1135.985,185.459 1135.985,209.133 C1135.985,240.864 1136.015,241.33 1138.248,244.683 C1139.493,246.552 1142.277,248.945 1144.434,250.002 C1147.931,251.715 1149.07,251.801 1154.918,250.799 C1162.015,249.584 1163.335,250.071 1162.82,253.716 C1162.539,255.701 1161.601,256.266 1156.985,257.234 C1149.856,258.73 1147.498,258.718 1141.706,257.161 z M1195.716,257.544 C1180.649,255.009 1171.631,243.662 1173.324,229.368 C1174.536,219.133 1181.4,211.89 1194.068,207.481 C1199.445,205.609 1203.24,205.175 1217.485,204.803 C1226.835,204.558 1235.329,203.912 1236.362,203.366 C1237.991,202.506 1238.176,201.497 1237.762,195.728 C1236.662,180.408 1227.251,172.581 1209.931,172.581 C1202.049,172.581 1192.181,175.37 1186.621,179.168 L1182.757,181.808 L1180.159,179.21 C1177.606,176.657 1177.595,176.585 1179.523,175.105 C1187.777,168.769 1201.125,165.138 1213.485,165.866 C1228.958,166.779 1237.563,171.583 1242.006,181.787 C1244.558,187.651 1244.699,189.786 1245.307,231.831 L1245.65,255.581 L1242.443,255.581 C1239.65,255.581 1239.154,255.176 1238.61,252.456 C1238.266,250.737 1237.985,248.023 1237.985,246.425 C1237.985,241.471 1235.305,241.749 1230.54,247.196 C1222.494,256.394 1210.344,260.004 1195.716,257.544 z M1213.186,250.458 C1228.305,247.253 1236.586,237.16 1237.724,220.549 C1238.461,209.81 1238.212,209.576 1226.113,209.601 C1209.401,209.635 1197.64,212.133 1189.817,217.311 C1176.351,226.222 1179.332,244.209 1195.181,249.684 C1201.367,251.82 1205.848,252.013 1213.186,250.458 z M1302.106,257.454 C1290.854,255.585 1279.004,247.96 1273.134,238.813 C1261.267,220.321 1263.393,194.603 1278.071,179.083 C1287.304,169.32 1299.578,164.903 1314.831,165.852 C1321.742,166.282 1324.407,166.98 1330.331,169.909 C1334.266,171.854 1338.755,174.772 1340.307,176.394 L1343.13,179.342 L1340.018,181.557 C1337.102,183.634 1336.768,183.671 1334.696,182.148 C1323.244,173.734 1318.787,172.149 1308.43,172.807 C1282.501,174.454 1267.053,200.893 1276.426,227.581 C1279.89,237.446 1289.937,246.726 1300.485,249.803 C1302.685,250.445 1307.635,250.99 1311.485,251.013 C1319.515,251.061 1326.931,248.201 1333.319,242.592 L1337.063,239.305 L1339.524,241.617 C1342.769,244.666 1342.641,245.557 1338.49,248.87 C1333.225,253.07 1326.17,256.283 1319.551,257.495 C1312.812,258.728 1309.737,258.721 1302.106,257.454 z M1386.521,257.114 C1380.634,255.534 1375.657,250.664 1374.064,244.925 C1373.41,242.57 1372.994,228.663 1372.99,209.031 C1372.99,185.443 1372.668,176.664 1371.785,175.781 C1371.033,175.029 1367.296,174.581 1361.785,174.581 L1352.985,174.581 L1352.985,171.081 L1352.985,167.581 L1362.378,167.581 C1370.021,167.581 1371.884,167.286 1372.378,165.999 C1372.712,165.129 1372.985,159.279 1372.985,152.999 L1372.985,141.581 L1376.985,141.581 L1380.985,141.581 L1380.985,152.999 C1380.985,159.279 1381.258,165.129 1381.592,165.999 C1382.1,167.324 1384.214,167.581 1394.592,167.581 L1406.985,167.581 L1406.985,171.081 L1406.985,174.581 L1395.185,174.581 C1387.34,174.581 1382.983,174.983 1382.185,175.781 C1381.302,176.664 1380.985,185.324 1380.986,208.531 C1380.986,236.592 1381.181,240.46 1382.736,243.51 C1386.242,250.384 1392.644,252.426 1403.806,250.231 L1408.126,249.381 L1407.806,252.729 C1407.506,255.854 1407.151,256.155 1402.485,257.233 C1395.918,258.751 1392.527,258.726 1386.521,257.114 z M489.985,187.081 L489.985,118.581 L533.485,118.581 L576.985,118.581 L576.985,128.081 L576.985,137.581 L545.556,137.581 C518.318,137.581 513.918,137.79 512.556,139.152 C511.246,140.463 510.985,143.669 510.985,158.452 C510.985,170.908 511.342,176.538 512.185,177.381 C513.065,178.261 521.34,178.581 543.185,178.581 L572.985,178.581 L572.985,188.081 L572.985,197.581 L542.592,197.581 C515.8,197.581 512.127,197.768 511.592,199.163 C511.258,200.033 510.985,213.083 510.985,228.163 L510.985,255.581 L500.485,255.581 L489.985,255.581 L489.985,187.081 z M696.985,182.581 L696.985,109.581 L706.485,109.581 L715.985,109.581 L715.985,182.581 L715.985,255.581 L706.485,255.581 L696.985,255.581 L696.985,182.581 z M737.985,182.581 L737.985,109.581 L747.985,109.581 L757.985,109.581 L757.985,182.581 L757.985,255.581 L747.985,255.581 L737.985,255.581 L737.985,182.581 z M1019.985,212.581 C1019.985,188.931 1019.975,169.243 1019.964,168.831 C1019.952,168.418 1021.512,167.942 1023.43,167.773 C1027.371,167.424 1027.758,168.175 1028.224,177.081 C1028.572,183.754 1031.263,184.338 1035.206,178.597 C1041.499,169.435 1051.871,165.062 1065.598,165.782 C1076.572,166.358 1084.025,169.952 1088.708,176.926 C1094.142,185.019 1094.328,186.419 1094.732,222.331 L1095.107,255.581 L1091.046,255.581 L1086.985,255.581 L1086.985,226.13 C1086.985,194.027 1086.434,189.258 1081.905,182.116 C1077.52,175.202 1070.45,172.176 1060.128,172.795 C1043.157,173.813 1031.75,185.301 1029.032,204.112 C1028.478,207.945 1028.016,221.093 1028.005,233.331 L1027.985,255.581 L1023.985,255.581 L1019.985,255.581 L1019.985,212.581 z" fill="#C3151B" id="path3419"/>
  </g>
</svg>
