<?xml version="1.0" encoding="UTF-8"?>
<!DOCTYPE svg PUBLIC "-//W3C//DTD SVG 1.1//EN" "http://www.w3.org/Graphics/SVG/1.1/DTD/svg11.dtd">
<svg version="1.1" xmlns="http://www.w3.org/2000/svg" xmlns:xlink="http://www.w3.org/1999/xlink" x="0" y="0" width="517" height="128" viewBox="0, 0, 517, 128">
  <g id="Layer_1">
    <path d="M262.5,46.521 C273.224,46.556 279.046,48.86 284.494,55.224 C289.646,61.244 292.96,73.031 291.575,80.413 L290.909,83.961 L247.865,83.961 L248.533,86.211 C248.901,87.448 250.659,89.956 252.441,91.785 C257.863,97.347 267.26,97.157 273.517,91.357 L276.228,88.845 L282.364,93.585 C285.739,96.193 288.689,98.471 288.921,98.647 C290.009,99.479 283.95,104.353 278.479,107.046 C271.181,110.639 261.316,111.633 253.274,109.587 C243.73,107.159 236.411,101.058 232.131,91.961 C229.991,87.412 229.54,84.992 229.522,77.961 C229.503,70.657 229.893,68.661 232.29,63.779 C235.578,57.084 240.313,52.64 247.954,49.078 C252.65,46.889 254.88,46.497 262.5,46.521 z M262.747,60.134 C256.599,59.826 250.759,62.769 248.534,68.711 L247.865,70.961 L273.217,70.961 L272.528,68.216 C271.649,64.713 270.371,63.204 266.657,61.283 C264.572,60.375 265.849,60.839 262.747,60.134 z" fill="#000000"/>
    <path d="M364,18.961 L364,108.961 L347,108.961 L347,100.754 L343.486,103.839 C341.554,105.535 338.556,107.656 336.824,108.552 C332.631,110.72 323.578,111.249 317.939,109.655 C310.032,107.42 303.556,101.631 299.823,93.461 C297.951,89.363 297.539,86.735 297.54,78.897 C297.542,70.117 297.811,68.788 300.813,62.689 C304.823,54.544 310.466,49.463 317.904,47.3 C326.69,44.746 337.419,46.624 343.25,51.736 C344.908,53.19 345,52.372 345,36.116 L345,18.961 L364,18.961 z M330.898,63.168 C321.646,63.558 317.168,68.731 316.26,77.697 C315.829,84.411 317.907,88.676 323.241,92.026 C327.38,94.625 335.781,94.262 339.73,91.313 C343.842,88.243 346.097,84.655 346.689,80.241 C347.933,70.969 342.133,63.929 332.678,63.232 L330.898,63.168 z" fill="#000000"/>
    <path d="M187.967,18.961 L188.234,45.57 L188.5,72.178 L199,60.109 L209.5,48.04 L233.392,47.961 L230.37,51.211 C219.401,63.007 209,75.089 209,76.034 C209,76.887 225.323,100.108 231.268,107.711 C232.038,108.696 229.729,108.953 220.372,108.922 L208.5,108.884 L198.5,94.351 L188.5,79.819 L188.223,94.39 L187.947,108.961 L169,108.961 L169,18.961 L187.967,18.961 z" fill="#000000"/>
    <path d="M134.898,46.174 C140.101,46.07 145.649,46.554 150.2,49.315 C152.015,50.538 154.625,53.546 156,56 C158.444,60.36 158.508,61.008 158.841,84.711 L159.182,108.961 L140.114,108.961 L139.5,67.784 L136.694,65.372 C131.878,61.233 124.879,62.572 121.415,68.296 C119.746,71.054 119.458,73.87 119.172,90.211 L118.844,108.961 L100,108.961 L100,47.961 L118,47.961 L118,52.183 C118,56.278 118.047,56.339 119.546,54.198 C121.489,51.424 128.446,47.377 132.854,46.457 L134.898,46.174 z" fill="#000000"/>
    <path d="M90,47.961 L90,108.961 L71,108.961 L71,47.961 L90,47.961 z" fill="#000000"/>
    <path d="M26,18.961 L26,90.961 L62,90.961 L62,108.961 L6,108.961 L6,18.961 L26,18.961 z" fill="#000000"/>
    <path d="M80.396,17.098 C84.725,17.182 88.05,19.45 90.364,23.001 C96.124,32.751 84.854,43.871 74.763,38.395 C67.228,34.307 67.35,22.417 74.967,18.478 C76.65,17.503 78.508,17.294 80.396,17.098 z" fill="#000000"/>
  </g>
  <g id="Layer_1_Copy">
    <path d="M447,-0.039 C507.867,-0.039 507.289,-0.089 509.805,5.433 C510.686,7.366 511,22.768 511,64.058 C511,124.819 511.05,124.25 505.528,126.766 C501.533,128.586 391.416,128.398 388.11,126.565 C383.016,123.742 383.073,124.447 383.035,64.258 C383.009,22.747 383.312,7.369 384.195,5.433 C386.711,-0.089 386.134,-0.039 447,-0.039 z M471.311,45.961 C463.867,45.961 458.78,47.824 454.25,52.208 L451,55.353 L451,47.961 L433,47.961 L433,108.961 L451.734,108.961 L452.201,90.711 C452.732,69.922 453.598,66.862 459.67,64.325 C464.205,62.43 468.568,63.371 470.76,66.718 C472.168,68.866 472.519,72.638 472.843,89.131 L473.233,108.961 L492.127,108.961 L491.813,84.211 C491.506,59.938 491.452,59.375 489,55.031 C485.55,48.918 479.782,45.961 471.311,45.961 z M421,47.961 L402,47.961 L402,108.961 L421,108.961 L421,47.961 z M411.5,16.961 C407.488,16.961 406.302,17.459 403.4,20.361 C400.498,23.263 400,24.449 400,28.461 C400,32.473 400.498,33.659 403.4,36.561 C406.302,39.463 407.488,39.961 411.5,39.961 C415.512,39.961 416.698,39.463 419.6,36.561 C422.502,33.659 423,32.473 423,28.461 C423,24.449 422.502,23.263 419.6,20.361 C416.698,17.459 415.512,16.961 411.5,16.961 z" fill="#0077B5"/>
  </g>
</svg>
