<?xml version="1.0" encoding="UTF-8"?>
<!DOCTYPE svg PUBLIC "-//W3C//DTD SVG 1.1//EN" "http://www.w3.org/Graphics/SVG/1.1/DTD/svg11.dtd">
<svg version="1.1" xmlns="http://www.w3.org/2000/svg" xmlns:xlink="http://www.w3.org/1999/xlink" x="0" y="0" width="300" height="100" viewBox="0, 0, 300, 100">
  <g id="Layer_1">
    <path d="M59.528,87.825 C58.041,82.661 54.136,78.33 49.869,75.191 C44.148,71.089 36.697,71.957 30.376,69.569 C25.227,65.744 30.152,61.523 33.614,58.903 C41.349,52.194 40.398,39.68 34.239,32.263 C30.124,26.946 21.422,23.377 17.132,21.863 C10.665,15.396 34.367,9.738 26.542,14.135 C23.895,15.268 21.184,17.385 26.071,18.662 C31.782,20.432 45.308,31.482 46.871,42.447 C48.071,48.266 46.45,54.847 44.293,60.255 C58.375,64.708 64.423,74.733 71.144,87.703 C71.116,87.681 67.957,87.896 59.528,87.825 z" fill="#000000" id="path3046"/>
    <path d="M85.948,87.407 C87.436,82.243 91.34,77.912 95.607,74.773 C101.328,70.673 108.779,71.539 115.1,69.152 C120.25,65.326 115.325,61.106 111.863,58.487 C104.127,51.776 105.077,39.264 111.237,31.845 C115.352,26.528 124.054,22.959 128.344,21.446 C134.811,14.98 111.109,9.321 118.935,13.718 C121.58,14.851 124.293,16.968 119.405,18.244 C113.694,20.014 100.168,31.065 98.604,42.03 C97.405,47.848 99.026,54.429 101.183,59.838 C87.101,64.29 81.053,74.316 74.333,87.286 C74.359,87.264 77.518,87.479 85.948,87.407 z" fill="#000000" id="path3046-4"/>
    <text transform="matrix(1, 0, 0, 1, 215.912, 50)">
      <tspan x="-72.088" y="26.5" font-family="Ubuntu-Bold" font-size="72" fill="#000000">API</tspan>
    </text>
  </g>
</svg>
