<?xml version="1.0" encoding="UTF-8"?>
<!DOCTYPE svg PUBLIC "-//W3C//DTD SVG 1.1//EN" "http://www.w3.org/Graphics/SVG/1.1/DTD/svg11.dtd">
<svg version="1.1" xmlns="http://www.w3.org/2000/svg" xmlns:xlink="http://www.w3.org/1999/xlink" x="0" y="0" width="300" height="100" viewBox="0, 0, 300, 100">
  <g id="Layer_1">
    <path d="M59.528,87.825 C58.041,82.661 54.136,78.33 49.869,75.191 C44.148,71.089 36.697,71.957 30.376,69.569 C25.227,65.744 30.152,61.523 33.614,58.903 C41.349,52.194 40.398,39.68 34.239,32.263 C30.124,26.946 21.422,23.377 17.132,21.863 C10.665,15.396 34.367,9.738 26.542,14.135 C23.895,15.268 21.184,17.385 26.071,18.662 C31.782,20.432 45.308,31.482 46.871,42.447 C48.071,48.266 46.45,54.847 44.293,60.255 C58.375,64.708 64.423,74.733 71.144,87.703 C71.116,87.681 67.957,87.896 59.528,87.825 z" fill="#000000" id="path3046"/>
    <path d="M85.948,87.407 C87.436,82.243 91.34,77.912 95.607,74.773 C101.328,70.673 108.779,71.539 115.1,69.152 C120.25,65.326 115.325,61.106 111.863,58.487 C104.127,51.776 105.077,39.264 111.237,31.845 C115.352,26.528 124.054,22.959 128.344,21.446 C134.811,14.98 111.109,9.321 118.935,13.718 C121.58,14.851 124.293,16.968 119.405,18.244 C113.694,20.014 100.168,31.065 98.604,42.03 C97.405,47.848 99.026,54.429 101.183,59.838 C87.101,64.29 81.053,74.316 74.333,87.286 C74.359,87.264 77.518,87.479 85.948,87.407 z" fill="#000000" id="path3046-4"/>
    <path d="M182.992,76.5 Q182.2,73.908 181.228,71.172 Q180.256,68.436 179.32,65.7 L159.88,65.7 Q158.944,68.436 157.972,71.172 Q157,73.908 156.208,76.5 L144.544,76.5 Q147.352,68.436 149.872,61.596 Q152.392,54.756 154.804,48.708 Q157.216,42.66 159.556,37.224 Q161.896,31.788 164.416,26.604 L175.144,26.604 Q177.592,31.788 179.968,37.224 Q182.344,42.66 184.756,48.708 Q187.168,54.756 189.688,61.596 Q192.208,68.436 195.016,76.5 z M169.528,37.908 Q169.168,38.988 168.448,40.86 Q167.728,42.732 166.792,45.18 Q165.856,47.628 164.74,50.58 Q163.624,53.532 162.472,56.772 L176.656,56.772 Q175.504,53.532 174.424,50.58 Q173.344,47.628 172.372,45.18 Q171.4,42.732 170.68,40.86 Q169.96,38.988 169.528,37.908 z" fill="#000000"/>
    <path d="M216.472,26.028 Q227.632,26.028 233.608,29.952 Q239.584,33.876 239.584,42.804 Q239.584,51.804 233.536,55.8 Q227.488,59.796 216.256,59.796 L212.728,59.796 L212.728,76.5 L201.496,76.5 L201.496,27.324 Q205.168,26.604 209.272,26.316 Q213.376,26.028 216.472,26.028 z M217.192,35.604 Q215.968,35.604 214.78,35.676 Q213.592,35.748 212.728,35.82 L212.728,50.22 L216.256,50.22 Q222.088,50.22 225.04,48.636 Q227.992,47.052 227.992,42.732 Q227.992,40.644 227.236,39.276 Q226.48,37.908 225.076,37.08 Q223.672,36.252 221.656,35.928 Q219.64,35.604 217.192,35.604 z" fill="#000000"/>
    <path d="M247.864,26.604 L259.096,26.604 L259.096,76.5 L247.864,76.5 z" fill="#000000"/>
  </g>
</svg>
