<?xml version="1.0" encoding="UTF-8"?>
<!DOCTYPE svg PUBLIC "-//W3C//DTD SVG 1.1//EN" "http://www.w3.org/Graphics/SVG/1.1/DTD/svg11.dtd">
<svg version="1.1" xmlns="http://www.w3.org/2000/svg" xmlns:xlink="http://www.w3.org/1999/xlink" x="0" y="0" width="300" height="100" viewBox="0, 0, 300, 100">
  <g id="Layer_1">
    <path d="M59.528,87.825 C58.041,82.661 54.136,78.33 49.869,75.191 C44.148,71.089 36.697,71.957 30.376,69.569 C25.227,65.744 30.152,61.523 33.614,58.903 C41.349,52.194 40.398,39.68 34.239,32.263 C30.124,26.946 21.422,23.377 17.132,21.863 C10.665,15.396 34.367,9.738 26.542,14.135 C23.895,15.268 21.184,17.385 26.071,18.662 C31.782,20.432 45.308,31.482 46.871,42.447 C48.071,48.266 46.45,54.847 44.293,60.255 C58.375,64.708 64.423,74.733 71.144,87.703 C71.116,87.681 67.957,87.896 59.528,87.825 z" fill="#000000" id="path3046"/>
    <path d="M85.948,87.407 C87.436,82.243 91.34,77.912 95.607,74.773 C101.328,70.673 108.779,71.539 115.1,69.152 C120.25,65.326 115.325,61.106 111.863,58.487 C104.127,51.776 105.077,39.264 111.237,31.845 C115.352,26.528 124.054,22.959 128.344,21.446 C134.811,14.98 111.109,9.321 118.935,13.718 C121.58,14.851 124.293,16.968 119.405,18.244 C113.694,20.014 100.168,31.065 98.604,42.03 C97.405,47.848 99.026,54.429 101.183,59.838 C87.101,64.29 81.053,74.316 74.333,87.286 C74.359,87.264 77.518,87.479 85.948,87.407 z" fill="#000000" id="path3046-4"/>
    <path d="M163.192,67.932 Q165.568,67.932 167.116,67.536 Q168.664,67.14 169.6,66.456 Q170.536,65.772 170.896,64.836 Q171.256,63.9 171.256,62.748 Q171.256,60.3 168.952,58.68 Q166.648,57.06 161.032,55.188 Q158.584,54.324 156.136,53.208 Q153.688,52.092 151.744,50.4 Q149.8,48.708 148.576,46.296 Q147.352,43.884 147.352,40.428 Q147.352,36.972 148.648,34.2 Q149.944,31.428 152.32,29.484 Q154.696,27.54 158.08,26.496 Q161.464,25.452 165.712,25.452 Q170.752,25.452 174.424,26.532 Q178.096,27.612 180.472,28.908 L177.232,37.764 Q175.144,36.684 172.588,35.856 Q170.032,35.028 166.432,35.028 Q162.4,35.028 160.636,36.144 Q158.872,37.26 158.872,39.564 Q158.872,40.932 159.52,41.868 Q160.168,42.804 161.356,43.56 Q162.544,44.316 164.092,44.928 Q165.64,45.54 167.512,46.188 Q171.4,47.628 174.28,49.032 Q177.16,50.436 179.068,52.308 Q180.976,54.18 181.912,56.7 Q182.848,59.22 182.848,62.82 Q182.848,69.804 177.952,73.656 Q173.056,77.508 163.192,77.508 Q159.88,77.508 157.216,77.112 Q154.552,76.716 152.5,76.14 Q150.448,75.564 148.972,74.916 Q147.496,74.268 146.488,73.692 L149.656,64.764 Q151.888,65.988 155.164,66.96 Q158.44,67.932 163.192,67.932 z" fill="#000000"/>
    <path d="M200.92,51.516 Q200.92,55.188 201.82,58.14 Q202.72,61.092 204.412,63.216 Q206.104,65.34 208.552,66.492 Q211,67.644 214.168,67.644 Q217.264,67.644 219.748,66.492 Q222.232,65.34 223.924,63.216 Q225.616,61.092 226.516,58.14 Q227.416,55.188 227.416,51.516 Q227.416,47.844 226.516,44.856 Q225.616,41.868 223.924,39.744 Q222.232,37.62 219.748,36.468 Q217.264,35.316 214.168,35.316 Q211,35.316 208.552,36.504 Q206.104,37.692 204.412,39.816 Q202.72,41.94 201.82,44.928 Q200.92,47.916 200.92,51.516 z M239.008,51.516 Q239.008,56.772 237.712,60.984 Q236.416,65.196 234.076,68.364 Q231.736,71.532 228.496,73.62 Q225.256,75.708 221.368,76.644 Q221.728,78.084 222.952,78.984 Q224.176,79.884 226.048,80.46 Q227.92,81.036 230.404,81.324 Q232.888,81.612 235.768,81.828 L233.464,90.036 Q227.848,89.82 223.852,88.92 Q219.856,88.02 217.084,86.436 Q214.312,84.852 212.692,82.548 Q211.072,80.244 210.208,77.22 Q205.744,76.644 201.928,74.736 Q198.112,72.828 195.304,69.588 Q192.496,66.348 190.912,61.812 Q189.328,57.276 189.328,51.516 Q189.328,45.108 191.344,40.248 Q193.36,35.388 196.78,32.076 Q200.2,28.764 204.7,27.108 Q209.2,25.452 214.168,25.452 Q219.28,25.452 223.816,27.108 Q228.352,28.764 231.736,32.076 Q235.12,35.388 237.064,40.248 Q239.008,45.108 239.008,51.516 z" fill="#000000"/>
    <path d="M281.704,66.852 L281.704,76.5 L248.368,76.5 L248.368,26.604 L259.6,26.604 L259.6,66.852 z" fill="#000000"/>
  </g>
</svg>
