<?xml version="1.0" encoding="UTF-8"?>
<!DOCTYPE svg PUBLIC "-//W3C//DTD SVG 1.1//EN" "http://www.w3.org/Graphics/SVG/1.1/DTD/svg11.dtd">
<svg version="1.1" xmlns="http://www.w3.org/2000/svg" xmlns:xlink="http://www.w3.org/1999/xlink" x="0" y="0" width="1750.079" height="386.25" viewBox="0, 0, 1750.079, 386.25">
  <g id="Layer_1">
    <path d="M27.075,383.971 C25.193,381.891 24.985,371.094 24.694,260.533 L24.375,139.375 L13.958,138.75 C5.543,138.245 3.201,137.659 1.771,135.699 C0.396,133.815 0,128.155 0,110.386 C0,89.167 0.182,87.318 2.5,85 C4.851,82.649 6.667,82.5 32.898,82.5 C65.72,82.5 71.058,83.519 77.674,91.044 C79.984,93.672 82.442,96.813 83.134,98.023 C84.273,100.012 85.003,99.737 90.765,95.15 C99.304,88.351 113.306,81.797 124.717,79.259 C136.141,76.717 161.586,77.407 173.125,80.572 C189.085,84.949 198.375,90.664 212.635,104.877 C224.297,116.502 226.637,119.58 231.737,130 C240.481,147.868 243.927,162.785 244.685,186.041 C245.378,207.312 244.129,218.377 239.16,234.991 C225.66,280.123 188.466,308.672 143.125,308.704 C125.878,308.716 106.704,302.87 93.557,293.592 C91.732,292.304 89.904,291.25 89.495,291.25 C89.085,291.25 88.75,311.694 88.75,336.681 C88.75,379.107 88.599,382.249 86.464,384.181 C84.483,385.974 80.512,386.25 56.658,386.25 C31.614,386.25 28.952,386.045 27.075,383.971 z M151.47,249.082 C158.632,245.885 167.927,237.501 171.854,230.697 C182.573,212.121 183.028,178.338 172.831,158.125 C164.234,141.085 144.71,131.31 126.696,135.028 C107.971,138.893 98.066,148.333 91.634,168.445 C87.66,180.868 87.144,202.666 90.546,214.322 C96.321,234.101 106.213,246.111 120.624,250.838 C127.942,253.238 144.237,252.311 151.47,249.082 z M363.325,383.971 C361.443,381.891 361.235,371.094 360.944,260.533 L360.625,139.375 L350.208,138.75 C341.793,138.245 339.451,137.659 338.021,135.699 C336.646,133.815 336.25,128.155 336.25,110.386 C336.25,89.167 336.432,87.318 338.75,85 C341.101,82.649 342.917,82.5 369.148,82.5 C401.97,82.5 407.308,83.519 413.923,91.044 C416.234,93.672 418.692,96.813 419.384,98.023 C420.523,100.012 421.253,99.737 427.015,95.15 C435.554,88.351 449.556,81.797 460.967,79.259 C472.391,76.717 497.836,77.407 509.375,80.572 C525.626,85.029 534.659,90.588 548.816,104.843 C560.255,116.362 562.782,119.701 567.85,130 C571.279,136.968 575.106,147.484 577.111,155.449 C579.455,164.756 580.809,168.293 581.418,166.699 C581.907,165.421 584.093,158.624 586.275,151.595 C590.305,138.613 596.787,126.34 604.891,116.346 C617.226,101.135 639.914,86.516 659.389,81.231 C674.713,77.072 702.12,76.379 716.371,79.79 C736.426,84.59 749.976,92.42 764.054,107.343 C774.477,118.393 783.671,136.346 787.498,153.125 C788.91,159.312 790.39,165.781 790.787,167.5 C791.339,169.885 792.375,167.554 795.167,157.65 C802.141,132.911 811.016,117.61 827.247,102.341 C845.21,85.442 865.911,77.5 891.993,77.5 C910.114,77.5 921.774,79.958 935,86.566 C940.844,89.486 946.063,92.068 946.597,92.303 C947.132,92.539 947.414,84.664 947.222,74.803 L946.875,56.875 L935.833,56.25 C926.793,55.738 924.47,55.185 923.02,53.199 C921.646,51.315 921.25,45.653 921.25,27.886 C921.25,6.441 921.412,4.838 923.826,2.424 C926.316,-0.066 927.484,-0.139 958.514,0.236 C993.866,0.664 994.683,0.826 1003.472,9.168 C1011.427,16.72 1011.25,13.834 1011.25,135.602 C1011.25,219.606 1011.606,246.106 1012.75,247.25 C1013.637,248.137 1017.901,248.75 1023.181,248.75 C1036.442,248.75 1036.25,248.342 1036.25,276.467 C1036.25,297.687 1036.051,299.793 1033.855,301.78 C1031.693,303.737 1028.504,303.907 1001.042,303.536 C972.564,303.15 970.299,302.95 965.507,300.386 C960.438,297.674 952.5,289.783 952.5,287.457 C952.5,285.152 949.891,286.278 943.475,291.35 C929.698,302.24 914.808,307.319 893.75,308.312 C875.978,309.15 862.426,306.312 846.491,298.416 C822.316,286.437 802.361,259.973 795.838,231.241 C793.213,219.683 791.25,208.461 791.25,205.019 L791.25,202.064 L788.368,204.771 C785.494,207.472 785.319,207.479 716.181,207.802 L646.875,208.125 L647.117,211.608 C647.793,221.364 659.784,238.088 670.682,244.474 C693.391,257.783 723.116,254.552 750.325,235.818 C759.483,229.512 762.345,228.815 765.242,232.188 C769.907,237.619 787.5,268.82 787.5,271.663 C787.5,275.558 780.923,281.199 766.112,290.008 C747.316,301.188 720.524,308.757 699.804,308.743 C666.068,308.719 637.173,297.974 615.788,277.5 C600.026,262.409 591.278,248.727 585.02,229.375 C583.464,224.562 581.741,220.134 581.192,219.534 C580.642,218.934 579.531,220.902 578.723,223.909 C571.825,249.573 563.974,264.579 549.482,279.802 C518.936,311.886 464.6,318.147 429.807,293.592 C427.982,292.304 426.154,291.25 425.745,291.25 C425.335,291.25 425,311.694 425,336.681 C425,379.107 424.849,382.249 422.714,384.181 C420.733,385.974 416.762,386.25 392.908,386.25 C367.864,386.25 365.202,386.045 363.325,383.971 z M489.139,248.295 C501.648,242.175 511.454,228.612 514.837,212.751 C516.857,203.281 516.581,182.573 514.301,172.551 C512.326,163.864 506.157,152.078 500.45,146.087 C492.1,137.32 475.542,132.427 462.996,135.02 C440.837,139.598 428.096,155.826 424.9,183.544 C421.277,214.97 433.939,242.586 455.504,250.29 C465.026,253.692 479.914,252.809 489.139,248.295 z M922.235,248.167 C941.82,237.453 950.931,214.584 947.888,183.781 C946.75,172.271 945.795,168.458 942.1,160.678 C936.983,149.902 929.504,141.82 920.592,137.434 C915.389,134.874 912.536,134.375 903.098,134.375 C892.872,134.375 891.043,134.758 883.463,138.49 C865.223,147.47 856.25,165.358 856.25,192.742 C856.25,215.137 861.431,230.456 872.732,241.471 C881.507,250.026 888.986,252.6 903.75,252.147 C914.099,251.83 916.474,251.319 922.235,248.167 z M723.738,156.562 C723.722,151.852 717.307,141.053 711.855,136.559 C706.013,131.744 699.907,130 688.89,130 C673.677,130 658.958,138.59 652.508,151.233 C647.77,160.521 645.726,160 686.875,160 L723.75,160 L723.739,156.562 z M1578.75,306.253 C1528.703,296.987 1492.204,258.641 1486.025,208.835 C1483.582,189.143 1487.407,156.853 1493.54,145.393 C1496.147,140.521 1495.394,138.75 1490.714,138.75 C1485.447,138.75 1483.357,140.733 1480.532,148.415 C1479.326,151.693 1476.517,159.156 1474.29,165 C1472.062,170.844 1467.595,182.656 1464.363,191.25 C1461.13,199.844 1452.903,221.5 1446.079,239.375 C1439.255,257.25 1431.966,276.375 1429.88,281.875 C1423.695,298.182 1422.166,301.341 1419.858,302.576 C1418.651,303.222 1403.539,303.75 1386.275,303.75 C1348.829,303.75 1351.94,305.217 1343.872,283.75 C1340.901,275.844 1337.196,266 1335.64,261.875 C1334.084,257.75 1330.27,247.625 1327.165,239.375 C1309.081,191.326 1289.819,141.913 1288.602,140.447 C1287.828,139.514 1285.054,138.75 1282.438,138.75 C1278.782,138.75 1277.079,137.984 1275.078,135.44 L1272.474,132.13 L1272.8,189.503 L1273.125,246.875 L1283.252,247.5 C1289.134,247.863 1294.244,248.844 1295.44,249.841 C1297.222,251.325 1297.5,254.794 1297.5,275.584 C1297.5,297.275 1297.278,299.814 1295.214,301.681 C1293.226,303.48 1289.177,303.75 1264.191,303.75 C1232.133,303.75 1225.64,302.68 1218.237,296.18 C1209.251,288.291 1209.447,290.059 1208.75,210.625 L1208.125,139.375 L1200.024,138.995 C1191.421,138.592 1188.038,136.774 1187.115,132.057 C1186.774,130.314 1186.531,130.826 1186.42,133.52 C1186.077,141.886 1185.043,142.5 1171.317,142.5 C1139.415,142.5 1120.368,158.463 1113.72,190.772 C1111.509,201.516 1111.25,207.856 1111.25,251.194 C1111.25,296.514 1111.104,299.745 1108.964,301.681 C1106.983,303.474 1103.012,303.75 1079.158,303.75 C1054.13,303.75 1051.451,303.544 1049.578,301.474 C1047.718,299.419 1047.488,291.463 1047.197,219.287 L1046.875,139.375 L1036.91,139.005 C1022.028,138.452 1022.5,139.368 1022.5,111.056 C1022.5,88.927 1022.656,87.344 1025.079,84.921 C1027.567,82.433 1028.74,82.357 1058.516,82.734 C1087.54,83.102 1089.682,83.289 1094.53,85.883 C1101.719,89.728 1105.966,95.268 1108.379,103.946 L1110.444,111.374 L1119.91,102.049 C1136.581,85.623 1149.667,79.768 1170.277,79.513 C1180.859,79.382 1181.609,79.55 1184.268,82.637 C1186.746,85.514 1187.353,85.699 1189.403,84.2 C1192.244,82.123 1244.171,81.763 1251.397,83.77 C1261.85,86.674 1269.322,94.822 1270.661,104.779 C1272.414,117.816 1273.553,116.828 1273.651,102.188 C1273.791,81.337 1272.568,82.188 1301.66,82.717 C1322.257,83.092 1324.858,83.389 1329.553,85.897 C1336.349,89.528 1342.891,97.311 1345.351,104.693 C1346.438,107.955 1355.02,132 1364.421,158.125 C1373.823,184.25 1382.697,209.148 1384.143,213.455 C1385.588,217.761 1387.267,221.119 1387.873,220.917 C1388.479,220.715 1390.258,216.911 1391.827,212.463 C1393.396,208.014 1401.999,183.844 1410.946,158.75 C1419.892,133.656 1427.63,111.719 1428.141,110 C1431.207,99.697 1438.42,90.393 1446.875,85.836 C1451.33,83.436 1454.215,83.096 1473.336,82.719 C1501.757,82.16 1500,80.485 1500,108.125 C1500,119.469 1500.422,128.749 1500.938,128.748 C1501.453,128.747 1503.446,126.259 1505.366,123.219 C1507.287,120.18 1514.08,112.7 1520.463,106.598 C1533.716,93.928 1545.293,87.185 1563.187,81.713 C1573.435,78.58 1576.161,78.285 1595.625,78.209 C1620.146,78.112 1626.771,79.417 1643.75,87.689 C1652.526,91.964 1656.465,94.954 1666.384,104.87 C1676.696,115.179 1679.209,118.552 1684.176,128.75 C1693.337,147.56 1695.586,158.048 1695.607,182.056 C1695.623,200.163 1695.38,202.508 1693.244,204.869 C1690.878,207.483 1690.422,207.5 1621.89,207.5 C1583.954,207.5 1552.587,207.83 1552.183,208.234 C1550.845,209.571 1555.184,221.657 1559.327,228.134 C1572.003,247.95 1598.634,257.146 1624.425,250.613 C1634.247,248.124 1650.72,239.98 1658.718,233.657 C1662.243,230.871 1666.083,228.773 1667.251,228.995 C1669.944,229.508 1692.812,267.076 1692.812,270.988 C1692.812,276.77 1680.104,286.557 1660.596,295.798 C1635.404,307.731 1606.606,311.41 1578.75,306.253 z M1629.513,158.216 C1629.89,157.235 1629.049,153.835 1627.645,150.661 C1621.119,135.909 1614.306,131.381 1597.088,130.354 C1586.406,129.717 1584.747,129.933 1578.558,132.766 C1570.201,136.592 1563.187,142.604 1558.531,149.932 C1551.797,160.531 1550.035,160 1591.914,160 C1622.736,160 1628.942,159.706 1629.513,158.216 z M280.649,301.752 C274.187,299.387 267.858,293.3 264.53,286.25 C261.946,280.776 261.858,278.727 261.25,210 L260.625,139.375 L250.66,139.005 C235.778,138.452 236.25,139.368 236.25,111.056 C236.25,89.167 236.427,87.323 238.75,85 C241.11,82.64 242.912,82.5 270.938,82.507 C288.172,82.511 302.646,83.075 305.443,83.852 C308.093,84.588 312.733,87.468 315.754,90.253 C325.077,98.846 325,98.122 325,176.852 C325,228.773 325.37,246.12 326.5,247.25 C327.387,248.137 331.651,248.75 336.931,248.75 C350.192,248.75 350,248.342 350,276.467 C350,297.303 349.772,299.819 347.714,301.681 C345.715,303.49 341.676,303.739 315.527,303.662 C292.625,303.594 284.46,303.147 280.649,301.752 z M1742.798,106.048 C1741.947,105.197 1741.212,103.628 1741.165,102.562 C1741.109,101.284 1740.62,101.581 1739.724,103.438 C1737.775,107.479 1731.68,107.311 1729.79,103.164 C1728.223,99.725 1726.25,100.093 1726.25,103.824 C1726.25,105.679 1725.379,106.25 1722.551,106.25 L1718.851,106.25 L1718.488,95.938 L1718.125,85.625 L1714.375,85.625 L1710.625,85.625 L1710.261,96.013 L1709.896,106.401 L1705.886,106.013 L1701.875,105.625 L1701.25,95.625 C1700.637,85.822 1700.557,85.617 1697.188,85.229 C1694.309,84.898 1693.75,84.238 1693.75,81.167 L1693.75,77.5 L1711.775,77.5 L1729.799,77.5 L1731.878,83.76 C1733.022,87.203 1734.396,89.748 1734.932,89.417 C1735.468,89.086 1736.62,86.269 1737.491,83.157 C1739.062,77.544 1739.118,77.5 1744.577,77.5 L1750.079,77.5 L1749.727,92.188 C1749.401,105.813 1749.193,106.901 1746.86,107.235 C1745.477,107.434 1743.649,106.899 1742.798,106.048 z M266.25,57.5 C263.917,55.167 263.75,53.333 263.75,30 C263.75,6.667 263.917,4.833 266.25,2.5 C268.575,0.175 270.417,0 292.5,0 C314.583,0 316.425,0.175 318.75,2.5 C321.083,4.833 321.25,6.667 321.25,30 C321.25,53.333 321.083,55.167 318.75,57.5 C316.425,59.825 314.583,60 292.5,60 C270.417,60 268.575,59.825 266.25,57.5 z M1213.75,57.5 C1211.417,55.167 1211.25,53.333 1211.25,30 C1211.25,6.667 1211.417,4.833 1213.75,2.5 C1216.074,0.175 1217.917,0 1240,0 C1262.083,0 1263.926,0.175 1266.25,2.5 C1268.583,4.833 1268.75,6.667 1268.75,30 C1268.75,53.333 1268.583,55.167 1266.25,57.5 C1263.926,59.825 1262.083,60 1240,60 C1217.917,60 1216.074,59.825 1213.75,57.5 z" fill="#D3D2D2" id="path4892"/>
    <path d="M27.75,383.5 C26.604,382.354 26.25,353.5 26.25,261.25 C26.25,169 25.896,140.146 24.75,139 C23.86,138.11 19.575,137.5 14.214,137.5 C0.936,137.5 1.25,138.151 1.25,110.625 C1.25,91.055 1.551,87.378 3.293,85.635 C5.094,83.834 8.912,83.638 35.481,83.983 C70.33,84.436 72.718,85.053 79.375,95.327 C81.438,98.51 83.563,101.145 84.099,101.182 C84.635,101.22 87.981,98.952 91.534,96.143 C106.521,84.297 123.61,78.75 145.118,78.75 C175.139,78.75 195.174,87.255 215.226,108.511 C234.456,128.896 243.75,156.232 243.75,192.409 C243.75,228.907 233.891,256.349 212.561,279.222 C196.231,296.734 169.742,307.411 142.475,307.473 C125.424,307.512 106.911,301.769 93.446,292.263 C91.56,290.931 89.451,290.192 88.759,290.62 C87.951,291.119 87.5,307.642 87.5,336.699 C87.5,370.266 87.111,382.389 86,383.5 C83.874,385.626 29.876,385.626 27.75,383.5 z M152.772,249.602 C160.877,245.637 171.643,234.755 175.025,227.11 C179.415,217.185 181.25,207.353 181.25,193.75 C181.25,160.248 167.042,138.662 141.746,133.733 C135.809,132.577 132.48,132.584 126.746,133.768 C103.371,138.592 90.823,154.49 87.533,183.447 C83.916,215.281 97.851,244.657 120,251.886 C128.96,254.81 144.315,253.74 152.772,249.602 z M364,383.5 C362.854,382.354 362.5,353.5 362.5,261.25 C362.5,169 362.146,140.146 361,139 C360.11,138.11 355.825,137.5 350.464,137.5 C337.186,137.5 337.5,138.151 337.5,110.625 C337.5,91.055 337.801,87.378 339.543,85.635 C341.344,83.834 345.162,83.638 371.731,83.983 C406.58,84.436 408.968,85.053 415.625,95.327 C417.688,98.51 419.813,101.145 420.349,101.182 C420.885,101.22 424.26,98.918 427.849,96.069 C443.948,83.287 461.626,78.125 486.026,79.081 C511.95,80.097 528.153,86.342 544.52,101.627 C561.703,117.674 569.932,132.065 576.266,157.145 C578.271,165.083 580.199,171.866 580.551,172.218 C581.312,172.979 581.404,172.713 585.621,157.5 C594.296,126.206 612.515,103.88 640.801,89.88 C658.826,80.959 672.258,78.337 696.25,79.058 C711.786,79.524 715.804,80.087 724.375,82.998 C738.795,87.896 750.491,95.248 761.48,106.322 C769.412,114.317 772.181,118.254 777.385,128.938 C783.555,141.607 790,163.857 790,172.49 C790,179.709 791.9,176.103 795.276,162.478 C797.147,154.928 800.468,144.449 802.657,139.191 C813.844,112.319 835.771,91.476 861.875,82.901 C870.093,80.202 874.882,79.52 888.75,79.075 C910.197,78.387 920.359,80.345 935.44,88.071 C941.526,91.189 947.011,93.427 947.628,93.046 C949.389,91.958 949.041,58.291 947.25,56.5 C946.342,55.592 941.937,55 936.089,55 C922.091,55 922.5,55.81 922.5,28.125 C922.5,8.571 922.802,4.877 924.54,3.139 C926.341,1.337 930.321,1.144 958.602,1.487 C988.985,1.855 990.893,2.018 995.865,4.676 C1002.135,8.028 1006.758,13.808 1008.62,20.625 C1009.559,24.063 1009.988,59.893 1009.993,135.313 C1010.003,262.4 1008.541,250 1023.5,250 C1028.444,250 1032.627,250.627 1033.5,251.5 C1035.874,253.874 1035.592,299.202 1033.191,301.195 C1031.861,302.299 1023.333,302.588 1001.003,302.286 C974.237,301.924 970.105,301.598 966.25,299.541 C960.556,296.504 956.447,292.71 954.224,288.438 C953.241,286.547 951.84,285 951.112,285 C950.384,285 946.602,287.47 942.707,290.49 C928.291,301.664 915.292,306.065 893.75,307.063 C880.196,307.691 876.717,307.423 867.5,305.043 C834.357,296.483 810.892,273.96 799.484,239.759 C796.809,231.741 795.378,224.611 791.753,201.25 L790.881,195.625 L789.648,199.375 C787.258,206.641 791.397,206.25 716.875,206.25 C639.659,206.25 643.447,205.8 646.306,214.639 C650.271,226.894 660.353,239.671 670.965,245.89 C693.164,258.9 724.366,255.37 750.854,236.853 C755.589,233.544 760.14,231.277 761.613,231.496 C764.833,231.974 786.129,266.546 786.201,271.412 C786.239,273.945 784.744,275.831 779.688,279.63 C769.113,287.574 756.222,294.729 745.306,298.713 C698.486,315.8 648.086,307.123 615.952,276.444 C600.494,261.686 592.343,248.384 585.003,225.938 C582.812,219.234 580.858,213.75 580.661,213.75 C580.464,213.75 578.739,219.516 576.828,226.563 C564.961,270.316 539.466,296.669 500.755,305.198 C477.172,310.394 453.624,306.786 434.233,295.005 C429.707,292.255 425.496,290.318 424.876,290.701 C424.241,291.094 423.75,311.158 423.75,336.699 C423.75,370.266 423.361,382.389 422.25,383.5 C420.124,385.626 366.126,385.626 364,383.5 z M489.022,249.602 C497.127,245.637 507.893,234.755 511.275,227.11 C517.674,212.643 519.467,189.768 515.551,172.551 C512.248,158.028 502.67,144.445 491.451,138.373 C469.335,126.404 442.242,135.364 430.722,158.457 C422.51,174.918 420.851,199.776 426.736,218.19 C432.158,235.156 442.116,246.771 455.256,251.456 C464.981,254.924 479.81,254.109 489.022,249.602 z M921.507,249.609 C940.623,240.257 951.127,217.844 949.5,189.878 C948.247,168.342 942.252,153.254 930.89,143.039 C914.039,127.888 885.246,129.869 869.938,147.233 C863.575,154.45 861.058,159.252 857.501,170.964 C855.124,178.788 854.817,182.192 855.248,195.948 C855.662,209.174 856.306,213.433 859.043,221.067 C864.701,236.845 873.857,246.939 886.649,251.503 C896.395,254.98 912.295,254.116 921.507,249.609 z M724.762,157.905 C725.454,153.048 719.959,142.695 713.708,137.074 C706.591,130.675 700.85,128.75 688.89,128.75 C673.25,128.75 658.713,137.243 651.82,150.408 C645.865,161.782 644.37,161.336 687.155,160.956 C724.307,160.625 724.376,160.62 724.762,157.905 z M1578.086,304.992 C1554.15,300.259 1535.217,290.32 1518.676,273.806 C1495.605,250.773 1484.806,220.857 1486.618,185 C1487.294,171.621 1491.06,153.104 1494.626,145.627 C1495.714,143.344 1496.261,140.582 1495.842,139.488 C1494.906,137.05 1487.685,136.8 1484.543,139.097 C1483.342,139.975 1476.829,155.304 1470.071,173.159 C1459.302,201.612 1440.362,251.366 1426.638,287.252 C1424.192,293.647 1421.377,299.694 1420.381,300.69 C1418.898,302.173 1412.934,302.5 1387.328,302.5 C1369.538,302.5 1355.11,301.978 1353.821,301.287 C1351.32,299.949 1347.901,291.689 1327.673,238.125 C1320.144,218.187 1311.059,194.281 1307.485,185 C1303.91,175.718 1298.785,162.251 1296.094,155.072 C1290.29,139.583 1288.685,137.5 1282.556,137.5 C1280.05,137.5 1277.325,136.825 1276.5,136 C1275.44,134.94 1275,127.63 1275,111.089 C1275,91.007 1275.293,87.385 1277.061,85.617 C1278.856,83.822 1282.041,83.609 1301.749,83.965 C1323.947,84.367 1324.488,84.441 1330.34,87.881 C1333.621,89.81 1337.774,93.606 1339.568,96.316 C1341.361,99.027 1347.84,115.168 1353.964,132.185 C1360.087,149.202 1366.524,167.062 1368.268,171.875 C1370.012,176.687 1372.174,182.875 1373.073,185.625 C1376.221,195.258 1384.966,218.851 1386.342,221.422 C1387.106,222.85 1388.174,223.536 1388.715,222.946 C1389.256,222.357 1393.461,211.187 1398.059,198.125 C1402.657,185.062 1407.5,171.562 1408.821,168.125 C1410.142,164.687 1415.976,148.413 1421.784,131.96 C1432.633,101.232 1436.297,94.049 1443.649,89.094 C1450.249,84.646 1455.571,83.764 1475.848,83.757 C1491.437,83.751 1495.172,84.1 1496.786,85.714 C1498.416,87.344 1498.75,91.262 1498.75,108.765 C1498.75,120.665 1499.265,130.17 1499.932,130.582 C1500.582,130.984 1503.343,128.031 1506.067,124.019 C1512.208,114.976 1528.569,99.519 1537.915,93.931 C1546.256,88.944 1556.714,84.599 1567.651,81.577 C1573.91,79.848 1580.33,79.386 1597.5,79.429 C1617.605,79.478 1620.15,79.743 1628.958,82.7 C1644.369,87.874 1654.478,94.219 1666.387,106.193 C1675.292,115.146 1678.147,119.05 1682.929,128.819 C1692.044,147.436 1694.318,158.025 1694.349,181.994 C1694.369,197.189 1693.957,202.616 1692.668,204.171 C1691.127,206.029 1684.211,206.26 1621.418,206.552 L1551.875,206.875 L1551.462,210.493 C1551.2,212.788 1552.691,217.434 1555.536,223.191 C1565.237,242.82 1584.115,253.75 1608.319,253.75 C1623.587,253.75 1645.162,245.742 1658.487,235.129 C1662.675,231.794 1665.891,230.114 1667.258,230.548 C1669.17,231.155 1689.116,262.788 1691.589,269.135 C1692.976,272.696 1690.084,276.422 1680.776,283.064 C1652.439,303.284 1612.536,311.805 1578.086,304.992 z M1630.011,159.361 C1633.587,155.052 1623.871,138.624 1614.5,133.132 C1606.237,128.289 1589.785,127.378 1579.692,131.204 C1571.126,134.45 1560.404,143.787 1556.25,151.617 C1550.995,161.523 1549.99,161.25 1591.683,161.25 C1622.954,161.25 1628.678,160.967 1630.011,159.361 z M280.662,300.507 C274.601,298.288 269.407,293.517 265.823,286.875 C263.165,281.948 263.119,280.838 262.72,211.266 C262.451,164.454 261.873,140.125 261.004,139.079 C260.179,138.085 256.481,137.5 251.015,137.5 C236.846,137.5 237.5,138.768 237.5,111.295 C237.5,91.492 237.817,87.361 239.464,85.714 C241.139,84.04 245.773,83.75 270.882,83.75 C290.564,83.75 302.042,84.26 305.48,85.287 C312.703,87.445 320.457,95.529 322.291,102.811 C323.314,106.877 323.75,128.958 323.75,176.804 C323.75,256.372 322.575,250 337.25,250 C342.194,250 346.377,250.627 347.25,251.5 C349.364,253.614 349.364,298.886 347.25,301 C344.91,303.34 287.234,302.913 280.662,300.507 z M1050.25,301 C1049.115,299.865 1048.75,280.167 1048.75,220 C1048.75,159.833 1048.385,140.135 1047.25,139 C1046.347,138.097 1041.972,137.5 1036.25,137.5 C1030.528,137.5 1026.153,136.904 1025.25,136 C1024.19,134.94 1023.75,127.631 1023.75,111.089 C1023.75,91.095 1024.048,87.381 1025.792,85.636 C1027.593,83.835 1031.465,83.64 1058.605,83.985 L1089.375,84.375 L1095.204,87.801 C1101.929,91.755 1105.43,96.792 1107.59,105.625 C1108.431,109.063 1109.309,112.101 1109.541,112.377 C1109.773,112.654 1114.612,108.425 1120.294,102.98 C1131.899,91.858 1138.301,87.709 1150.048,83.695 C1159.843,80.348 1179.538,79.537 1182.927,82.341 C1184.739,83.84 1185,87.406 1185,110.676 C1185,125.317 1184.659,138.185 1184.241,139.273 C1183.626,140.877 1181.318,141.25 1172.004,141.25 C1139.198,141.25 1119.847,157.314 1112.526,190.625 C1110.301,200.753 1110.051,206.745 1110.027,250.688 C1110.007,286.955 1109.615,299.886 1108.5,301 C1106.374,303.126 1052.376,303.126 1050.25,301 z M1227.81,300.15 C1220.045,297.468 1216.925,294.881 1213.304,288.125 C1210.678,283.224 1210.613,281.721 1210,211.875 C1209.656,172.688 1208.92,139.922 1208.364,139.063 C1207.733,138.087 1204.42,137.5 1199.551,137.5 C1195.15,137.5 1191.096,136.846 1190.25,136 C1187.889,133.639 1188.154,87.05 1190.54,85.071 C1191.843,83.989 1200.458,83.692 1222.205,83.98 L1252.08,84.375 L1258.159,88.136 C1262.472,90.805 1265.166,93.699 1267.432,98.1 L1270.625,104.303 L1271.005,174.918 C1271.262,222.628 1271.818,246.054 1272.721,247.141 C1273.575,248.17 1277.183,248.75 1282.735,248.75 C1296.926,248.75 1296.25,247.416 1296.25,275.419 C1296.25,292.482 1295.813,299.937 1294.75,301 C1293.666,302.084 1285.089,302.489 1263.812,302.459 C1238.696,302.424 1233.411,302.086 1227.81,300.15 z M1704.062,105.422 C1703.008,104.997 1702.5,101.755 1702.5,95.456 C1702.5,86.206 1702.465,86.108 1698.75,84.813 C1694.676,83.392 1693.634,79.542 1696.977,78.259 C1700.159,77.038 1713.703,77.387 1716.261,78.756 C1717.863,79.613 1719.571,79.573 1721.646,78.627 C1726.216,76.545 1729.452,78.956 1731.874,86.248 C1733.02,89.697 1734.396,92.248 1734.932,91.917 C1735.468,91.586 1736.626,88.746 1737.505,85.607 C1739.62,78.055 1744.045,75.473 1748.036,79.464 C1749.523,80.952 1749.995,84.062 1749.981,92.277 C1749.96,104.06 1749.085,106.735 1745.475,106.05 C1743.858,105.744 1743.003,104.34 1742.733,101.552 C1742.266,96.723 1740.365,96.235 1739.255,100.658 C1738.369,104.188 1735.001,106.546 1732.794,105.181 C1731.998,104.69 1730.38,102.057 1729.198,99.331 C1727.524,95.472 1726.949,94.928 1726.6,96.875 C1725.329,103.976 1724.826,105 1722.61,105 C1719.446,105 1718.75,102.65 1718.75,91.959 L1718.75,82.873 L1714.375,84.242 L1710,85.612 L1710,93.967 C1710,99.895 1709.43,102.892 1708.036,104.286 C1706.955,105.366 1705.971,106.206 1705.848,106.151 C1705.726,106.097 1704.922,105.769 1704.062,105.422 z M266.964,56.786 C265.31,55.132 265,50.898 265,30 C265,9.102 265.31,4.868 266.964,3.214 C269.886,0.292 315.114,0.292 318.036,3.214 C320.963,6.141 320.963,53.859 318.036,56.786 C315.114,59.708 269.886,59.708 266.964,56.786 z M1214.464,56.786 C1212.811,55.132 1212.5,50.898 1212.5,30 C1212.5,9.102 1212.811,4.868 1214.464,3.214 C1217.386,0.292 1262.614,0.292 1265.536,3.214 C1267.189,4.868 1267.5,9.102 1267.5,30 C1267.5,50.898 1267.189,55.132 1265.536,56.786 C1262.614,59.708 1217.386,59.708 1214.464,56.786 z" fill="#ABAAAB" id="path4890"/>
    <path d="M29.301,383.222 C26.928,381.484 26.875,378.781 26.875,260.791 C26.875,165.22 26.546,139.807 25.295,138.551 C24.407,137.659 19.206,136.671 13.42,136.295 L3.125,135.625 L3.125,110.625 L3.125,85.625 L33.519,85.29 C69.432,84.894 71.726,85.437 79.421,96.148 C81.931,99.642 84.152,102.5 84.356,102.5 C84.56,102.5 87.461,100.22 90.801,97.432 C98.144,91.306 111.619,84.637 122.055,81.966 C133.504,79.035 159.37,79.302 171.79,82.478 C187.469,86.488 196.626,91.755 209.775,104.325 C226.981,120.775 235.176,136.18 240.599,162.269 C243.234,174.947 243.185,210.529 240.515,223.49 C233.069,259.627 208.82,289.618 178.005,300.803 C148.222,311.614 118.039,308.262 93.203,291.387 C91.183,290.015 89.074,289.175 88.515,289.52 C87.957,289.865 87.5,310.364 87.5,335.074 C87.5,378.333 87.407,380.093 85,382.5 C82.664,384.836 80.833,385 57.114,385 C37.136,385 31.211,384.621 29.301,383.222 z M151.012,250.998 C159.755,247.727 171.408,236.437 175.685,227.094 C187.275,201.779 183.403,165.46 167.125,146.787 C164.686,143.989 159.132,139.771 154.782,137.415 C147.264,133.341 146.26,133.131 134.375,133.153 C123.035,133.173 121.181,133.521 114.4,136.9 C104.728,141.719 98.752,147.77 93.896,157.658 C83.731,178.358 83.744,207.611 93.928,228.296 C105.127,251.046 127.307,259.867 151.012,250.998 z M365.551,383.223 C363.178,381.486 363.125,378.783 363.125,260.786 C363.125,165.207 362.796,139.797 361.545,138.545 C360.661,137.661 355.43,136.67 349.67,136.295 L339.375,135.625 L339.375,110.625 L339.375,85.625 L369.769,85.29 C405.682,84.894 407.976,85.437 415.671,96.148 C418.181,99.642 420.402,102.5 420.606,102.5 C420.81,102.5 423.711,100.22 427.051,97.432 C434.394,91.306 447.869,84.637 458.305,81.966 C469.754,79.035 495.62,79.302 508.04,82.478 C523.623,86.464 533.013,91.791 545.368,103.657 C562.191,119.812 570.626,135.108 576.401,159.934 C579.997,175.392 580.119,175.735 581.262,173.641 C581.793,172.67 583.733,166.313 585.575,159.514 C594.123,127.953 613.022,104.253 640.438,90.713 C657.089,82.489 668.964,80.019 691.9,80.009 C706.986,80.002 712.486,80.502 719.891,82.554 C753.466,91.858 775.911,115.855 785.897,153.125 C788.762,163.816 789.256,168.197 789.311,183.393 C789.366,198.836 789.083,201.454 787.143,203.393 C785.07,205.467 779.968,205.669 715.268,206.25 L645.625,206.875 L645.242,210.184 C644.68,215.04 651.426,228.886 657.683,235.715 C664.585,243.249 671.945,247.946 682.193,251.356 C689.17,253.678 692.284,253.969 704.829,253.474 C717.421,252.977 720.743,252.364 729.556,248.91 C735.156,246.715 744.421,241.785 750.145,237.953 C757.956,232.725 761.03,231.287 762.464,232.191 C765.553,234.139 786.241,269.14 785.919,271.875 C785.512,275.33 770.807,286.086 756.979,293.04 C743.736,299.701 721.863,305.673 706.121,306.925 C693.165,307.955 670.408,305.015 657.587,300.655 C641.33,295.125 629.071,287.745 617.051,276.25 C600.5,260.422 592.182,247.023 585.623,225.625 C583.727,219.438 581.799,213.315 581.338,212.02 C580.777,210.44 579.366,214.126 577.057,223.209 C570.444,249.216 560.731,266.93 545.059,281.568 C530.582,295.089 516.107,302.033 494.579,305.783 C471.867,309.739 449.034,304.692 429.453,291.387 C427.433,290.015 425.324,289.175 424.765,289.52 C424.207,289.865 423.75,310.364 423.75,335.074 C423.75,378.333 423.657,380.093 421.25,382.5 C418.914,384.836 417.083,385 393.364,385 C373.394,385 367.46,384.621 365.551,383.223 z M487.262,250.998 C495.013,248.098 506.947,237.184 510.952,229.334 C516.313,218.825 518.053,210.133 518.071,193.75 C518.093,175.247 515.486,165.007 507.678,152.927 C502.506,144.926 498.003,140.924 488.75,136.108 C483.944,133.606 481.305,133.181 470.625,133.184 C459.046,133.188 457.572,133.477 450.625,137.11 C433.136,146.254 424.171,162.932 422.897,188.697 C420.559,235.988 450.338,264.813 487.262,250.998 z M726.012,158.438 C726.615,155.306 721.067,143.803 716.381,138.465 C709.897,131.08 702.47,128.175 690,128.148 C680.667,128.128 678.373,128.6 671.139,132.027 C666.609,134.174 660.844,137.989 658.327,140.507 C653.059,145.774 647.01,156.92 648.007,159.52 C648.575,160.999 654.941,161.232 687.138,160.956 C722.614,160.651 725.624,160.456 726.012,158.438 z M875.205,306.178 C865.428,304.436 850.998,299.335 842.86,294.742 C838.942,292.531 831.844,287.05 827.087,282.562 C806.14,262.801 796.375,239.22 792.121,198.125 C791.193,189.162 793.546,169.308 796.954,157.339 C803.46,134.493 812.405,118.913 827.044,104.928 C837.911,94.548 847.748,88.626 862.127,83.808 C872.734,80.255 874.718,80 891.802,80 C913.64,80 921.798,81.722 936.987,89.538 L947.568,94.983 L948.889,91.554 C950.746,86.733 949.852,58.1 947.779,56.029 C946.851,55.101 941.62,54.16 935.279,53.779 L924.375,53.125 L924.375,28.125 L924.375,3.125 L956.25,2.777 C991.24,2.395 995.165,2.995 1001.596,9.71 C1008.892,17.327 1008.582,12.435 1009.496,134.534 C1010.026,205.295 1010.794,247.453 1011.571,248.438 C1012.345,249.416 1016.017,250 1021.403,250 C1034.867,250 1035,250.257 1035,276.25 C1035,305.135 1037.92,302.872 1001.445,302.255 C977.843,301.855 972.292,301.408 968.125,299.571 C962.318,297.012 956.788,292.083 954.231,287.188 C953.244,285.297 951.986,283.75 951.436,283.75 C950.887,283.75 947.104,286.36 943.031,289.55 C934.453,296.268 923.687,301.613 913.379,304.274 C904.029,306.687 883.744,307.698 875.205,306.178 z M922.106,249.896 C932.328,244.974 939.878,236.476 945.068,224.052 C948.61,215.571 949.184,212.598 949.708,200 C950.468,181.716 948.738,170.773 943.268,159.254 C938.236,148.658 930.699,140.543 921.842,136.185 C916.439,133.526 913.906,133.126 902.5,133.131 C888.496,133.137 884.149,134.524 874.071,142.197 C868.208,146.661 860.414,158.986 857.512,168.382 C853.642,180.911 853.914,206.485 858.056,219.53 C864.278,239.123 876.725,250.8 895,254.19 C902.218,255.529 914.424,253.596 922.106,249.896 z M1581.013,305.002 C1555.142,300.331 1535.11,289.933 1518.017,272.302 C1507.781,261.743 1499.789,249.649 1494.972,237.428 C1484.23,210.177 1484.242,173.543 1495.001,146.248 C1496.395,142.712 1497.213,139.297 1496.819,138.659 C1496.425,138.022 1493.692,137.5 1490.745,137.5 C1483.821,137.5 1482.152,139.409 1476.925,153.316 C1465.816,182.875 1446.918,232.713 1440.028,250.625 C1420.619,301.085 1421.029,300.146 1417.858,301.352 C1416.197,301.983 1401.718,302.5 1385.682,302.5 C1359.77,302.5 1356.229,302.257 1353.846,300.313 C1352.142,298.922 1347.282,287.872 1340.514,270 C1334.656,254.531 1327.713,236.25 1325.086,229.375 C1322.458,222.5 1314.008,200.281 1306.306,180 C1298.605,159.719 1291.544,141.939 1290.614,140.489 C1289.516,138.776 1287.125,137.611 1283.788,137.164 C1274.466,135.913 1274.522,136.096 1275.459,110.168 C1275.915,97.535 1276.594,86.704 1276.968,86.099 C1277.342,85.495 1287.746,85 1300.088,85 C1320.293,85 1323.085,85.262 1328.124,87.631 C1335.667,91.176 1340.286,96.772 1344.15,107.044 C1349.148,120.331 1368.112,173.066 1377.128,198.75 C1385.324,222.096 1387.093,225.918 1388.872,224.116 C1389.409,223.571 1395.46,207.375 1402.319,188.125 C1435.117,96.073 1434.511,97.539 1442.571,90.757 C1448.584,85.697 1453.861,84.834 1476.25,85.246 L1496.875,85.625 L1497.772,108.022 C1498.266,120.341 1499.193,130.942 1499.831,131.581 C1500.546,132.296 1502.903,129.934 1505.964,125.434 C1512.863,115.29 1530.468,98.757 1540.09,93.385 C1544.509,90.918 1553.469,87.065 1560,84.822 C1571.232,80.966 1573.034,80.718 1593.274,80.252 C1612.239,79.815 1615.794,80.064 1624.524,82.445 C1642.239,87.275 1651.725,92.824 1665.086,106.174 C1674.967,116.046 1677.962,119.992 1682.303,128.855 C1691.736,148.115 1696.095,170.403 1694.403,190.716 C1692.977,207.837 1700.582,206.25 1619.961,206.25 C1560.745,206.25 1551.074,206.505 1550.47,208.079 C1549.551,210.473 1553.364,221.892 1557.027,227.721 C1568.19,245.481 1584.218,253.75 1607.48,253.75 C1625.562,253.75 1644.584,247.01 1659.121,235.451 C1662.011,233.154 1665.324,231.269 1666.484,231.262 C1668.823,231.249 1691.25,267.303 1691.25,271.078 C1691.25,275.344 1678.751,284.991 1663.125,292.785 C1637.859,305.387 1607.867,309.85 1581.013,305.002 z M1631.01,157.29 C1631.502,153.04 1626.321,142.763 1621.008,137.45 C1614.525,130.967 1607.529,128.499 1595.135,128.324 C1585.933,128.194 1583.348,128.651 1577.281,131.474 C1573.379,133.29 1567.625,137.137 1564.494,140.024 C1558.602,145.455 1551.649,157.611 1553.095,159.952 C1553.658,160.862 1566.107,161.181 1592.272,160.955 L1630.625,160.625 L1631.01,157.29 z M283.179,300.668 C275.464,298.598 267.204,290.378 264.782,282.361 C263.493,278.093 263.125,261.695 263.125,208.505 C263.125,155.071 262.78,139.788 261.545,138.55 C260.658,137.66 255.451,136.671 249.67,136.295 L239.375,135.625 L239.375,110.625 L239.375,85.625 L271.571,85.291 C301.529,84.981 304.103,85.129 308.601,87.424 C314.426,90.396 319.338,95.97 321.033,101.531 C321.755,103.903 322.614,135.302 323.073,176.192 C323.606,223.588 324.308,247.292 325.211,248.38 C326.074,249.419 329.637,250 335.153,250 C348.617,250 348.75,250.257 348.75,276.25 C348.75,304.803 351.553,302.524 316.562,302.416 C298.122,302.358 287.381,301.796 283.179,300.668 z M1051.801,300.726 C1049.454,299.011 1049.354,296.315 1048.75,218.539 L1048.125,138.125 L1037.672,137.446 C1022.93,136.488 1023.296,137.254 1024.308,109.468 C1024.757,97.143 1025.411,86.596 1025.761,86.03 C1026.111,85.464 1040.164,85 1056.989,85 C1089.682,85 1093.296,85.559 1099.789,91.622 C1103.629,95.207 1105.565,99.137 1107.457,107.188 C1108.305,110.797 1109.38,113.75 1109.846,113.75 C1110.311,113.75 1114.614,109.749 1119.408,104.859 C1135.154,88.799 1147.779,82.706 1167.64,81.584 C1178.737,80.957 1179.86,81.11 1182.328,83.578 C1184.882,86.132 1184.994,87.314 1184.875,110.313 C1184.806,123.547 1184.361,135.781 1183.885,137.5 C1183.034,140.574 1182.767,140.635 1167.405,141.258 C1152.994,141.842 1151.158,142.202 1143.593,145.927 C1127.547,153.826 1116.918,168.331 1112.486,188.378 C1110.308,198.226 1110.051,204.5 1110.027,248.438 C1110.001,295.814 1109.914,297.586 1107.5,300 C1105.164,302.336 1103.333,302.5 1079.614,302.5 C1059.666,302.5 1053.708,302.12 1051.801,300.726 z M1235.625,301.635 C1226.286,299.488 1223.232,298.219 1219.488,294.932 C1210.5,287.041 1210.697,288.81 1210,209.375 L1209.375,138.125 L1200.753,137.385 C1194.397,136.84 1191.686,136.038 1190.44,134.334 C1188.162,131.219 1187.994,88.756 1190.25,86.5 C1191.332,85.418 1199.969,85 1221.235,85 C1249.329,85 1250.983,85.133 1256.287,87.813 C1262.185,90.792 1266.501,96.161 1268.98,103.603 C1270.061,106.845 1270.614,127.865 1270.936,177.869 L1271.385,247.613 L1274.524,248.807 C1276.25,249.463 1281.263,250 1285.662,250 C1292.292,250 1293.884,250.414 1294.956,252.418 C1295.703,253.814 1296.25,263.853 1296.25,276.168 C1296.25,304.791 1298.961,302.542 1264.687,302.355 C1250.078,302.275 1237,301.951 1235.625,301.635 z M1703.149,103.53 C1702.823,102.62 1702.402,97.961 1702.215,93.177 C1701.897,85.051 1701.67,84.431 1698.75,83.746 C1697.031,83.342 1695.625,82.194 1695.625,81.194 C1695.625,79.745 1697.785,79.375 1706.25,79.375 C1714.83,79.375 1716.875,79.734 1716.875,81.238 C1716.875,82.331 1715.326,83.367 1713.125,83.745 C1709.391,84.387 1709.372,84.432 1708.75,94.37 C1708.235,102.592 1707.739,104.424 1705.934,104.768 C1704.728,104.997 1703.475,104.44 1703.149,103.53 z M1720.574,103.443 C1720.201,102.472 1720.06,96.659 1720.261,90.526 C1720.609,79.874 1720.757,79.356 1723.582,78.957 C1727.405,78.416 1728.932,80.042 1731.358,87.241 C1732.448,90.477 1733.855,93.04 1734.483,92.936 C1735.111,92.832 1736.778,89.738 1738.187,86.061 C1740.483,80.069 1741.131,79.375 1744.437,79.375 L1748.125,79.375 L1748.481,92.188 C1748.818,104.318 1748.703,105 1746.317,105 C1743.839,105 1743.168,103.597 1742.135,96.25 C1741.698,93.141 1741.689,93.144 1740.224,96.875 C1737.821,102.995 1736.728,104.375 1734.282,104.375 C1732.639,104.375 1731.223,102.461 1729.427,97.813 C1728.033,94.203 1726.496,91.25 1726.011,91.25 C1725.527,91.25 1724.961,94.159 1724.753,97.714 C1724.387,103.972 1722.021,107.215 1720.574,103.443 z M266.819,55.93 C266.477,55.038 266.349,42.791 266.536,28.716 L266.875,3.125 L292.5,3.125 L318.125,3.125 L318.125,30 L318.125,56.875 L292.783,57.214 C272.92,57.479 267.307,57.201 266.819,55.93 z M1214.319,55.93 C1213.977,55.038 1213.849,42.791 1214.036,28.716 L1214.375,3.125 L1240,3.125 L1265.625,3.125 L1265.625,30 L1265.625,56.875 L1240.283,57.214 C1220.42,57.479 1214.807,57.201 1214.319,55.93 z" fill="#939292" id="path4888"/>
    <path d="M29,382.25 C27.854,381.104 27.5,352.353 27.5,260.464 C27.5,152.78 27.294,139.973 25.536,138.214 C24.112,136.791 21.083,136.25 14.536,136.25 C9.175,136.25 4.89,135.64 4,134.75 C1.888,132.638 1.888,88.612 4,86.5 C5.081,85.419 13.366,85.015 33.687,85.055 C68.797,85.123 72.068,86.033 79.553,97.813 C81.191,100.391 83.175,102.5 83.963,102.5 C84.75,102.5 88.258,100.312 91.759,97.638 C100.441,91.006 111.726,85.548 123.346,82.36 C131.725,80.061 135.312,79.781 149.345,80.327 C167.055,81.016 176.872,83.384 190.492,90.252 C201.225,95.665 220.489,114.767 227.006,126.459 C237.362,145.037 242.502,166.744 242.496,191.875 C242.489,224.998 235.343,248.31 218.358,270.625 C201.165,293.215 173.586,306.152 142.475,306.223 C124.766,306.263 113.448,302.688 92.789,290.53 C89.217,288.428 88.55,288.361 87.495,290 C86.778,291.114 86.28,309.905 86.269,336.313 C86.255,369.186 85.86,381.14 84.75,382.25 C82.626,384.374 31.123,384.374 29,382.25 z M152.842,250.818 C162.669,246.01 173.627,233.952 178.138,222.981 C181.276,215.352 181.74,212.451 182.224,197.433 C182.639,184.546 182.292,178.624 180.772,172.691 C172.343,139.788 145.882,124.329 116.623,135.215 C103.469,140.109 92.44,154.025 88.01,171.316 C85.514,181.058 85.22,203.028 87.459,212.5 C92.323,233.085 104.416,248.051 120.405,253.274 C128.978,256.074 144.502,254.899 152.842,250.818 z M365.25,382.25 C364.104,381.104 363.75,352.353 363.75,260.464 C363.75,152.78 363.544,139.973 361.786,138.214 C360.362,136.791 357.333,136.25 350.786,136.25 C345.425,136.25 341.14,135.64 340.25,134.75 C339.194,133.694 338.75,126.556 338.75,110.625 C338.75,94.694 339.194,87.556 340.25,86.5 C341.331,85.419 349.616,85.015 369.937,85.055 C405.047,85.123 408.318,86.033 415.803,97.813 C417.441,100.391 419.425,102.5 420.213,102.5 C421,102.5 424.508,100.312 428.009,97.638 C436.691,91.006 447.976,85.548 459.596,82.36 C467.975,80.061 471.562,79.781 485.595,80.327 C513.786,81.424 529.218,88.119 547.77,107.301 C563.724,123.797 571.114,138.398 576.975,165 C579.979,178.635 580.677,179.269 583.122,170.581 C584.276,166.48 586.36,159.188 587.753,154.375 C595.429,127.861 614.108,105.219 638.745,92.564 C656.28,83.556 665.837,81.165 687.529,80.356 C709.162,79.549 720.226,81.722 737.5,90.172 C746.122,94.39 750.274,97.515 759.524,106.748 C769.241,116.446 771.771,119.878 776.669,130 C782.875,142.829 787,157.542 788.628,172.663 C789.922,184.674 788.495,202.352 786.111,203.862 C785.156,204.467 753.686,204.97 716.176,204.981 C638.76,205.003 642.109,204.583 644.896,213.911 C645.794,216.916 647.647,221.625 649.015,224.375 C652.412,231.206 665.647,244.567 672.5,248.084 C695.644,259.963 724.883,256.258 750.759,238.17 C755.22,235.051 759.843,232.5 761.032,232.5 C763.511,232.5 785,266.904 785,270.874 C785,274.209 779.994,278.645 767.182,286.667 C730.002,309.943 679.8,312.52 641.206,293.133 C621.12,283.043 604.397,266.19 594.064,245.625 C590.555,238.642 583.755,219.124 581.892,210.69 C581.264,207.845 580.817,207.418 579.933,208.815 C579.303,209.811 578.763,211.75 578.733,213.125 C578.611,218.604 571.158,241.877 566.417,251.581 C560.057,264.598 550.066,277.654 540.537,285.4 C524.48,298.453 501.568,306.171 478.725,306.223 C461.016,306.263 449.698,302.688 429.039,290.53 C425.467,288.428 424.8,288.361 423.745,290 C423.028,291.114 422.53,309.905 422.519,336.313 C422.505,369.186 422.11,381.14 421,382.25 C418.876,384.374 367.373,384.374 365.25,382.25 z M489.005,250.861 C497.188,246.857 509.111,234.827 512.509,227.145 C518.881,212.74 520.742,189.232 516.825,172.616 C510.271,144.81 487.999,128.033 463.396,132.366 C443.062,135.948 428.459,151.397 423.687,174.375 C421.191,186.395 421.825,206.573 425.023,216.875 C429.727,232.028 438.805,244.661 448.882,250.078 C460.04,256.076 477.644,256.419 489.005,250.861 z M724.273,161.741 C729.233,159.838 724.321,146.388 715.312,137.206 C707.647,129.393 700.759,127.083 687.113,127.75 C675.558,128.314 668.627,131.03 660.083,138.344 C651.32,145.844 644.679,159.903 649.062,161.672 C651.316,162.581 721.914,162.646 724.273,161.741 z M865.625,303.385 C833.525,294.195 811.828,272.921 800.715,239.742 C799.036,234.728 796.442,223.313 794.95,214.375 C790.068,185.12 793.751,160.329 807.114,132.5 C812.133,122.049 814.334,119.119 825.471,108.068 C845.458,88.235 861.152,81.31 888.361,80.317 C908.844,79.569 919.268,81.634 935.149,89.584 C941.334,92.68 947.205,94.901 948.197,94.521 C949.653,93.962 950,90.348 950,75.754 C950,53.582 950.104,53.75 936.411,53.75 C930.563,53.75 926.158,53.158 925.25,52.25 C924.194,51.194 923.75,44.056 923.75,28.125 C923.75,12.194 924.194,5.056 925.25,4 C926.332,2.918 934.993,2.5 956.343,2.5 C988.747,2.5 993.635,3.303 1000.406,9.736 C1008.623,17.543 1008.062,9.192 1008.75,134.001 C1009.242,223.24 1009.712,247.714 1010.96,248.961 C1011.836,249.836 1016.595,250.766 1021.585,251.037 C1026.557,251.307 1031.328,252.097 1032.187,252.792 C1034.622,254.761 1034.394,297.909 1031.939,299.947 C1030.609,301.051 1022.237,301.34 1000.377,301.037 L970.625,300.625 L964.698,297.141 C961.154,295.058 957.636,291.669 955.948,288.713 C954.395,285.994 952.316,283.765 951.328,283.76 C950.339,283.755 946.402,286.2 942.578,289.195 C927.719,300.831 915.308,304.918 892.5,305.682 C877.601,306.182 874.454,305.913 865.625,303.385 z M920.625,251.421 C934.531,245.224 945.319,230.285 949.518,211.412 C951.844,200.96 951.267,181.824 948.288,170.625 C944.191,155.218 933.606,141.319 921.406,135.328 C915.287,132.323 912.916,131.879 903.125,131.906 C893.449,131.933 890.786,132.435 884.097,135.499 C870.557,141.699 860.111,155.187 855.717,172.145 C851.461,188.571 854.084,215.953 861.262,230.023 C866.648,240.58 877.181,249.772 887.905,253.272 C895.792,255.847 912.862,254.881 920.625,251.421 z M1578.125,303.75 C1562.34,300.626 1547.825,294.694 1535.032,286.137 C1502.45,264.343 1485.604,227.947 1487.93,184.375 C1488.624,171.381 1492.288,153.781 1496.284,144.247 C1498.697,138.488 1497.283,136.25 1491.232,136.25 C1485.037,136.25 1481.317,139.513 1478.346,147.553 C1470.961,167.54 1458.527,200.419 1447.167,230 C1439.906,248.906 1431.352,271.406 1428.158,280 C1419.325,303.768 1424.182,301.253 1387.159,301.231 C1369.815,301.221 1354.906,300.756 1354.029,300.199 C1352.29,299.096 1347.999,288.643 1335.473,255 C1330.994,242.969 1323.622,223.563 1319.091,211.875 C1309.003,185.852 1301.148,165.262 1296.012,151.377 C1291.591,139.423 1289.04,136.25 1283.852,136.25 C1276.044,136.25 1276.25,136.924 1276.25,111.366 C1276.25,94.859 1276.69,87.56 1277.75,86.5 C1278.797,85.453 1285.499,85.004 1299.937,85.012 C1319.076,85.023 1321.093,85.246 1326.875,87.979 C1338.515,93.482 1339.37,95.003 1354.393,136.955 C1358.317,147.911 1363.469,162.219 1365.842,168.75 C1368.216,175.281 1370.884,182.875 1371.773,185.625 C1375.636,197.587 1385.344,223.264 1386.562,224.741 C1387.294,225.629 1388.333,225.91 1388.871,225.366 C1389.988,224.233 1394.85,211.34 1404.33,184.375 C1420.069,139.606 1431.791,107.723 1434.432,102.5 C1438.185,95.079 1444.366,89.304 1451.099,86.928 C1458.049,84.476 1493.637,84.137 1496,86.5 C1497.043,87.543 1497.5,94.172 1497.5,108.273 C1497.5,119.423 1497.841,129.435 1498.259,130.523 C1499.528,133.83 1501.706,132.763 1505.3,127.073 C1507.184,124.091 1514.28,116.262 1521.068,109.675 C1534.721,96.427 1544.617,90.555 1563.75,84.352 C1572.748,81.435 1577.163,80.815 1592.579,80.306 C1608.306,79.786 1612.218,80.065 1621.329,82.359 C1639.327,86.891 1651.278,93.489 1663.951,105.89 C1673.102,114.845 1676.063,118.77 1681.177,128.727 C1690.623,147.116 1693.04,157.799 1693.086,181.367 C1693.115,196.094 1692.706,201.365 1691.409,202.929 C1689.851,204.81 1683.437,205.002 1621.409,205.019 C1583.853,205.029 1552.34,205.535 1551.381,206.143 C1548.882,207.725 1550.199,215.512 1554.425,224.142 C1558.39,232.239 1570.438,244.51 1578.423,248.583 C1601.218,260.213 1633.55,255.303 1658.716,236.391 C1662.479,233.564 1665.907,231.25 1666.335,231.25 C1667.824,231.25 1670.924,235.725 1680.19,251.25 C1691.092,269.516 1691.622,270.719 1690.058,273.641 C1688.212,277.09 1671.042,288.424 1659.389,293.885 C1635.129,305.253 1604.51,308.97 1578.125,303.75 z M1630.082,161.206 C1633.277,159.496 1633.118,157.01 1629.287,148.75 C1622.57,134.267 1613.889,128.677 1596.717,127.775 C1586.304,127.228 1584.667,127.468 1577.967,130.523 C1563.211,137.252 1546.739,158.717 1554.062,161.672 C1557.213,162.943 1627.643,162.512 1630.082,161.206 z M281.875,299.742 C275.878,297.646 270.195,292.764 267.176,287.115 C264.392,281.905 264.372,281.461 263.75,210.266 C263.21,148.436 262.869,138.495 261.25,137.472 C260.219,136.821 255.409,136.28 250.562,136.269 C245.4,136.258 241.129,135.629 240.25,134.75 C238.138,132.638 238.138,88.612 240.25,86.5 C241.335,85.415 250.065,85.008 271.812,85.027 C298.185,85.052 302.49,85.334 306.886,87.331 C313.188,90.194 319.468,97.259 321.175,103.403 C322.016,106.434 322.488,132.78 322.493,176.949 C322.499,233.747 322.804,246.188 324.239,248.15 C325.604,250.017 327.953,250.635 335.176,251.028 C340.235,251.303 345.078,252.097 345.937,252.792 C348.11,254.549 348.167,297.583 346,299.75 C344.068,301.682 287.406,301.675 281.875,299.741 z M1051.5,299.75 C1050.365,298.615 1050,279.043 1050,219.319 C1050,127.989 1051.321,136.25 1036.714,136.25 C1031.603,136.25 1027.38,135.63 1026.5,134.75 C1024.388,132.637 1024.388,88.612 1026.5,86.5 C1028.96,84.04 1082.91,84.44 1090.346,86.973 C1098.224,89.657 1104.224,96.511 1106.242,105.129 C1107.111,108.839 1108.195,112.581 1108.652,113.444 C1109.206,114.492 1113.18,111.495 1120.605,104.429 C1137.222,88.615 1150.773,82.384 1169.258,82.057 C1184.632,81.786 1183.862,80.144 1183.461,112.36 L1183.125,139.375 L1168.75,140.15 C1152.025,141.052 1143.291,143.826 1133.967,151.196 C1121.581,160.987 1115.097,172.37 1111.304,190.986 C1108.997,202.303 1108.75,208.108 1108.75,250.884 C1108.75,286.057 1108.364,298.636 1107.25,299.75 C1105.126,301.873 1053.623,301.873 1051.5,299.75 z M1229.349,299.508 C1221.966,297.194 1218.341,294.415 1214.924,288.449 L1211.875,283.125 L1211.25,211.753 C1210.742,153.792 1210.302,139.993 1208.909,138.316 C1207.683,136.839 1205.171,136.25 1200.097,136.25 C1196.193,136.25 1192.325,135.575 1191.5,134.75 C1190.44,133.69 1190,126.391 1190,109.884 C1190,89.73 1190.272,86.413 1191.977,85.759 C1193.065,85.341 1205.931,85 1220.57,85 C1255.246,85 1260.485,86.702 1266.732,100 C1269.3,105.466 1269.393,107.633 1270,176.609 C1270.539,237.883 1270.881,247.755 1272.5,248.777 C1273.531,249.429 1278.341,249.97 1283.187,249.981 C1288.35,249.992 1292.621,250.621 1293.5,251.5 C1294.556,252.556 1295,259.694 1295,275.625 C1295,291.556 1294.556,298.694 1293.5,299.75 C1291.363,301.887 1236.278,301.679 1229.349,299.508 z M1744.583,104.167 C1744.125,103.708 1743.75,100.896 1743.75,97.917 C1743.75,90.91 1741.792,91.027 1738.71,98.217 C1735.465,105.788 1732.68,105.28 1729.54,96.547 C1728.246,92.946 1726.724,90 1726.159,90 C1725.593,90 1724.961,92.953 1724.753,96.562 C1724.474,101.394 1723.88,103.125 1722.5,103.125 C1719.741,103.125 1719.081,82.318 1721.769,80.088 C1724.466,77.849 1728.37,79.565 1729.336,83.413 C1729.794,85.241 1730.988,88.695 1731.988,91.089 C1734.198,96.378 1735.911,95.252 1738.829,86.595 C1741.126,79.781 1743.849,77.489 1746.77,79.913 C1748.267,81.155 1748.75,83.934 1748.75,91.301 C1748.75,103.344 1747.529,107.113 1744.583,104.167 z M1703.491,94.196 C1703.144,84.993 1702.96,84.442 1700,83.746 C1698.281,83.342 1696.875,82.194 1696.875,81.193 C1696.875,79.216 1707.942,77.962 1713.371,79.325 C1717.392,80.334 1716.961,82.42 1712.55,83.302 C1708.879,84.036 1708.847,84.119 1708.487,93.57 C1708.19,101.383 1707.741,103.171 1705.991,103.505 C1704.152,103.856 1703.807,102.571 1703.491,94.196 z M267.75,56 C265.632,53.882 265.632,6.118 267.75,4 C269.864,1.886 315.135,1.886 317.25,4 C319.368,6.118 319.368,53.882 317.25,56 C315.135,58.115 269.864,58.115 267.75,56 z M1215.25,56 C1213.132,53.882 1213.132,6.118 1215.25,4 C1217.364,1.886 1262.635,1.886 1264.75,4 C1266.868,6.118 1266.868,53.882 1264.75,56 C1262.635,58.115 1217.364,58.115 1215.25,56 z" fill="#6E6D6D" id="path4886"/>
    <path d="M30,382.523 C28.354,381.48 28.125,366.504 28.125,260.111 C28.125,164.081 27.797,138.557 26.545,137.301 C25.657,136.409 20.456,135.421 14.67,135.045 L4.375,134.375 L4.375,110.625 L4.375,86.875 L31.25,86.503 C46.031,86.298 60.513,86.472 63.431,86.891 C69.498,87.76 75.085,91.955 79.507,98.959 C81.17,101.594 83.134,103.75 83.871,103.75 C84.608,103.75 88.398,101.276 92.293,98.253 C107.995,86.064 123.12,81.25 145.712,81.25 C163.163,81.25 175.744,83.877 188.739,90.234 C199.65,95.572 219.678,114.91 226.008,126.221 C236.869,145.625 241.25,165.035 241.25,193.754 C241.25,223.664 236.429,242.331 223.647,261.911 C207.604,286.486 187.806,299.401 158.303,304.536 C137.431,308.168 117.343,304.317 98.473,293.064 C93.164,289.899 88.242,287.666 87.535,288.103 C86.693,288.624 86.25,304.566 86.25,334.36 C86.25,374.022 85.999,380.072 84.286,381.786 C82.628,383.443 78.379,383.747 57.098,383.731 C43.225,383.72 31.031,383.177 30,382.523 z M150.959,252.268 C159.611,249.031 170.954,238.497 176.017,228.999 C181.298,219.089 183.709,208.039 183.731,193.637 C183.783,160.169 168.661,137.262 142.964,131.886 C135.555,130.336 133.247,130.332 125.915,131.861 C99.518,137.365 85.019,158.835 84.893,192.605 C84.724,238.326 115.042,265.706 150.959,252.268 z M366.25,382.524 C364.604,381.482 364.375,366.505 364.375,260.106 C364.375,164.068 364.047,138.547 362.795,137.295 C361.911,136.411 356.68,135.42 350.92,135.045 L340.625,134.375 L340.625,110.625 L340.625,86.875 L367.5,86.503 C382.281,86.298 396.763,86.472 399.681,86.891 C405.748,87.76 411.335,91.955 415.757,98.959 C417.42,101.594 419.384,103.75 420.121,103.75 C420.858,103.75 424.648,101.276 428.543,98.253 C444.245,86.064 459.37,81.25 481.962,81.25 C510.119,81.25 526.296,87.496 544.799,105.509 C562.171,122.422 570.606,138.289 576.142,164.465 C579.908,182.276 580.059,182.858 580.723,182.193 C581.054,181.862 582.672,176.03 584.319,169.233 C591.076,141.335 598.51,127.379 615.537,110.625 C624.377,101.926 629.511,98.048 638.173,93.523 C655.311,84.571 664.62,82.322 687.596,81.586 C704.6,81.041 708.385,81.296 717.483,83.597 C735.255,88.091 745.209,93.818 758.897,107.424 C769,117.467 771.75,121.097 776.118,130.16 C778.977,136.092 782.823,146.498 784.663,153.285 C787.534,163.87 788.018,168.15 788.067,183.375 C788.109,196.333 787.686,201.564 786.501,202.75 C785.222,204.029 769.936,204.508 714.626,205 L644.375,205.625 L643.978,209.759 C643.064,219.276 657.056,239.722 669.457,246.989 C679.248,252.727 688.25,255 701.183,255 C720.009,255 735.113,249.981 752.171,238.056 C756.655,234.922 760.964,232.603 761.747,232.903 C764.402,233.922 785.182,269.956 784.448,272.269 C783.086,276.56 762.608,289.944 748.973,295.454 C737.501,300.09 718.039,304.727 706.046,305.681 C684.004,307.434 656.469,301.094 635.75,289.496 C620.391,280.898 603.248,262.557 594.613,245.483 C590.588,237.524 584.413,219.248 582.486,209.588 C581.686,205.581 580.717,202.616 580.333,203 C579.949,203.384 578.935,207.507 578.079,212.162 C568.182,266 540.58,296.525 494.553,304.536 C472.47,308.379 453.981,304.684 433.494,292.334 C428.885,289.556 424.526,287.646 423.807,288.09 C422.936,288.628 422.5,304.079 422.5,334.36 C422.5,374.022 422.249,380.072 420.536,381.786 C418.878,383.443 414.629,383.747 393.348,383.731 C379.475,383.72 367.281,383.177 366.25,382.524 z M487.209,252.268 C495.358,249.219 506.999,238.75 511.512,230.412 C517.476,219.392 519.303,210.794 519.303,193.75 C519.303,182.258 518.706,176.158 517.045,170.69 C510.169,148.057 498.297,135.878 479.214,131.886 C464.441,128.795 448.939,133.495 438.076,144.358 C427.326,155.108 421.364,172.677 421.315,193.75 C421.254,220.086 433.311,243.72 450.742,251.431 C462.65,256.698 474.632,256.973 487.209,252.268 z M726,161 C728.239,158.761 727.861,156.391 723.944,148.125 C720.289,140.412 713.291,133.036 706.012,129.226 C703.475,127.898 698.008,126.857 691.875,126.534 C683.727,126.105 680.522,126.518 674.57,128.762 C664.046,132.731 655.349,140.322 650.137,150.085 C643.138,163.198 641.124,162.5 685.961,162.5 C714.269,162.5 724.898,162.102 726,161 z M876.039,305.053 C855.116,301.23 839.347,293.203 825.625,279.393 C820.125,273.858 813.703,266.063 811.354,262.072 C795.972,235.938 789.47,192.152 796.731,163.598 C800.762,147.745 806.597,133.024 812.347,124.194 C818.465,114.801 837.466,96.648 845.92,92.119 C860.642,84.233 869.12,82.179 889.493,81.563 C906.071,81.061 909.561,81.32 918.243,83.692 C923.678,85.178 932.177,88.611 937.129,91.321 C942.081,94.032 946.977,96.25 948.009,96.25 C950.746,96.25 951.521,90.088 951.043,72.112 C950.761,61.501 950.105,55.849 949.029,54.776 C948.103,53.852 942.856,52.909 936.529,52.529 L925.625,51.875 L925.625,28.125 L925.625,4.375 L955.625,4.014 C975.303,3.778 987.408,4.144 990.807,5.078 C996.991,6.777 1004.539,14.035 1006.221,19.898 C1006.897,22.257 1007.764,71.814 1008.241,135.452 C1008.971,232.676 1009.32,247.154 1010.982,249.063 C1012.446,250.743 1014.85,251.25 1021.354,251.25 C1033.876,251.25 1033.75,250.995 1033.75,276.25 C1033.75,294.238 1033.445,297.626 1031.67,299.402 C1029.825,301.246 1026.387,301.433 1001.357,301.053 C974.174,300.641 972.893,300.509 966.875,297.5 C962.504,295.315 959.497,292.61 956.875,288.505 C954.812,285.277 952.49,282.605 951.713,282.568 C950.936,282.531 946.999,285.102 942.963,288.282 C934.556,294.906 923.779,300.202 913.053,302.982 C903.865,305.362 883.858,306.481 876.039,305.053 z M921.25,251.719 C935.075,245.506 946.759,229.588 949.986,212.572 C951.585,204.144 951.603,185.4 950.023,175.625 C948.222,164.482 940.066,148.915 932.434,142.053 C923.14,133.697 914.644,130.886 900.625,131.529 C891.12,131.965 888.205,132.644 881.829,135.906 C869.361,142.285 860.552,153.779 855.765,169.914 C853.186,178.606 853.023,206.534 855.498,215.827 C861.28,237.543 874.175,251.153 892.557,254.94 C900.876,256.654 913.395,255.249 921.25,251.719 z M1581.875,303.82 C1554.308,298.672 1534.734,288.598 1517.939,270.915 C1498.005,249.928 1488.221,223.838 1488.298,191.875 C1488.339,174.71 1490.976,159.631 1496.292,146.144 C1499.611,137.723 1498.975,136.25 1492.016,136.25 C1481.498,136.25 1482.734,134.353 1468.267,172.699 C1462.473,188.058 1453.411,211.875 1448.129,225.625 C1442.848,239.375 1434.624,261.031 1429.853,273.75 C1424.705,287.472 1420.12,297.764 1418.576,299.063 C1416.263,301.006 1412.79,301.25 1387.443,301.25 C1371.751,301.25 1357.567,300.739 1355.923,300.113 C1352.594,298.848 1353.558,301.072 1335.01,251.875 C1328.271,234 1319.288,210.375 1315.046,199.375 C1304.081,170.935 1298.148,155.323 1295.571,148.125 C1292.539,139.657 1289.621,136.696 1283.497,135.875 C1280.688,135.498 1277.871,134.444 1277.238,133.532 C1276.089,131.881 1277.043,89.25 1278.273,87.261 C1278.616,86.705 1288.567,86.262 1300.386,86.277 C1318.554,86.301 1322.658,86.661 1326.945,88.608 C1332.816,91.274 1340.207,99.368 1342.171,105.281 C1342.918,107.533 1346.724,118.094 1350.629,128.75 C1354.533,139.406 1363.622,164.719 1370.828,185 C1378.033,205.281 1384.809,223.238 1385.885,224.904 C1387.666,227.662 1387.979,227.746 1389.369,225.844 C1390.21,224.695 1394.147,214.613 1398.119,203.44 C1414.604,157.063 1433.716,104.944 1435.444,101.651 C1438.406,96.005 1446.459,89.09 1451.875,87.543 C1454.96,86.662 1464.295,86.26 1476.25,86.495 L1495.625,86.875 L1496.492,108.603 C1496.969,120.554 1497.655,131.1 1498.016,132.041 C1499.2,135.127 1501.182,133.851 1506.527,126.563 C1509.426,122.609 1516.878,114.592 1523.086,108.747 C1535.621,96.946 1545.68,91.023 1562.5,85.54 C1571.874,82.484 1575.512,82.012 1593.404,81.535 C1612.482,81.027 1614.368,81.191 1625.279,84.313 C1641.816,89.046 1651.296,94.641 1663.914,107.113 C1680.611,123.617 1689.276,142.002 1692.526,167.822 C1694.326,182.123 1693.241,200.33 1690.421,203.15 C1688.833,204.738 1678.881,205 1620.064,205 C1544.419,205 1547.69,204.641 1549.39,212.761 C1552.077,225.595 1565.043,242.401 1576.931,248.456 C1590.995,255.62 1612.45,257.249 1628.306,252.356 C1638.986,249.06 1651.501,242.82 1659.165,236.971 C1662.386,234.512 1665.731,232.5 1666.599,232.5 C1668.414,232.5 1688.835,266.133 1689.67,270.497 C1690.1,272.749 1689.01,274.379 1684.8,277.776 C1657.79,299.567 1615.883,310.172 1581.875,303.82 z M1632.259,157.913 C1632.708,153.279 1628.084,143.426 1622.447,137.006 C1616.026,129.693 1608.978,127.108 1595.12,126.983 C1583.959,126.883 1582.603,127.15 1575.625,130.833 C1566.371,135.716 1557.228,144.921 1553.717,152.887 C1549.32,162.864 1548.148,162.586 1592.98,162.205 L1631.875,161.875 L1632.259,157.913 z M285.625,300.081 C275.876,297.708 268.713,291.166 265.97,282.131 C264.759,278.141 264.375,260.256 264.375,207.88 C264.375,153.943 264.03,138.539 262.795,137.3 C261.907,136.41 256.701,135.421 250.92,135.045 L240.625,134.375 L240.625,110.625 L240.625,86.875 L270,86.511 C286.156,86.311 301.254,86.486 303.55,86.901 C309.291,87.939 318.43,96.584 319.87,102.34 C320.493,104.834 321.364,138.357 321.804,176.835 C322.513,238.714 322.838,247.052 324.621,249.022 C326.177,250.742 328.57,251.25 335.104,251.25 C347.626,251.25 347.5,250.995 347.5,276.25 C347.5,293.739 347.166,297.655 345.536,299.286 C343.862,300.959 339.557,301.231 316.473,301.122 C301.569,301.052 287.687,300.583 285.625,300.081 z M1052.5,300.027 C1050.871,298.998 1050.58,288.382 1050.285,219.204 C1050.065,167.719 1049.497,139.025 1048.678,138.038 C1047.94,137.149 1043.229,136.321 1037.402,136.056 C1030.339,135.735 1027.018,135.053 1026.115,133.738 C1024.849,131.894 1025.678,89.436 1027.023,87.261 C1027.366,86.705 1040.974,86.262 1057.261,86.277 C1083.286,86.302 1087.487,86.583 1091.927,88.6 C1098.756,91.702 1103.333,97.49 1105.7,106.021 C1106.784,109.928 1107.915,113.878 1108.214,114.797 C1108.556,115.855 1112.777,112.695 1119.69,106.204 C1125.704,100.558 1132.875,94.493 1135.625,92.726 C1143.98,87.356 1155.64,83.766 1167.443,82.928 C1177.535,82.212 1178.612,82.362 1181.075,84.825 C1183.615,87.365 1183.75,88.665 1183.75,110.544 C1183.75,123.218 1183.224,134.97 1182.582,136.66 C1181.447,139.644 1180.992,139.745 1166.644,140.194 C1153.14,140.617 1151.15,140.999 1143.408,144.652 C1126.88,152.449 1115.859,167.473 1111.195,188.565 C1109.068,198.18 1108.801,204.787 1108.777,248.348 C1108.753,291.179 1108.504,297.568 1106.786,299.286 C1105.128,300.943 1100.879,301.247 1079.598,301.231 C1065.725,301.22 1053.531,300.679 1052.5,300.027 z M1231.432,299.285 C1222.495,296.881 1218.3,293.671 1214.795,286.554 L1211.875,280.625 L1211.504,210.057 C1211.274,166.372 1210.666,138.927 1209.907,138.013 C1209.233,137.201 1205.002,136.303 1200.505,136.016 C1195.193,135.678 1191.928,134.862 1191.183,133.685 C1189.922,131.691 1189.545,91.39 1190.759,88.227 C1191.421,86.502 1195.203,86.254 1220.446,86.277 C1245.895,86.302 1249.976,86.582 1254.375,88.613 C1260.737,91.549 1264.345,95.494 1267.11,102.536 C1269.078,107.551 1269.372,115.316 1269.964,178.089 L1270.625,248.053 L1273.75,249.633 C1275.469,250.502 1280.612,251.221 1285.179,251.232 C1291.586,251.246 1293.656,251.702 1294.241,253.227 C1294.659,254.315 1295,264.681 1295,276.263 C1295,293.74 1294.666,297.655 1293.036,299.286 C1291.368,300.953 1287.073,301.238 1264.598,301.168 C1245.712,301.109 1236.207,300.569 1231.432,299.285 z M1704.444,102.396 C1704.093,101.422 1703.652,96.687 1703.465,91.875 C1703.154,83.874 1702.884,83.091 1700.312,82.726 C1694.059,81.837 1698.062,80 1706.25,80 C1714.742,80 1718.5,81.931 1711.562,82.729 C1708.192,83.117 1708.118,83.308 1707.751,92.499 C1707.393,101.495 1705.817,106.21 1704.444,102.397 z M1731.348,98.437 C1730.104,95.516 1728.748,92.141 1728.333,90.937 C1727.918,89.734 1726.717,88.75 1725.664,88.75 C1724.177,88.75 1723.75,90.285 1723.75,95.625 C1723.75,99.547 1723.192,102.5 1722.451,102.5 C1721.624,102.5 1721.284,98.526 1721.514,91.562 C1721.848,81.454 1722.079,80.596 1724.563,80.242 C1726.817,79.921 1727.599,80.932 1729.398,86.492 C1733.214,98.286 1735.564,98.521 1739.469,87.5 C1741.315,82.289 1742.506,80.625 1744.39,80.625 C1746.665,80.625 1746.905,81.602 1747.234,92.187 C1747.464,99.572 1747.125,103.75 1746.297,103.75 C1745.583,103.75 1744.991,101.359 1744.981,98.437 C1744.944,87.93 1741.459,87.461 1738.12,97.515 C1736.981,100.944 1735.5,103.75 1734.829,103.75 C1734.158,103.75 1732.592,101.359 1731.348,98.437 z M268.068,54.678 C267.725,53.783 267.597,42.099 267.784,28.713 L268.125,4.375 L292.5,4.375 L316.875,4.375 L316.875,30 L316.875,55.625 L292.784,55.965 C273.913,56.231 268.557,55.952 268.068,54.678 z M1215.568,54.678 C1215.225,53.783 1215.097,42.099 1215.284,28.713 L1215.625,4.375 L1240,4.375 L1264.375,4.375 L1264.375,30 L1264.375,55.625 L1240.284,55.965 C1221.413,56.231 1216.057,55.952 1215.568,54.678 z" fill="#504E4F" id="path4884"/>
    <path d="M29.384,381.265 C28.948,380.559 28.767,325.727 28.983,259.416 C29.347,147.353 29.225,138.702 27.252,136.723 C25.728,135.194 22.295,134.43 15.065,134.011 L5,133.429 L5,110.464 L5,87.5 L34.294,87.5 C52.01,87.5 64.978,88.027 67.106,88.833 C71.86,90.634 76.002,94.668 78.897,100.313 C80.288,103.025 82.222,105 83.486,105 C84.688,105 88.467,102.689 91.885,99.865 C99.655,93.444 112.275,87.025 122.164,84.462 C132.211,81.859 158.962,81.85 169.981,84.447 C185.647,88.14 195.606,94.069 209.511,107.982 C220.448,118.925 222.929,122.222 227.961,132.5 C238.01,153.025 239.246,159.696 239.315,193.75 C239.371,221.215 239.184,223.731 236.433,232.445 C232.349,245.38 228.601,253.492 222.445,262.719 C208.12,284.187 189.367,297.205 165,302.595 C140.233,308.074 114.507,303.698 95.482,290.77 C91.414,288.006 86.977,286.623 85.991,287.812 C85.848,287.984 85.426,309.219 85.053,335 L84.375,381.875 L57.276,382.212 C39.725,382.43 29.898,382.096 29.384,381.265 z M152.719,252.225 C165.525,246.356 175.828,234.55 181.473,219.274 C183.817,212.932 184.21,209.286 184.219,193.75 C184.229,177.28 183.928,174.776 180.909,166.324 C172.783,143.574 158.21,131.498 137.394,130.264 C106.228,128.418 85.862,150.533 84.109,188.125 C83.141,208.881 86.611,222.768 96.445,237.495 C101.787,245.494 108.065,250.037 119.359,254.075 C128.512,257.348 143.332,256.526 152.719,252.225 z M365.571,381.163 C365.101,380.402 364.92,325.567 365.17,259.309 C365.593,147.284 365.476,138.691 363.502,136.717 C361.981,135.195 358.529,134.429 351.315,134.011 L341.25,133.429 L341.25,110.464 L341.25,87.5 L370.544,87.5 C388.26,87.5 401.228,88.027 403.356,88.833 C408.11,90.634 412.252,94.668 415.147,100.313 C416.538,103.025 418.472,105 419.736,105 C420.938,105 424.717,102.689 428.135,99.865 C435.905,93.444 448.525,87.025 458.414,84.462 C468.461,81.859 495.212,81.85 506.231,84.447 C520.691,87.855 531.698,94.143 544.051,106.051 C561.912,123.27 571.167,141.673 576.778,171.13 C578.533,180.346 580.221,188.137 580.529,188.445 C580.837,188.753 581.442,186.839 581.874,184.19 C586.058,158.533 595.355,135.318 607.466,120.285 C619.759,105.026 638.885,92.26 658.75,86.054 C667.201,83.414 670.467,83.125 691.875,83.125 C714.517,83.125 716.053,83.281 724.793,86.474 C738.897,91.626 747.098,97.078 759.63,109.633 C773.656,123.685 779.645,134.844 784.393,155.776 C787.921,171.329 788.811,197.762 785.938,201.619 C784.513,203.53 778.216,203.745 714.641,204.045 C638.101,204.407 641.677,204.016 643.121,211.875 C644.44,219.057 651.171,231.316 657.426,237.93 C676.266,257.85 706.225,261.828 735.51,248.297 C740.723,245.889 748.407,241.519 752.588,238.587 C758.093,234.726 760.68,233.583 761.972,234.441 C764.628,236.203 783.75,268.58 783.75,271.314 C783.75,275.411 762.564,289.447 747.317,295.453 C711.366,309.615 669.425,307.47 637.639,289.845 C621.64,280.973 603.305,261.548 594.722,244.375 C590.416,235.758 584.097,215.796 583.051,207.5 C582.574,203.719 581.768,199.5 581.26,198.125 C580.478,196.007 580.19,196.293 579.373,200 C578.843,202.406 578.004,207.469 577.51,211.25 C575.297,228.179 567.1,250.549 558.503,263.125 C543.881,284.515 525.405,297.252 501.25,302.595 C475.962,308.19 450.6,303.693 430.625,290.073 C427.428,287.894 423.134,286.736 422.241,287.812 C422.098,287.984 421.676,309.219 421.303,335 L420.625,381.875 L393.526,382.212 C374.713,382.445 366.166,382.125 365.571,381.163 z M490.424,251.442 C504.124,244.698 514.195,231.339 518.115,214.711 C520.458,204.776 520.499,182.896 518.193,173.123 C513.68,153.99 503.983,140.402 490.246,133.963 C484.014,131.042 481.562,130.625 470.599,130.625 C458.993,130.625 457.466,130.923 449.82,134.687 C439.808,139.617 432.347,147.375 427.349,158.055 C422.785,167.808 420.965,178.17 420.97,194.375 C420.975,212.793 425.064,226.224 434.67,239.375 C446.505,255.58 471.174,260.919 490.424,251.442 z M725.082,162.456 C733.236,158.092 720.131,135.332 705.181,127.893 C701.772,126.197 697.793,125.636 689.375,125.666 C675.825,125.713 667.739,128.913 658.499,137.885 C648.778,147.324 643.078,161.488 648.438,162.888 C653.145,164.119 722.709,163.726 725.082,162.456 z M867.892,302.656 C862.952,301.409 854.17,298.114 848.377,295.334 C824.583,283.917 804.329,256.64 798.938,228.75 C798.207,224.969 796.881,218.219 795.992,213.75 C795.072,209.129 794.456,198.347 794.562,188.75 C794.726,173.894 795.22,170.23 798.69,158.125 C800.857,150.563 804.924,139.594 807.726,133.75 C812.093,124.644 814.72,121.238 826.098,109.927 C837.175,98.916 841.135,95.861 850,91.492 C865.066,84.066 872.491,82.497 892.45,82.519 C913.302,82.541 921.932,84.43 936.326,92.121 C942.474,95.406 947.99,97.58 949.099,97.154 C951.728,96.145 952.909,85.902 952.299,69.403 C951.68,52.694 951.3,52.251 936.921,51.497 L926.25,50.937 L926.25,27.968 L926.25,5 L957.347,5 C991.212,5 993.939,5.451 1000.233,12.085 C1002.08,14.032 1004.171,17.161 1004.88,19.038 C1005.706,21.225 1006.482,62.705 1007.039,134.465 C1007.846,238.404 1008.066,246.672 1010.091,249.176 C1011.891,251.402 1013.99,251.984 1022.074,252.5 L1031.875,253.125 L1031.875,276.25 L1031.875,299.375 L1001.25,299.375 C974.789,299.375 970.098,299.086 966.748,297.251 C963.129,295.269 958.31,290.251 953.636,283.596 L951.647,280.764 L941.602,288.333 C934.505,293.681 928.322,297.073 920.53,299.892 C910.758,303.428 907.646,303.942 893.189,304.403 C880.262,304.815 875.01,304.452 867.892,302.656 z M923.44,251.337 C944.673,239.958 954.701,215.92 951.59,183.859 C950.396,171.564 949.604,168.525 945.194,159.335 C939.203,146.849 931.584,138.692 921.496,133.963 C911.912,129.471 895.67,129.33 884.629,133.643 C871.198,138.889 859.784,153.227 854.536,171.442 C851.85,180.766 851.794,204.256 854.434,214.425 C859.792,235.065 868.821,246.613 884.901,253.393 C890.906,255.925 893.525,256.277 903.75,255.93 C914.425,255.567 916.415,255.103 923.44,251.337 z M1588.75,304.64 C1588.406,304.277 1583.344,303.152 1577.5,302.14 C1555.037,298.249 1534.81,287.323 1518.627,270.339 C1497.005,247.647 1487.275,219.213 1489.21,184.375 C1489.973,170.633 1492.883,156.158 1496.716,147.035 C1497.835,144.373 1498.75,140.926 1498.75,139.375 C1498.75,137.825 1499.665,135.797 1500.783,134.869 C1501.902,133.94 1504.574,130.595 1506.721,127.434 C1508.868,124.274 1516.1,116.556 1522.792,110.284 C1532.409,101.269 1537.385,97.685 1546.542,93.177 C1563.685,84.738 1574.104,82.5 1596.25,82.5 C1627.896,82.5 1643.671,88.526 1663.168,108.06 C1671.951,116.861 1675.783,121.875 1680.411,130.625 C1689.394,147.608 1691.759,157.969 1691.822,180.625 C1691.851,190.938 1691.471,200.359 1690.977,201.563 C1690.137,203.608 1685.639,203.75 1621.528,203.75 C1566.008,203.75 1552.54,204.07 1550.674,205.435 C1545.22,209.423 1552.32,227.468 1563.918,239.098 C1578.698,253.919 1602.578,259.936 1624.425,254.343 C1634.282,251.819 1651.53,243.524 1659.634,237.411 C1663.214,234.71 1666.429,232.5 1666.779,232.5 C1667.129,232.5 1672.5,241.035 1678.716,251.467 C1691.837,273.487 1691.885,271.841 1677.834,281.992 C1666.79,289.971 1648.497,298.066 1634.142,301.327 C1623.792,303.677 1590.163,306.132 1588.75,304.64 z M1629.701,162.959 C1634.596,161.647 1634.525,157.049 1629.452,146.784 C1623.117,133.966 1615.59,128.196 1602.568,126.176 C1591.223,124.415 1585.705,125.227 1576.118,130.067 C1566.605,134.869 1559.465,141.344 1554.892,149.316 C1550.748,156.541 1550.3,160.572 1553.438,162.4 C1555.799,163.776 1624.767,164.281 1629.701,162.959 z M280.625,297.642 C274.858,294.958 269.626,289.762 267.267,284.375 C265.974,281.423 265.625,265.542 265.625,209.736 C265.625,144.717 265.449,138.671 263.502,136.721 C261.979,135.194 258.54,134.43 251.315,134.011 L241.25,133.429 L241.25,110.464 L241.25,87.5 L271.915,87.5 C305.282,87.5 307.8,87.921 313.983,94.534 C319.561,100.499 320,103.4 320,134.252 C320,150.252 320.373,182.048 320.829,204.91 C321.818,254.451 320.904,251.549 335.824,252.5 L345.625,253.125 L345.625,276.25 L345.625,299.375 L315.625,299.672 C288.612,299.939 285.127,299.737 280.625,297.642 z M1052.107,299.19 C1051.636,298.719 1051.25,262.816 1051.25,219.406 C1051.25,153.288 1050.963,140.084 1049.479,138.051 C1048.049,136.091 1045.707,135.505 1037.292,135 L1026.875,134.375 L1026.451,128.75 C1026.218,125.656 1026.417,115.109 1026.894,105.313 L1027.76,87.5 L1057.68,87.5 C1084.992,87.5 1088.021,87.715 1092.432,89.965 C1099.822,93.735 1104.228,100.736 1106.812,112.813 C1107.217,114.703 1108.159,116.25 1108.906,116.25 C1109.653,116.25 1114.564,112.229 1119.82,107.315 C1131.644,96.257 1139.796,90.761 1149.356,87.401 C1158.554,84.168 1177.817,82.669 1180.589,84.97 C1182.192,86.3 1182.5,90.764 1182.5,112.653 L1182.5,138.75 L1170.938,138.765 C1164.578,138.774 1156.478,139.551 1152.938,140.494 C1137.526,144.597 1124.911,154.872 1117.149,169.644 C1108.949,185.248 1108.433,189.457 1107.61,247.5 L1106.875,299.375 L1079.92,299.711 C1065.094,299.896 1052.578,299.662 1052.107,299.19 z M1229.447,298.146 C1222.376,295.611 1218.479,292.41 1215.625,286.794 C1213.235,282.091 1213.097,278.73 1212.5,210.374 C1212.008,154.098 1211.529,138.527 1210.253,137.249 C1209.36,136.356 1204.86,135.344 1200.253,135 L1191.875,134.375 L1191.875,111.25 L1191.875,88.125 L1220.942,87.789 C1247.49,87.483 1250.415,87.661 1254.692,89.844 C1260.405,92.76 1262.808,95.364 1265.793,101.875 C1267.903,106.477 1268.137,112.459 1268.73,176.997 C1269.245,233.037 1269.711,247.524 1271.05,249.136 C1272.287,250.625 1275.394,251.247 1282.925,251.514 L1293.125,251.875 L1293.125,275.625 L1293.125,299.375 L1263.75,299.644 C1241.047,299.852 1233.256,299.512 1229.447,298.146 z M1353.893,298.297 C1353.096,297.338 1348.464,285.938 1343.599,272.964 C1333.442,245.879 1330.524,238.191 1310.925,186.875 C1303.048,166.25 1295.94,147.334 1295.129,144.839 C1293.158,138.768 1289.739,135.925 1283.392,135.078 L1278.125,134.375 L1277.707,127.5 C1277.478,123.719 1277.676,113.172 1278.148,104.063 L1279.006,87.5 L1300.44,87.528 C1333.666,87.57 1335.844,89.26 1348.75,125 C1353.731,138.793 1370.739,186.347 1378.748,208.872 C1384.313,224.522 1385.786,227.5 1387.968,227.5 C1388.865,227.5 1390.308,225.953 1391.175,224.063 C1392.465,221.249 1408.984,175.416 1421.924,138.75 C1431.184,112.511 1436.682,100.361 1441.627,95.215 C1448.25,88.323 1451.738,87.5 1474.332,87.5 L1494.609,87.5 L1495.456,107.813 C1495.922,118.984 1496.638,129.672 1497.047,131.563 C1497.775,134.922 1497.661,135 1492.041,135 C1484.221,135 1479.891,139.168 1475.807,150.625 C1474.092,155.438 1465.972,177.094 1457.762,198.75 C1443.483,236.415 1437.887,251.032 1424.984,284.375 L1419.179,299.375 L1387.26,299.708 C1361.172,299.981 1355.076,299.723 1353.893,298.297 z M1705.248,92.917 C1705.083,86.119 1704.478,82.498 1703.438,82.078 C1702.578,81.731 1703.491,81.403 1705.465,81.349 C1708.268,81.272 1708.761,81.605 1707.713,82.868 C1706.974,83.758 1706.173,88.68 1705.933,93.806 L1705.497,103.125 L1705.248,92.917 z M1733.299,101.633 C1731.805,100.139 1732.492,97.5 1734.375,97.5 C1735.406,97.5 1736.25,98.311 1736.25,99.301 C1736.25,101.39 1734.466,102.799 1733.299,101.633 z M1744.498,89.245 C1744.075,88.143 1742.949,87.54 1741.997,87.905 C1740.663,88.417 1740.47,87.799 1741.159,85.223 C1741.652,83.381 1742.999,81.693 1744.152,81.471 C1745.839,81.146 1746.25,82.065 1746.25,86.158 C1746.25,91.587 1745.741,92.484 1744.498,89.245 z M1722.5,84.827 C1722.5,82.083 1723.083,81.25 1725,81.25 C1726.375,81.25 1727.5,81.767 1727.5,82.398 C1727.5,83.029 1727.814,84.364 1728.198,85.363 C1728.668,86.59 1727.855,87.38 1725.698,87.792 C1722.87,88.333 1722.5,87.989 1722.5,84.827 z M268.75,30 L268.75,5 L292.5,5 L316.25,5 L316.25,30 L316.25,55 L292.5,55 L268.75,55 L268.75,30 z M1216.25,30 L1216.25,5 L1240,5 L1263.75,5 L1263.75,30 L1263.75,55 L1240,55 L1216.25,55 L1216.25,30 z" fill="#383738" id="path4882"/>
    <path d="M30,328.88 L30,276.51 L44.063,271.551 C51.797,268.824 69.278,263.052 82.91,258.724 L107.696,250.857 L115.535,253.624 C139.469,262.074 159.65,255.239 175.625,233.275 C177.835,230.236 181.242,228.998 205,222.599 C242.3,212.553 238.75,213.178 238.75,216.651 C238.75,222.257 233.694,239.409 229.321,248.639 C219.362,269.659 204.392,285.388 185.904,294.258 C171.346,301.242 160.026,303.75 143.059,303.75 C124.123,303.75 110.876,299.733 94.86,289.134 C89.018,285.268 85.894,285.738 84.845,290.64 C84.405,292.694 83.979,313.922 83.898,337.813 L83.75,381.25 L56.875,381.25 L30,381.25 L30,328.88 z M366.25,282.524 L366.25,183.798 L369.062,183.135 C373.015,182.203 419.95,172.5 420.504,172.5 C420.754,172.5 420.683,179.672 420.345,188.438 C419.633,206.927 421.413,216.788 427.833,229.919 C439.794,254.383 466.83,263.958 491.057,252.31 C499.158,248.415 510.101,237.091 514.238,228.322 C522.25,211.337 523.48,184.934 517.13,166.25 C515.377,161.094 514.322,156.519 514.784,156.085 C516.088,154.86 567.361,147.179 569.291,147.92 C571.422,148.737 576.089,168.224 577.571,182.49 C579.614,202.151 574.823,228.475 565.547,248.55 C555.98,269.26 540.704,285.353 522.154,294.267 C506.235,301.916 495.091,304.138 475.925,303.484 C457.923,302.87 449.305,300.367 435.309,291.689 C430.323,288.598 425.265,286.257 424.069,286.487 C422.828,286.726 421.551,288.51 421.095,290.64 C420.655,292.694 420.229,313.922 420.148,337.813 L420,381.25 L393.125,381.25 L366.25,381.25 L366.25,282.524 z M675.664,302.431 C664.958,300.767 653.529,296.778 640.625,290.199 C625.962,282.724 608.367,266.12 599.788,251.663 C583.049,223.454 579.138,192.522 588.197,160 C592.197,145.642 593.034,143.961 596.599,143.139 C599.82,142.397 654.862,135.002 657.179,135.001 C658.034,135 656.683,137.672 654.177,140.938 C648.619,148.179 644.703,156.661 645.232,160.311 C645.844,164.536 652.102,165.154 690.123,164.746 C727.513,164.344 728.75,164.113 728.75,157.547 C728.75,152.043 721.587,139.259 715.503,133.903 L709.914,128.984 L714.645,128.245 C726.888,126.333 769.105,122.572 770.267,123.29 C772.896,124.915 781.055,144.687 783.869,156.25 C786.125,165.523 786.748,171.569 786.715,183.84 C786.692,192.484 786.263,200.218 785.762,201.028 C785.083,202.127 768.027,202.502 718.364,202.507 C676.131,202.512 650.165,202.989 647.188,203.816 C642.775,205.041 642.5,205.409 642.5,210.086 C642.5,217.704 648.82,230.198 657.024,238.799 C664.851,247.005 674.523,252.457 686.825,255.598 C705.856,260.457 730.084,254.711 751.487,240.264 L761.098,233.776 L763.441,237.201 C764.73,239.084 769.903,247.507 774.937,255.917 C782.694,268.877 783.843,271.506 782.475,273.155 C779.681,276.522 760.705,288.587 751.986,292.541 C735.643,299.951 722.576,302.725 701.875,303.179 C691.562,303.405 679.767,303.068 675.664,302.431 z M866.059,301.388 C850.046,296.957 839.181,290.529 826.825,278.174 C809.853,261.204 802.588,245.875 797.453,216.196 C793.832,195.263 794.464,175.765 799.317,158.75 C803.448,144.268 813.994,121.932 817.824,119.552 C820.64,117.802 829.748,116.956 886.875,113.137 C921.835,110.8 986.734,107.5 997.733,107.5 L1006.151,107.5 L1006.513,177.466 C1006.937,259.369 1005.497,252.163 1021.679,253.387 L1031.25,254.111 L1031.25,276.43 L1031.25,298.75 L1002.46,298.75 C979.26,298.75 972.767,298.373 969.022,296.809 C963.344,294.437 958.173,289.642 956.226,284.943 C953.876,279.268 951.632,279.472 943.163,286.128 C934.462,292.965 927.888,296.599 917.56,300.28 C907.277,303.946 877.609,304.584 866.059,301.388 z M923.34,252.486 C944.713,241.968 955.931,215.708 952.533,184.147 C950.909,169.062 948.208,160.917 941.27,150.182 C931.058,134.383 914.319,127.014 895.479,130.023 C866.91,134.587 849.742,160.931 851.583,197.378 C853.556,236.429 873.893,258.825 905.625,256.892 C913.417,256.417 917.328,255.444 923.34,252.486 z M1578.288,301.777 C1566.365,299.521 1552.18,294.179 1541.275,287.836 C1528.873,280.623 1512.995,264.688 1505.23,251.663 C1494.251,233.246 1490.007,216.197 1490.036,190.625 C1490.053,174.978 1492.911,159.356 1498.655,143.503 C1501.196,136.49 1509.95,122.688 1512.876,121.079 C1514.188,120.358 1550.612,123.382 1571.875,125.976 L1579.375,126.891 L1572.499,130.781 C1561.038,137.263 1550.111,151.291 1550.027,159.629 C1550.006,161.755 1551.068,162.679 1554.688,163.684 C1559.731,165.085 1622.936,165.275 1629.375,163.909 C1632.73,163.197 1633.165,162.563 1633.505,157.89 C1633.944,151.859 1630.833,144.815 1624.023,136.419 L1619.597,130.962 L1624.486,131.684 C1627.175,132.081 1641.469,133.897 1656.25,135.718 C1671.031,137.539 1683.557,139.427 1684.086,139.913 C1684.615,140.399 1686.224,144.696 1687.661,149.461 C1689.622,155.958 1690.436,162.877 1690.914,177.128 C1691.264,187.58 1691.191,197.564 1690.752,199.316 L1689.952,202.5 L1622.789,202.625 C1585.849,202.693 1554.272,203.128 1552.618,203.591 C1547.778,204.945 1546.728,207.798 1548.551,214.635 C1553.51,233.232 1567.703,247.944 1586.565,254.037 C1598.229,257.805 1616.499,257.76 1628.719,253.933 C1640.198,250.339 1648.202,246.378 1658.609,239.144 C1663.001,236.091 1666.996,234.051 1667.489,234.609 C1667.981,235.168 1673.051,243.443 1678.756,252.998 C1686.761,266.407 1688.845,270.829 1687.888,272.373 C1683.261,279.841 1653.524,295.791 1636.25,300.07 C1622.111,303.572 1592.403,304.447 1578.288,301.777 z M281.25,297.349 C277.201,295.739 271.575,290.371 268.964,285.625 C267.205,282.429 266.836,276.325 266.468,244.321 L266.035,206.767 L291.455,200.679 C305.436,197.331 317.529,194.361 318.329,194.079 C319.397,193.702 319.895,200.718 320.204,220.5 C320.712,253.028 320.351,252.247 335.429,253.387 L345,254.111 L345,276.43 L345,298.75 L314.688,298.671 C297.739,298.627 282.997,298.044 281.25,297.349 z M1052.214,218.794 C1051.897,144.067 1051.729,138.693 1049.65,136.614 C1047.987,134.951 1044.912,134.276 1037.463,133.938 L1027.5,133.485 L1027.5,120.008 L1027.5,106.53 L1056.562,105.663 C1072.547,105.186 1089.844,104.982 1095,105.21 L1104.375,105.625 L1105.522,111.563 C1107.013,119.281 1109.019,119.226 1116.875,111.25 L1123.031,105 L1152.007,105 C1177.276,105 1181.08,105.253 1181.741,106.977 C1182.724,109.539 1182.698,123.799 1181.694,132.151 L1180.91,138.676 L1173.759,137.929 C1157.313,136.21 1138.53,142.769 1127.087,154.226 C1117.667,163.657 1112.777,173.754 1109.245,191.067 C1106.435,204.845 1106.275,208.119 1106.263,252.188 L1106.25,298.75 L1079.402,298.75 L1052.554,298.75 L1052.214,218.794 z M1228.355,296.939 C1222.706,294.924 1219.249,292.007 1216.435,286.878 C1214.611,283.555 1214.303,274.867 1213.75,210.981 C1213.031,128.006 1214.185,134.84 1200.75,133.984 C1193.826,133.543 1192.62,133.104 1192.002,130.799 C1190.875,126.601 1191.167,108.317 1192.391,106.383 C1193.307,104.937 1199.55,104.748 1229.277,105.268 C1248.958,105.612 1265.468,106.301 1265.968,106.8 C1266.467,107.298 1267.156,139.14 1267.5,177.559 C1268.08,242.376 1268.285,247.573 1270.349,249.636 C1272.013,251.299 1275.089,251.974 1282.537,252.312 L1292.5,252.765 L1292.5,275.757 L1292.5,298.75 L1262.812,298.695 C1241.06,298.655 1231.85,298.186 1228.355,296.939 z M1353.632,296.03 C1352.832,294.534 1348.561,283.706 1344.141,271.968 C1328.749,231.09 1325.157,221.621 1309.505,180.662 C1300.843,157.996 1292.736,138.431 1291.49,137.185 C1290.245,135.939 1287.009,134.57 1284.3,134.142 C1281.591,133.714 1278.962,132.747 1278.457,131.994 C1277.208,130.132 1277.287,109.771 1278.551,107.779 C1279.363,106.499 1285.478,106.436 1309.469,107.459 C1325.917,108.161 1339.777,108.739 1340.268,108.743 C1341.679,108.754 1343.59,112.959 1348.697,127.284 C1351.312,134.622 1358.083,153.563 1363.743,169.375 C1369.403,185.188 1375.399,202.063 1377.068,206.875 C1384.826,229.253 1387.027,232.562 1390.547,227.147 C1391.538,225.623 1398.356,207.5 1405.697,186.875 C1413.038,166.25 1420.995,144.031 1423.38,137.5 C1425.765,130.969 1428.563,123.235 1429.599,120.314 C1430.636,117.393 1431.922,114.732 1432.457,114.401 C1433.442,113.793 1493.672,118.256 1494.408,118.992 C1494.627,119.211 1495.188,122.762 1495.654,126.883 L1496.502,134.375 L1490.779,134.375 C1480.816,134.375 1481.284,133.541 1461.344,186.875 C1458.002,195.813 1449.56,218.031 1442.583,236.25 C1425.375,281.188 1420.497,293.985 1419.594,296.563 C1418.892,298.569 1416.185,298.75 1386.958,298.75 C1355.509,298.75 1355.068,298.714 1353.632,296.03 z" fill="#221E1F" id="path4880"/>
  </g>
</svg>
