<?xml version="1.0" encoding="UTF-8"?>
<!DOCTYPE svg PUBLIC "-//W3C//DTD SVG 1.1//EN" "http://www.w3.org/Graphics/SVG/1.1/DTD/svg11.dtd">
<svg version="1.1" xmlns="http://www.w3.org/2000/svg" xmlns:xlink="http://www.w3.org/1999/xlink" x="0" y="0" width="520" height="120" viewBox="0, 0, 520, 120">
  <g id="Layer_1">
    <path d="M145.8,102.562 L147.261,102.562 L152.071,89.472 L153.633,89.472 L158.443,102.562 L159.904,102.562 L159.904,103.739 L155.338,103.739 L155.338,102.562 L156.982,102.562 L155.622,98.888 L150.061,98.888 L148.722,102.562 L150.366,102.562 L150.366,103.739 L145.8,103.739 L145.8,102.562 z M155.237,97.691 L153.106,91.846 C152.943,91.38 152.882,90.933 152.882,90.933 L152.822,90.933 C152.822,90.933 152.781,91.38 152.619,91.846 L150.447,97.691 L155.237,97.691" fill="#919A9C"/>
    <path d="M168.17,99.761 L168.17,100.796 C168.17,101.994 169.651,102.683 171.295,102.683 C173.142,102.683 174.481,101.77 174.481,100.106 C174.481,98.239 172.756,97.589 170.909,96.9 C169.042,96.189 167.094,95.438 167.094,92.942 C167.094,90.446 169.103,89.228 171.437,89.228 C173.466,89.228 175.557,90.02 175.557,91.461 L175.557,92.983 L174.197,92.983 L174.197,91.927 C174.197,91.014 172.716,90.527 171.437,90.527 C169.813,90.527 168.555,91.319 168.555,92.84 C168.555,94.566 170.097,95.114 171.822,95.784 C173.893,96.554 175.942,97.346 175.942,99.964 C175.942,102.481 173.933,103.982 171.295,103.982 C169.245,103.982 166.81,103.069 166.81,101.121 L166.81,99.761 L168.17,99.761" fill="#919A9C"/>
    <path d="M184.225,97.488 L184.895,97.488 L184.895,97.062 C184.895,95.155 183.86,94.485 182.439,94.485 C180.714,94.485 179.476,95.479 179.476,95.479 L178.827,94.444 C178.827,94.444 180.207,93.288 182.521,93.288 C184.996,93.288 186.275,94.606 186.275,97.123 L186.275,102.156 C186.275,102.461 186.437,102.602 186.721,102.602 L187.837,102.602 L187.837,103.739 L186.173,103.739 C185.301,103.739 184.956,103.353 184.956,102.623 L184.956,102.44 C184.956,101.953 185.017,101.649 185.017,101.649 L184.976,101.649 C184.976,101.649 184.103,103.982 181.485,103.982 C179.821,103.982 178.076,103.029 178.076,100.938 C178.076,97.63 182.5,97.488 184.225,97.488 z M181.689,102.846 C183.738,102.846 184.895,100.796 184.895,99.01 L184.895,98.523 L184.306,98.523 C183.474,98.523 179.497,98.442 179.497,100.796 C179.497,101.851 180.268,102.846 181.689,102.846" fill="#919A9C"/>
    <path d="M190.316,90.609 L188.51,90.609 L188.51,89.472 L191.696,89.472 L191.696,101.081 C191.696,101.913 191.92,102.602 192.853,102.602 C193.219,102.602 193.421,102.562 193.421,102.562 L193.421,103.739 C193.421,103.739 193.036,103.799 192.63,103.799 C191.291,103.799 190.316,103.13 190.316,101.182 L190.316,90.609" fill="#919A9C"/>
    <path d="M200.201,93.288 C203.022,93.288 204.483,95.459 204.483,97.996 C204.483,98.239 204.422,98.645 204.422,98.645 L196.589,98.645 C196.649,101.263 198.436,102.745 200.546,102.745 C202.413,102.745 203.651,101.527 203.651,101.527 L204.28,102.562 C204.28,102.562 202.819,103.982 200.505,103.982 C197.461,103.982 195.168,101.791 195.168,98.645 C195.168,95.297 197.441,93.288 200.201,93.288 z M203.042,97.63 C202.961,95.479 201.662,94.444 200.161,94.444 C198.456,94.444 196.975,95.56 196.649,97.63 L203.042,97.63" fill="#919A9C"/>
    <path d="M206.658,100.573 L207.916,100.573 L207.916,101.303 C207.916,102.338 209.397,102.785 210.575,102.785 C211.873,102.785 212.969,102.216 212.969,101.182 C212.969,100.004 211.67,99.599 210.209,99.051 C208.667,98.483 207.043,97.793 207.043,96.006 C207.043,94.139 208.87,93.288 210.575,93.288 C211.954,93.288 213.964,93.876 213.964,95.276 L213.964,96.454 L212.705,96.454 L212.705,95.703 C212.705,94.952 211.691,94.485 210.615,94.485 C209.478,94.485 208.464,94.971 208.464,95.966 C208.464,97.083 209.702,97.549 211.041,98.036 C212.624,98.604 214.369,99.274 214.369,101.1 C214.369,102.866 212.786,103.982 210.514,103.982 C208.626,103.982 206.658,103.13 206.658,101.567 L206.658,100.573" fill="#919A9C"/>
    <path d="M216.422,102.602 L218.147,102.602 L218.147,94.668 L216.32,94.668 L216.32,93.531 L218.147,93.531 L218.147,93.004 C218.147,89.776 220.42,89.371 221.475,89.371 C221.982,89.371 222.307,89.431 222.307,89.431 L222.307,90.629 C222.307,90.629 222.043,90.568 221.617,90.568 C220.927,90.568 219.527,90.811 219.527,92.983 L219.527,93.531 L222.124,93.531 L222.124,94.668 L219.527,94.668 L219.527,102.602 L221.556,102.602 L221.556,103.739 L216.422,103.739 L216.422,102.602" fill="#919A9C"/>
    <path d="M229.006,93.288 C231.989,93.288 234.404,95.56 234.404,98.585 C234.404,101.669 231.989,103.982 229.006,103.982 C226.043,103.982 223.628,101.669 223.628,98.585 C223.628,95.56 226.043,93.288 229.006,93.288 z M229.006,102.745 C231.198,102.745 232.984,100.959 232.984,98.585 C232.984,96.27 231.198,94.525 229.006,94.525 C226.835,94.525 225.049,96.27 225.049,98.585 C225.049,100.959 226.835,102.745 229.006,102.745" fill="#919A9C"/>
    <path d="M236.478,102.602 L238.061,102.602 L238.061,95.114 C238.061,94.809 237.899,94.668 237.614,94.668 L236.235,94.668 L236.235,93.531 L238.162,93.531 C239.015,93.531 239.401,93.876 239.401,94.688 L239.401,95.378 C239.401,95.804 239.36,96.149 239.36,96.149 L239.401,96.149 C239.908,94.606 241.044,93.429 242.627,93.429 C242.911,93.429 243.195,93.49 243.195,93.49 L243.195,94.85 C243.195,94.85 242.932,94.809 242.668,94.809 C240.375,94.809 239.441,97.386 239.441,99.417 L239.441,102.602 L241.024,102.602 L241.024,103.739 L236.478,103.739 L236.478,102.602" fill="#919A9C"/>
    <path d="M249.854,93.288 C251.132,93.288 253.628,93.815 253.628,95.5 L253.628,96.616 L252.35,96.616 L252.35,95.865 C252.35,94.952 250.808,94.525 249.874,94.525 C247.642,94.525 245.937,96.149 245.937,98.625 C245.937,101.162 247.743,102.745 249.935,102.745 C251.924,102.745 253.101,101.486 253.284,101.344 L253.872,102.399 C253.649,102.602 252.249,103.982 249.895,103.982 C246.972,103.982 244.517,101.913 244.517,98.666 C244.517,95.479 246.911,93.288 249.854,93.288" fill="#919A9C"/>
    <path d="M260.937,93.288 C263.758,93.288 265.22,95.459 265.22,97.996 C265.22,98.239 265.159,98.645 265.159,98.645 L257.325,98.645 C257.386,101.263 259.172,102.745 261.283,102.745 C263.149,102.745 264.388,101.527 264.388,101.527 L265.017,102.562 C265.017,102.562 263.555,103.982 261.242,103.982 C258.198,103.982 255.904,101.791 255.904,98.645 C255.904,95.297 258.177,93.288 260.937,93.288 z M263.779,97.63 C263.697,95.479 262.398,94.444 260.897,94.444 C259.192,94.444 257.71,95.56 257.386,97.63 L263.779,97.63" fill="#919A9C"/>
    <path d="M279.957,89.228 C281.682,89.228 285.274,89.878 285.274,92.07 L285.274,93.591 L283.914,93.591 L283.914,92.456 C283.914,91.055 281.479,90.508 280.018,90.508 C276.71,90.508 274.214,93.024 274.214,96.473 C274.214,100.025 276.71,102.704 280.099,102.704 C281.256,102.704 284.138,102.257 284.138,100.755 L284.138,99.639 L285.497,99.639 L285.497,101.162 C285.497,103.231 282.027,103.982 280.058,103.982 C275.797,103.982 272.732,100.654 272.732,96.514 C272.732,92.354 275.878,89.228 279.957,89.228" fill="#919A9C"/>
    <path d="M293.153,93.288 C296.136,93.288 298.551,95.56 298.551,98.585 C298.551,101.669 296.136,103.982 293.153,103.982 C290.19,103.982 287.775,101.669 287.775,98.585 C287.775,95.56 290.19,93.288 293.153,93.288 z M293.153,102.745 C295.344,102.745 297.131,100.959 297.131,98.585 C297.131,96.27 295.344,94.525 293.153,94.525 C290.981,94.525 289.196,96.27 289.196,98.585 C289.196,100.959 290.981,102.745 293.153,102.745" fill="#919A9C"/>
    <path d="M300.523,102.602 L302.248,102.602 L302.248,95.114 C302.248,94.809 302.085,94.668 301.801,94.668 L300.421,94.668 L300.421,93.531 L302.369,93.531 C303.222,93.531 303.607,93.896 303.607,94.668 L303.607,95.255 C303.607,95.662 303.526,95.987 303.526,95.987 L303.566,95.987 C304.094,94.606 305.738,93.288 307.361,93.288 C309.209,93.288 310.183,94.16 310.467,95.885 L310.507,95.885 C311.075,94.525 312.557,93.288 314.282,93.288 C316.737,93.288 317.651,94.728 317.651,97.245 L317.651,102.602 L319.375,102.602 L319.375,103.739 L316.271,103.739 L316.271,97.589 C316.271,95.925 315.926,94.546 314.079,94.546 C312.009,94.546 310.649,96.737 310.649,98.848 L310.649,102.602 L312.374,102.602 L312.374,103.739 L309.269,103.739 L309.269,97.589 C309.269,96.047 309.066,94.546 307.118,94.546 C305.028,94.546 303.628,96.757 303.628,98.888 L303.628,102.602 L305.353,102.602 L305.353,103.739 L300.523,103.739 L300.523,102.602" fill="#919A9C"/>
    <path d="M322.284,106.661 L322.284,95.114 C322.284,94.809 322.122,94.668 321.837,94.668 L320.457,94.668 L320.457,93.531 L322.385,93.531 C323.258,93.531 323.603,93.896 323.603,94.606 L323.603,94.688 C323.603,95.093 323.542,95.398 323.542,95.398 L323.582,95.398 C323.582,95.398 324.414,93.288 327.154,93.288 C329.894,93.288 331.599,95.479 331.599,98.645 C331.599,101.872 329.671,103.982 327.012,103.982 C324.557,103.982 323.643,101.953 323.643,101.953 L323.603,101.953 C323.603,101.953 323.664,102.318 323.664,102.846 L323.664,106.661 L325.389,106.661 L325.389,107.797 L320.559,107.797 L320.559,106.661 L322.284,106.661 z M326.87,102.745 C328.676,102.745 330.178,101.243 330.178,98.645 C330.178,96.149 328.839,94.546 326.931,94.546 C325.226,94.546 323.643,95.763 323.643,98.666 C323.643,100.715 324.78,102.745 326.87,102.745" fill="#919A9C"/>
    <path d="M339.7,97.488 L340.369,97.488 L340.369,97.062 C340.369,95.155 339.334,94.485 337.913,94.485 C336.188,94.485 334.951,95.479 334.951,95.479 L334.301,94.444 C334.301,94.444 335.681,93.288 337.995,93.288 C340.47,93.288 341.749,94.606 341.749,97.123 L341.749,102.156 C341.749,102.461 341.911,102.602 342.196,102.602 L343.312,102.602 L343.312,103.739 L341.648,103.739 C340.775,103.739 340.43,103.353 340.43,102.623 L340.43,102.44 C340.43,101.953 340.491,101.649 340.491,101.649 L340.45,101.649 C340.45,101.649 339.577,103.982 336.96,103.982 C335.296,103.982 333.55,103.029 333.55,100.938 C333.55,97.63 337.974,97.488 339.7,97.488 z M337.163,102.846 C339.212,102.846 340.369,100.796 340.369,99.01 L340.369,98.523 L339.781,98.523 C338.949,98.523 334.971,98.442 334.971,100.796 C334.971,101.851 335.742,102.846 337.163,102.846" fill="#919A9C"/>
    <path d="M344.999,102.602 L346.724,102.602 L346.724,95.114 C346.724,94.809 346.561,94.668 346.277,94.668 L344.897,94.668 L344.897,93.531 L346.845,93.531 C347.698,93.531 348.083,93.896 348.083,94.668 L348.083,95.255 C348.083,95.662 348.002,95.987 348.002,95.987 L348.043,95.987 C348.327,95.215 349.646,93.288 352.203,93.288 C354.719,93.288 355.592,94.728 355.592,97.245 L355.592,102.602 L357.317,102.602 L357.317,103.739 L354.212,103.739 L354.212,97.61 C354.212,96.006 353.948,94.587 351.98,94.587 C349.727,94.587 348.104,96.575 348.104,98.828 L348.104,102.602 L349.829,102.602 L349.829,103.739 L344.999,103.739 L344.999,102.602" fill="#919A9C"/>
    <path d="M360.284,106.783 C361.197,106.783 361.847,106.052 362.233,105.16 L362.801,103.799 L359.148,94.668 L357.808,94.668 L357.808,93.531 L362.09,93.531 L362.09,94.668 L360.609,94.668 L363.288,101.628 C363.41,102.014 363.45,102.359 363.45,102.359 L363.511,102.359 C363.511,102.359 363.572,102.014 363.714,101.628 L366.393,94.668 L364.911,94.668 L364.911,93.531 L369.132,93.531 L369.132,94.668 L367.793,94.668 L363.45,105.626 C362.862,107.087 361.746,108 360.325,108 C359.168,108 358.397,107.392 358.397,107.392 L358.924,106.295 C358.924,106.295 359.513,106.783 360.284,106.783" fill="#919A9C"/>
    <path d="M191.857,73.717 L191.857,75.105 L182.206,75.105 L167.969,55.146 L155.372,55.146 L155.372,75.105 L145.8,75.105 L145.8,17.84 L169.443,17.84 C181.88,17.84 189.322,26.266 189.322,36.492 C189.322,44.429 184.578,51.054 177.295,53.672 L191.857,73.717 z M169.361,47.291 C175.577,47.291 180.079,42.792 180.079,36.574 C180.079,30.603 175.66,26.103 169.361,26.103 L155.208,26.103 L155.208,47.291 L169.361,47.291" fill="#5D6F73"/>
    <path d="M233.968,57.028 L204.844,57.028 C204.844,64.226 210.489,68.479 217.69,68.479 C222.597,68.723 227.343,68.069 232.005,66.026 L233.15,72.653 C228.57,74.698 223.251,76.005 218.261,76.005 C205.253,76.253 195.681,67.907 196.091,54.573 C196.335,41.402 205.827,34.775 216.543,34.775 C230.369,34.775 236.586,43.937 233.968,57.028 z M205.009,50.726 L226.769,50.726 C227.014,44.756 222.107,41.647 216.461,41.647 C210.57,41.647 206.234,44.51 205.009,50.726" fill="#5D6F73"/>
    <path d="M251.844,15.222 L251.844,60.951 C251.844,67.497 253.564,69.543 260.352,68.479 L260.681,75.352 C248.572,77.314 243.011,74.205 243.011,61.034 L243.011,15.222 L251.844,15.222" fill="#5D6F73"/>
    <path d="M280.404,75.843 C273.206,75.843 266.252,71.26 266.252,63.572 C266.006,54.163 272.879,49.663 281.551,49.663 C285.394,49.663 289.73,50.644 293.248,52.61 L293.248,48.682 C293.248,38.292 275.497,41.729 270.588,44.183 L269.278,37.801 C273.288,35.756 278.604,34.693 283.842,34.693 C293.412,34.693 301.919,38.046 301.919,48.927 L301.919,64.472 C301.919,68.151 301.754,70.524 306.012,70.116 L306.175,75.188 C299.956,76.253 295.13,76.253 294.885,68.479 C292.265,73.717 285.967,75.843 280.404,75.843 z M293.248,58.335 C290.304,56.618 286.541,55.554 283.023,55.635 C278.686,55.718 275.005,58.253 275.005,63.081 C275.005,67.007 278.604,68.807 282.205,68.807 C286.867,68.807 292.35,66.599 293.248,61.606 L293.248,58.335" fill="#5D6F73"/>
    <path d="M324.251,35.756 L337.913,35.756 L337.913,42.138 L324.251,42.138 L324.251,59.889 C324.251,69.951 330.549,70.604 338.648,67.742 L339.548,74.451 C326.05,78.622 315.497,75.515 315.497,60.051 L315.497,42.138 L307.679,41.565 L307.679,35.756 L315.497,35.756 L316.397,23.567 L324.251,23.567 L324.251,35.756" fill="#5D6F73"/>
    <path d="M381.331,57.028 L352.208,57.028 C352.208,64.226 357.852,68.479 365.05,68.479 C369.961,68.723 374.704,68.069 379.366,66.026 L380.514,72.653 C375.932,74.698 370.615,76.005 365.623,76.005 C352.615,76.253 343.046,67.907 343.453,54.573 C343.699,41.402 353.188,34.775 363.906,34.775 C377.731,34.775 383.95,43.937 381.331,57.028 z M352.371,50.726 L374.131,50.726 C374.377,44.756 369.471,41.647 363.825,41.647 C357.932,41.647 353.598,44.51 352.371,50.726" fill="#5D6F73"/>
    <path d="M416.525,67.415 L416.525,75.105 L388.875,75.105 L388.875,67.415 L397.954,67.415 L397.954,25.448 L389.611,25.448 L389.611,17.84 L415.79,17.84 L415.79,25.448 L407.443,25.448 L407.443,67.415 L416.525,67.415" fill="#5D6F73"/>
    <path d="M478.918,75.678 L470.245,75.678 L466.892,70.524 C461.902,74.044 455.929,75.925 449.465,75.843 C433.759,75.843 420.671,64.306 420.671,46.391 C420.671,28.802 432.615,16.776 449.875,16.776 C465.338,16.776 479,27.738 479,46.391 C479,53.918 476.954,60.134 473.11,64.962 L478.918,74.205 L478.918,75.678 z M449.875,67.007 C460.592,67.007 469.427,60.216 469.427,46.391 C469.427,32.975 460.592,25.693 449.793,25.693 C439.159,25.693 430.326,33.302 430.326,46.391 C430.326,59.724 439.159,67.007 449.875,67.007" fill="#5D6F73"/>
    <path d="M90.757,96.763 C91.942,96.069 96.377,93.241 97.297,92.731 C98.213,92.224 98.186,90.675 97.315,90.152 C96.445,89.626 81.572,80.865 67.058,70.965 C58.418,65.072 52.402,56.456 52.402,46.724 C52.402,33.005 63.561,21.818 77.28,21.818 C90.999,21.818 102.214,32.167 102.214,45.886 C102.214,49.587 101.19,53.864 99.686,57.092 C99.393,57.717 99.072,58.284 98.737,58.926 C98.308,59.748 98.439,60.561 99.275,61.059 C100.11,61.555 103.91,63.694 105.585,64.581 C107.001,65.331 107.812,65.179 108.531,64.182 C111.847,59.581 113.9,52.451 113.9,45.886 C113.9,25.724 97.441,10.132 77.28,10.132 C57.119,10.132 40.715,26.562 40.715,46.724 C40.715,59.755 46.238,70.003 59.54,79.635 C65.126,83.68 85.873,96.145 87.092,96.814 C88.477,97.574 89.407,97.554 90.757,96.763" fill="#66B49E"/>
    <path d="M102.415,70.695 C101.446,70.073 95.904,66.829 95.034,66.322 C94.17,65.818 93.33,65.67 92.154,66.618 C90.387,68.041 88.117,69.568 85.256,71.257 C84.147,71.912 84.018,73.075 85.03,73.743 C86.374,74.631 90.619,77.011 91.7,77.708 C92.954,78.515 93.804,78.617 94.729,78.102 C96.699,77.004 100.71,74.493 102.582,72.728 C103.065,72.273 103.383,71.314 102.415,70.695" fill="#66B49E"/>
  </g>
</svg>
