<?xml version="1.0" encoding="UTF-8"?>
<!DOCTYPE svg PUBLIC "-//W3C//DTD SVG 1.1//EN" "http://www.w3.org/Graphics/SVG/1.1/DTD/svg11.dtd">
<svg version="1.1" xmlns="http://www.w3.org/2000/svg" xmlns:xlink="http://www.w3.org/1999/xlink" x="0" y="0" width="667.764" height="136.538" viewBox="0, 0, 667.764, 136.538">
  <defs>
    <linearGradient id="Gradient_1" gradientUnits="userSpaceOnUse" x1="12.767" y1="54.896" x2="118.541" y2="-50.879" gradientTransform="matrix(1, 0.017, -0.017, 1, -7.086, 63.358)">
      <stop offset="0" stop-color="#48C0BC"/>
      <stop offset="1" stop-color="#139FDA"/>
    </linearGradient>
    <linearGradient id="Gradient_2" gradientUnits="userSpaceOnUse" x1="39.81" y1="81.939" x2="145.585" y2="-23.835" gradientTransform="matrix(1, 0.017, -0.017, 1, -7.086, 63.358)">
      <stop offset="0" stop-color="#48C0BC"/>
      <stop offset="1" stop-color="#139FDA"/>
    </linearGradient>
  </defs>
  <g id="Layer_1">
    <g>
      <g>
        <path d="M72.797,136.258 C73.349,136.617 74.055,136.633 74.62,136.296 L76.33,135.277 C77.625,134.546 83.525,131.178 86.974,129.207 C88.112,128.557 88.134,126.926 87.015,126.244 L86.142,125.712 C76.62,119.814 57.933,107.999 39.765,95.142 C25.147,84.797 16.906,70.595 17.156,56.178 C17.535,34.281 35.638,16.776 57.51,17.155 C79.802,17.541 96.972,34.708 96.6,56.236 C96.502,61.914 94.841,68.727 92.265,74.017 C91.93,74.697 91.578,75.332 91.211,75.991 L90.614,77.08 C90.169,77.893 90.445,78.911 91.241,79.385 C93.816,80.918 99.155,84.086 101.073,85.145 L102.18,85.815 C102.922,86.264 103.882,86.091 104.42,85.412 L104.935,84.763 C110.109,77.843 113.566,66.76 113.743,56.532 C114.282,25.39 89.712,0.561 57.806,0.009 C26.48,-0.533 0.554,24.532 0.011,55.88 C-0.348,76.604 8.418,92.549 28.434,107.577 C37.146,114.117 69.269,134.172 71.166,135.258 L71.503,135.452 C71.895,135.678 72.382,135.987 72.797,136.258 z" fill="url(#Gradient_1)"/>
        <path d="M83.724,88.627 L82.927,88.14 C82.317,87.767 81.539,87.81 80.974,88.248 L80.114,88.915 C77.272,91.126 72.228,94.426 67.626,96.985 C67.11,97.272 67.043,98.051 67.441,98.327 C68.587,99.12 72.342,101.361 74.632,102.744 C76.468,103.854 79.447,105.747 80.189,106.269 C81.013,106.848 81.632,106.859 82.555,106.364 C85.989,104.522 93.133,99.733 95.808,97.581 C96.463,97.054 96.288,96.298 95.782,95.966 C94.816,95.329 85.33,89.598 83.724,88.627 z" fill="url(#Gradient_2)"/>
      </g>
      <g>
        <path d="M578.558,99.335 L578.657,34.137 C578.657,33.862 578.855,33.627 579.126,33.579 L589.233,31.813 C589.58,31.752 589.897,32.019 589.897,32.371 L589.897,99.334 C589.897,99.645 589.645,99.896 589.335,99.896 L579.12,99.896 C578.81,99.897 578.558,99.645 578.558,99.335 z" fill="#1E5881"/>
        <path d="M189.346,57.025 L185.549,63.023 C185.34,63.354 184.906,63.45 184.569,63.252 C181.075,61.196 177.555,60.168 174.008,60.168 C171.587,60.168 169.71,60.577 168.38,61.393 C167.048,62.21 166.383,63.376 166.383,64.888 C166.383,66.159 166.685,67.173 167.291,67.929 C167.895,68.686 168.879,69.336 170.241,69.881 C171.603,70.425 173.705,71.031 176.55,71.696 C181.148,72.846 184.613,74.555 186.944,76.825 C189.273,79.094 190.439,82.076 190.439,85.766 C190.439,90.729 188.563,94.541 184.811,97.203 C181.058,99.867 176.46,101.197 171.013,101.197 C164.332,101.197 158.71,99.553 154.149,96.262 C153.831,96.033 153.762,95.585 153.985,95.263 L158.101,89.318 C158.318,89.005 158.74,88.921 159.067,89.116 C160.807,90.152 162.535,90.941 164.25,91.485 C166.156,92.091 168.229,92.393 170.468,92.393 C173.069,92.393 175.082,91.91 176.504,90.941 C177.925,89.974 178.637,88.521 178.637,86.584 C178.637,85.313 178.333,84.315 177.729,83.589 C177.124,82.863 176.155,82.227 174.824,81.683 C173.492,81.138 171.434,80.534 168.652,79.867 C163.991,78.718 160.557,77.023 158.349,74.784 C156.139,72.546 155.036,69.489 155.036,65.616 C155.036,61.199 156.729,57.734 160.119,55.222 C163.507,52.711 167.985,51.455 173.553,51.455 C179.588,51.455 184.789,52.986 189.155,56.047 C189.471,56.266 189.551,56.701 189.346,57.025 z" fill="#1E5881"/>
        <path d="M226.696,77.871 L223.146,77.778 C217.404,77.778 213.491,78.505 211.012,79.772 C208.532,81.04 207.149,83.065 207.149,86.033 C207.149,89.502 209.572,92.484 214.066,92.484 C217.873,92.484 220.539,91.463 222.89,89.43 C225.023,87.585 226.696,84.391 226.696,81.796 C226.696,80.428 226.696,77.871 226.696,77.871 z M196.728,86.674 C196.728,80.501 199.481,75.88 203.309,73.784 C207.703,71.378 214.005,70.153 222.235,70.153 C224.232,70.153 225.744,70.184 226.774,70.244 L226.774,67.884 C226.774,62.801 223.536,60.259 217.061,60.259 C212.625,60.259 208.273,61.356 204.003,63.548 C203.646,63.731 203.207,63.597 203.026,63.24 L199.854,56.971 C199.68,56.628 199.801,56.202 200.136,56.013 C202.529,54.663 205.205,53.582 208.166,52.771 C211.373,51.894 214.55,51.455 217.697,51.455 C224.898,51.455 230.102,53.075 233.31,56.311 C236.517,59.549 238.121,64.496 238.121,71.153 L238.121,89.126 L238.121,99.208 C238.121,99.605 237.799,99.928 237.401,99.928 L228.401,99.928 C228.004,99.928 227.681,99.606 227.681,99.208 L227.681,94.735 L227.408,94.735 C225.713,96.975 223.686,98.475 221.326,99.564 C218.966,100.653 216.209,101.198 212.337,101.198 C207.98,101.198 204.413,99.865 201.444,97.431 C198.862,95.311 196.728,91.335 196.728,86.674 z" fill="#1E5881"/>
        <path d="M301.326,71.969 C301.204,68.46 300.251,65.585 298.467,63.346 C296.681,61.108 294.065,59.987 290.615,59.987 C287.105,59.987 284.397,61.121 282.491,63.391 C280.585,65.661 279.51,68.52 279.268,71.969 L301.326,71.969 z M311.574,80.502 L279.359,80.502 C279.842,84.255 281.189,87.144 283.398,89.171 C285.607,91.199 288.648,92.212 292.521,92.212 C295.183,92.212 297.528,91.864 299.556,91.168 C301.408,90.533 303.374,89.58 305.455,88.313 C305.785,88.112 306.217,88.199 306.433,88.519 L310.552,94.621 C310.772,94.947 310.694,95.396 310.371,95.621 C307.813,97.413 305.085,98.772 302.188,99.701 C299.071,100.7 295.607,101.199 291.794,101.199 C286.832,101.199 282.565,100.169 278.995,98.113 C275.424,96.056 272.686,93.152 270.78,89.399 C268.874,85.648 267.921,81.29 267.921,76.328 C267.921,68.825 269.903,62.803 273.867,58.264 C277.83,53.725 283.444,51.456 290.706,51.456 C297.846,51.456 303.262,53.695 306.954,58.173 C310.644,62.652 312.491,68.673 312.491,76.237 C312.491,77.468 312.426,78.677 312.295,79.864 C312.255,80.227 311.941,80.502 311.574,80.502 z" fill="#1E5881"/>
        <path d="M353.273,57.025 L349.476,63.023 C349.267,63.354 348.833,63.45 348.496,63.252 C345.002,61.196 341.482,60.168 337.935,60.168 C335.514,60.168 333.637,60.577 332.307,61.393 C330.975,62.21 330.31,63.376 330.31,64.888 C330.31,66.159 330.612,67.173 331.218,67.929 C331.822,68.686 332.806,69.336 334.168,69.881 C335.53,70.425 337.632,71.031 340.477,71.696 C345.075,72.846 348.54,74.555 350.871,76.825 C353.2,79.094 354.365,82.076 354.365,85.766 C354.365,90.729 352.489,94.541 348.738,97.203 C344.985,99.867 340.387,101.197 334.94,101.197 C328.259,101.197 322.638,99.553 318.076,96.262 C317.758,96.033 317.689,95.585 317.912,95.263 L322.028,89.318 C322.245,89.005 322.667,88.921 322.994,89.116 C324.734,90.152 326.462,90.941 328.177,91.485 C330.083,92.091 332.156,92.393 334.395,92.393 C336.996,92.393 339.009,91.91 340.431,90.941 C341.852,89.974 342.564,88.521 342.564,86.584 C342.564,85.313 342.26,84.315 341.656,83.589 C341.051,82.863 340.082,82.227 338.751,81.683 C337.419,81.138 335.361,80.534 332.579,79.867 C327.918,78.718 324.484,77.023 322.276,74.784 C320.066,72.546 318.963,69.489 318.963,65.616 C318.963,61.199 320.656,57.734 324.046,55.222 C327.434,52.711 331.912,51.455 337.48,51.455 C343.515,51.455 348.716,52.986 353.083,56.046 C353.398,56.266 353.478,56.701 353.273,57.025 z" fill="#1E5881"/>
        <path d="M417.579,92.207 C413.153,92.184 410.206,90.507 407.911,87.809 C405.416,84.875 404.168,81.204 404.168,76.362 C404.168,71.582 405.358,67.808 407.865,64.752 C410.054,62.084 413.099,60.531 417.578,60.531 C422.057,60.531 425.103,62.084 427.291,64.752 C429.798,67.808 430.988,71.582 430.988,76.362 C430.988,81.204 429.74,84.875 427.245,87.809 C424.952,90.507 422.006,92.184 417.579,92.207 z M439.184,63.164 C437.248,59.474 434.449,56.598 430.787,54.54 C427.126,52.484 422.723,51.454 417.579,51.454 C412.434,51.454 408.032,52.484 404.371,54.54 C400.709,56.598 397.911,59.473 395.974,63.164 C394.037,66.856 393.07,71.183 393.07,76.145 C393.07,80.987 394.053,85.299 396.02,89.08 C397.986,92.863 400.815,95.829 404.507,97.976 C408.198,100.123 412.555,101.199 417.579,101.199 C422.603,101.199 426.96,100.124 430.651,97.976 C434.343,95.829 437.172,92.863 439.138,89.08 C441.105,85.299 442.088,80.987 442.088,76.145 C442.089,71.183 441.122,66.856 439.184,63.164 z" fill="#1E5881"/>
        <path d="M504.778,51.454 C510.485,51.454 515.575,53.024 520.05,56.161 C520.35,56.371 520.442,56.779 520.268,57.102 L516.671,63.76 C516.473,64.126 516.011,64.241 515.656,64.025 C512.221,61.938 508.625,60.894 504.87,60.894 C500.572,60.894 497.365,62.256 495.248,64.979 C493.129,67.702 492.071,71.455 492.071,76.235 C492.071,80.896 493.13,84.632 495.248,87.446 C497.365,90.26 500.513,91.667 504.688,91.667 C508.181,91.667 511.864,90.583 515.738,88.415 C516.098,88.214 516.553,88.344 516.739,88.712 L520.191,95.541 C520.356,95.868 520.254,96.274 519.948,96.475 C517.731,97.934 515.306,99.071 512.675,99.882 C509.83,100.759 506.865,101.198 503.779,101.198 C498.029,101.198 493.431,99.927 489.981,97.386 C486.532,94.844 484.111,91.698 482.719,87.946 C481.326,84.194 480.631,80.291 480.631,76.236 C480.631,71.214 481.598,66.841 483.535,63.119 C485.471,59.397 488.256,56.524 491.886,54.496 C495.519,52.468 499.815,51.454 504.778,51.454 z" fill="#1E5881"/>
        <path d="M557.719,71.969 C557.598,68.46 556.644,65.585 554.86,63.346 C553.075,61.108 550.458,59.987 547.009,59.987 C543.498,59.987 540.79,61.121 538.885,63.391 C536.979,65.661 535.904,68.52 535.663,71.969 L557.719,71.969 z M567.967,80.502 L535.751,80.502 C536.235,84.255 537.581,87.144 539.791,89.171 C541.999,91.199 545.04,92.212 548.913,92.212 C551.576,92.212 553.92,91.864 555.948,91.168 C557.8,90.533 559.766,89.58 561.847,88.313 C562.177,88.112 562.609,88.199 562.825,88.519 L566.944,94.621 C567.164,94.947 567.086,95.396 566.763,95.621 C564.205,97.413 561.477,98.772 558.58,99.701 C555.463,100.7 551.999,101.199 548.187,101.199 C543.224,101.199 538.957,100.169 535.388,98.113 C531.816,96.056 529.079,93.152 527.173,89.399 C525.267,85.648 524.314,81.29 524.314,76.328 C524.314,68.825 526.295,62.803 530.26,58.264 C534.223,53.725 539.837,51.456 547.098,51.456 C554.238,51.456 559.654,53.695 563.347,58.173 C567.038,62.652 568.884,68.673 568.884,76.237 C568.884,77.468 568.819,78.677 568.689,79.864 C568.649,80.227 568.335,80.502 567.967,80.502 z" fill="#1E5881"/>
        <path d="M247.956,99.335 L248.055,34.137 C248.055,33.862 248.253,33.627 248.524,33.579 L258.631,31.813 C258.978,31.752 259.295,32.019 259.295,32.371 L259.295,99.334 C259.295,99.645 259.043,99.896 258.733,99.896 L248.518,99.896 C248.208,99.897 247.956,99.645 247.956,99.335 z" fill="#1E5881"/>
        <path d="M646.253,75.875 L639.7,82.784 C639.426,83.073 639.438,83.531 639.727,83.805 L645.636,89.428 C642.374,91.335 638.384,92.277 633.575,92.277 C626.1,92.277 620.937,89.863 616.786,85.25 C612.74,80.755 610.847,74.29 610.825,66.262 C610.847,58.225 612.824,51.795 616.699,47.152 C620.58,42.5 626.1,40.238 633.575,40.238 C641.047,40.238 646.551,42.498 650.401,47.148 C654.249,51.794 656.211,58.225 656.232,66.254 C656.216,72.179 655.142,77.228 653.039,81.335 L647.274,75.848 C646.984,75.573 646.527,75.585 646.253,75.875 z M667.757,65.702 L667.751,65.449 C667.744,65.039 667.737,64.629 667.722,64.233 C667.505,57.833 666.163,52.083 663.736,47.141 C661.03,41.632 657.041,37.301 651.877,34.267 C646.738,31.249 640.55,29.719 633.483,29.719 C633.42,29.719 633.357,29.721 633.296,29.723 L633.199,29.723 C633.138,29.721 633.076,29.719 633.011,29.719 C622.353,29.719 614.307,32.949 608.443,39.56 C606.371,41.763 604.617,44.313 603.227,47.141 C600.553,52.584 599.198,58.969 599.198,66.118 L599.198,66.395 C599.198,73.544 600.554,79.929 603.227,85.372 C604.616,88.199 606.37,90.75 608.41,92.918 C614.306,99.564 622.352,102.794 633.01,102.794 C633.074,102.794 633.136,102.792 633.198,102.79 L633.295,102.79 C633.356,102.792 633.418,102.794 633.482,102.794 C640.549,102.794 646.737,101.264 651.876,98.246 C652.503,97.877 653.112,97.488 653.704,97.081 L658.742,101.86 C659.031,102.134 659.489,102.122 659.763,101.833 L666.316,94.924 C666.59,94.635 666.578,94.177 666.289,93.903 L661.445,89.309 C662.288,88.073 663.052,86.761 663.733,85.373 C666.161,80.431 667.502,74.68 667.719,68.287 C667.735,67.884 667.742,67.475 667.749,67.06 L667.755,66.812 C667.76,66.674 667.764,66.536 667.764,66.395 L667.764,66.118 C667.766,65.978 667.762,65.84 667.757,65.702 z" fill="#1E5881"/>
        <path d="M391.253,53.587 L390.313,61.825 C390.28,62.111 390.038,62.328 389.75,62.328 L378.393,62.328 L378.393,99.335 C378.393,99.646 378.141,99.897 377.831,99.897 L367.614,99.897 C367.303,99.897 367.052,99.645 367.052,99.335 L367.052,62.328 L360.852,62.328 C360.521,62.328 360.261,62.046 360.287,61.716 L360.946,53.384 C360.969,53.089 361.215,52.862 361.511,52.862 L367.052,52.862 L367.052,49.3 C367.052,38.429 372.487,33.087 382.234,33.087 C385.96,33.087 388.594,33.591 391.011,34.281 C391.253,34.35 391.418,34.573 391.418,34.824 L391.418,43.189 C391.418,43.569 391.047,43.833 390.684,43.72 C388.73,43.11 386.933,42.739 384.765,42.739 C380.454,42.739 378.204,45.082 378.204,50.236 L378.204,52.954 L390.689,52.954 C391.028,52.956 391.291,53.251 391.253,53.587 z" fill="#1E5881"/>
        <path d="M479.415,53.928 C479.65,53.231 479.155,52.895 478.954,52.817 C478.427,52.616 475.807,52.013 473.784,51.936 C470.408,51.809 467.891,52.488 465.81,53.566 C464.016,54.496 461.693,56.247 460.353,59.101 L460.351,53.75 C460.351,53.235 459.983,52.815 459.466,52.815 L450.445,52.815 C449.93,52.815 449.562,53.234 449.562,53.75 L449.562,98.904 C449.562,99.419 449.979,99.838 450.496,99.838 L459.981,99.838 C460.496,99.838 460.915,99.419 460.915,98.904 L460.915,78.681 C460.915,69.757 462.691,67.229 464.85,65.232 C467.142,63.113 469.823,62.219 472.585,62.203 C474.199,62.193 475.972,62.615 475.972,62.615 C476.568,62.681 476.899,62.318 477.098,61.784 C477.627,60.374 479.128,54.767 479.415,53.928" fill="#1E5881"/>
      </g>
    </g>
  </g>
</svg>
