<?xml version="1.0" encoding="UTF-8"?>
<!DOCTYPE svg PUBLIC "-//W3C//DTD SVG 1.1//EN" "http://www.w3.org/Graphics/SVG/1.1/DTD/svg11.dtd">
<svg version="1.1" xmlns="http://www.w3.org/2000/svg" xmlns:xlink="http://www.w3.org/1999/xlink" x="0" y="0" width="564.445" height="234.169" viewBox="0, 0, 564.445, 234.169">
  <g id="Layer_1">
    <path d="M332.273,145.26 L332.273,56.352 L350.423,56.352 C360.405,56.352 368.573,56.432 368.573,56.531 C368.573,56.775 370.34,67.391 370.557,68.45 L370.73,69.297 L372.877,67.24 C380.296,60.129 387.808,56.025 396.173,54.51 C399.424,53.921 407.909,54.002 411.323,54.654 C423.201,56.922 432.197,63.852 437.96,75.171 C443.221,85.504 445.558,97.073 445.885,114.402 C446.061,123.75 445.767,129.493 444.749,136.602 C440.308,167.594 423.775,185.829 397.806,188.381 C391.212,189.029 382.272,188.222 376.069,186.418 L373.673,185.722 L373.673,206.537 C373.673,217.985 373.616,227.352 373.547,227.352 C373.438,227.352 334.822,233.724 332.948,234.051 L332.273,234.169 L332.273,145.26 z M388.512,157.292 C399.464,154.439 405.468,139.099 404.771,115.752 C404.295,99.817 401.212,90.662 395.115,87.083 C393.215,85.967 390.354,85.35 388.136,85.578 C384.054,85.996 378.379,88.907 375.096,92.266 L373.67,93.725 L373.746,124.595 L373.823,155.465 L375.502,156.14 C379.355,157.689 385.052,158.193 388.512,157.292 z M39.773,188.477 C39.195,188.411 37.238,188.21 35.423,188.029 C24.255,186.917 11.287,183.284 2.234,178.732 C0.037,177.628 -0.103,177.5 0.039,176.727 C0.123,176.273 1.198,169.557 2.43,161.802 C3.661,154.047 4.736,147.411 4.819,147.054 C4.963,146.438 5.162,146.504 8.96,148.42 C16.007,151.976 25.079,155.099 33.623,156.91 C37.662,157.767 38.66,157.866 43.373,157.883 C48.02,157.9 48.87,157.824 50.778,157.224 C53.588,156.341 55.3,155.032 56.369,152.95 C57.108,151.509 57.201,151.038 57.106,149.202 C56.976,146.681 56.354,145.28 54.573,143.499 C51.952,140.879 47.505,138.567 39.173,135.494 C24.521,130.09 16.613,125.674 10.92,119.716 C6.381,114.964 3.84,110.115 2.399,103.452 C1.639,99.942 1.488,91.76 2.104,87.574 C4.91,68.526 19.58,56.332 42.173,54.269 C56.214,52.987 73.881,55.819 86.928,61.444 C88.414,62.084 89.7,62.679 89.786,62.765 C89.929,62.909 85.121,93.281 84.92,93.498 C84.871,93.55 83.165,92.858 81.127,91.959 C73.82,88.736 66.742,86.506 59.873,85.263 C55.618,84.493 47.718,84.507 45.333,85.288 C42.226,86.306 40.08,88.959 40.074,91.789 C40.072,92.881 40.804,94.847 41.631,95.97 C43.528,98.546 49.317,101.678 58.523,105.11 C65.616,107.754 68.861,109.13 73.223,111.346 C85.596,117.631 92.301,125.346 94.916,136.302 C95.648,139.37 95.703,140.087 95.7,146.502 C95.697,152.497 95.61,153.803 95.033,156.458 C93.289,164.485 90.123,170.507 84.963,175.613 C78.268,182.238 69.626,186.148 57.773,187.915 C54.787,188.36 42.198,188.753 39.773,188.477 z M151.523,188.481 C151.028,188.414 149.205,188.208 147.473,188.023 C143.705,187.62 138.597,186.382 135.366,185.088 C123.78,180.449 117.351,170.81 115.691,155.589 C115.487,153.719 115.373,140.959 115.373,119.964 L115.373,87.252 L106.823,87.252 C99.494,87.252 98.273,87.189 98.273,86.81 C98.273,86.242 102.769,58.655 102.88,58.545 C102.926,58.499 105.654,58.036 108.943,57.516 C112.232,56.996 115.018,56.488 115.134,56.386 C115.25,56.284 116.436,49.45 117.77,41.201 C119.105,32.951 120.303,25.939 120.433,25.618 C120.643,25.099 122.617,24.714 138.196,22.156 L155.723,19.277 L155.8,37.814 L155.877,56.352 L169.075,56.352 C176.334,56.352 182.276,56.453 182.281,56.577 C182.285,56.701 181.177,63.653 179.817,72.027 L177.346,87.252 L166.609,87.252 L155.873,87.252 L155.879,115.077 C155.882,130.381 156.009,143.759 156.16,144.807 C156.779,149.084 158.324,151.953 160.788,153.397 C161.523,153.828 163.182,154.397 164.474,154.661 C166.49,155.074 167.312,155.091 170.273,154.785 C172.17,154.59 174.931,154.164 176.408,153.841 C177.884,153.517 179.201,153.252 179.333,153.252 C179.637,153.252 179.652,185.568 179.348,185.754 C178.933,186.007 172.143,187.456 169.166,187.927 C166.378,188.368 153.642,188.768 151.523,188.481 z M507.773,188.341 C495.526,187.182 485.667,183.934 477.491,178.364 C474.081,176.042 468.074,169.898 465.695,166.302 C461.654,160.191 458.272,151.825 456.66,143.952 C455.054,136.103 454.836,133.497 454.829,122.052 C454.823,112.349 454.886,110.988 455.532,106.752 C457.943,90.934 463.182,79.159 471.923,69.912 C483.058,58.131 499.615,52.492 517.846,54.272 C530.223,55.48 539.649,59.68 547.383,67.433 C556.339,76.411 561.575,88.622 563.729,105.552 C564.341,110.364 564.618,120.857 564.331,128.427 L564.107,134.352 L529.958,134.352 C511.175,134.352 495.746,134.453 495.67,134.577 C495.593,134.701 495.706,135.882 495.92,137.202 C497.747,148.479 502.465,154.324 511.823,156.904 C513.981,157.499 514.948,157.567 521.423,157.578 C529.155,157.592 532.478,157.246 538.673,155.783 C543.769,154.579 550.434,152.199 554.552,150.113 L556.046,149.355 L556.217,150.329 C556.311,150.864 557.331,157.227 558.482,164.468 C560.46,176.902 560.547,177.656 560.049,178.042 C558.841,178.98 550.89,182.711 547.973,183.709 C542.13,185.708 535.335,187.197 528.173,188.048 C524.409,188.495 511.376,188.682 507.773,188.341 z M525.614,106.827 C524.762,96.031 522.829,89.591 519.295,85.774 C516.587,82.849 513.08,81.614 509.089,82.178 C501.063,83.314 496.955,90.807 495.328,107.277 L495.143,109.152 L510.47,109.152 L525.798,109.152 L525.614,106.827 z M193.373,121.302 L193.373,56.352 L211.353,56.352 C228.218,56.352 229.342,56.384 229.485,56.877 C229.57,57.166 230.145,60.545 230.764,64.387 L231.889,71.373 L233.11,68.887 C233.781,67.52 234.796,65.727 235.363,64.902 C238.774,59.947 244.837,56.229 251.273,55.146 C254.031,54.682 259.741,54.726 262.373,55.232 L264.323,55.607 L264.4,74.763 L264.477,93.92 L263.5,93.75 C259.284,93.02 251.815,93.347 247.073,94.468 C243.076,95.413 239.392,97.359 236.722,99.936 L234.473,102.107 L234.473,144.179 L234.473,186.252 L213.923,186.252 L193.373,186.252 L193.373,121.302 z M274.373,121.302 L274.373,56.352 L295.223,56.352 L316.073,56.352 L316.073,121.302 L316.073,186.252 L295.223,186.252 L274.373,186.252 L274.373,121.302 z M291.933,43.437 C281.68,41.836 274.047,33.368 273.547,23.038 C273.342,18.808 273.965,15.713 275.778,11.961 C276.949,9.536 277.55,8.723 279.886,6.397 C282.097,4.196 283.112,3.434 285.173,2.424 C288.264,0.908 290.504,0.299 293.873,0.056 C306.947,-0.885 317.796,10.116 316.867,23.372 C316.216,32.669 309.589,40.692 300.667,42.984 C298.379,43.572 294.19,43.789 291.933,43.437 z" fill="#000000" id="path4794"/>
  </g>
</svg>
