<?xml version="1.0" encoding="UTF-8"?>
<!DOCTYPE svg PUBLIC "-//W3C//DTD SVG 1.1//EN" "http://www.w3.org/Graphics/SVG/1.1/DTD/svg11.dtd">
<svg version="1.1" xmlns="http://www.w3.org/2000/svg" xmlns:xlink="http://www.w3.org/1999/xlink" x="0" y="0" width="864.147" height="862.959" viewBox="0, 0, 864.147, 862.959">
  <g id="Layer_1">
    <path d="M440.314,862.464 L413.439,862.959 L399.689,861.828 C392.126,861.207 379.751,859.809 372.189,858.722 C364.626,857.635 352.814,855.631 345.939,854.27 C339.064,852.908 326.126,849.789 317.189,847.339 C308.251,844.889 293.93,840.35 285.363,837.253 C276.796,834.155 262.104,828.117 252.713,823.834 C243.322,819.551 228.957,812.223 220.789,807.548 C212.622,802.873 201.158,795.904 195.314,792.061 C189.47,788.218 178.22,780.182 170.314,774.203 C162.408,768.223 149.384,757.408 141.371,750.169 L126.804,737.006 L114.926,723.852 C108.393,716.617 99.304,706.04 94.728,700.349 C90.153,694.657 81.458,682.688 75.407,673.75 C69.355,664.813 60.857,651.334 56.522,643.798 C52.187,636.261 45.859,624.199 42.46,616.993 C39.06,609.786 33.274,596.183 29.601,586.762 C25.929,577.342 20.988,562.966 18.622,554.817 C16.257,546.668 12.813,533.268 10.97,525.039 C9.127,516.811 6.579,502.993 5.308,494.333 C4.037,485.673 2.323,469.343 1.498,458.044 L0,437.5 L0.812,417.5 L1.623,397.5 L3.549,380.625 C4.608,371.344 6.591,357.844 7.956,350.625 C9.32,343.406 12.346,330.188 14.678,321.25 C17.011,312.313 21.251,298.25 24.101,290 C26.951,281.75 31.546,269.656 34.312,263.125 C37.078,256.594 43.186,243.653 47.885,234.367 C52.584,225.081 60.313,211.283 65.061,203.704 C69.809,196.125 77.279,184.879 81.66,178.712 C86.041,172.546 95.051,161.031 101.682,153.125 L113.738,138.75 L132.373,120.625 L151.007,102.5 L165.348,91.389 C173.236,85.279 185.316,76.5 192.192,71.881 C199.069,67.263 210.864,59.931 218.404,55.588 C225.943,51.244 238.317,44.744 245.9,41.142 C253.484,37.541 265.314,32.359 272.189,29.628 C279.064,26.898 290.876,22.641 298.439,20.17 C306.001,17.699 317.533,14.285 324.064,12.583 C330.595,10.882 341.613,8.369 348.549,7 C355.484,5.631 368.14,3.51 376.674,2.286 L392.189,0.062 L432.189,0.031 L472.189,0 L488.439,2.295 C497.376,3.558 511.439,5.984 519.689,7.687 C527.939,9.391 540.033,12.222 546.564,13.978 C553.095,15.735 565.751,19.71 574.689,22.811 C583.626,25.912 597.97,31.51 606.564,35.251 C615.158,38.992 627.533,44.925 634.064,48.435 C640.595,51.945 651.845,58.439 659.064,62.867 C666.283,67.296 678.095,75.204 685.314,80.441 C692.533,85.678 704.908,95.384 712.814,102.009 L727.189,114.056 L742.205,129.528 C750.464,138.038 761.747,150.625 767.28,157.5 C772.812,164.375 781.335,175.625 786.22,182.5 C791.105,189.375 799.137,201.75 804.069,210 C809,218.25 816.595,232.313 820.945,241.25 C825.295,250.188 831.084,263.125 833.808,270 C836.532,276.875 841.09,289.683 843.938,298.461 C846.785,307.24 850.508,320.177 852.213,327.211 C853.917,334.245 856.432,346.188 857.802,353.75 C859.171,361.313 861.157,375.346 862.214,384.935 L864.137,402.37 L864.137,430.18 L864.147,457.99 L862.76,472.12 C861.997,479.892 860.044,494.161 858.42,503.831 C856.797,513.5 853.741,528.252 851.63,536.613 C849.519,544.974 846.335,556.469 844.554,562.157 C842.772,567.846 838.216,580.375 834.428,590 L827.542,607.5 L818.327,625.729 L809.112,643.958 L799.231,659.734 C793.796,668.411 784.573,681.864 778.734,689.63 C772.896,697.396 763.725,708.813 758.354,715 C752.983,721.188 742.975,731.778 736.112,738.534 C729.25,745.291 718.81,754.886 712.912,759.857 C707.015,764.829 697.667,772.314 692.14,776.492 C686.612,780.669 676.487,787.744 669.64,792.214 C662.792,796.684 652.127,803.255 645.939,806.817 C639.752,810.378 628.875,816.098 621.768,819.527 C614.662,822.957 602.849,828.212 595.518,831.206 C588.187,834.2 576.209,838.644 568.9,841.082 C561.591,843.519 548.935,847.188 540.775,849.236 C532.615,851.283 519.752,854.143 512.189,855.59 C504.627,857.037 491.408,859.065 482.814,860.096 L467.189,861.97 L440.314,862.464 z M107.814,525.922 L110.939,525.322 L118.439,518.301 C122.564,514.44 140.142,497.215 157.502,480.024 L189.066,448.767 L227.502,487.054 L265.939,525.341 L269.366,526.129 L272.793,526.917 L277.166,525.09 L281.539,523.263 L283.591,518.958 L285.644,514.653 L284.855,510.445 L284.065,506.236 L245.958,468.144 L207.851,430.052 L245.809,391.901 L283.767,353.75 L284.659,350.829 L285.551,347.908 L284.765,343.717 L283.979,339.526 L280.176,336.325 L276.372,333.125 L271.202,333.125 L266.032,333.125 L227.834,371.25 C206.825,392.219 189.097,409.375 188.439,409.375 C187.781,409.375 170.053,392.219 149.044,371.25 L110.846,333.125 L105.858,333.125 L100.87,333.125 L98.085,335.076 L95.3,337.027 L93.31,340.874 L91.321,344.721 L92.09,348.611 L92.86,352.5 L131.267,390.938 L169.674,429.375 L132,467.188 L94.327,505 L92.831,507.944 L91.335,510.888 L92.09,514.913 L92.845,518.937 L96.267,522.16 L99.689,525.382 L102.189,525.952 C103.564,526.266 106.095,526.252 107.814,525.922 z M382.814,526.324 L397.189,525.901 L404.689,523.881 L412.189,521.86 L424.064,516.061 L435.939,510.262 L447.443,498.803 L458.948,487.344 L460.256,483.903 C460.975,482.011 461.564,478.755 461.564,476.669 L461.564,472.875 L457.314,468.625 L453.064,464.375 L447.894,464.375 L442.724,464.375 L431.207,475.998 L419.689,487.621 L412.073,491.592 L404.456,495.563 L396.448,497.45 L388.439,499.338 L380.314,499.338 L372.189,499.338 L364.353,497.491 L356.516,495.643 L349.978,492.346 C346.381,490.532 340.872,487.013 337.735,484.524 C334.598,482.036 330.31,478.031 328.207,475.625 C326.103,473.219 322.603,468.438 320.428,465 L316.474,458.75 L314.019,450.806 C312.669,446.437 311.564,442.359 311.564,441.743 L311.564,440.625 L381.962,440.625 L452.36,440.625 L458.698,438.743 L465.036,436.861 L469.483,431.939 L473.929,427.017 L475.358,421.71 L476.787,416.403 L474.709,407.577 L472.63,398.75 L466.321,385.675 L460.013,372.6 L448.551,361.138 L437.089,349.676 L424.014,343.366 L410.939,337.056 L401.086,334.928 L391.232,332.8 L376.086,333.455 L360.939,334.109 L352.189,336.865 C347.376,338.381 339.774,341.535 335.295,343.874 L327.152,348.126 L319.389,354.407 L311.627,360.688 L305.396,368.388 C301.969,372.624 297.497,379.219 295.459,383.045 C293.421,386.87 290.339,394.219 288.61,399.375 L285.466,408.75 L284.15,419.261 L282.834,429.771 L284.055,440.549 L285.276,451.326 L288.397,460.502 L291.518,469.677 L296.097,477.964 L300.676,486.25 L312.683,498.167 L324.689,510.083 L334.689,515.199 C340.189,518.012 347.544,521.241 351.033,522.373 C354.522,523.505 359.866,524.952 362.908,525.588 L368.439,526.746 L382.814,526.324 z M380.398,413.125 L312.814,413.125 L312.814,411.9 C312.814,411.227 313.758,408.274 314.912,405.338 C316.066,402.402 319.195,396.509 321.865,392.242 L326.719,384.484 L333.301,378.469 L339.883,372.453 L347.388,368.453 L354.893,364.453 L362.241,362.539 L369.589,360.625 L380.264,360.64 L390.939,360.655 L397.805,362.482 L404.67,364.309 L412.805,368.405 L420.939,372.5 L429.199,380.718 L437.46,388.935 L441.931,398.218 C444.391,403.323 446.758,408.766 447.193,410.313 L447.982,413.125 L380.398,413.125 z M673.439,526.329 L687.189,525.845 L698.789,522.105 L710.389,518.365 L719.414,513.053 L728.439,507.74 L738.439,497.576 L748.439,487.411 L752.632,480.304 C754.939,476.395 758.21,469.77 759.902,465.581 C761.594,461.392 763.775,454.204 764.749,449.608 L766.521,441.25 L766.534,429.375 L766.547,417.5 L764.007,406.906 L761.467,396.311 L757.112,387.257 L752.758,378.204 L745.336,368.978 L737.914,359.752 L729.527,353.277 L721.14,346.802 L712.289,342.463 L703.439,338.123 L693.439,335.536 L683.439,332.948 L669.689,332.948 L655.939,332.948 L646.091,335.527 L636.244,338.105 L627.089,342.508 L617.935,346.911 L610.062,353.195 L602.189,359.479 L595.53,367.239 L588.871,375 L582.787,387.5 L576.702,400 L574.758,409.635 L572.814,419.27 L572.814,429.866 L572.814,440.462 L574.691,449.386 L576.568,458.31 L580.402,467.519 L584.236,476.728 L590.287,485.345 L596.339,493.961 L604.264,501.139 L612.189,508.316 L619.227,512.595 C623.098,514.949 630.13,518.336 634.852,520.122 C639.575,521.909 647.095,524.145 651.564,525.091 L659.689,526.813 L673.439,526.329 z M668.036,499.221 C667.57,499.136 663.618,498.555 659.253,497.931 L651.316,496.795 L644.038,493.837 C640.035,492.211 634.325,489.197 631.349,487.141 C628.374,485.085 623.75,481.267 621.074,478.656 C618.398,476.046 614.019,470.522 611.343,466.382 L606.478,458.854 L603.72,450.052 L600.963,441.25 L601.05,428.75 L601.137,416.25 L603.942,408.125 L606.747,400 L611.85,392.114 L616.954,384.228 L623.946,377.984 L630.939,371.74 L638.439,368.085 L645.939,364.429 L653.389,362.527 L660.839,360.625 L669.265,360.625 L677.691,360.625 L684.315,361.996 L690.939,363.368 L700.209,367.768 L709.478,372.168 L718.349,381.084 L727.219,390 L731.326,398.399 L735.432,406.797 L737.37,415.899 L739.309,425 L738.606,434.375 L737.903,443.75 L735.255,451.529 L732.608,459.307 L727.864,466.646 C725.255,470.683 721.109,475.997 718.651,478.455 C716.193,480.913 711.58,484.714 708.4,486.902 C705.22,489.09 699.417,492.181 695.503,493.771 L688.387,496.662 L678.635,498.019 C673.272,498.765 668.502,499.306 668.036,499.221 z M671.991,453.719 L676.793,453.059 L681.677,450.567 L686.561,448.076 L689.839,443.123 L693.116,438.171 L693.736,432.671 L694.356,427.172 L692.828,422.541 L691.299,417.911 L687.389,413.457 L683.478,409.003 L679.436,407.314 L675.394,405.625 L669.679,405.625 L663.964,405.625 L659.327,408.003 C656.776,409.312 653.45,411.71 651.936,413.333 C650.422,414.956 648.313,418.368 647.249,420.915 L645.314,425.545 L645.314,429.148 C645.314,431.13 645.966,434.664 646.764,437.001 C647.562,439.338 649.27,442.618 650.56,444.29 C651.85,445.961 654.107,448.17 655.574,449.198 C657.042,450.226 660.255,451.812 662.716,452.723 L667.189,454.378 L671.991,453.719 z M515.125,525.546 C516.052,525.589 518.744,524.708 521.106,523.587 L525.4,521.549 L526.92,518.9 L528.439,516.25 L529.104,450.625 L529.768,385 L531.464,380.625 C532.396,378.219 534.52,374.417 536.184,372.176 L539.209,368.102 L544.073,365.62 L548.938,363.139 L558.063,361.754 C563.082,360.992 568.503,360.122 570.109,359.821 L573.029,359.273 L576.047,356.256 L579.064,353.239 L579.036,347.869 L579.008,342.5 L576.849,339.834 C575.661,338.368 573.46,336.539 571.959,335.771 L569.228,334.375 L561.248,334.375 L553.268,334.375 L546.478,336.357 C542.744,337.447 537.349,339.691 534.489,341.344 L529.288,344.349 L524.926,339.987 L520.564,335.625 L515.459,335.625 L510.353,335.625 L506.271,339.273 L502.189,342.92 L502.189,429.797 L502.189,516.674 L505.314,520.036 C507.033,521.885 509.564,523.864 510.939,524.433 C512.314,525.001 514.198,525.502 515.125,525.546 z" fill="#51CDEA" id="path3652"/>
  </g>
</svg>
