<?xml version="1.0" encoding="utf-8"?>
<!-- Generator: Adobe Illustrator 16.0.0, SVG Export Plug-In . SVG Version: 6.00 Build 0)  -->
<!DOCTYPE svg PUBLIC "-//W3C//DTD SVG 1.1//EN" "http://www.w3.org/Graphics/SVG/1.1/DTD/svg11.dtd">
<svg version="1.1" id="Icons" xmlns="http://www.w3.org/2000/svg" xmlns:xlink="http://www.w3.org/1999/xlink" x="0px" y="0px"
	 width="100px" height="100px" viewBox="0 0 100 100" enable-background="new 0 0 100 100" xml:space="preserve">
<path fill="#818181" d="M89.271,74.066L65.204,50l24.066-24.067c3.963-3.963,3.964-10.389,0-14.351
	c-3.963-3.966-10.39-3.966-14.353,0l-25.791,25.79l-25.792-25.79c-3.965-3.966-10.391-3.966-14.354,0
	c-3.965,3.962-3.963,10.388,0,14.351L33.048,50L8.982,74.066c-3.963,3.963-3.964,10.389,0,14.351c3.963,3.966,10.39,3.966,14.352,0
	l25.792-25.79l25.792,25.79c3.965,3.966,10.391,3.966,14.354,0C93.235,84.455,93.233,78.029,89.271,74.066z"/>
</svg>
