<?xml version="1.0" encoding="utf-8"?>
<!-- Generator: Adobe Illustrator 16.0.0, SVG Export Plug-In . SVG Version: 6.00 Build 0)  -->
<!DOCTYPE svg PUBLIC "-//W3C//DTD SVG 1.1//EN" "http://www.w3.org/Graphics/SVG/1.1/DTD/svg11.dtd">
<svg version="1.1" id="Layer_1" xmlns="http://www.w3.org/2000/svg" xmlns:xlink="http://www.w3.org/1999/xlink" x="0px" y="0px"
	 width="5272.792px" height="4732.35px" viewBox="0 0 5272.792 4732.35" enable-background="new 0 0 5272.792 4732.35"
	 xml:space="preserve">
<rect x="-281.514" y="-657" fill="#ED685A" width="960" height="657"/>
<polygon fill="#63584C" points="-281.514,-900 -281.514,-657 179.899,-657 204.343,-632.556 228.787,-657 678.486,-657 
	678.486,-900 "/>
<g>
	<path fill="#FFFFFF" d="M28.138-820.487v27.41c0,4.08,6.336,3.984,6.336,0v-27.41C34.475-824.567,28.138-824.423,28.138-820.487z"
		/>
	<path fill="#FFFFFF" d="M64.716-798.645c-2.208,1.968-4.752,3.072-7.489,3.072c-7.441,0-10.945-5.473-10.945-11.425
		c0-5.856,3.552-11.089,10.945-11.089c2.736,0,4.752,0.576,6.72,2.64c1.152,1.152,3.121,1.296,4.417,0.144
		c1.296-1.344,1.152-3.456-0.144-4.656c-3.504-3.024-6.816-4.272-10.993-4.272c-11.041,0-16.85,7.969-16.85,17.233
		c0,9.265,5.232,17.186,16.85,17.186c3.984,0,8.017-0.624,11.377-3.744c1.68-1.68,1.296-3.457,0.528-4.513
		C68.268-799.221,66.204-799.797,64.716-798.645z"/>
	<path fill="#FFFFFF" d="M109.452-806.95c0-11.377-8.785-17.186-17.186-17.618c-8.881,0-18.098,5.809-18.098,17.618
		c0,11.761,9.217,17.666,18.098,17.281C100.667-789.668,109.452-795.573,109.452-806.95z M80.505-806.95
		c0-7.585,5.856-11.377,11.233-11.377c5.521,0,11.425,3.792,11.425,11.377c0,7.537-5.905,11.377-11.425,11.377
		C86.362-795.573,80.505-799.413,80.505-806.95z"/>
	<path fill="#FFFFFF" d="M143.963-793.461v-27.026c0-1.584-1.68-3.312-3.408-3.312c-1.632,0-3.024,1.728-3.024,3.312v18.625
		l-15.89-19.874c-1.296-1.248-1.68-1.68-3.408-1.68c-2.496,0-2.88,1.68-2.88,3.409v26.546c0,2.112,1.536,3.312,3.264,3.312
		c1.729,0,3.024-1.2,3.024-3.312v-18.529l15.89,20.162c1.392,1.296,2.208,1.68,3.888,1.68
		C142.667-790.533,143.963-791.349,143.963-793.461z"/>
	<path fill="#FFFFFF" d="M168.392-797.589c-1.632-1.344-3.024-0.912-4.272,0.336c-0.864,1.296-0.912,3.408,0.672,4.704
		c6.625,5.473,24.29,5.185,24.626-7.008c0.336-12.769-20.546-8.257-19.25-16.129c1.008-4.993,9.073-3.937,12.625-1.68
		c2.88,2.112,6.336-2.064,3.072-4.705c-6.625-5.088-20.69-3.408-21.794,5.905c-1.488,13.633,18.481,9.361,19.106,16.465
		C182.458-792.885,172.329-794.901,168.392-797.589z"/>
	<path fill="#FFFFFF" d="M232.281-823.511h-22.706c-4.176,0-4.176,6.145,0,6.145h8.4v24.242c0,4.272,6.337,4.176,6.337,0v-24.242
		h7.969C236.554-817.367,236.554-823.511,232.281-823.511z"/>
	<path fill="#FFFFFF" d="M306.586-806.95c0-11.377-8.785-17.186-17.186-17.618c-8.881,0-18.098,5.809-18.098,17.618
		c0,11.761,9.217,17.666,18.098,17.281C297.801-789.668,306.586-795.573,306.586-806.95z M288.872-795.573
		c-5.376,0-11.232-3.84-11.232-11.377c0-7.585,5.856-11.377,11.232-11.377c5.521,0,11.425,3.792,11.425,11.377
		C300.297-799.413,294.393-795.573,288.872-795.573z"/>
	<path fill="#FFFFFF" d="M365.432-796.437h-14.641v-7.201h12.097c4.272,0,4.272-6.289,0-6.289h-12.097v-7.201h13.825
		c4.32,0,4.416-6.24,0-6.24h-17.234c-1.68,0-2.976,1.248-2.976,2.976v27.267c0,1.68,1.296,2.976,2.976,2.976h18.05
		C370.137-790.148,369.8-796.437,365.432-796.437z"/>
	<path fill="#FFFFFF" d="M157.652-818.458v-8c0-1.657-1.343-3-3-3s-3,1.343-3,3v8c0,1.657,1.343,3,3,3
		S157.652-816.801,157.652-818.458z"/>
	<path fill="#FF8888" d="M179.432-730.108l-2.136,4.824l-2.712,6.337l-2.76-6.337l-2.136-4.824
		c-1.056-1.992-3.888-0.432-2.952,1.464l6.336,13.273c0.912,1.872,2.616,1.512,3.168,0l6.121-13.417
		C183.176-730.78,180.392-731.933,179.432-730.108z"/>
	<path fill="#FF8888" d="M192.824-731.5c-4.44,0-9.049,2.904-9.049,8.809c0,5.881,4.608,8.833,9.049,8.641
		c4.2,0,8.592-2.953,8.592-8.641S197.024-731.285,192.824-731.5z M192.56-717.003c-2.688,0-5.616-1.92-5.616-5.688
		c0-3.792,2.928-5.688,5.616-5.688c2.76,0,5.712,1.896,5.712,5.688C198.272-718.923,195.32-717.003,192.56-717.003z"/>
	<path fill="#FF8888" d="M213.8-717.435h-6.528v-12.025c0-0.792-0.648-1.464-1.416-1.464c-0.841,0-1.513,0.672-1.513,1.464v13.705
		c0,0.864,0.672,1.464,1.513,1.464h7.944C216.199-714.291,216.152-717.435,213.8-717.435z"/>
	<path fill="#FF8888" d="M217.375-716.379v0.456c0,2.256,3.48,2.136,3.48,0v-0.456C220.855-718.54,217.375-718.54,217.375-716.379z"
		/>
	<path fill="#FFFFFF" d="M101.432-753.115h-2.436c-0.924,0-2.037,0.126-2.96,0.126c1.491-0.882,2.541-1.638,4.073-2.939
		c3.989-3.884,2.016-9.007-2.96-9.007c-1.827,0-3.653,0.735-4.598,2.583c-0.84,1.89,1.365,2.771,2.205,1.449
		c0.546-0.861,1.491-1.407,2.394-1.407c2.834,0,2.855,3.023,0.924,4.535c-2.037,1.848-3.821,3.149-5.711,5.165
		c-0.903,0.945-0.378,2.205,0.924,2.205h8.146C103.259-750.406,103.049-753.115,101.432-753.115z"/>
	<path fill="#FFFFFF" d="M110.945-765.376c-8.503,0-8.629,15.201,0.021,15.201C119.071-750.175,118.966-765.376,110.945-765.376z
		 M110.945-752.926c-4.892,0-4.829-9.616,0.021-9.616C115.312-762.542,115.375-752.926,110.945-752.926z"/>
	<path fill="#FFFFFF" d="M137.53-764.6l-4.787,6.467l-4.619-6.236c-0.357-0.399-0.714-0.756-1.323-0.756
		c-0.336,0-1.26,0.357-1.26,1.449v11.821c0,0.924,0.588,1.449,1.26,1.449c0.756,0,1.512-0.525,1.512-1.449v-7.769l3.128,4.409
		c0.693,0.924,1.638,0.924,2.394,0l3.485-4.409v7.769c0,0.924,0.588,1.449,1.344,1.449c0.672,0,1.26-0.525,1.26-1.449v-11.821
		C139.924-765.125,138.223-765.46,137.53-764.6z"/>
	<path fill="#FFFFFF" d="M152.021-753.157h-6.404v-3.149h5.291c1.869,0,1.869-2.75,0-2.75h-5.291v-3.149h6.047
		c1.89,0,1.932-2.729,0-2.729h-7.538c-0.735,0-1.302,0.546-1.302,1.302v11.926c0,0.735,0.567,1.302,1.302,1.302h7.895
		C154.078-750.406,153.931-753.157,152.021-753.157z"/>
	<path fill="#FFFFFF" d="M162.017-764.936h-4.808c-0.693,0-1.449,0.546-1.449,1.302v11.926c0,0.924,0.756,1.302,1.449,1.302h4.997
		C171.402-750.406,171.612-764.936,162.017-764.936z M162.017-752.968h-3.485v-9.406h3.485
		C167.938-762.374,167.686-752.968,162.017-752.968z"/>
	<path fill="#FFFFFF" d="M171.762-763.676v11.989c0,1.785,2.771,1.743,2.771,0v-11.989
		C174.533-765.46,171.762-765.397,171.762-763.676z"/>
	<path fill="#FFFFFF" d="M182.702-764.201l-6.026,11.779c-0.42,0.882,0,1.638,0.672,2.016c0.756,0.147,1.533,0,1.869-0.714
		l0.903-1.848h7.748l0.924,1.848c0.756,1.638,3.296,0.336,2.436-1.302l-5.921-11.779
		C184.78-765.355,183.269-765.313,182.702-764.201z M181.421-755.739l2.583-5.186l2.373,5.186H181.421z"/>
	<path fill="#FFFFFF" d="M200.594-750.406h6.95c2.1,0,2.058-2.75,0-2.75h-5.711v-10.519c0-0.693-0.567-1.281-1.239-1.281
		c-0.734,0-1.322,0.588-1.322,1.281v11.989C199.271-750.931,199.859-750.406,200.594-750.406z"/>
	<path fill="#FFFFFF" d="M214.181-751.687v-11.989c0-1.785-2.771-1.722-2.771,0v11.989
		C211.409-749.902,214.181-749.944,214.181-751.687z"/>
	<path fill="#FFFFFF" d="M228.333-765.125c-0.714,0-1.322,0.756-1.322,1.449v8.146l-6.95-8.692c-0.566-0.546-0.734-0.735-1.49-0.735
		c-1.092,0-1.26,0.735-1.26,1.491v11.611c0,0.924,0.672,1.449,1.428,1.449s1.322-0.525,1.322-1.449v-8.104l6.95,8.818
		c0.608,0.567,0.965,0.735,1.7,0.735c0.546-0.168,1.112-0.525,1.112-1.449v-11.821C229.823-764.369,229.089-765.125,228.333-765.125
		z"/>
	<path fill="#FFFFFF" d="M241.921-753.157h-6.404v-3.149h5.291c1.869,0,1.869-2.75,0-2.75h-5.291v-3.149h6.047
		c1.89,0,1.932-2.729,0-2.729h-7.537c-0.735,0-1.303,0.546-1.303,1.302v11.926c0,0.735,0.567,1.302,1.303,1.302h7.895
		C243.978-750.406,243.831-753.157,241.921-753.157z"/>
	<path fill="#FFFFFF" d="M251.938-763.676v11.989c0,1.785,2.771,1.743,2.771,0v-11.989
		C254.71-765.46,251.938-765.397,251.938-763.676z"/>
	<path fill="#FFFFFF" d="M267.938-754.123c-0.966,0.861-2.078,1.344-3.275,1.344c-3.254,0-4.787-2.394-4.787-4.997
		c0-2.562,1.554-4.85,4.787-4.85c1.197,0,2.078,0.252,2.939,1.155c0.504,0.504,1.365,0.567,1.932,0.063
		c0.566-0.588,0.504-1.512-0.062-2.037c-1.533-1.323-2.982-1.869-4.809-1.869c-4.829,0-7.369,3.485-7.369,7.538
		s2.288,7.517,7.369,7.517c1.742,0,3.506-0.273,4.977-1.638c0.734-0.735,0.566-1.512,0.23-1.974
		C269.492-754.375,268.589-754.626,267.938-754.123z"/>
	<path fill="#FFFFFF" d="M279.993-765.46c-3.885,0-7.916,2.541-7.916,7.706c0,5.144,4.031,7.727,7.916,7.559
		c3.674,0,7.517-2.583,7.517-7.559S283.667-765.271,279.993-765.46z M279.763-752.779c-2.352,0-4.914-1.68-4.914-4.976
		c0-3.317,2.562-4.976,4.914-4.976c2.414,0,4.996,1.659,4.996,4.976C284.759-754.458,282.177-752.779,279.763-752.779z"/>
	<path fill="#FFFFFF" d="M301.118-765.125c-0.714,0-1.322,0.756-1.322,1.449v8.146l-6.95-8.692
		c-0.567-0.546-0.735-0.735-1.491-0.735c-1.092,0-1.26,0.735-1.26,1.491v11.611c0,0.924,0.672,1.449,1.428,1.449
		s1.323-0.525,1.323-1.449v-8.104l6.95,8.818c0.608,0.567,0.965,0.735,1.7,0.735c0.546-0.168,1.112-0.525,1.112-1.449v-11.821
		C302.608-764.369,301.874-765.125,301.118-765.125z"/>
	<path fill="#FFFFFF" d="M307.944-761.576c0.44-2.184,3.968-1.722,5.521-0.735c1.26,0.924,2.771-0.903,1.344-2.058
		c-2.897-2.226-9.049-1.491-9.532,2.583c-0.651,5.963,8.083,4.094,8.356,7.202c-0.314,2.981-4.745,2.1-6.467,0.924
		c-0.714-0.588-1.322-0.399-1.869,0.147c-0.377,0.567-0.398,1.491,0.295,2.058c2.896,2.394,10.623,2.268,10.771-3.065
		C316.511-760.106,307.377-758.133,307.944-761.576z"/>
	<path fill="#FFFFFF" d="M255.987-807.492c-0.036,0.001-0.059,0.01-0.097,0.01c-3.221,0-3.498,3.232-1.915,5.525l7.249,10.369
		c2.88,3.648,7.872,0.096,5.376-3.601l-6.384-7.776c10.177-4.081,7.681-20.402-4.513-20.402h-12.77c-1.584,0-2.88,1.248-2.88,2.928
		v27.266c0,4.225,6.385,4.081,6.385-0.096v-6.856v-1.833v-5.521v-1.147v-8.934h9.265
		C262.225-817.559,261.95-807.796,255.987-807.492z"/>
	<path fill="#FFFFFF" d="M312.438-820.487c0,9.265,0,18.193,0,27.41c0,4.032,6.337,3.984,6.337,0v-1.173v-5.547v-8.497v-8.039
		v-4.154C318.775-824.711,312.438-824.567,312.438-820.487z"/>
	<path fill="#FFFFFF" d="M327.992-808.63c3.072-3.36,6.384-6.337,9.217-9.697c1.344-1.296,1.344-2.977,0-4.272
		c-1.2-1.2-2.881-1.584-4.561,0l-8.14,8.394c-3.78,3.787-3.188,6.708-1.174,9.368l10.705,13.585
		c1.921,3.072,8.065,0.192,5.185-3.792L327.992-808.63z"/>
	<g>
		<path fill="#FF8888" d="M232.143-717.807h-6.769c-1.896,0-2.28-1.536-1.248-2.833l8.017-9.673
			c0.408-0.432,0.815-0.816,1.704-0.816c1.008,0,1.44,0.816,1.44,1.68v8.617h1.056c1.92,0,1.776,3.024,0,3.024h-1.056v2.016
			c0,1.824-3.145,1.848-3.145,0V-717.807z M227.798-720.855h4.513l0.048-5.473L227.798-720.855z"/>
	</g>
</g>
<g>
	<path fill="#FFFFFF" d="M30.036-551.673c-0.39-0.39-0.901-0.585-1.414-0.585c-0.512,0-1.023,0.195-1.414,0.585l-16.971,16.971
		c-0.781,0.782-0.781,2.047,0,2.828l9.899,9.9c0.391,0.391,0.902,0.586,1.414,0.586s1.023-0.195,1.414-0.586l16.971-16.971
		c0.781-0.781,0.781-2.047,0-2.829L30.036-551.673z M21.551-523.388l-9.899-9.899l16.969-16.971c0,0,0.001,0,0.002,0l9.899,9.899
		L21.551-523.388z"/>
	<path fill="#FFFFFF" d="M63.092-574.834c-1.17-1.17-3.073-1.17-4.243,0l-11.84,11.84l-2.644-2.644
		c-0.055-0.048-0.112-0.102-0.179-0.168c-1.222-1.222-2.825-1.42-3.58-1.422h-7.043c-1.5,0.001-2.832,0.719-3.527,1.414
		L1.758-537.536c-2.344,2.343-2.344,6.142,0,8.485l15.556,15.557c1.171,1.171,2.707,1.757,4.243,1.757
		c1.535,0,3.07-0.586,4.242-1.757l28.279-28.279c1.327-1.328,1.416-2.81,1.417-3.792v-6.778c-0.001-1.918-0.697-2.863-1.415-3.58
		l-2.828-2.828l11.84-11.841C64.262-571.762,64.262-573.665,63.092-574.834z M51.495-552.344v6.774
		c-0.001,0.694-0.076,0.798-0.245,0.968l-28.279,28.278c-0.51,0.51-1.105,0.586-1.414,0.586c-0.311,0-0.905-0.076-1.415-0.586
		L4.586-531.88C4.076-532.389,4-532.984,4-533.293c0-0.309,0.076-0.904,0.586-1.414l28.262-28.262
		c0.101-0.088,0.426-0.259,0.716-0.259h7.035c0.167,0,0.571,0.062,0.76,0.25c0.091,0.091,0.174,0.17,0.252,0.241l2.57,2.57
		l-2.834,2.834c-0.006,0.006-0.009,0.013-0.015,0.019c-0.229-0.031-0.459-0.066-0.689-0.066c-1.279,0-2.559,0.489-3.535,1.465
		c-1.952,1.953-1.953,5.118,0,7.071c0.977,0.977,2.256,1.464,3.536,1.464c1.279,0,2.56-0.488,3.535-1.464
		c1.952-1.953,1.952-5.118,0-7.071c-0.243-0.243-0.505-0.456-0.781-0.638l2.198-2.198l5.657,5.657
		C51.463-552.884,51.495-552.852,51.495-552.344z M41.347-553.089c0.627,0.627,1.46,0.894,2.281,0.846
		c-0.032,0.722-0.313,1.435-0.863,1.985c-0.566,0.566-1.32,0.878-2.121,0.878c-0.802,0-1.556-0.312-2.122-0.878
		s-0.879-1.32-0.879-2.121c0-0.802,0.312-1.555,0.879-2.122c0.528-0.528,1.223-0.824,1.963-0.863
		C40.443-554.545,40.723-553.713,41.347-553.089z M61.678-572.006l-11.84,11.841l-1.414-1.415l11.84-11.84
		c0.39-0.39,1.023-0.39,1.414,0C62.067-573.03,62.067-572.396,61.678-572.006z"/>
</g>
<path fill="#969696" d="M4857.263,161.75c-47.037-31.428-107.792-33.46-156.861-5.261L241.038,2725.435
	c-51.754,29.762-80.643,87.538-73.383,146.768c7.257,59.303,49.211,108.443,106.629,124.849l1302.255,373.452l614.22,1146.705
	c24.535,45.945,71.35,75.564,123.324,78.318c2.538,0.147,5.153,0.147,7.691,0.147c49.143,0,95.305-24.317,123.107-65.327
	l446.326-658.859l3.922,2.396l43.261-72.003l25.62-37.747l1282.152,364.235c41.592,11.904,86.158,5.081,122.307-18.727
	c36.076-23.735,60.1-61.988,65.689-104.812l487.775-3700.12C4929.338,248.634,4904.296,193.181,4857.263,161.75z M2336.653,4160.015
	l-490.603-916.027l1462.668-1208.914c63.295-52.333,72.151-145.967,19.891-209.262c-52.333-63.367-146.114-72.152-209.335-19.889
	L1594.396,3066.369l-901.078-258.404L4511.246,608.516l-1822.77,3032.077L2336.653,4160.015z M4161.89,3795.347l-1041.673-296.004
	l1384.206-2302.594L4161.89,3795.347z"/>
<g>
	<path fill="#FFFFFF" d="M163.407-534.521c1.784-1.784,10.021-13.82,10.371-14.332c1.465-2.143,1.592-4.958,0.331-7.346
		c-1.234-2.34-3.521-3.736-6.116-3.736h-41.996v-4v-2v0c0-0.139-0.014-0.273-0.041-0.404c-0.206-2.014-1.892-3.596-3.959-3.596h-7
		c-2.206,0-4,1.794-4,4v2c0,2.206,1.794,4,4,4h7v27.992c0,4.411,3.589,8,8,8h37c1.104,0,2-0.896,2-2s-0.896-2-2-2h-37
		c-2.203,0-3.994-1.79-3.999-3.992h31.019C160.549-531.935,161.894-533.007,163.407-534.521z M167.993-555.935
		c1.563,0,2.324,1.121,2.578,1.603c0.444,0.841,0.651,2.129-0.096,3.222c-4.018,5.877-8.944,12.81-9.896,13.762
		c-1.029,1.029-1.414,1.414-3.562,1.414h-31.02v-20H167.993z M114.997-563.935v-2h7v2H114.997z"/>
	<path fill="#FFFFFF" d="M133.992-523.943c-3.308,0-5.999,2.691-5.999,6s2.691,6,5.999,6c3.309,0,6.001-2.691,6.001-6
		S137.301-523.943,133.992-523.943z M133.992-515.943c-1.103,0-1.999-0.897-1.999-2c0-1.103,0.896-2,1.999-2
		c1.104,0,2.001,0.897,2.001,2C135.993-516.84,135.096-515.943,133.992-515.943z"/>
	<path fill="#FFFFFF" d="M159.988-523.943c-3.308,0-5.999,2.691-5.999,6s2.691,6,5.999,6c3.309,0,6.001-2.691,6.001-6
		S163.297-523.943,159.988-523.943z M159.988-515.943c-1.103,0-1.999-0.897-1.999-2c0-1.103,0.896-2,1.999-2
		c1.104,0,2.001,0.897,2.001,2C161.989-516.84,161.092-515.943,159.988-515.943z"/>
</g>
<path fill="#FFFFFF" d="M274.985-524.439v-15.285c0-4.411-3.589-8-8-8h-12v-13.294c2.89-0.861,5-3.536,5-6.706c0-3.867-3.136-7-7-7
	c-3.866,0-7,3.134-7,7c0,3.17,2.109,5.846,5,6.707v13.293h-12c-4.411,0-8,3.589-8,8v15.286c-2.889,0.862-4.996,3.536-4.996,6.706
	c0,3.866,3.134,7,7,7c3.864,0,7-3.134,7-7c0-3.172-2.112-5.848-5.004-6.708v-15.284c0-2.205,1.794-4,4-4h12v19.286
	c-2.891,0.861-5,3.536-5,6.707c0,3.866,3.134,7,7,7c3.864,0,7-3.134,7-7c0-3.171-2.11-5.846-5-6.707v-19.286h12c2.206,0,4,1.795,4,4
	v15.285c-2.891,0.861-5,3.536-5,6.707c0,3.866,3.134,7,7,7c3.864,0,7-3.134,7-7C279.985-520.903,277.875-523.578,274.985-524.439z
	 M249.985-567.724c0-1.654,1.346-3,3-3s3,1.346,3,3s-1.346,3-3,3S249.985-566.07,249.985-567.724z M235.989-517.732
	c0,1.654-1.346,3-3,3s-3-1.346-3-3s1.346-3,3-3S235.989-519.387,235.989-517.732z M255.985-517.731c0,1.654-1.346,3-3,3
	s-3-1.346-3-3c0-1.655,1.346-3,3-3S255.985-519.386,255.985-517.731z M272.985-514.732c-1.654,0-3-1.346-3-3s1.346-3,3-3
	s3,1.346,3,3S274.64-514.732,272.985-514.732z"/>
<path fill="#FFFFFF" d="M392.702-555.922l-15.557-15.557l-4.242-4.242l-8.432,8.43l6.373-6.372l-6.399,6.4
	c-0.497,0.497-1.069,0.865-1.67,1.151l-1.164-1.164c-2.343-2.343-6.142-2.343-8.485,0l-8.728,8.728l-1.613,1.514l-1.225-1.225
	c-0.976-0.977-2.256-1.465-3.535-1.465s-2.56,0.488-3.535,1.465c-1.953,1.952-1.953,5.118,0,7.071l26.989,26.989v0l11.005,11.005
	c0.976,0.976,2.256,1.464,3.535,1.464s2.56-0.488,3.535-1.464c1.953-1.953,1.953-5.119,0-7.071l-12.817-12.818l1.425-1.424
	l6.795-6.517l2.211-2.21c0.497-0.498,1.068-0.866,1.669-1.152l1.164,1.164c2.344,2.343,6.143,2.343,8.485,0l0.027-0.027l8.431-8.431
	L392.702-555.922z M377.02-516.728c0,0.188-0.051,0.465-0.294,0.708c-0.241,0.241-0.517,0.292-0.706,0.292
	c-0.188,0-0.465-0.051-0.707-0.292l-11.006-11.006l0.001,0l-26.989-26.989c-0.242-0.242-0.293-0.517-0.293-0.707
	c0-0.188,0.051-0.464,0.294-0.708c0.241-0.241,0.517-0.292,0.706-0.292c0.188,0,0.465,0.051,0.707,0.293l23.989,23.989v0
	l14.005,14.005C376.969-517.193,377.02-516.917,377.02-516.728z M374.34-546.062l-2.212,2.211l-6.795,6.517l-1.414,1.414
	l-1.414-1.414l-15.557-15.556l-1.414-1.414l1.414-1.415l9.007-8.727c0.768-0.769,2.008-0.777,2.791-0.031l5.699,5.699l1.514,1.514
	l9.933,9.932C375.342-546.968,374.822-546.544,374.34-546.062z M385.686-546.077l-0.027,0.027c-0.768,0.768-2.008,0.776-2.791,0.03
	l-5.699-5.699l-1.515-1.514l-9.932-9.932c0.548-0.364,1.068-0.787,1.552-1.27l-1.552,1.27l1.579-1.296l5.603-5.603l1.414,1.414
	l15.557,15.556l1.414,1.415L385.686-546.077z"/>
<g>
	<path fill="#FFFFFF" d="M167.081-456.814c-0.781-0.781-2.047-0.781-2.828,0s-0.781,2.047,0,2.828
		c8.968,8.969,8.968,23.561,0,32.527c-0.781,0.781-0.781,2.048,0,2.828c0.391,0.391,0.902,0.586,1.414,0.586
		s1.023-0.195,1.414-0.586C177.608-429.157,177.608-446.287,167.081-456.814z"/>
	<path fill="#FFFFFF" d="M161.424-451.158c-0.781-0.781-2.047-0.781-2.828,0c-0.781,0.781-0.781,2.047,0,2.828
		c5.849,5.85,5.849,15.366,0.001,21.215c-0.781,0.781-0.781,2.047,0,2.828c0.391,0.391,0.902,0.586,1.414,0.586
		s1.023-0.195,1.414-0.586C168.833-431.695,168.832-443.75,161.424-451.158z"/>
	<path fill="#FFFFFF" d="M155.767-445.501c-0.781-0.78-2.047-0.78-2.828,0.001s-0.781,2.047,0,2.828
		c2.729,2.729,2.729,7.17,0.001,9.9c-0.781,0.781-0.781,2.047,0,2.828c0.391,0.391,0.902,0.586,1.414,0.586s1.023-0.195,1.414-0.586
		C160.057-434.232,160.056-441.212,155.767-445.501z"/>
	<path fill="#FFFFFF" d="M148.764-469.568c-0.249-0.104-0.512-0.156-0.772-0.156c-0.514,0-1.021,0.198-1.402,0.572l-17.766,17.428
		h-11.83c-3.313,0-6,2.687-6,6v16c0,3.314,2.687,6,6,6h12.191l17.39,17.414c0.383,0.383,0.895,0.586,1.415,0.586
		c0.258,0,0.518-0.049,0.765-0.151c0.748-0.31,1.235-1.039,1.235-1.849v-60C149.989-468.53,149.506-469.256,148.764-469.568z
		 M124.993-447.725v20h-4v-20H124.993z M114.993-429.725v-16c0-1.102,0.897-2,2-2h2v20h-2
		C115.891-427.725,114.993-428.621,114.993-429.725z M145.989-412.557l-13.975-13.994c-0.75-0.752-1.769-1.174-2.83-1.174h-2.191
		v-20h1.83c1.048,0,2.054-0.41,2.801-1.145l14.365-14.091V-412.557z"/>
</g>
<g>
	<path fill="#FFFFFF" d="M253.987-442.723h-23.996c-0.553,0-1,0.448-1,1c0,0.553,0.447,1,1,1h23.996c0.553,0,1-0.447,1-1
		C254.987-442.274,254.54-442.723,253.987-442.723z"/>
	<path fill="#FFFFFF" d="M253.987-426.723h-23.996c-0.553,0-1,0.448-1,1c0,0.553,0.447,1,1,1h23.996c0.553,0,1-0.447,1-1
		C254.987-426.274,254.54-426.723,253.987-426.723z"/>
	<path fill="#FFFFFF" d="M253.987-422.722h-23.996c-0.553,0-1,0.448-1,1s0.447,1,1,1h23.996c0.553,0,1-0.448,1-1
		S254.54-422.722,253.987-422.722z"/>
	<path fill="#FFFFFF" d="M229.991-436.723h17.996c0.553,0,1-0.447,1-1c0-0.552-0.447-1-1-1h-17.996c-0.553,0-1,0.448-1,1
		C228.991-437.17,229.438-436.723,229.991-436.723z"/>
	<path fill="#FFFFFF" d="M229.991-432.722h11c0.553,0,1-0.448,1-1s-0.447-1-1-1h-11c-0.553,0-1,0.448-1,1
		S229.438-432.722,229.991-432.722z"/>
	<path fill="#FFFFFF" d="M258.987-420.722h18v-22.001h-18V-420.722z M260.987-440.723h14v18.001h-14V-440.723z"/>
	<path fill="#FFFFFF" d="M278.987-462.722h-52c-3.313,0-6,2.687-6,6v38c0,3.314,2.687,6,6,6h52c3.313,0,6-2.686,6-6v-38
		C284.987-460.036,282.301-462.722,278.987-462.722z M226.987-458.722h52c1.103,0,2,0.897,2,2v6h-56v-6
		C224.987-457.825,225.885-458.722,226.987-458.722z M278.987-416.723h-52c-1.103,0-2-0.896-2-2v-28h56v28
		C280.987-417.619,280.09-416.723,278.987-416.723z"/>
	<circle fill="#FFFFFF" cx="230.491" cy="-455.222" r="1.5"/>
	<circle fill="#FFFFFF" cx="235.491" cy="-455.222" r="1.5"/>
	<circle fill="#FFFFFF" cx="240.491" cy="-455.222" r="1.5"/>
</g>
<g>
	<path fill="#FFFFFF" d="M63.979-361.705c-0.004-1.1-0.894-1.99-1.993-1.994h-0.303c-8.589,0-17.834,1.297-27.241,10.703
		l-5.977,5.977c-9.6,0.387-21.112,7.111-21.611,7.406c-0.533,0.314-0.891,0.857-0.969,1.471c-0.077,0.613,0.133,1.229,0.57,1.666
		l7.147,7.148l6.067,6.066c-1.568-0.902-3.349-1.393-5.207-1.393c-2.798,0-5.427,1.09-7.399,3.062
		c-0.272,0.271-0.542,0.576-0.78,0.881c-4.88,5.791-6.092,16.662-6.285,18.781c-0.054,0.592,0.158,1.176,0.578,1.596
		c0.377,0.377,0.886,0.586,1.414,0.586c0.061,0,0.121-0.004,0.183-0.008c1.066-0.098,10.555-1.064,16.813-4.992
		c1.081-0.518,2.05-1.201,2.881-2.031c3.416-3.418,3.962-8.623,1.66-12.625l6.081,6.082l7.147,7.148
		c0.376,0.375,0.886,0.584,1.414,0.584c0.047,0,0.095,0,0.143-0.004c0.578-0.041,1.11-0.332,1.458-0.797
		c0.301-0.4,7.193-9.766,7.517-21.783l5.988-5.988C62.729-343.615,64.007-352.986,63.979-361.705z M19.04-309.607
		c-0.528,0.527-1.154,0.961-1.858,1.287c-0.081,0.037-0.159,0.08-0.233,0.129c-3.852,2.453-9.452,3.627-12.655,4.129
		c0.553-3.686,1.946-10.389,5.091-14.121c0.155-0.197,0.318-0.391,0.505-0.576c1.222-1.223,2.847-1.895,4.575-1.895
		s3.354,0.672,4.576,1.895C21.562-316.236,21.562-312.131,19.04-309.607z M23.749-342.303l-2.996,2.996l-5.735,5.734l-3.84-3.838
		C13.948-338.838,18.849-341.133,23.749-342.303z M37.842-310.746l-3.99-3.99l8.974-8.975
		C41.788-317.994,39.351-313.262,37.842-310.746z M43.907-330.449c-0.001,0.002-0.002,0.002-0.003,0.002l-8.689,8.691l-4.191,4.191
		l-5.175-5.176l10.569-10.568c0.781-0.781,0.781-2.047,0-2.828s-2.047-0.781-2.828,0l-10.569,10.568l-5.175-5.174l12.882-12.883
		c0,0,0,0,0.001-0.002l6.542-6.541c7.76-7.758,15.457-9.322,22.691-9.51c-0.155,6.85-1.474,14.648-9.514,22.688L43.907-330.449z"/>
	<path fill="#FFFFFF" d="M52.828-352.549c-0.78-0.779-1.804-1.17-2.828-1.17c-1.023,0-2.047,0.391-2.828,1.17
		c-1.562,1.562-1.562,4.096,0,5.658c0.781,0.779,1.805,1.17,2.828,1.17c1.024,0,2.048-0.391,2.828-1.17
		C54.39-348.453,54.391-350.986,52.828-352.549z M51.413-348.307c-0.377,0.379-0.879,0.586-1.413,0.586s-1.036-0.207-1.414-0.586
		c-0.378-0.377-0.586-0.879-0.586-1.414c0-0.533,0.208-1.035,0.586-1.412c0.378-0.379,0.88-0.586,1.414-0.586
		s1.036,0.207,1.414,0.584c0.378,0.379,0.586,0.881,0.586,1.414C51.999-349.186,51.792-348.684,51.413-348.307z"/>
</g>
<g>
	<path fill="#FFFFFF" d="M142.985-363.725c-17.673,0-32,14.326-32,32s14.327,32,32,32s32-14.326,32-32
		S160.658-363.725,142.985-363.725z M142.985-303.725c-15.439,0-28-12.561-28-28s12.561-28,28-28s28,12.561,28,28
		S158.425-303.725,142.985-303.725z"/>
	<path fill="#FFFFFF" d="M162.981-333.725c-1.104,0-2,0.896-2,2c0,9.926-8.075,18-18,18s-18-8.074-18-18c0-1.104-0.896-2-2-2
		s-2,0.896-2,2c0,12.131,9.869,22,22,22s22-9.869,22-22C164.981-332.828,164.086-333.725,162.981-333.725z"/>
	<ellipse fill="#FFFFFF" cx="133.983" cy="-340.682" rx="4" ry="6"/>
	<ellipse fill="#FFFFFF" cx="151.987" cy="-340.682" rx="4" ry="6"/>
</g>
<g>
	<path fill="#FFFFFF" d="M237.536-594.688c8.034,0,14.547-6.521,14.547-14.547v-37.617l40.63,40.629
		c2.841,2.842,6.562,4.262,10.285,4.262c3.722,0,7.443-1.42,10.285-4.262c5.683-5.682,5.683-14.902,0-20.57l-40.629-40.629h37.617
		c8.033,0,14.547-6.521,14.547-14.547c0-8.041-6.514-14.547-14.547-14.547h-72.735c-0.952,0-1.903,0.099-2.849,0.284
		c-0.433,0.085-0.838,0.255-1.257,0.37c-0.49,0.142-0.979,0.255-1.456,0.454c-0.497,0.199-0.951,0.483-1.421,0.753
		c-0.362,0.199-0.738,0.355-1.079,0.583c-1.599,1.065-2.969,2.429-4.035,4.035c-0.241,0.355-0.404,0.739-0.604,1.108
		c-0.256,0.469-0.532,0.909-0.731,1.392c-0.199,0.483-0.312,0.98-0.462,1.463c-0.121,0.426-0.284,0.824-0.369,1.25
		c-0.185,0.938-0.284,1.889-0.284,2.855v72.734C222.989-601.209,229.503-594.688,237.536-594.688z"/>
	<path fill="#FFFFFF" d="M310.271-332.842h-37.617l40.629-40.63c5.683-5.683,5.683-14.888,0-20.57s-14.889-5.683-20.57,0
		l-40.63,40.63v-37.618c0-8.04-6.513-14.547-14.547-14.547c-8.033,0-14.547,6.507-14.547,14.547v72.735
		c0,0.951,0.1,1.903,0.284,2.841c0.085,0.44,0.248,0.839,0.369,1.251c0.149,0.496,0.263,0.994,0.462,1.477
		c0.199,0.483,0.476,0.924,0.731,1.393c0.199,0.369,0.362,0.753,0.604,1.107c1.066,1.592,2.437,2.97,4.035,4.035
		c0.341,0.228,0.717,0.384,1.079,0.582c0.47,0.256,0.924,0.54,1.421,0.753c0.477,0.185,0.966,0.299,1.456,0.44
		c0.419,0.128,0.824,0.299,1.257,0.384c0.938,0.185,1.896,0.284,2.849,0.284h72.735c8.033,0,14.547-6.521,14.547-14.547
		C324.818-326.336,318.305-332.842,310.271-332.842z"/>
	<path fill="#FFFFFF" d="M688.181-684.825c-0.085-0.427-0.249-0.824-0.369-1.25c-0.149-0.483-0.263-0.98-0.462-1.463
		c-0.199-0.483-0.476-0.923-0.731-1.392c-0.198-0.369-0.362-0.753-0.604-1.108c-1.065-1.605-2.437-2.969-4.034-4.035
		c-0.342-0.227-0.718-0.383-1.08-0.583c-0.469-0.27-0.924-0.554-1.421-0.753c-0.476-0.199-0.966-0.312-1.456-0.454
		c-0.419-0.114-0.824-0.284-1.258-0.37c-0.938-0.185-1.896-0.284-2.848-0.284h-72.735c-8.033,0-14.547,6.506-14.547,14.547
		c0,8.026,6.514,14.547,14.547,14.547h37.618l-40.629,40.629c-5.684,5.668-5.684,14.888,0,20.57
		c2.841,2.842,6.562,4.262,10.285,4.262c3.722,0,7.443-1.42,10.285-4.262l40.629-40.629v37.617c0,8.026,6.514,14.547,14.547,14.547
		s14.547-6.521,14.547-14.547v-72.734C688.465-682.936,688.365-683.888,688.181-684.825z"/>
	<path fill="#FFFFFF" d="M673.918-405.577c-8.033,0-14.547,6.507-14.547,14.547v37.618l-40.629-40.63
		c-5.683-5.683-14.889-5.683-20.57,0c-5.684,5.683-5.684,14.888,0,20.57l40.629,40.63h-37.618c-8.033,0-14.547,6.506-14.547,14.547
		c0,8.026,6.514,14.547,14.547,14.547h72.735c0.951,0,1.91-0.1,2.848-0.284c0.434-0.085,0.839-0.256,1.258-0.384
		c0.49-0.142,0.98-0.256,1.456-0.44c0.497-0.213,0.952-0.497,1.421-0.753c0.362-0.198,0.738-0.354,1.08-0.582
		c1.598-1.065,2.969-2.443,4.034-4.035c0.241-0.354,0.405-0.738,0.604-1.107c0.256-0.469,0.532-0.909,0.731-1.393
		c0.199-0.482,0.312-0.98,0.462-1.477c0.12-0.412,0.284-0.811,0.369-1.251c0.185-0.938,0.284-1.89,0.284-2.841v-72.735
		C688.465-399.07,681.951-405.577,673.918-405.577z"/>
	<path fill="#FFFFFF" d="M601.183-434.671v-130.923c0-24.108-19.54-43.642-43.641-43.642H353.884
		c-24.101,0-43.641,19.534-43.641,43.642v130.923c0,24.093,19.54,43.641,43.641,43.641h203.658
		C581.643-391.03,601.183-410.578,601.183-434.671z M572.089-434.671c0,8.012-6.527,14.547-14.547,14.547H353.884
		c-8.019,0-14.547-6.535-14.547-14.547v-130.923c0-8.026,6.528-14.547,14.547-14.547h203.658c8.02,0,14.547,6.521,14.547,14.547
		V-434.671z"/>
</g>
<path fill="#FFFFFF" d="M395.221-352.498l-8.485-8.486c-2.343-2.342-6.143-2.342-8.485,0l-38.039,38.039l-0.31,0.309l-0.729,0.729
	c-1.215,1.217-1.998,2.76-2.271,4.467l-3.855,16.221c-0.16,0.676,0.041,1.387,0.532,1.877c0.491,0.492,1.201,0.693,1.877,0.533
	l16.221-3.857c1.709-0.271,3.252-1.055,4.468-2.27l0.728-0.729l0.309-0.309l38.04-38.039
	C397.563-346.355,397.563-350.156,395.221-352.498z M351.047-306.617l-0.148,0.023l-0.146,0.033l-13.062,3.107l3.104-13.062
	l0.035-0.146l0.023-0.15c0.089-0.555,0.286-1.057,0.566-1.514l11.142,11.143C352.105-306.904,351.604-306.705,351.047-306.617z
	 M355.476-309.926l-11.313-11.314l29.84-29.838l2.828,2.828l-29.834,29.834l1.414,1.414l29.834-29.834l2.828,2.828l-29.834,29.834
	l1.414,1.414l29.835-29.834l2.828,2.828L355.476-309.926z M392.392-346.842l-4.248,4.248l-11.313-11.312l4.248-4.248
	c0.779-0.781,2.049-0.781,2.828,0l8.485,8.484C393.172-348.891,393.172-347.621,392.392-346.842z"/>
<path fill="#FFFFFF" d="M25.038-195.275c-1.967,0-3.814-0.766-5.205-2.156L2.144-215.123c-1.391-1.389-2.156-3.236-2.156-5.203
	s0.766-3.814,2.156-5.205l5.054-5.055c1.391-1.391,3.239-2.156,5.205-2.156s3.814,0.766,5.205,2.156l7.431,7.432l21.33-21.33
	c1.39-1.391,3.238-2.156,5.204-2.156s3.814,0.766,5.205,2.156l5.055,5.055c2.869,2.869,2.869,7.539,0,10.408l-31.589,31.59
	C28.853-196.041,27.004-195.275,25.038-195.275z M12.402-228.742c-0.897,0-1.742,0.35-2.377,0.986l-5.054,5.053
	c-0.635,0.635-0.984,1.479-0.984,2.377c0,0.896,0.35,1.74,0.984,2.375l17.689,17.691c1.269,1.268,3.483,1.27,4.754-0.002
	l31.589-31.588c1.31-1.311,1.31-3.441,0-4.752l-5.055-5.055c-1.27-1.268-3.483-1.271-4.753,0l-22.744,22.744
	c-0.781,0.781-2.047,0.781-2.828,0l-8.845-8.846C14.145-228.393,13.3-228.742,12.402-228.742z"/>
<g>
	<path fill="#FFFFFF" d="M134.983-210.074v3.342c0,1.105,0.896,2,2,2s2-0.895,2-2v-3.342c2.328-0.824,4-3.041,4-5.65
		c0-3.312-2.688-6-6.001-6c-3.312,0-5.999,2.688-5.999,6C130.983-213.113,132.655-210.898,134.983-210.074z M136.982-217.725
		c1.104,0,2.001,0.896,2.001,2c0,1.102-0.897,2-2.001,2c-1.103,0-1.999-0.898-1.999-2
		C134.983-216.828,135.88-217.725,136.982-217.725z"/>
	<path fill="#FFFFFF" d="M118.983-235.725h-2c-3.313,0-6,2.686-6,6v30c0,3.314,2.687,6,6,6h40c3.313,0,6-2.686,6-6v-30
		c0-3.16-2.445-5.744-5.545-5.977h-14.455h-24V-235.725z M156.983-231.725c1.103,0,2,0.896,2,2v30c0,1.104-0.897,2-2,2h-40
		c-1.103,0-2-0.896-2-2v-30c0-1.104,0.897-2,2-2H156.983z"/>
	<path fill="#FFFFFF" d="M158.979-257.725c-8.837,0-16,7.162-16,16v6h0.004v0.023l7.965-0.006v-1.635h0.027v-4.379
		c0-4.414,3.591-8.004,8.004-8.004s8.004,3.59,8.004,8.004v5.004h-0.004v0.992h-0.031v0.006h0.031v2.002l8-2.008v-6
		C174.979-250.562,167.816-257.725,158.979-257.725z M158.979-251.725c-5.525,0-10.004,4.479-10.004,10.004v5.996h-1.996v-6
		c0-6.617,5.383-12,12-12s12,5.383,12,12v3.008l-1.996,0.438v-3.441C168.983-247.246,164.505-251.725,158.979-251.725z"/>
</g>
<path fill="#FFFFFF" d="M999.073-509.384c0-1.338,0.075-2.217,0.199-2.836v-4.271c0-56.015-45.41-101.432-101.432-101.432h-9.101
	c-0.409,0.025-0.774,0.05-1.288,0.05c-18.133,0-32.354,9.447-42.934,18.796c-4.625-1.214-9.33-2.204-14.078-3.059
	c-4.612-1.993-9.695-3.108-15.037-3.108h-38.037c-5.343,0-10.426,1.115-15.037,3.108c-3.232,0.582-6.439,1.25-9.615,1.993
	c-10.45-8.989-24.268-17.73-41.707-17.73c-0.515,0-0.886-0.024-1.288-0.05h-14.741c-56.021,0-101.431,45.417-101.431,101.432v12.035
	c1.566,16.394,10.686,29.283,19.458,39.003c-1.474,5.361-2.705,10.834-3.709,16.381c-1.969,4.594-3.07,9.657-3.07,14.969v18.064
	c0,0.334-0.024,0.656-0.024,0.979c0,0.334,0.024,0.656,0.024,0.979v18.016c0,5.311,1.09,10.352,3.053,14.945
	c0.42,2.326,0.872,4.654,1.38,6.957c-7.986,9.373-15.688,21.385-17.111,36.305v24.23c0,56.027,45.41,101.432,101.431,101.432h14.648
	c0.427-0.025,0.829-0.051,1.381-0.051c17.445,0,31.264-8.74,41.707-17.717c3.232,0.754,6.488,1.424,9.782,2.018
	c4.568,1.943,9.589,3.021,14.87,3.021h17.062c0.656,0.012,1.3,0.049,1.956,0.049s1.3-0.037,1.956-0.049h17.062
	c5.28,0,10.301-1.078,14.87-3.021c4.811-0.867,9.565-1.869,14.239-3.084c10.58,9.35,24.801,18.783,42.939,18.783
	c0.551,0,0.953,0.025,1.381,0.051h9.008c56.021,0,101.432-45.404,101.432-101.432v-16.469c-0.124-0.619-0.199-1.498-0.199-2.834
	c0-17-8.302-30.547-17.037-40.885c0.533-2.428,1.01-4.854,1.455-7.305c1.963-4.594,3.053-9.635,3.053-14.945v-18.016
	c0-0.322,0.024-0.645,0.024-0.979c0-0.322-0.024-0.645-0.024-0.979v-18.064c0-5.312-1.096-10.375-3.071-14.969
	c-1.021-5.658-2.284-11.23-3.795-16.703C989.218-476.424,999.073-490.862,999.073-509.384z M887.452-605.195
	c0.57,0,1.021-0.024,1.598-0.049h8.791c48.938,0,88.752,39.82,88.752,88.752v3.343c-0.136,1.115-0.198,2.34-0.198,3.765
	c0,11.366-5.082,21.11-11.267,29.221c-19.465-53.427-62.213-95.624-115.955-114.42C867.109-600.453,876.52-605.195,887.452-605.195z
	 M798.341-250.283h-3.912c-8.08-0.088-16.022-0.744-23.786-1.969c-3.565-2.254-5.955-6.191-5.955-10.711v-25.357
	c0-6.984,5.689-12.68,12.679-12.68h38.037c6.989,0,12.679,5.695,12.679,12.68v25.357c0,4.52-2.39,8.457-5.956,10.711
	C814.362-251.027,806.42-250.371,798.341-250.283z M796.385-579.886c8.804,0,17.446,0.718,25.878,2.056
	c3.491,2.253,5.819,6.166,5.819,10.623v25.358c0,6.996-5.689,12.679-12.679,12.679h-38.037c-6.989,0-12.679-5.684-12.679-12.679
	v-25.358c0-4.457,2.327-8.37,5.819-10.623C778.938-579.168,787.581-579.886,796.385-579.886z M959.18-389.281
	c-2.253,3.529-6.179,5.893-10.673,5.893h-25.357c-6.99,0-12.68-5.682-12.68-12.678v-38.037c0-6.982,5.689-12.68,12.68-12.68h25.357
	c4.482,0,8.407,2.354,10.66,5.883c1.288,8.109,1.969,16.404,2.019,24.861v1.957C961.136-405.65,960.455-397.367,959.18-389.281z
	 M834.558-321.145c-5.634-3.293-12.159-5.213-19.154-5.213h-38.037c-6.996,0-13.521,1.92-19.154,5.213
	c-25.271-10.314-45.453-30.51-55.756-55.779c3.281-5.635,5.201-12.16,5.201-19.143v-38.037c0-6.971-1.913-13.496-5.188-19.118
	c10.308-25.283,30.509-45.466,55.792-55.767c5.622,3.269,12.135,5.175,19.105,5.175h38.037c6.971,0,13.483-1.906,19.104-5.175
	c25.284,10.301,45.484,30.484,55.792,55.767c-3.274,5.622-5.188,12.147-5.188,19.118v38.037c0,6.982,1.913,13.508,5.2,19.143
	C880.011-351.654,859.829-331.459,834.558-321.145z M633.589-389.281c-1.275-8.086-1.956-16.369-2.006-24.801v-1.957
	c0.05-8.457,0.73-16.752,2.019-24.861c2.254-3.529,6.179-5.883,10.661-5.883h25.357c6.99,0,12.679,5.697,12.679,12.68v38.037
	c0,6.996-5.688,12.678-12.679,12.678h-25.357C639.768-383.389,635.843-385.752,633.589-389.281z M948.507-472.14h-25.357
	c-4.421,0-8.649,0.792-12.599,2.179c-12.469-25.84-33.438-46.803-59.303-59.259c1.394-3.95,2.191-8.197,2.191-12.629v-25.358
	c0-0.854-0.074-1.696-0.13-2.538c45.156,16.678,81.069,52.585,97.748,97.741C950.216-472.066,949.367-472.14,948.507-472.14z
	 M741.527-529.208c-25.878,12.443-46.871,33.394-59.346,59.234c-3.938-1.375-8.153-2.167-12.562-2.167h-25.357
	c-0.861,0-1.703,0.074-2.551,0.136c16.678-45.156,52.592-81.063,97.748-97.741c-0.057,0.842-0.131,1.684-0.131,2.538v25.358
	C739.329-537.405,740.128-533.17,741.527-529.208z M644.263-358.029h25.357c4.414,0,8.637-0.793,12.58-2.168
	c12.456,25.879,33.449,46.816,59.309,59.297c-1.387,3.938-2.18,8.16-2.18,12.58v25.357c0,0.879,0.074,1.734,0.131,2.588
	c-45.176-16.678-81.101-52.609-97.773-97.779C642.541-358.104,643.396-358.029,644.263-358.029z M851.285-300.852
	c25.896-12.455,46.884-33.43,59.353-59.32c3.925,1.361,8.122,2.143,12.512,2.143h25.357c0.867,0,1.721-0.074,2.575-0.125
	c-16.672,45.17-52.598,81.102-97.772,97.779c0.056-0.854,0.13-1.709,0.13-2.588v-25.357
	C853.439-292.717,852.659-296.914,851.285-300.852z M606.226-505.101v-11.391c0-48.933,39.813-88.752,88.752-88.752h14.432
	c0.482,0.025,0.972,0.049,1.598,0.049c10.115,0,18.919,4.062,26.465,9.299c-55.668,18.127-100.068,61.203-119.941,116.066
	C612.015-486.999,607.29-495.43,606.226-505.101z M711.007-224.926c-0.632,0-1.134,0.025-1.703,0.049h-14.326
	c-48.938,0-88.752-39.807-88.752-88.752v-23.574c0.879-7.975,4.26-15.107,8.506-21.371c18.258,58.787,64.287,105.318,122.729,124.35
	C729.919-228.986,721.128-224.926,711.007-224.926z M986.395-332.932c0,1.424,0.062,2.648,0.198,3.775v15.527
	c0,48.945-39.813,88.752-88.752,88.752h-8.686c-0.515-0.023-1.034-0.049-1.703-0.049c-10.945,0-20.361-4.73-28.286-10.611
	c56.479-19.75,100.812-65.352,118.747-122.654C982.755-350.924,986.395-342.504,986.395-332.932z"/>
<g>
	<path fill="#FFFFFF" d="M396.981-221.801v-4.5h-0.012c0.034-1.186-0.511-2.9-1.991-5.416c-2.353-3.996-8-14.008-8-14.008
		c-2-2.992-4-6-9-6h-12.612h-0.769h-12.612c-5,0-7,3.008-9,6c0,0-5.647,10.012-8,14.008c-1.432,2.432-1.995,4.121-1.999,5.301
		h-0.001v4.691v1.008v14.992c0,3.314,2.687,6,6,6h52c3.313,0,6-2.686,6-6v-16C396.985-221.75,396.981-221.775,396.981-221.801z
		 M338.433-229.688c2.225-3.781,7.259-12.693,7.962-13.939c1.95-2.912,2.881-4.098,5.591-4.098h12.612h0.769h12.612
		c2.71,0,3.641,1.186,5.591,4.098c0.703,1.246,5.737,10.158,7.962,13.939c0.489,0.83,0.814,1.479,1.029,1.973
		c-0.069,0-0.143,0-0.219,0c-0.229,0-0.456-0.002-0.676-0.004c-0.234-0.004-0.461-0.006-0.68-0.006h-0.001h-0.007h-13.178h-1.815
		c-1.132,0-1.784,0.383-2.008,1.008l-3,8c-0.568,1.166-1.256,2-2.996,2h-6c-2.093,0-2.614-1-3.004-2l-3-8
		c-0.422-1.008-1.57-1.008-1.996-1.008h-1.358h-13.638c-0.221,0-0.45,0.002-0.688,0.006c-0.22,0.002-0.446,0.004-0.676,0.004
		c-0.076,0-0.149,0-0.219,0C337.618-228.209,337.943-228.857,338.433-229.688z M392.985-221.725v1.373v14.627c0,1.104-0.897,2-2,2
		h-52c-1.103,0-2-0.896-2-2v-14.367v-1.633v-1.992h1.928c0.024-0.002,0.048-0.008,0.072-0.008h13.842l2.405,6.412l0.009,0.023
		l0.01,0.025c1.176,3.018,3.439,4.547,6.73,4.547h6c3.001,0,5.219-1.43,6.592-4.248l0.083-0.17l0.066-0.178l2.405-6.412h13.301h0.55
		c0.003,0,0.005,0,0.007,0h2V-221.725z"/>
	<path fill="#FFFFFF" d="M352.985-239.717h23.996c1.104,0,2-0.895,2-2c0-1.104-0.896-2-2-2h-23.996c-1.104,0-2,0.896-2,2
		C350.985-240.611,351.881-239.717,352.985-239.717z"/>
	<path fill="#FFFFFF" d="M348.985-231.717h31.996c1.104,0,2-0.895,2-2c0-1.104-0.896-2-2-2h-31.996c-1.104,0-2,0.896-2,2
		C346.985-232.611,347.881-231.717,348.985-231.717z"/>
</g>
<g>
	<path fill="#FFFFFF" d="M57.985-151.736h-52c-3.313,0-6,2.688-6,6v52c0,3.314,2.687,6,6,6h52c3.313,0,6-2.686,6-6v-52
		C63.985-149.049,61.299-151.736,57.985-151.736z M59.985-145.736v6h-4.252l0.084-0.035l-3.483-7.965h5.651
		C59.088-147.736,59.985-146.838,59.985-145.736z M4.755-147.301c3.609,1.174,6.228,4.561,6.228,8.555
		c0,4.273-2.997,7.852-6.997,8.766v-15.756C3.985-146.373,4.29-146.934,4.755-147.301z M42.791-139.736l0.085-0.037l-3.484-7.963
		h8.679l-0.085,0.037l3.483,7.963H42.791z M38.526-139.736h-8.678l0.085-0.037l-3.485-7.963h8.681l-0.086,0.039L38.526-139.736z
		 M25.584-139.736H14.943c-0.234-3.098-1.557-5.889-3.584-8h10.825l-0.086,0.039L25.584-139.736z M14.943-137.736h11.068l-3.749,8
		H11.337C13.372-131.846,14.704-134.635,14.943-137.736z M30.429-137.736h8.526l-3.751,8h-8.525L30.429-137.736z M43.372-137.736
		h8.498l-3.723,8h-8.525L43.372-137.736z M56.282-137.736h3.703v8H52.56L56.282-137.736z M57.985-91.736h-52c-1.103,0-2-0.896-2-2
		v-32h56v32C59.985-92.633,59.088-91.736,57.985-91.736z"/>
	<circle fill="#FFFFFF" cx="7.361" cy="-138.242" r="1.5"/>
	<path fill="#FFFFFF" d="M52.985-119.736H9.989c-1.104,0-2,0.896-2,2c0,1.105,0.896,2,2,2h42.996c1.104,0,2-0.895,2-2
		C54.985-118.84,54.09-119.736,52.985-119.736z"/>
	<path fill="#FFFFFF" d="M38.985-111.734H9.989c-1.104,0-2,0.895-2,2c0,1.104,0.896,2,2,2h28.996c1.104,0,2-0.896,2-2
		C40.985-110.84,40.09-111.734,38.985-111.734z"/>
	<path fill="#FFFFFF" d="M38.985-103.734H9.989c-1.104,0-2,0.895-2,2c0,1.104,0.896,2,2,2h28.996c1.104,0,2-0.896,2-2
		C40.985-102.84,40.09-103.734,38.985-103.734z"/>
</g>
<path fill="#FFFFFF" d="M160.323-121.006c3.171-2.387,5.537-6.607,5.537-11.432c0-7.457-5.288-13.502-11.502-13.502
	c-4.834,0-9.093,3.666-10.751,8.801c-2.113-5.188-6.667-8.793-11.75-8.793c-6.991,0-12.993,6.539-12.993,14.928
	c0,5.428,2.715,10.439,6.284,13.125c-8.832,2.836-15.227,11.113-15.229,20.887c0.002,2.795,2.269,5.061,5.063,5.061h33.754
	c2.795,0,5.062-2.266,5.063-5.061c0-0.318-0.025-0.631-0.039-0.947h15.602c2.484,0,4.499-2.014,4.501-4.498
	C173.862-111.127,168.176-118.484,160.323-121.006z M146.921-133.568c0.018-0.186,0.042-0.369,0.068-0.553
	c0.033-0.221,0.072-0.439,0.119-0.656c0.023-0.115,0.045-0.234,0.073-0.348c0.464-1.863,1.409-3.537,2.621-4.787
	c1.282-1.266,2.872-2.027,4.556-2.027c1.677,0,3.263,0.758,4.543,2.014c1.219,1.252,2.172,2.932,2.639,4.805
	c0.026,0.109,0.047,0.223,0.07,0.334c0.047,0.221,0.087,0.445,0.121,0.67c0.026,0.182,0.051,0.363,0.068,0.547
	c0.022,0.234,0.036,0.469,0.043,0.705c0.004,0.121,0.014,0.238,0.015,0.359c-0.001,0.121-0.011,0.24-0.015,0.361
	c-0.007,0.236-0.021,0.471-0.043,0.703c-0.018,0.186-0.042,0.367-0.068,0.549c-0.034,0.225-0.074,0.447-0.121,0.67
	c-0.023,0.111-0.044,0.223-0.07,0.334c-0.467,1.871-1.42,3.551-2.639,4.803c-1.28,1.258-2.866,2.014-4.543,2.014
	c-1.684,0-3.273-0.762-4.556-2.027c-1.212-1.248-2.157-2.922-2.621-4.785c-0.028-0.115-0.05-0.232-0.073-0.348
	c-0.047-0.217-0.086-0.438-0.119-0.658c-0.026-0.182-0.051-0.365-0.068-0.553c-0.022-0.23-0.036-0.465-0.043-0.701
	c-0.004-0.119-0.014-0.238-0.015-0.361c0.001-0.121,0.011-0.24,0.015-0.361C146.885-133.102,146.898-133.336,146.921-133.568z
	 M144.229-126.287c0.996,2.162,2.454,3.996,4.165,5.283c-2.7,0.867-5.14,2.312-7.181,4.186c-0.855-0.404-1.734-0.77-2.646-1.062
	C141.114-119.797,143.226-122.77,144.229-126.287z M122.956-129.525c0-0.002,0-0.004,0-0.006c-0.061-0.488-0.092-0.979-0.092-1.471
	v-0.002l0,0c0,0,0,0,0-0.002c0,0,0,0,0-0.002c0.001-3.379,1.486-6.574,3.603-8.693c1.528-1.4,3.409-2.23,5.391-2.23
	c2.46,0,4.771,1.34,6.438,3.477c1.272,1.746,2.192,3.945,2.474,6.232c0,0.002,0,0.004,0.001,0.006
	c0.06,0.488,0.091,0.98,0.091,1.471v0.002v0.002l0,0c0,0.002,0,0.002,0,0.004c-0.001,3.377-1.486,6.572-3.6,8.691
	c-1.529,1.4-3.41,2.23-5.394,2.23c-2.46,0-4.771-1.34-6.438-3.477C124.157-125.037,123.237-127.238,122.956-129.525z
	 M148.737-95.932h-33.754c-0.586,0-1.063-0.477-1.063-1.061c0.002-7.824,5.005-14.688,12.451-17.078l0.493-0.158l0,0
	c2.677-0.859,7.225-1.062,9.996,0.002l0.485,0.156c7.448,2.389,12.453,9.252,12.455,17.076
	C149.801-96.408,149.323-95.932,148.737-95.932z M169.363-101.939h-16.136c-1.199-5.191-4.235-9.678-8.396-12.732
	c1.404-1.092,3.015-1.955,4.785-2.523l1.247-0.4c0.996-0.334,4.416-0.877,6.963-0.01l1.273,0.408
	c6.437,2.066,10.762,7.998,10.764,14.756C169.864-102.164,169.64-101.939,169.363-101.939z"/>
<path fill="#FFFFFF" d="M278.724-145.166l-2.476-2.475c-2.36-2.361-5.5-3.662-8.838-3.662c-3.339,0-6.479,1.301-8.839,3.662
	l-14.85,14.85c-2.318,2.318-3.618,5.4-3.661,8.678c-0.003,0.277,0.05,0.541,0.149,0.783l-10.956,10.957
	c-2.361,2.359-3.661,5.5-3.662,8.838c0,3.338,1.301,6.479,3.662,8.838l2.475,2.477c2.438,2.436,5.638,3.654,8.839,3.654
	s6.402-1.219,8.839-3.654l14.849-14.85c2.512-2.512,3.84-5.984,3.644-9.531c-0.001-0.02-0.007-0.035-0.009-0.053l10.834-10.834
	C283.598-132.363,283.598-140.293,278.724-145.166z M275.896-130.316l-14.85,14.85c-3.314,3.312-8.707,3.312-12.021,0l-2.475-2.475
	c-0.781-0.781-2.047-0.781-2.828,0c-0.781,0.779-0.781,2.047,0,2.828l2.475,2.475c2.437,2.436,5.638,3.654,8.839,3.654
	c2.738,0,5.473-0.898,7.732-2.682c-0.368,0.639-0.811,1.236-1.341,1.768l-14.849,14.85c-3.314,3.312-8.707,3.312-12.021,0
	l-2.475-2.477c-1.605-1.605-2.49-3.74-2.49-6.01s0.885-4.404,2.49-6.01l14.849-14.85c3.314-3.314,8.707-3.312,12.021,0l2.475,2.475
	c0.781,0.781,2.047,0.781,2.828,0s0.781-2.047,0-2.828l-2.475-2.477c-4.525-4.523-11.684-4.84-16.585-0.961
	c0.369-0.643,0.818-1.242,1.354-1.777l14.85-14.85c1.605-1.605,3.74-2.49,6.011-2.49c2.27,0,4.404,0.885,6.01,2.49l2.476,2.475
	C279.209-139.023,279.209-133.631,275.896-130.316z"/>
<path fill="#FFFFFF" d="M396.983-125.432l-2.992-7.979v-0.029v-4.992l-2.806-7c-0.474-1.182-1.931-2.887-3.985-3h-44.213
	c-2.171,0-3.758,1.9-4.197,2.996l-2.799,7.004c0,0,0,3.23,0,4.992v0.008h-0.004l-3.004,8h0.004v2.162
	c0,2.246,1.207,4.207,3.004,5.283v20.547c0,3.314,2.687,6,6,6h46c3.313,0,6-2.686,6-6v-20.551c1.793-1.078,2.996-3.035,2.996-5.279
	v-2.162H396.983z M343.029-144.432h43.961c0.144,0.061,0.405,0.326,0.482,0.488l1.821,4.543h-48.607l1.799-4.502
	C342.594-144.094,342.876-144.367,343.029-144.432z M339.991-133.439v-3.961h50v3.961v0.008h-50V-133.439z M334.987-125.078
	l2.386-6.354h55.225l1.354,3.613v7.266c-0.764,0.877-1.875,1.445-3.126,1.445h-0.063c-1.395,0-2.689-0.695-3.466-1.859
	c-0.371-0.557-0.995-0.891-1.664-0.891s-1.293,0.334-1.664,0.891c-0.776,1.164-2.071,1.859-3.466,1.859h-0.062
	c-1.395,0-2.69-0.695-3.467-1.861c-0.371-0.555-0.995-0.889-1.664-0.889h-0.001c-0.669,0-1.293,0.334-1.664,0.891
	c-0.774,1.164-2.069,1.859-3.464,1.859h-0.063c-1.395,0-2.689-0.695-3.466-1.859c-0.371-0.557-0.995-0.891-1.664-0.891
	s-1.294,0.334-1.664,0.891c-0.775,1.164-2.07,1.859-3.465,1.859h-0.063c-1.395,0-2.689-0.695-3.466-1.859
	c-0.371-0.557-0.995-0.891-1.664-0.891s-1.294,0.334-1.664,0.891c-0.775,1.164-2.07,1.859-3.465,1.859h-0.064
	c-1.394,0-2.689-0.695-3.467-1.859c-0.37-0.557-0.994-0.891-1.663-0.891h-0.001c-0.669,0-1.293,0.334-1.664,0.891
	c-0.774,1.164-2.069,1.859-3.464,1.859h-0.063c-2.295,0-4.162-1.867-4.162-4.162V-125.078z M364.983-119.852
	c0.001-0.002,0.003-0.004,0.004-0.006c1.104,1.656,2.989,2.75,5.13,2.75h0.063c2.142,0,4.025-1.094,5.129-2.75
	c1.105,1.656,2.99,2.75,5.131,2.75h0.062c1.294,0,2.49-0.404,3.48-1.086v13.762h-19V-119.852z M345.987-107.432h11v7.992h-11
	V-107.432z M356.987-109.432h-11v-8.764c0.991,0.682,2.189,1.088,3.484,1.088h0.064c2.142,0,4.025-1.094,5.129-2.75
	c0.582,0.873,1.384,1.582,2.322,2.064V-109.432z M387.991-95.439h-46c-1.103,0-2-0.896-2-2v-19.719
	c1.611-0.203,3.021-1.031,3.996-2.23v19.949c0,1.105,0.896,2,2,2h11c1.104,0,2-0.895,2-2v-17.723
	c0.265,0.035,0.533,0.055,0.808,0.055h0.063c1.144,0,2.208-0.32,3.125-0.861v13.537c0,1.105,0.896,2,2,2h19c1.104,0,2-0.895,2-2
	v-14.963c0.977,1.203,2.393,2.035,4.008,2.238v19.717C389.991-96.336,389.094-95.439,387.991-95.439z M394.987-123.27
	c0,1.021-0.384,1.945-0.996,2.67v-7.115l0.996,2.656V-123.27z"/>
<g>
	<path fill="#FFFFFF" d="M59.981-427.061v-29.993c0-3.313-2.687-6-6-6h-44c-3.313,0-6,2.687-6,6v29.993h-3.996v6
		c0,3.312,2.687,6,6,6h52c3.313,0,6-2.688,6-6v-6H59.981z M7.981-457.046v-0.008c0-1.103,0.897-2,2-2h44c1.103,0,2,0.897,2,2v0.008
		v29.985h-2v-25.993c0-1.104-0.896-2-2-2h-40c-1.104,0-2,0.896-2,2v25.993h-2V-457.046z M51.981-453.054v25.993h-40v-25.993H51.981z
		 M59.985-421.061c0,1.103-0.897,2-2,2h-52c-1.103,0-2-0.897-2-2v-2h56V-421.061z"/>
	<circle fill="#FFFFFF" cx="31.985" cy="-457.036" r="1"/>
</g>
</svg>
