<?xml version="1.0" encoding="utf-8"?>
<!-- Generator: Adobe Illustrator 16.0.0, SVG Export Plug-In . SVG Version: 6.00 Build 0)  -->
<!DOCTYPE svg PUBLIC "-//W3C//DTD SVG 1.1//EN" "http://www.w3.org/Graphics/SVG/1.1/DTD/svg11.dtd">
<svg version="1.1" id="Icons" xmlns="http://www.w3.org/2000/svg" xmlns:xlink="http://www.w3.org/1999/xlink" x="0px" y="0px"
	 width="100px" height="100px" viewBox="0 0 100 100" enable-background="new 0 0 100 100" xml:space="preserve">
<path fill="#818181" d="M76.62,42.972c3.904,3.905,4.023,10.115,0.268,13.871l0,0c-3.756,3.756-9.967,3.637-13.871-0.269
	L24.381,17.938c-3.904-3.904-4.024-10.113-0.268-13.87l0,0c3.757-3.756,9.966-3.636,13.87,0.268L76.62,42.972z"/>
<path fill="#818181" d="M37.984,96.045c-3.905,3.902-10.115,4.023-13.871,0.266l0,0c-3.756-3.756-3.636-9.965,0.269-13.869
	l38.635-38.637c3.904-3.904,10.115-4.024,13.871-0.268l0,0c3.756,3.756,3.637,9.965-0.268,13.87L37.984,96.045z"/>
</svg>
