<?xml version="1.0" encoding="utf-8"?>
<!-- Generator: Adobe Illustrator 16.0.0, SVG Export Plug-In . SVG Version: 6.00 Build 0)  -->
<!DOCTYPE svg PUBLIC "-//W3C//DTD SVG 1.1//EN" "http://www.w3.org/Graphics/SVG/1.1/DTD/svg11.dtd">
<svg version="1.1" id="Icons" xmlns="http://www.w3.org/2000/svg" xmlns:xlink="http://www.w3.org/1999/xlink" x="0px" y="0px"
	 width="100px" height="100px" viewBox="0 0 100 100" enable-background="new 0 0 100 100" xml:space="preserve">
<path fill="#AFAFAF" d="M89.271,42.361L56.528,9.618c-2.039-2.039-4.73-3.021-7.402-2.962c-2.673-0.058-5.363,0.923-7.402,2.962
	L8.982,42.361c-3.963,3.963-3.964,10.389,0,14.351c3.963,3.966,10.39,3.966,14.352,0l25.792-25.791l25.792,25.791
	c3.965,3.966,10.391,3.966,14.354,0C93.235,52.75,93.233,46.324,89.271,42.361z"/>
<path fill="#AFAFAF" d="M62.366,89.826c0,1.945-1.693,3.521-3.783,3.521H39.669c-2.089,0-3.783-1.575-3.783-3.521V31.643
	c0-1.944,1.694-3.521,3.783-3.521h18.914c2.09,0,3.783,1.577,3.783,3.521V89.826z"/>
</svg>
