<?xml version="1.0" encoding="UTF-8" standalone="no"?>
<svg width="46px" height="46px" viewBox="0 0 46 46" version="1.1" xmlns="http://www.w3.org/2000/svg" xmlns:xlink="http://www.w3.org/1999/xlink">
    <!-- Generator: Sketch 3.8.3 (29802) - http://www.bohemiancoding.com/sketch -->
    <title>user</title>
    <desc>Created with Sketch.</desc>
    <defs></defs>
    <g id="desktop" stroke="none" stroke-width="1" fill="none" fill-rule="evenodd">
        <g id="home" transform="translate(-289.000000, -2478.000000)">
            <g id="content" transform="translate(-103.000000, 768.000000)">
                <g id="your-sales-team" transform="translate(313.000000, 1012.000000)">
                    <g id="2" transform="translate(0.000000, 585.000000)">
                        <g id="image" transform="translate(40.000000, 74.000000)">
                            <g id="user" transform="translate(40.000000, 40.000000)">
                                <polygon id="Fill-20" fill="#FFFFFF" points="16 20 16 26.9903626 21.7131515 28.4687308 27.0914292 26.0482652 26.7551056 20"></polygon>
                                <polygon id="Stroke-22" stroke="#000000" points="16 20 16 26.9903626 21.7131515 28.4687308 27.0914292 26.0482652 26.7551056 20"></polygon>
                                <path d="M21.3467565,23.0132652 L21.040876,23.0132652 C16.1047479,23.0132652 12.0645161,18.9752908 12.0645161,14.0387005 L12.0645161,6.69613837 C12.0645161,3.01326227 15.0783811,0 18.7619939,0 L23.6256386,0 C27.3092514,0 30.3231164,3.01326227 30.3231164,6.69613837 L30.3231164,14.0387005 C30.3231164,18.9752908 26.2828846,23.0132652 21.3467565,23.0132652" id="Fill-42" fill="#FFFFFF"></path>
                                <path d="M17.0322581,16.7022793 C17.0322581,16.7022793 21.2222144,21.0479046 25.4121705,16.7022793" id="Path-418" stroke="#000000"></path>
                                <path d="M13.6423668,28 C8.68494453,28 11.9606168,23.0870387 11.9606168,17.0807406 L11.9606168,8.1471218 C11.9606168,3.66620481 14.9874835,0 18.6869871,0 L23.5716131,0 C27.2711168,0 30.2979834,3.66620481 30.2979834,8.1471218 L30.2979834,17.0807406 C30.2979834,23.0870387 33.5736557,28 28.6162335,28 L13.6423668,28 Z" id="Stroke-44-Copy" stroke="#000000"></path>
                                <path d="M21.2822404,23.0132652 L20.9763599,23.0132652 C16.0402317,23.0132652 12,18.9752908 12,14.0387005 L12,6.69613837 C12,3.01326227 15.013865,0 18.6974778,0 L23.5611224,0 C27.2447352,0 30.2586002,3.01326227 30.2586002,6.69613837 L30.2586002,14.0387005 C30.2586002,18.9752908 26.2183685,23.0132652 21.2822404,23.0132652 L21.2822404,23.0132652 Z" id="Stroke-44" stroke="#000000"></path>
                                <path d="M0.134819359,43.659108 L43.6278344,43.659108 L43.6278344,39.2906749 C43.6278344,39.2906749 44.0975276,33.1076172 34.6862666,30.2842238 L27.6278208,28.3362563 L15.1258622,28 C15.1258622,28 9.00825263,29.881296 6.11760961,31.5611281 C6.11760961,31.5611281 0.0681345146,33.8468013 0,39.8950666 L0.134819359,43.659108 Z" id="Fill-46" fill="#8DC300"></path>
                                <path d="M0.134819359,43.659108 L43.6278344,43.659108 L43.6278344,39.2906749 C43.6278344,39.2906749 44.0975276,33.1076172 34.6862666,30.2842238 L27.6278208,28.3362563 L15.1258622,28 C15.1258622,28 9.00825263,29.881296 6.11760961,31.5611281 C6.11760961,31.5611281 0.0681345146,33.8468013 0,39.8950666 L0.134819359,43.659108 L0.134819359,43.659108 Z" id="Stroke-48" stroke="#000000"></path>
                                <polygon id="Fill-50" fill="#61D3FF" points="15.0831765 25 21.2413769 26.6131606 27.3850806 25 29.6697613 28.2929927 25.7049125 33.6701947 21.2413769 30.7801298 17.0996682 33.6701947 13 28.3611136"></polygon>
                                <polygon id="Stroke-52" stroke="#000000" points="15.0831765 25 21.2413769 26.6131606 27.3850806 25 29.6697613 28.2929927 25.7049125 33.6701947 21.2413769 30.7801298 17.0996682 33.6701947 13 28.3611136"></polygon>
                                <path d="M22.0164917,35.0087689 C22.0164917,35.565331 21.5656442,36.0175378 21.007521,36.0175378 C20.4508475,36.0175378 20,35.565331 20,35.0087689 C20,34.4522067 20.4508475,34 21.007521,34 C21.5656442,34 22.0164917,34.4522067 22.0164917,35.0087689" id="Fill-54" fill="#FFFFFF"></path>
                                <path d="M22.0164917,40.0087689 C22.0164917,40.565331 21.5656442,41.0175378 21.007521,41.0175378 C20.4508475,41.0175378 20,40.565331 20,40.0087689 C20,39.4522067 20.4508475,39 21.007521,39 C21.5656442,39 22.0164917,39.4522067 22.0164917,40.0087689" id="Fill-56" fill="#FFFFFF"></path>
                                <polyline id="Stroke-60" stroke="#000000" points="12 9.69144652 25.6436481 7.80192885 30.0796219 9.69144659"></polyline>
                            </g>
                        </g>
                    </g>
                </g>
            </g>
        </g>
    </g>
</svg>