<?xml version="1.0" encoding="utf-8"?>
<!-- Generator: Adobe Illustrator 16.0.0, SVG Export Plug-In . SVG Version: 6.00 Build 0)  -->
<!DOCTYPE svg PUBLIC "-//W3C//DTD SVG 1.1//EN" "http://www.w3.org/Graphics/SVG/1.1/DTD/svg11.dtd">
<svg version="1.1" id="Icons" xmlns="http://www.w3.org/2000/svg" xmlns:xlink="http://www.w3.org/1999/xlink" x="0px" y="0px"
	 width="100px" height="100px" viewBox="0 0 100 100" enable-background="new 0 0 100 100" xml:space="preserve">
<path fill="#818181" d="M24.381,57.408c-3.904-3.905-4.023-10.115-0.268-13.871l0,0c3.756-3.756,9.967-3.637,13.871,0.269
	L76.62,82.442c3.904,3.903,4.024,10.113,0.268,13.87l0,0c-3.757,3.756-9.966,3.636-13.87-0.269L24.381,57.408z"/>
<path fill="#818181" d="M63.017,4.335c3.905-3.902,10.115-4.023,13.871-0.266l0,0c3.756,3.756,3.637,9.965-0.269,13.869
	L37.984,56.575c-3.904,3.904-10.115,4.024-13.871,0.269l0,0c-3.756-3.757-3.637-9.966,0.268-13.87L63.017,4.335z"/>
</svg>
