<?xml version="1.0" encoding="UTF-8" standalone="no"?>
<!-- Created with Inkscape (http://www.inkscape.org/) -->

<svg
   xmlns:dc="http://purl.org/dc/elements/1.1/"
   xmlns:cc="http://creativecommons.org/ns#"
   xmlns:rdf="http://www.w3.org/1999/02/22-rdf-syntax-ns#"
   xmlns:svg="http://www.w3.org/2000/svg"
   xmlns="http://www.w3.org/2000/svg"
   xmlns:sodipodi="http://sodipodi.sourceforge.net/DTD/sodipodi-0.dtd"
   xmlns:inkscape="http://www.inkscape.org/namespaces/inkscape"
   id="svg3090"
   version="1.1"
   inkscape:version="0.48.2 r9819"
   width="207"
   height="205"
   sodipodi:docname="link.svg">
  <metadata
     id="metadata3096">
    <rdf:RDF>
      <cc:Work
         rdf:about="">
        <dc:format>image/svg+xml</dc:format>
        <dc:type
           rdf:resource="http://purl.org/dc/dcmitype/StillImage" />
        <dc:title></dc:title>
      </cc:Work>
    </rdf:RDF>
  </metadata>
  <defs
     id="defs3094" />
  <sodipodi:namedview
     pagecolor="#ffffff"
     bordercolor="#666666"
     borderopacity="1"
     objecttolerance="10"
     gridtolerance="10"
     guidetolerance="10"
     inkscape:pageopacity="0"
     inkscape:pageshadow="2"
     inkscape:window-width="1440"
     inkscape:window-height="852"
     id="namedview3092"
     showgrid="false"
     inkscape:zoom="2.302439"
     inkscape:cx="-5.2539886"
     inkscape:cy="120.78201"
     inkscape:window-x="0"
     inkscape:window-y="0"
     inkscape:window-maximized="1"
     inkscape:current-layer="svg3090" />
  <path
     style="fill:#808080"
     d="m 105.31798,138.3681 c -7.413412,-1.61111 -16.046637,-5.90196 -19.276761,-9.58086 -3.054811,-3.47924 -3.539705,-7.53849 -1.395756,-11.68443 2.984265,-5.77093 7.270729,-6.45786 19.031087,-3.04984 9.33236,2.70441 15.17927,2.78669 20.44009,0.28765 4.24626,-2.01711 33.02349,-29.698245 44.98472,-43.271316 8.29045,-9.407638 10.07381,-12.852422 10.12554,-19.558711 0.0862,-11.173875 -5.75247,-20.032274 -14.96955,-22.711752 -9.82211,-2.855363 -18.61603,0.1256 -28.92047,9.803451 -7.62908,7.165179 -11.5064,8.955543 -19.44837,8.980326 -4.63995,0.01448 -7.04786,-0.452037 -9.98941,-1.935372 -6.339212,-3.196678 -5.955922,-4.03504 8.07075,-17.652942 13.98994,-13.582247 19.72806,-17.850985 28.23448,-21.0043668 7.63777,-2.8313689 18.71347,-2.9498959 27.20155,-0.2910982 15.07089,4.720796 27.97332,18.613614 31.60829,34.034546 1.76123,7.4718 1.66957,13.109927 -0.34093,20.970896 -3.06875,11.998718 -4.95799,14.412248 -33.85715,43.253169 -24.45568,24.4064 -27.09142,26.77287 -33.08728,29.70703 -6.18584,3.02714 -14.6556,5.07594 -20.41313,4.93787 -1.43326,-0.0344 -5.03223,-0.58978 -7.9977,-1.23425 l 0,0 z"
     id="path3122"
     inkscape:connector-curvature="0" />
  <path
     style="fill:#808080"
     d="M 43.043588,199.11181 C 29.22976,196.02282 17.911446,186.88213 11.398387,173.55508 4.8911711,160.24 4.8573295,147.20473 11.295434,133.89932 14.355566,127.57505 27.938358,112.45689 47.364382,93.75323 63.458601,78.257478 71.530155,71.59697 77.559757,68.836527 c 8.429101,-3.85897 21.40282,-4.260131 30.544053,-0.944456 11.92729,4.326221 15.90462,7.321988 17.28357,13.018161 0.87744,3.624574 -2.24901,9.592628 -5.9437,11.345878 -3.91403,1.857326 -4.65658,1.790839 -13.64993,-1.222212 -8.762985,-2.935869 -12.364236,-3.184706 -18.730228,-1.294208 -3.715604,1.103416 -6.454932,3.207071 -17.249687,13.24682 -13.263241,12.33559 -33.135103,33.31333 -37.435513,39.51883 -2.252855,3.25087 -2.451967,4.1813 -2.446245,11.43098 0.005,6.4132 0.356392,8.54316 1.874896,11.36665 4.172485,7.75826 11.13408,11.68854 20.70362,11.68854 8.809588,0 12.103414,-1.83087 23.470718,-13.04612 l 9.675975,-9.54655 10.196162,2.62897 c 5.607892,1.44594 10.951522,2.62897 11.874742,2.62897 0.92323,0 1.67859,0.55028 1.67859,1.22283 0,1.75995 -28.07454,28.6415 -34.14892,32.69782 -9.032479,6.03166 -20.88466,8.06785 -32.214272,5.53438 l 0,0 z"
     id="path3124"
     inkscape:connector-curvature="0" />
</svg>
