<?xml version="1.0" encoding="utf-8"?>
<!-- Generator: Adobe Illustrator 16.0.0, SVG Export Plug-In . SVG Version: 6.00 Build 0)  -->
<!DOCTYPE svg PUBLIC "-//W3C//DTD SVG 1.1//EN" "http://www.w3.org/Graphics/SVG/1.1/DTD/svg11.dtd">
<svg version="1.1" id="Layer_1" xmlns="http://www.w3.org/2000/svg" xmlns:xlink="http://www.w3.org/1999/xlink" x="0px" y="0px"
	 width="600px" height="600px" viewBox="0 0 600 600" enable-background="new 0 0 600 600" xml:space="preserve">
<g>
	<path fill="#FFFFFF" d="M406.304,383.449c-0.765-0.99-1.695-1.777-2.79-2.362c-1.096-0.585-2.333-0.878-3.712-0.878
		c-1.44,0-2.708,0.309-3.803,0.924c-1.096,0.615-2.025,1.424-2.79,2.43c-0.765,1.005-1.343,2.145-1.732,3.42
		c-0.391,1.275-0.585,2.572-0.585,3.893c0,1.38,0.202,2.715,0.607,4.004c0.405,1.291,0.99,2.431,1.755,3.421
		c0.765,0.989,1.702,1.785,2.812,2.385c1.109,0.601,2.369,0.899,3.78,0.899c1.439,0,2.707-0.307,3.802-0.922
		s2.018-1.432,2.768-2.453c0.75-1.02,1.32-2.166,1.71-3.441s0.585-2.572,0.585-3.893c0-1.38-0.21-2.715-0.63-4.006
		C407.661,385.58,407.069,384.439,406.304,383.449z"/>
	<polygon fill="#FFFFFF" points="316.5,257.599 316.5,203.399 274.9,257.599 	"/>
	<path fill="#FFFFFF" d="M218.811,381.695c-0.39-0.451-0.848-0.788-1.373-1.014c-0.525-0.225-1.058-0.337-1.597-0.337h-6.93v10.351
		h7.2c1.14,0,2.092-0.465,2.857-1.396c0.765-0.93,1.147-2.19,1.147-3.78c0-0.811-0.12-1.537-0.36-2.183
		C219.516,382.692,219.201,382.145,218.811,381.695z"/>
	<path fill="#FFFFFF" d="M296.998,383.449c-0.765-0.99-1.695-1.777-2.79-2.362c-1.096-0.585-2.333-0.878-3.712-0.878
		c-1.44,0-2.708,0.309-3.803,0.924c-1.096,0.615-2.025,1.424-2.79,2.43c-0.765,1.005-1.343,2.145-1.732,3.42
		c-0.391,1.275-0.585,2.572-0.585,3.893c0,1.38,0.202,2.715,0.607,4.004c0.405,1.291,0.99,2.431,1.755,3.421
		c0.765,0.989,1.702,1.785,2.812,2.385c1.109,0.601,2.369,0.899,3.78,0.899c1.439,0,2.707-0.307,3.802-0.922
		s2.018-1.432,2.768-2.453c0.75-1.02,1.32-2.166,1.71-3.441s0.585-2.572,0.585-3.893c0-1.38-0.21-2.715-0.63-4.006
		C298.355,385.58,297.764,384.439,296.998,383.449z"/>
	<path fill="#FFFFFF" d="M300,1C135.419,1,2,134.419,2,299s133.419,298,298,298s298-133.419,298-298S464.581,1,300,1z
		 M370.198,268.399c0.866-4.8,2.5-9.3,4.9-13.5c2.399-4.2,5.665-8.166,9.8-11.9c4.131-3.731,9.466-7.4,16-11
		c4.666-2.531,9.065-4.866,13.2-7c4.131-2.131,7.766-4.266,10.899-6.4c3.132-2.131,5.632-4.366,7.5-6.7
		c1.866-2.331,2.801-5.031,2.801-8.1c0-4.266-1.835-8.1-5.5-11.5c-3.669-3.4-8.969-5.1-15.9-5.1c-3.6,0-6.9,0.5-9.9,1.5
		s-5.734,2.269-8.199,3.8c-2.469,1.534-4.635,3.234-6.5,5.1c-1.869,1.869-3.535,3.668-5,5.4l-14-16.2c1.331-1.465,3.431-3.3,6.3-5.5
		c2.865-2.2,6.331-4.3,10.399-6.3c4.066-2,8.7-3.7,13.9-5.1s10.865-2.1,17-2.1c6.4,0,12.166,0.834,17.3,2.5
		c5.132,1.669,9.466,3.969,13,6.9c3.531,2.934,6.231,6.434,8.101,10.5c1.865,4.068,2.8,8.434,2.8,13.1c0,4.935-1,9.3-3,13.1
		c-2,3.8-4.469,7.1-7.4,9.9c-2.935,2.8-6.134,5.234-9.6,7.3c-3.469,2.069-6.669,3.9-9.601,5.5c-2.668,1.334-5.634,2.934-8.899,4.8
		c-3.269,1.869-6.4,3.935-9.4,6.2c-3,2.269-5.669,4.8-8,7.6c-2.334,2.8-3.969,5.8-4.899,9h63v19.8h-92.4
		C368.898,278.399,369.33,273.199,370.198,268.399z M122.039,402.867c-0.916,0.916-1.958,1.688-3.128,2.317
		c-1.17,0.63-2.4,1.11-3.69,1.44c-1.29,0.33-2.565,0.494-3.825,0.494c-2.221,0-4.252-0.479-6.098-1.439
		c-1.845-0.96-3.436-2.212-4.77-3.758c-1.335-1.545-2.37-3.299-3.105-5.265c-0.735-1.965-1.103-3.968-1.103-6.008
		c0-1.95,0.345-3.877,1.035-5.782c0.689-1.904,1.688-3.607,2.992-5.107c1.305-1.5,2.903-2.715,4.792-3.645
		c1.89-0.93,4.05-1.396,6.48-1.396c2.85,0,5.317,0.646,7.402,1.935c2.084,1.291,3.623,2.971,4.612,5.041l-4.77,3.284
		c-0.36-0.899-0.825-1.657-1.395-2.272c-0.57-0.614-1.192-1.103-1.867-1.463c-0.675-0.359-1.373-0.621-2.093-0.787
		c-0.72-0.164-1.41-0.248-2.07-0.248c-1.47,0-2.761,0.315-3.87,0.945c-1.11,0.631-2.033,1.448-2.768,2.453
		c-0.735,1.006-1.29,2.145-1.665,3.42c-0.375,1.275-0.562,2.543-0.562,3.803c0,1.41,0.217,2.768,0.653,4.072
		c0.435,1.305,1.05,2.452,1.845,3.442c0.794,0.989,1.748,1.785,2.857,2.385c1.11,0.601,2.325,0.899,3.645,0.899
		c0.69,0,1.395-0.09,2.115-0.27c0.72-0.18,1.417-0.465,2.092-0.855c0.675-0.389,1.297-0.892,1.868-1.507
		c0.569-0.614,1.035-1.356,1.395-2.228l5.085,2.926C123.651,400.895,122.954,401.952,122.039,402.867z M158.039,397.062
		c-0.765,1.935-1.822,3.645-3.172,5.129c-1.35,1.486-2.956,2.672-4.815,3.556c-1.861,0.886-3.886,1.327-6.075,1.327
		c-2.25,0-4.305-0.457-6.165-1.372c-1.86-0.915-3.458-2.13-4.792-3.646c-1.335-1.514-2.362-3.246-3.083-5.197
		c-0.72-1.949-1.08-3.944-1.08-5.984c0-2.131,0.383-4.17,1.147-6.121c0.765-1.949,1.83-3.674,3.195-5.174
		c1.365-1.5,2.977-2.693,4.837-3.578c1.86-0.885,3.885-1.327,6.075-1.327c2.25,0,4.304,0.472,6.165,1.417
		c1.86,0.945,3.45,2.183,4.77,3.713c1.32,1.529,2.34,3.27,3.06,5.22c0.72,1.95,1.08,3.931,1.08,5.94
		C159.187,393.096,158.804,395.127,158.039,397.062z M194.039,397.062c-0.765,1.935-1.822,3.645-3.172,5.129
		c-1.35,1.486-2.956,2.672-4.815,3.556c-1.861,0.886-3.886,1.327-6.075,1.327c-2.25,0-4.305-0.457-6.165-1.372
		c-1.86-0.915-3.458-2.13-4.792-3.646c-1.335-1.514-2.362-3.246-3.083-5.197c-0.72-1.949-1.08-3.944-1.08-5.984
		c0-2.131,0.383-4.17,1.147-6.121c0.765-1.949,1.83-3.674,3.195-5.174c1.365-1.5,2.977-2.693,4.837-3.578
		c1.86-0.885,3.885-1.327,6.075-1.327c2.25,0,4.304,0.472,6.165,1.417c1.86,0.945,3.45,2.183,4.77,3.713
		c1.32,1.529,2.34,3.27,3.06,5.22c0.72,1.95,1.08,3.931,1.08,5.94C195.186,393.096,194.804,395.127,194.039,397.062z
		 M225.696,389.457c-0.48,1.275-1.155,2.408-2.025,3.397c-0.87,0.99-1.92,1.785-3.15,2.386c-1.23,0.6-2.581,0.899-4.05,0.899h-7.56
		v10.71h-6.21v-31.95h13.545c1.47,0,2.827,0.308,4.072,0.923c1.245,0.615,2.318,1.426,3.218,2.43c0.9,1.006,1.604,2.146,2.115,3.42
		c0.51,1.275,0.765,2.559,0.765,3.848C226.416,386.869,226.176,388.182,225.696,389.457z M226.801,300.699
		c-4.6,4.2-10.034,7.431-16.3,9.7c-6.269,2.266-13,3.399-20.2,3.399c-10.134,0-19.269-2.3-27.4-6.899
		c-8.134-4.601-14.334-10.835-18.6-18.7l13-12.6c3.866,5.6,8.7,10.131,14.5,13.6c5.8,3.466,12.031,5.2,18.7,5.2
		c4.131,0,7.931-0.669,11.4-2c3.466-1.335,6.466-3.234,9-5.7c2.531-2.469,4.531-5.4,6-8.8c1.466-3.4,2.2-7.166,2.2-11.3
		c0-4-0.7-7.631-2.1-10.9c-1.4-3.266-3.3-6.066-5.7-8.4c-2.4-2.331-5.269-4.166-8.6-5.5c-3.334-1.331-6.869-2-10.6-2
		c-5.069,0-9.834,1.1-14.3,3.3c-4.469,2.2-8.034,5.434-10.7,9.7h-19.4c0.131-0.531,0.432-2.131,0.9-4.8c0.465-2.666,1.065-6,1.8-10
		c0.731-4,1.565-8.466,2.5-13.4c0.931-4.931,1.931-9.931,3-15c2.266-11.866,4.866-25.131,7.8-39.8h69.6v20.2h-53.4l-7.2,38.8
		c2.266-2.531,5.3-4.531,9.1-6c3.8-1.465,8.231-2.2,13.3-2.2c6.531,0,12.666,1.134,18.4,3.4c5.731,2.269,10.666,5.4,14.8,9.4
		c4.131,4,7.4,8.8,9.8,14.4c2.4,5.6,3.6,11.734,3.6,18.4c0,7.068-1.334,13.534-4,19.399
		C235.033,291.465,231.401,296.499,226.801,300.699z M255.328,402.102c-0.646,1.215-1.508,2.199-2.588,2.948
		c-1.08,0.75-2.34,1.298-3.779,1.642c-1.44,0.346-2.94,0.518-4.5,0.518c-2.4,0-4.771-0.359-7.11-1.08
		c-2.34-0.719-4.44-1.738-6.3-3.059l2.745-5.355c0.27,0.27,0.757,0.623,1.462,1.057c0.705,0.436,1.537,0.871,2.498,1.306
		c0.96,0.435,2.024,0.803,3.194,1.103c1.171,0.301,2.37,0.449,3.601,0.449c3.42,0,5.13-1.094,5.13-3.284
		c0-0.72-0.195-1.319-0.585-1.8c-0.391-0.48-0.945-0.9-1.665-1.26c-0.72-0.36-1.591-0.69-2.61-0.99s-2.16-0.615-3.42-0.945
		c-1.529-0.42-2.857-0.877-3.982-1.373c-1.125-0.494-2.062-1.072-2.812-1.732c-0.75-0.659-1.312-1.439-1.688-2.34
		s-0.562-1.965-0.562-3.195c0-1.619,0.3-3.06,0.9-4.319c0.6-1.261,1.432-2.31,2.497-3.149c1.064-0.84,2.302-1.479,3.713-1.913
		c1.409-0.435,2.925-0.652,4.545-0.652c2.25,0,4.32,0.353,6.21,1.058s3.539,1.537,4.95,2.497l-2.745,5.04
		c-0.21-0.209-0.593-0.495-1.147-0.855c-0.556-0.359-1.23-0.712-2.025-1.057s-1.658-0.637-2.587-0.878
		c-0.931-0.239-1.876-0.36-2.835-0.36c-1.71,0-2.986,0.315-3.825,0.945c-0.841,0.631-1.26,1.516-1.26,2.655
		c0,0.66,0.157,1.208,0.472,1.643c0.315,0.435,0.772,0.817,1.373,1.147c0.6,0.33,1.356,0.63,2.272,0.9
		c0.915,0.27,1.972,0.555,3.172,0.854c1.56,0.421,2.978,0.87,4.253,1.351c1.274,0.479,2.354,1.08,3.24,1.799
		c0.885,0.721,1.567,1.584,2.047,2.588c0.479,1.006,0.721,2.243,0.721,3.713C256.296,399.425,255.973,400.887,255.328,402.102z
		 M304.514,397.062c-0.766,1.935-1.823,3.645-3.173,5.129c-1.351,1.486-2.955,2.672-4.815,3.556
		c-1.86,0.886-3.885,1.327-6.074,1.327c-2.25,0-4.306-0.457-6.165-1.372c-1.861-0.915-3.458-2.13-4.793-3.646
		c-1.335-1.514-2.362-3.246-3.082-5.197c-0.721-1.949-1.08-3.944-1.08-5.984c0-2.131,0.382-4.17,1.147-6.121
		c0.765-1.949,1.829-3.674,3.194-5.174s2.978-2.693,4.838-3.578c1.859-0.885,3.885-1.327,6.075-1.327
		c2.25,0,4.305,0.472,6.165,1.417c1.859,0.945,3.449,2.183,4.77,3.713c1.32,1.529,2.34,3.27,3.061,5.22
		c0.72,1.95,1.08,3.931,1.08,5.94C305.661,393.096,305.278,395.127,304.514,397.062z M334.641,380.345h-15.255v8.235h12.69v5.039
		h-12.69v13.23h-6.21v-31.95h21.465V380.345z M336.1,309.399h-22v-31.8H252.7v-19.6l68.399-88.2h15v87.8H353.7v20H336.1V309.399z
		 M377.817,402.867c-0.915,0.916-1.957,1.688-3.127,2.317s-2.4,1.11-3.69,1.44s-2.564,0.494-3.825,0.494
		c-2.22,0-4.252-0.479-6.097-1.439c-1.846-0.96-3.436-2.212-4.771-3.758c-1.335-1.545-2.37-3.299-3.104-5.265
		c-0.736-1.965-1.103-3.968-1.103-6.008c0-1.95,0.344-3.877,1.034-5.782c0.69-1.904,1.688-3.607,2.993-5.107
		c1.305-1.5,2.902-2.715,4.792-3.645c1.891-0.93,4.05-1.396,6.48-1.396c2.85,0,5.316,0.646,7.402,1.935
		c2.085,1.291,3.622,2.971,4.612,5.041l-4.77,3.284c-0.36-0.899-0.826-1.657-1.396-2.272c-0.57-0.614-1.192-1.103-1.867-1.463
		c-0.675-0.359-1.373-0.621-2.093-0.787c-0.72-0.164-1.41-0.248-2.07-0.248c-1.47,0-2.76,0.315-3.869,0.945
		c-1.11,0.631-2.033,1.448-2.768,2.453c-0.735,1.006-1.291,2.145-1.665,3.42c-0.376,1.275-0.562,2.543-0.562,3.803
		c0,1.41,0.217,2.768,0.652,4.072c0.435,1.305,1.05,2.452,1.845,3.442c0.795,0.989,1.747,1.785,2.857,2.385
		c1.109,0.601,2.325,0.899,3.646,0.899c0.689,0,1.395-0.09,2.114-0.27c0.721-0.18,1.418-0.465,2.093-0.855
		c0.675-0.389,1.298-0.892,1.867-1.507c0.57-0.614,1.035-1.356,1.396-2.228l5.085,2.926
		C379.43,400.895,378.732,401.952,377.817,402.867z M413.819,397.062c-0.766,1.935-1.823,3.645-3.173,5.129
		c-1.351,1.486-2.955,2.672-4.815,3.556c-1.86,0.886-3.885,1.327-6.074,1.327c-2.25,0-4.306-0.457-6.165-1.372
		c-1.861-0.915-3.458-2.13-4.793-3.646c-1.335-1.514-2.362-3.246-3.082-5.197c-0.721-1.949-1.08-3.944-1.08-5.984
		c0-2.131,0.382-4.17,1.147-6.121c0.765-1.949,1.829-3.674,3.194-5.174s2.978-2.693,4.838-3.578
		c1.859-0.885,3.885-1.327,6.075-1.327c2.25,0,4.305,0.472,6.165,1.417c1.859,0.945,3.449,2.183,4.77,3.713
		c1.32,1.529,2.34,3.27,3.061,5.22c0.72,1.95,1.08,3.931,1.08,5.94C414.967,393.096,414.584,395.127,413.819,397.062z
		 M443.946,380.345h-15.255v8.235h12.69v5.039h-12.69v13.23h-6.21v-31.95h21.465V380.345z M472.342,380.345h-15.255v8.235h12.69
		v5.039h-12.69v13.23h-6.21v-31.95h21.465V380.345z M501.456,406.85h-22.185v-31.95h21.78v5.445h-15.57v7.694h13.455v5.041h-13.455
		v8.324h15.975V406.85z"/>
	<path fill="#FFFFFF" d="M150.524,383.449c-0.765-0.99-1.695-1.777-2.79-2.362c-1.095-0.585-2.333-0.878-3.712-0.878
		c-1.44,0-2.708,0.309-3.802,0.924c-1.096,0.615-2.025,1.424-2.79,2.43c-0.765,1.005-1.343,2.145-1.732,3.42
		c-0.391,1.275-0.585,2.572-0.585,3.893c0,1.38,0.202,2.715,0.607,4.004c0.405,1.291,0.99,2.431,1.755,3.421
		c0.765,0.989,1.702,1.785,2.812,2.385c1.109,0.601,2.37,0.899,3.78,0.899c1.44,0,2.707-0.307,3.803-0.922
		c1.095-0.615,2.017-1.432,2.768-2.453c0.75-1.02,1.32-2.166,1.71-3.441c0.39-1.275,0.585-2.572,0.585-3.893
		c0-1.38-0.21-2.715-0.63-4.006C151.881,385.58,151.289,384.439,150.524,383.449z"/>
	<path fill="#FFFFFF" d="M186.523,383.449c-0.765-0.99-1.695-1.777-2.79-2.362c-1.095-0.585-2.333-0.878-3.712-0.878
		c-1.44,0-2.708,0.309-3.802,0.924c-1.096,0.615-2.025,1.424-2.79,2.43c-0.765,1.005-1.343,2.145-1.732,3.42
		c-0.391,1.275-0.585,2.572-0.585,3.893c0,1.38,0.202,2.715,0.607,4.004c0.405,1.291,0.99,2.431,1.755,3.421
		c0.765,0.989,1.702,1.785,2.812,2.385c1.109,0.601,2.37,0.899,3.78,0.899c1.44,0,2.707-0.307,3.803-0.922
		c1.095-0.615,2.017-1.432,2.768-2.453c0.75-1.02,1.32-2.166,1.71-3.441c0.39-1.275,0.585-2.572,0.585-3.893
		c0-1.38-0.21-2.715-0.63-4.006C187.881,385.58,187.289,384.439,186.523,383.449z"/>
</g>
<circle fill="#00AEEF" cx="1163.957" cy="299" r="298"/>
<rect x="810" y="138" fill="none" width="609" height="165"/>
<text transform="matrix(1 0 0 1 905.0029 283.999)" fill="#FFFFFF" font-family="'Raleway-SemiBold'" font-size="200">1316</text>
<rect x="810" y="374" fill="none" width="598" height="201"/>
<text transform="matrix(1 0 0 1 926.7969 406.8496)" fill="#FFFFFF" font-family="'Raleway-Bold'" font-size="45" letter-spacing="2">LINES OF CODE</text>
</svg>
