<?xml version="1.0" encoding="utf-8"?>
<!-- Generator: Adobe Illustrator 16.0.0, SVG Export Plug-In . SVG Version: 6.00 Build 0)  -->
<!DOCTYPE svg PUBLIC "-//W3C//DTD SVG 1.1//EN" "http://www.w3.org/Graphics/SVG/1.1/DTD/svg11.dtd">
<svg version="1.1" id="Layer_1" xmlns="http://www.w3.org/2000/svg" xmlns:xlink="http://www.w3.org/1999/xlink" x="0px" y="0px"
	 width="600px" height="600px" viewBox="0 0 600 600" enable-background="new 0 0 600 600" xml:space="preserve">
<g>
	<path fill="#FFFFFF" d="M332.592,381.807c-0.405-0.465-0.871-0.824-1.396-1.08c-0.525-0.254-1.058-0.382-1.598-0.382h-7.515v10.351
		h7.785c0.569,0,1.103-0.136,1.598-0.406c0.495-0.27,0.922-0.637,1.282-1.102s0.645-1.013,0.854-1.643
		c0.21-0.631,0.315-1.305,0.315-2.025c0-0.75-0.12-1.439-0.36-2.07C333.318,382.82,332.996,382.272,332.592,381.807z"/>
	<polygon fill="#FFFFFF" points="210.62,394.52 219.665,394.52 215.21,381.604 	"/>
	<path fill="#FFFFFF" d="M430.512,381.807c-0.405-0.465-0.871-0.824-1.396-1.08c-0.525-0.254-1.058-0.382-1.598-0.382h-7.515v10.351
		h7.785c0.569,0,1.103-0.136,1.598-0.406c0.495-0.27,0.922-0.637,1.282-1.102s0.645-1.013,0.854-1.643
		c0.21-0.631,0.315-1.305,0.315-2.025c0-0.75-0.12-1.439-0.36-2.07C431.238,382.82,430.916,382.272,430.512,381.807z"/>
	<path fill="#FFFFFF" d="M367.534,383.27c-0.81-0.93-1.808-1.649-2.992-2.16c-1.186-0.51-2.528-0.765-4.027-0.765h-5.4v21.06h5.4
		c1.529,0,2.887-0.27,4.072-0.81c1.185-0.54,2.175-1.282,2.97-2.228s1.402-2.062,1.822-3.353s0.63-2.685,0.63-4.185
		c0-1.53-0.21-2.94-0.63-4.23C368.959,385.311,368.344,384.199,367.534,383.27z"/>
	<path fill="#FFFFFF" d="M290.402,264.799c3.666,1.6,7.565,2.4,11.7,2.4c4.131,0,8.031-0.8,11.7-2.4c3.665-1.6,6.866-3.8,9.601-6.6
		c2.73-2.8,4.899-6.031,6.5-9.7c1.6-3.666,2.399-7.565,2.399-11.7c0-4.131-0.8-8-2.399-11.6c-1.601-3.6-3.77-6.766-6.5-9.5
		c-2.734-2.731-5.936-4.9-9.601-6.5c-3.669-1.6-7.569-2.4-11.7-2.4c-4.134,0-8.034,0.8-11.7,2.4c-3.669,1.6-6.869,3.769-9.6,6.5
		c-2.734,2.734-4.9,5.9-6.5,9.5c-1.6,3.6-2.4,7.469-2.4,11.6c0,4.135,0.8,8.035,2.4,11.7c1.6,3.669,3.766,6.9,6.5,9.7
		C283.533,260.999,286.733,263.199,290.402,264.799z"/>
	<path fill="#FFFFFF" d="M495.333,383.27c-0.81-0.93-1.808-1.649-2.992-2.16c-1.186-0.51-2.528-0.765-4.027-0.765h-5.4v21.06h5.4
		c1.529,0,2.887-0.27,4.072-0.81c1.185-0.54,2.175-1.282,2.97-2.228s1.402-2.062,1.822-3.353s0.63-2.685,0.63-4.185
		c0-1.53-0.21-2.94-0.63-4.23C496.758,385.311,496.143,384.199,495.333,383.27z"/>
	<path fill="#FFFFFF" d="M440.799,197.599c-2.734-2.8-5.935-5-9.6-6.6c-3.669-1.6-7.569-2.4-11.7-2.4c-4.135,0-8.034,0.8-11.7,2.4
		c-3.669,1.6-6.868,3.8-9.6,6.6c-2.734,2.8-4.9,6.034-6.5,9.7c-1.601,3.669-2.4,7.569-2.4,11.7c0,4.134,0.8,8,2.4,11.6
		c1.6,3.6,3.766,6.769,6.5,9.5c2.731,2.734,5.931,4.9,9.6,6.5c3.666,1.6,7.565,2.4,11.7,2.4c4.131,0,8.031-0.8,11.7-2.4
		c3.665-1.6,6.865-3.766,9.6-6.5c2.731-2.731,4.9-5.9,6.5-9.5c1.601-3.6,2.4-7.466,2.4-11.6c0-4.131-0.8-8.031-2.4-11.7
		C445.699,203.633,443.53,200.399,440.799,197.599z"/>
	<path fill="#FFFFFF" d="M299.697,383.449c-0.765-0.99-1.695-1.777-2.79-2.362c-1.096-0.585-2.333-0.878-3.712-0.878
		c-1.44,0-2.708,0.309-3.803,0.924c-1.096,0.615-2.025,1.424-2.79,2.43c-0.765,1.005-1.343,2.145-1.732,3.42
		c-0.391,1.275-0.585,2.572-0.585,3.893c0,1.38,0.202,2.715,0.607,4.004c0.405,1.291,0.99,2.431,1.755,3.421
		c0.765,0.989,1.702,1.785,2.812,2.385c1.109,0.601,2.369,0.899,3.78,0.899c1.439,0,2.707-0.307,3.802-0.922
		s2.018-1.432,2.768-2.453c0.75-1.02,1.32-2.166,1.71-3.441s0.585-2.572,0.585-3.893c0-1.38-0.21-2.715-0.63-4.006
		C301.055,385.58,300.463,384.439,299.697,383.449z"/>
	<path fill="#FFFFFF" d="M111.758,381.695c-0.39-0.451-0.848-0.788-1.373-1.014c-0.525-0.225-1.058-0.337-1.597-0.337h-6.93v10.351
		h7.2c1.14,0,2.092-0.465,2.857-1.396c0.765-0.93,1.147-2.19,1.147-3.78c0-0.811-0.12-1.537-0.36-2.183
		C112.462,382.692,112.147,382.145,111.758,381.695z"/>
	<path fill="#FFFFFF" d="M300,1C135.419,1,2,134.419,2,299s133.419,298,298,298s298-133.419,298-298S464.581,1,300,1z
		 M118.643,389.457c-0.48,1.275-1.155,2.408-2.025,3.397c-0.87,0.99-1.92,1.785-3.15,2.386c-1.23,0.6-2.581,0.899-4.05,0.899h-7.56
		v10.71h-6.21v-31.95h13.545c1.47,0,2.827,0.308,4.072,0.923c1.245,0.615,2.318,1.426,3.218,2.43c0.9,1.006,1.604,2.146,2.115,3.42
		c0.51,1.275,0.765,2.559,0.765,3.848C119.363,386.869,119.123,388.182,118.643,389.457z M132.502,406.85h-6.21v-31.904h6.21V406.85
		z M165.127,406.85h-25.335v-4.68l18.045-21.825h-17.55v-5.445h24.705v4.681l-17.46,21.824h17.595V406.85z M195.861,406.85h-25.335
		v-4.68l18.045-21.825h-17.55v-5.445h24.705v4.681l-17.46,21.824h17.595V406.85z M223.715,406.85l-2.925-7.965h-11.205l-2.925,7.965
		h-6.57l12.6-31.95h5.04l12.555,31.95H223.715z M229.503,285.599c-2.668,5.866-6.3,10.9-10.9,15.101s-10.034,7.431-16.3,9.7
		c-6.269,2.266-13,3.399-20.2,3.399c-10.134,0-19.269-2.3-27.4-6.899c-8.134-4.601-14.334-10.835-18.6-18.7l13-12.6
		c3.866,5.6,8.7,10.131,14.5,13.6c5.8,3.466,12.031,5.2,18.7,5.2c4.131,0,7.931-0.669,11.4-2c3.466-1.335,6.466-3.234,9-5.7
		c2.531-2.469,4.531-5.4,6-8.8c1.466-3.4,2.2-7.166,2.2-11.3c0-4-0.7-7.631-2.1-10.9c-1.4-3.266-3.3-6.066-5.7-8.4
		c-2.4-2.331-5.269-4.166-8.6-5.5c-3.334-1.331-6.869-2-10.6-2c-5.069,0-9.834,1.1-14.3,3.3c-4.469,2.2-8.034,5.434-10.7,9.7h-19.4
		c0.131-0.531,0.432-2.131,0.9-4.8c0.465-2.666,1.065-6,1.8-10c0.731-4,1.565-8.466,2.5-13.4c0.931-4.931,1.931-9.931,3-15
		c2.266-11.866,4.866-25.131,7.8-39.8h69.6v20.2h-53.4l-7.2,38.8c2.266-2.531,5.3-4.531,9.1-6c3.8-1.465,8.231-2.2,13.3-2.2
		c6.531,0,12.666,1.134,18.4,3.4c5.731,2.269,10.666,5.4,14.8,9.4c4.131,4,7.4,8.8,9.8,14.4c2.4,5.6,3.6,11.734,3.6,18.4
		C233.503,273.268,232.169,279.733,229.503,285.599z M258.027,402.102c-0.646,1.215-1.508,2.199-2.588,2.948
		c-1.08,0.75-2.34,1.298-3.779,1.642c-1.44,0.346-2.94,0.518-4.5,0.518c-2.4,0-4.771-0.359-7.11-1.08
		c-2.34-0.719-4.44-1.738-6.3-3.059l2.745-5.355c0.27,0.27,0.757,0.623,1.462,1.057c0.705,0.436,1.537,0.871,2.498,1.306
		c0.96,0.435,2.024,0.803,3.194,1.103c1.171,0.301,2.37,0.449,3.601,0.449c3.42,0,5.13-1.094,5.13-3.284
		c0-0.72-0.195-1.319-0.585-1.8c-0.391-0.48-0.945-0.9-1.665-1.26c-0.72-0.36-1.591-0.69-2.61-0.99s-2.16-0.615-3.42-0.945
		c-1.529-0.42-2.857-0.877-3.982-1.373c-1.125-0.494-2.062-1.072-2.812-1.732c-0.75-0.659-1.312-1.439-1.688-2.34
		s-0.562-1.965-0.562-3.195c0-1.619,0.3-3.06,0.9-4.319c0.6-1.261,1.432-2.31,2.497-3.149c1.064-0.84,2.302-1.479,3.713-1.913
		c1.409-0.435,2.925-0.652,4.545-0.652c2.25,0,4.32,0.353,6.21,1.058s3.539,1.537,4.95,2.497l-2.745,5.04
		c-0.21-0.209-0.593-0.495-1.147-0.855c-0.556-0.359-1.23-0.712-2.025-1.057s-1.658-0.637-2.587-0.878
		c-0.931-0.239-1.876-0.36-2.835-0.36c-1.71,0-2.986,0.315-3.825,0.945c-0.841,0.631-1.26,1.516-1.26,2.655
		c0,0.66,0.157,1.208,0.472,1.643c0.315,0.435,0.772,0.817,1.373,1.147c0.6,0.33,1.356,0.63,2.272,0.9
		c0.915,0.27,1.972,0.555,3.172,0.854c1.56,0.421,2.978,0.87,4.253,1.351c1.274,0.479,2.354,1.08,3.24,1.799
		c0.885,0.721,1.567,1.584,2.047,2.588c0.479,1.006,0.721,2.243,0.721,3.713C258.995,399.425,258.672,400.887,258.027,402.102z
		 M264.302,269.299c-4.534-5.4-8.034-12-10.5-19.8c-2.469-7.8-3.7-16.631-3.7-26.5c0-13.6,1.3-25.5,3.9-35.7
		c2.6-10.2,6.231-18.731,10.9-25.6c4.666-6.866,10.331-12.031,17-15.5c6.666-3.466,14.131-5.2,22.4-5.2
		c9.065,0,17.366,2.069,24.899,6.2c7.531,4.134,13.632,10,18.301,17.6l-13,13.6c-3.068-5.6-7.301-10.031-12.7-13.3
		c-5.399-3.266-11.368-4.9-17.899-4.9c-10,0-17.969,4.234-23.9,12.7c-5.935,8.469-9.035,20.369-9.3,35.7
		c2.8-6,7.166-10.731,13.1-14.2c5.931-3.465,12.7-5.2,20.3-5.2c6.932,0,13.4,1.234,19.4,3.7c6,2.469,11.199,5.834,15.6,10.1
		c4.4,4.269,7.865,9.3,10.4,15.1c2.531,5.8,3.8,12.034,3.8,18.7c0,6.8-1.335,13.2-4,19.2c-2.669,6-6.3,11.234-10.899,15.7
		c-4.601,4.469-10.035,7.969-16.301,10.5c-6.269,2.531-13,3.8-20.199,3.8c-7.869,0-14.969-1.435-21.301-4.3
		C274.268,278.833,268.833,274.699,264.302,269.299z M307.213,397.062c-0.766,1.935-1.823,3.645-3.173,5.129
		c-1.351,1.486-2.955,2.672-4.815,3.556c-1.86,0.886-3.885,1.327-6.074,1.327c-2.25,0-4.306-0.457-6.165-1.372
		c-1.861-0.915-3.458-2.13-4.793-3.646c-1.335-1.514-2.362-3.246-3.082-5.197c-0.721-1.949-1.08-3.944-1.08-5.984
		c0-2.131,0.382-4.17,1.147-6.121c0.765-1.949,1.829-3.674,3.194-5.174s2.978-2.693,4.838-3.578
		c1.859-0.885,3.885-1.327,6.075-1.327c2.25,0,4.305,0.472,6.165,1.417c1.859,0.945,3.449,2.183,4.77,3.713
		c1.32,1.529,2.34,3.27,3.061,5.22c0.72,1.95,1.08,3.931,1.08,5.94C308.36,393.096,307.978,395.127,307.213,397.062z
		 M334.909,406.85l-6.705-10.71h-6.12v10.71h-6.21v-31.95h14.13c1.47,0,2.827,0.308,4.072,0.923s2.317,1.426,3.218,2.43
		c0.9,1.006,1.604,2.146,2.115,3.42c0.51,1.275,0.765,2.559,0.765,3.848c0,2.07-0.518,3.953-1.553,5.647
		c-1.034,1.695-2.438,2.918-4.207,3.667l7.515,12.016H334.909z M375.162,397.422c-0.736,1.965-1.793,3.645-3.173,5.04
		s-3.037,2.476-4.973,3.24c-1.935,0.765-4.103,1.147-6.502,1.147h-11.61v-31.95h11.61c2.609,0,4.896,0.421,6.862,1.261
		c1.964,0.84,3.606,1.979,4.928,3.42c1.319,1.439,2.31,3.127,2.97,5.062c0.659,1.935,0.99,3.998,0.99,6.188
		C376.265,393.26,375.896,395.457,375.162,397.422z M406.099,406.85h-22.185v-31.95h21.78v5.445h-15.57v7.694h13.455v5.041h-13.455
		v8.324h15.975V406.85z M432.829,406.85l-6.705-10.71h-6.12v10.71h-6.21v-31.95h14.13c1.47,0,2.827,0.308,4.072,0.923
		s2.317,1.426,3.218,2.43c0.9,1.006,1.604,2.146,2.115,3.42c0.51,1.275,0.765,2.559,0.765,3.848c0,2.07-0.518,3.953-1.553,5.647
		c-1.034,1.695-2.438,2.918-4.207,3.667l7.515,12.016H432.829z M469.009,406.85h-22.185v-31.95h21.78v5.445h-15.57v7.694h13.455
		v5.041h-13.455v8.324h15.975V406.85z M467.599,268.499c-2.6,10.2-6.234,18.731-10.899,25.6c-4.669,6.866-10.369,12.031-17.101,15.5
		c-6.734,3.466-14.168,5.2-22.3,5.2c-9.068,0-17.368-2.068-24.899-6.2c-7.535-4.134-13.635-10-18.301-17.6l13-13.6
		c3.066,5.6,7.301,10.032,12.7,13.3c5.4,3.266,11.366,4.899,17.9,4.899c10,0,17.966-4.234,23.899-12.7
		c5.932-8.465,9.031-20.366,9.301-35.7c-2.801,6-7.169,10.734-13.101,14.2c-5.935,3.469-12.7,5.2-20.3,5.2
		c-6.935,0-13.4-1.231-19.4-3.7c-6-2.465-11.199-5.831-15.6-10.1c-4.4-4.266-7.869-9.3-10.4-15.1c-2.534-5.8-3.8-12.031-3.8-18.7
		c0-6.8,1.331-13.2,4-19.2c2.666-6,6.3-11.231,10.9-15.7c4.6-4.466,10.031-7.966,16.3-10.5c6.266-2.531,13-3.8,20.2-3.8
		c7.731,0,14.8,1.435,21.2,4.3c6.399,2.869,11.865,7,16.399,12.4c4.531,5.4,8.031,12,10.5,19.8c2.466,7.8,3.7,16.635,3.7,26.5
		C471.499,246.399,470.199,258.299,467.599,268.499z M502.961,397.422c-0.736,1.965-1.793,3.645-3.173,5.04s-3.037,2.476-4.973,3.24
		c-1.935,0.765-4.103,1.147-6.502,1.147h-11.61v-31.95h11.61c2.609,0,4.896,0.421,6.862,1.261c1.964,0.84,3.606,1.979,4.928,3.42
		c1.319,1.439,2.31,3.127,2.97,5.062c0.659,1.935,0.99,3.998,0.99,6.188C504.063,393.26,503.695,395.457,502.961,397.422z"/>
</g>
<circle fill="#00AEEF" cx="1163.957" cy="299" r="298"/>
<rect x="863.957" y="129" fill="none" width="609" height="165"/>
<text transform="matrix(1 0 0 1 993.6602 274.999)" fill="#FFFFFF" font-family="'Raleway-SemiBold'" font-size="200">569</text>
<rect x="863.957" y="365" fill="none" width="598" height="201"/>
<text transform="matrix(1 0 0 1 956.0957 397.8496)" fill="#FFFFFF" font-family="'Raleway-Bold'" font-size="45" letter-spacing="2">PIZZAS ORDERED</text>
</svg>
