<?xml version="1.0" encoding="utf-8"?>
<!-- Generator: Adobe Illustrator 16.0.0, SVG Export Plug-In . SVG Version: 6.00 Build 0)  -->
<!DOCTYPE svg PUBLIC "-//W3C//DTD SVG 1.1//EN" "http://www.w3.org/Graphics/SVG/1.1/DTD/svg11.dtd">
<svg version="1.1" id="Layer_1" xmlns="http://www.w3.org/2000/svg" xmlns:xlink="http://www.w3.org/1999/xlink" x="0px" y="0px"
	 width="600px" height="600px" viewBox="0 0 600 600" enable-background="new 0 0 600 600" xml:space="preserve">
<g>
	<path fill="#FFFFFF" d="M295.963,383.449c-0.765-0.99-1.695-1.777-2.79-2.362c-1.096-0.585-2.333-0.878-3.712-0.878
		c-1.44,0-2.708,0.309-3.803,0.924c-1.096,0.615-2.025,1.424-2.79,2.43c-0.765,1.005-1.343,2.145-1.732,3.42
		c-0.391,1.275-0.585,2.572-0.585,3.893c0,1.38,0.202,2.715,0.607,4.004c0.405,1.291,0.99,2.431,1.755,3.421
		c0.765,0.989,1.702,1.785,2.812,2.385c1.109,0.601,2.369,0.899,3.78,0.899c1.439,0,2.707-0.307,3.802-0.922
		s2.018-1.432,2.768-2.453c0.75-1.02,1.32-2.166,1.71-3.441s0.585-2.572,0.585-3.893c0-1.38-0.21-2.715-0.63-4.006
		C297.32,385.58,296.729,384.439,295.963,383.449z"/>
	<path fill="#FFFFFF" d="M440.076,383.27c-0.81-0.93-1.808-1.649-2.992-2.16c-1.186-0.51-2.528-0.765-4.027-0.765h-5.4v21.06h5.4
		c1.529,0,2.887-0.27,4.072-0.81c1.185-0.54,2.175-1.282,2.97-2.228s1.402-2.062,1.822-3.353s0.63-2.685,0.63-4.185
		c0-1.53-0.21-2.94-0.63-4.23C441.501,385.311,440.886,384.199,440.076,383.27z"/>
	<path fill="#FFFFFF" d="M475.899,215.699c-2.734-2.731-5.934-4.9-9.6-6.5c-3.669-1.6-7.568-2.4-11.7-2.4
		c-4.134,0-8.034,0.8-11.7,2.4c-3.668,1.6-6.868,3.769-9.6,6.5c-2.734,2.734-4.9,5.9-6.5,9.5c-1.6,3.6-2.4,7.469-2.4,11.6
		c0,4.135,0.801,8.035,2.4,11.7c1.6,3.669,3.766,6.9,6.5,9.7c2.731,2.8,5.932,5,9.6,6.6c3.666,1.6,7.566,2.4,11.7,2.4
		c4.132,0,8.031-0.8,11.7-2.4c3.666-1.6,6.865-3.8,9.6-6.6c2.731-2.8,4.9-6.031,6.5-9.7c1.601-3.666,2.4-7.565,2.4-11.7
		c0-4.131-0.8-8-2.4-11.6C480.8,221.599,478.631,218.434,475.899,215.699z"/>
	<path fill="#FFFFFF" d="M300,1C135.419,1,2,134.419,2,299s133.419,298,298,298s298-133.419,298-298S464.581,1,300,1z
		 M130.703,199.399c-2.6,1.734-5.435,3.334-8.5,4.8c-3.069,1.469-6.269,2.7-9.6,3.7c-3.334,1-6.269,1.5-8.8,1.5v-20.6
		c2.666,0,5.766-0.8,9.3-2.4c3.531-1.6,6.965-3.465,10.3-5.6c3.332-2.131,6.2-4.266,8.6-6.4c2.4-2.131,3.866-3.666,4.4-4.6h22.4
		v94.4h25.4v19.8h-76.2v-19.8h28.4v-69.8C135.203,195.999,133.303,197.668,130.703,199.399z M143.527,406.85h-22.5v-31.95h6.21
		v26.505h16.29V406.85z M156.441,406.85h-6.21v-31.904h6.21V406.85z M193.476,406.85h-5.04l-16.425-20.475v20.475h-6.21v-31.95
		h4.815l16.65,20.97v-20.924h6.21V406.85z M225.02,406.85h-22.184v-31.95h21.78v5.445h-15.57v7.694H222.5v5.041h-13.455v8.324
		h15.974V406.85z M254.293,402.102c-0.646,1.215-1.508,2.199-2.588,2.948c-1.08,0.75-2.34,1.298-3.779,1.642
		c-1.44,0.346-2.94,0.518-4.5,0.518c-2.4,0-4.771-0.359-7.11-1.08c-2.34-0.719-4.44-1.738-6.3-3.059l2.745-5.355
		c0.27,0.27,0.757,0.623,1.462,1.057c0.705,0.436,1.537,0.871,2.498,1.306c0.96,0.435,2.024,0.803,3.194,1.103
		c1.171,0.301,2.37,0.449,3.601,0.449c3.42,0,5.13-1.094,5.13-3.284c0-0.72-0.195-1.319-0.585-1.8c-0.391-0.48-0.945-0.9-1.665-1.26
		c-0.72-0.36-1.591-0.69-2.61-0.99s-2.16-0.615-3.42-0.945c-1.529-0.42-2.857-0.877-3.982-1.373
		c-1.125-0.494-2.062-1.072-2.812-1.732c-0.75-0.659-1.312-1.439-1.688-2.34s-0.562-1.965-0.562-3.195c0-1.619,0.3-3.06,0.9-4.319
		c0.6-1.261,1.432-2.31,2.497-3.149c1.064-0.84,2.302-1.479,3.713-1.913c1.409-0.435,2.925-0.652,4.545-0.652
		c2.25,0,4.32,0.353,6.21,1.058s3.539,1.537,4.95,2.497l-2.745,5.04c-0.21-0.209-0.593-0.495-1.147-0.855
		c-0.556-0.359-1.23-0.712-2.025-1.057s-1.658-0.637-2.587-0.878c-0.931-0.239-1.876-0.36-2.835-0.36
		c-1.71,0-2.986,0.315-3.825,0.945c-0.841,0.631-1.26,1.516-1.26,2.655c0,0.66,0.157,1.208,0.472,1.643
		c0.315,0.435,0.772,0.817,1.373,1.147c0.6,0.33,1.356,0.63,2.272,0.9c0.915,0.27,1.972,0.555,3.172,0.854
		c1.56,0.421,2.978,0.87,4.253,1.351c1.274,0.479,2.354,1.08,3.24,1.799c0.885,0.721,1.567,1.584,2.047,2.588
		c0.479,1.006,0.721,2.243,0.721,3.713C255.261,399.425,254.938,400.887,254.293,402.102z M240.802,313.399
		c-10.134,0-19.069-1.77-26.8-5.301c-7.734-3.534-13.935-8.634-18.6-15.3l13.4-15.2c3.065,4.934,7.166,8.8,12.3,11.6
		c5.131,2.8,11.566,4.2,19.3,4.2c8.8,0,15.565-1.869,20.3-5.601c4.731-3.734,7.1-9.331,7.1-16.8c0-7.731-2.669-13.8-8-18.2
		c-5.334-4.4-13.2-6.6-23.6-6.6h-5.4v-17.2h6c8.931,0,15.8-2.1,20.6-6.3c4.8-4.2,7.2-9.5,7.2-15.9c0-6.4-2.168-11.1-6.5-14.1
		c-4.334-3-9.9-4.5-16.7-4.5c-6.8,0-12.8,1.469-18,4.4c-5.2,2.934-9.334,7.134-12.4,12.6l-13.6-15c3.866-6.4,10-11.566,18.4-15.5
		c8.4-3.932,17.731-5.9,28-5.9c6.531,0,12.5,0.869,17.9,2.6c5.4,1.734,10.066,4.134,14,7.2c3.931,3.069,6.966,6.8,9.1,11.2
		c2.131,4.4,3.2,9.269,3.2,14.6c0,4-0.6,7.8-1.8,11.4c-1.2,3.6-2.9,6.869-5.1,9.8c-2.2,2.934-4.834,5.369-7.9,7.3
		c-3.069,1.935-6.534,3.234-10.4,3.9c4.131,0.8,7.931,2.234,11.4,4.3c3.466,2.069,6.4,4.634,8.8,7.7c2.4,3.069,4.266,6.6,5.6,10.6
		c1.332,4,2,8.334,2,13c0,6.269-1.168,11.9-3.5,16.9c-2.334,5-5.668,9.3-10,12.9c-4.334,3.6-9.568,6.365-15.7,8.3
		C255.268,312.431,248.402,313.399,240.802,313.399z M303.479,397.062c-0.766,1.935-1.823,3.645-3.173,5.129
		c-1.351,1.486-2.955,2.672-4.815,3.556c-1.86,0.886-3.885,1.327-6.074,1.327c-2.25,0-4.306-0.457-6.165-1.372
		c-1.861-0.915-3.458-2.13-4.793-3.646c-1.335-1.514-2.362-3.246-3.082-5.197c-0.721-1.949-1.08-3.944-1.08-5.984
		c0-2.131,0.382-4.17,1.147-6.121c0.765-1.949,1.829-3.674,3.194-5.174s2.978-2.693,4.838-3.578
		c1.859-0.885,3.885-1.327,6.075-1.327c2.25,0,4.305,0.472,6.165,1.417c1.859,0.945,3.449,2.183,4.77,3.713
		c1.32,1.529,2.34,3.27,3.061,5.22c0.72,1.95,1.08,3.931,1.08,5.94C304.626,393.096,304.243,395.127,303.479,397.062z
		 M334.701,199.399c-2.6,1.734-5.435,3.334-8.5,4.8c-3.068,1.469-6.27,2.7-9.6,3.7c-3.335,1-6.27,1.5-8.801,1.5v-20.6
		c2.666,0,5.766-0.8,9.301-2.4c3.531-1.6,6.965-3.465,10.299-5.6c3.332-2.131,6.201-4.266,8.601-6.4
		c2.399-2.131,3.866-3.666,4.399-4.6h22.4v94.4h25.4v19.8h-76.2v-19.8H340.4v-69.8C339.201,195.999,337.301,197.668,334.701,199.399
		z M333.605,380.345h-15.255v8.235h12.69v5.039h-12.69v13.23h-6.21v-31.95h21.465V380.345z M376.782,402.867
		c-0.915,0.916-1.957,1.688-3.127,2.317s-2.4,1.11-3.69,1.44s-2.564,0.494-3.825,0.494c-2.22,0-4.252-0.479-6.097-1.439
		c-1.846-0.96-3.436-2.212-4.771-3.758c-1.335-1.545-2.37-3.299-3.104-5.265c-0.736-1.965-1.103-3.968-1.103-6.008
		c0-1.95,0.344-3.877,1.034-5.782c0.69-1.904,1.688-3.607,2.993-5.107c1.305-1.5,2.902-2.715,4.792-3.645
		c1.891-0.93,4.05-1.396,6.48-1.396c2.85,0,5.316,0.646,7.402,1.935c2.085,1.291,3.622,2.971,4.612,5.041l-4.77,3.284
		c-0.36-0.899-0.826-1.657-1.396-2.272c-0.57-0.614-1.192-1.103-1.867-1.463c-0.675-0.359-1.373-0.621-2.093-0.787
		c-0.72-0.164-1.41-0.248-2.07-0.248c-1.47,0-2.76,0.315-3.869,0.945c-1.11,0.631-2.033,1.448-2.768,2.453
		c-0.735,1.006-1.291,2.145-1.665,3.42c-0.376,1.275-0.562,2.543-0.562,3.803c0,1.41,0.217,2.768,0.652,4.072
		c0.435,1.305,1.05,2.452,1.845,3.442c0.795,0.989,1.747,1.785,2.857,2.385c1.109,0.601,2.325,0.899,3.646,0.899
		c0.689,0,1.395-0.09,2.114-0.27c0.721-0.18,1.418-0.465,2.093-0.855c0.675-0.389,1.298-0.892,1.867-1.507
		c0.57-0.614,1.035-1.356,1.396-2.228l5.085,2.926C378.395,400.895,377.697,401.952,376.782,402.867z M412.784,397.062
		c-0.766,1.935-1.823,3.645-3.173,5.129c-1.351,1.486-2.955,2.672-4.815,3.556c-1.86,0.886-3.885,1.327-6.074,1.327
		c-2.25,0-4.306-0.457-6.165-1.372c-1.861-0.915-3.458-2.13-4.793-3.646c-1.335-1.514-2.362-3.246-3.082-5.197
		c-0.721-1.949-1.08-3.944-1.08-5.984c0-2.131,0.382-4.17,1.147-6.121c0.765-1.949,1.829-3.674,3.194-5.174s2.978-2.693,4.838-3.578
		c1.859-0.885,3.885-1.327,6.075-1.327c2.25,0,4.305,0.472,6.165,1.417c1.859,0.945,3.449,2.183,4.77,3.713
		c1.32,1.529,2.34,3.27,3.061,5.22c0.72,1.95,1.08,3.931,1.08,5.94C413.932,393.096,413.549,395.127,412.784,397.062z
		 M447.704,397.422c-0.736,1.965-1.793,3.645-3.173,5.04s-3.037,2.476-4.973,3.24c-1.935,0.765-4.103,1.147-6.502,1.147h-11.61
		v-31.95h11.61c2.609,0,4.896,0.421,6.862,1.261c1.964,0.84,3.606,1.979,4.928,3.42c1.319,1.439,2.31,3.127,2.97,5.062
		c0.659,1.935,0.99,3.998,0.99,6.188C448.807,393.26,448.438,395.457,447.704,397.422z M478.641,406.85h-22.185v-31.95h21.78v5.445
		h-15.57v7.694h13.455v5.041h-13.455v8.324h15.975V406.85z M501.8,255.999c-2.669,6-6.3,11.234-10.9,15.7
		c-4.6,4.469-10.034,7.969-16.3,10.5c-6.269,2.531-13,3.8-20.2,3.8c-7.868,0-14.969-1.435-21.3-4.3c-6.334-2.866-11.769-7-16.3-12.4
		c-4.534-5.4-8.034-12-10.5-19.8c-2.469-7.8-3.7-16.631-3.7-26.5c0-13.6,1.3-25.5,3.9-35.7c2.6-10.2,6.231-18.731,10.899-25.6
		c4.666-6.866,10.332-12.031,17-15.5c6.666-3.466,14.132-5.2,22.4-5.2c9.065,0,17.365,2.069,24.9,6.2
		c7.531,4.134,13.631,10,18.3,17.6l-13,13.6c-3.069-5.6-7.3-10.031-12.7-13.3c-5.4-3.266-11.369-4.9-17.9-4.9
		c-10,0-17.969,4.234-23.899,12.7c-5.935,8.469-9.034,20.369-9.3,35.7c2.8-6,7.165-10.731,13.1-14.2c5.932-3.465,12.7-5.2,20.3-5.2
		c6.932,0,13.4,1.234,19.4,3.7c6,2.469,11.2,5.834,15.6,10.1c4.4,4.269,7.866,9.3,10.4,15.1c2.531,5.8,3.8,12.034,3.8,18.7
		C505.8,243.599,504.466,249.999,501.8,255.999z"/>
	<path fill="#FFFFFF" d="M405.269,383.449c-0.765-0.99-1.695-1.777-2.79-2.362c-1.096-0.585-2.333-0.878-3.712-0.878
		c-1.44,0-2.708,0.309-3.803,0.924c-1.096,0.615-2.025,1.424-2.79,2.43c-0.765,1.005-1.343,2.145-1.732,3.42
		c-0.391,1.275-0.585,2.572-0.585,3.893c0,1.38,0.202,2.715,0.607,4.004c0.405,1.291,0.99,2.431,1.755,3.421
		c0.765,0.989,1.702,1.785,2.812,2.385c1.109,0.601,2.369,0.899,3.78,0.899c1.439,0,2.707-0.307,3.802-0.922
		s2.018-1.432,2.768-2.453c0.75-1.02,1.32-2.166,1.71-3.441s0.585-2.572,0.585-3.893c0-1.38-0.21-2.715-0.63-4.006
		C406.626,385.58,406.034,384.439,405.269,383.449z"/>
</g>
<circle fill="#00AEEF" cx="1163.957" cy="299" r="298"/>
<rect x="810" y="138" fill="none" width="609" height="165"/>
<text transform="matrix(1 0 0 1 905.0029 283.999)" fill="#FFFFFF" font-family="'Raleway-SemiBold'" font-size="200">1316</text>
<rect x="810" y="374" fill="none" width="598" height="201"/>
<text transform="matrix(1 0 0 1 926.7969 406.8496)" fill="#FFFFFF" font-family="'Raleway-Bold'" font-size="45" letter-spacing="2">LINES OF CODE</text>
</svg>
