<?xml version="1.0" encoding="utf-8"?>
<!-- Generator: Adobe Illustrator 16.0.0, SVG Export Plug-In . SVG Version: 6.00 Build 0)  -->
<!DOCTYPE svg PUBLIC "-//W3C//DTD SVG 1.1//EN" "http://www.w3.org/Graphics/SVG/1.1/DTD/svg11.dtd">
<svg version="1.1" id="Layer_1" xmlns="http://www.w3.org/2000/svg" xmlns:xlink="http://www.w3.org/1999/xlink" x="0px" y="0px"
	 width="600px" height="600px" viewBox="0 0 600 600" enable-background="new 0 0 600 600" xml:space="preserve">
<g>
	<path fill="#FFFFFF" d="M368.728,383.27c-0.81-0.93-1.808-1.649-2.992-2.16c-1.186-0.51-2.528-0.765-4.027-0.765h-5.4v21.06h5.4
		c1.529,0,2.887-0.27,4.072-0.81c1.185-0.54,2.175-1.282,2.97-2.228s1.402-2.062,1.822-3.353s0.63-2.685,0.63-4.185
		c0-1.53-0.21-2.94-0.63-4.23C370.152,385.311,369.537,384.199,368.728,383.27z"/>
	<path fill="#FFFFFF" d="M187.503,197.599c-2.734-2.8-5.934-5-9.6-6.6c-3.669-1.6-7.569-2.4-11.7-2.4c-4.134,0-8.034,0.8-11.7,2.4
		c-3.668,1.6-6.869,3.8-9.6,6.6c-2.734,2.8-4.9,6.034-6.5,9.7c-1.6,3.669-2.4,7.569-2.4,11.7c0,4.134,0.8,8,2.4,11.6
		c1.6,3.6,3.766,6.769,6.5,9.5c2.731,2.734,5.931,4.9,9.6,6.5c3.666,1.6,7.566,2.4,11.7,2.4c4.131,0,8.031-0.8,11.7-2.4
		c3.666-1.6,6.865-3.766,9.6-6.5c2.731-2.731,4.9-5.9,6.5-9.5c1.6-3.6,2.4-7.466,2.4-11.6c0-4.131-0.8-8.031-2.4-11.7
		C192.403,203.633,190.234,200.399,187.503,197.599z"/>
	<path fill="#FFFFFF" d="M402.274,387.185c0.735-0.72,1.103-1.71,1.103-2.97c0-1.23-0.337-2.205-1.012-2.926
		c-0.676-0.719-1.508-1.08-2.498-1.08h-8.55v8.056h8.28C400.647,388.265,401.539,387.904,402.274,387.185z"/>
	<path fill="#FFFFFF" d="M315.602,248.499c1.6-3.666,2.399-7.565,2.399-11.7c0-4.131-0.8-8-2.399-11.6
		c-1.601-3.6-3.77-6.766-6.5-9.5c-2.734-2.731-5.936-4.9-9.601-6.5c-3.669-1.6-7.569-2.4-11.7-2.4c-4.134,0-8.034,0.8-11.7,2.4
		c-3.669,1.6-6.869,3.769-9.6,6.5c-2.734,2.734-4.9,5.9-6.5,9.5c-1.6,3.6-2.4,7.469-2.4,11.6c0,4.135,0.8,8.035,2.4,11.7
		c1.6,3.669,3.766,6.9,6.5,9.7c2.731,2.8,5.931,5,9.6,6.6c3.666,1.6,7.565,2.4,11.7,2.4c4.131,0,8.031-0.8,11.7-2.4
		c3.665-1.6,6.866-3.8,9.601-6.6C311.832,255.399,314.001,252.168,315.602,248.499z"/>
	<path fill="#FFFFFF" d="M403.513,394.43c-0.331-0.39-0.721-0.697-1.17-0.922c-0.45-0.226-0.945-0.338-1.485-0.338h-9.54v8.414
		h9.225c0.57,0,1.103-0.104,1.598-0.314c0.495-0.209,0.923-0.502,1.282-0.877c0.36-0.375,0.646-0.817,0.855-1.328
		c0.21-0.51,0.315-1.05,0.315-1.619c0-0.57-0.099-1.118-0.293-1.643C404.104,395.277,403.842,394.82,403.513,394.43z"/>
	<path fill="#FFFFFF" d="M142.852,381.807c-0.405-0.465-0.87-0.824-1.395-1.08c-0.525-0.254-1.057-0.382-1.597-0.382h-7.515v10.351
		h7.785c0.569,0,1.103-0.136,1.597-0.406c0.495-0.27,0.923-0.637,1.283-1.102s0.645-1.013,0.855-1.643
		c0.209-0.631,0.315-1.305,0.315-2.025c0-0.75-0.12-1.439-0.36-2.07C143.579,382.82,143.257,382.272,142.852,381.807z"/>
	<polygon fill="#FFFFFF" points="425.067,394.52 434.112,394.52 429.657,381.604 	"/>
	<path fill="#FFFFFF" d="M472.099,243.299c-1.535-1.666-3.27-2.965-5.2-3.9c-1.935-0.931-3.969-1.4-6.101-1.4
		c-2.269,0-4.368,0.5-6.3,1.5c-1.935,1-3.634,2.334-5.1,4c-1.469,1.669-2.635,3.6-3.5,5.8c-0.869,2.2-1.3,4.5-1.3,6.9
		c0,2.534,0.431,4.934,1.3,7.2c0.865,2.269,2.031,4.234,3.5,5.9c1.466,1.669,3.165,2.969,5.1,3.9c1.932,0.934,4.031,1.4,6.3,1.4
		c4.531,0,8.366-1.8,11.5-5.4c3.132-3.6,4.7-7.932,4.7-13c0-2.531-0.435-4.9-1.3-7.1
		C474.829,246.899,473.63,244.968,472.099,243.299z"/>
	<path fill="#FFFFFF" d="M375.798,182.699c1.466,1.668,3.166,2.969,5.101,3.9c1.931,0.934,4.031,1.4,6.3,1.4
		c2.266,0,4.365-0.5,6.3-1.5c1.932-1,3.632-2.331,5.101-4c1.465-1.666,2.631-3.6,3.5-5.8c0.865-2.2,1.3-4.5,1.3-6.9
		c0-2.531-0.435-4.931-1.3-7.2c-0.869-2.266-2.069-4.231-3.601-5.9c-1.534-1.666-3.269-2.966-5.2-3.9
		c-1.934-0.931-3.969-1.4-6.1-1.4c-4.534,0-8.369,1.834-11.5,5.5c-3.135,3.669-4.7,7.969-4.7,12.9c0,2.535,0.432,4.9,1.3,7.1
		C373.164,179.099,374.329,181.033,375.798,182.699z"/>
	<polygon fill="#FFFFFF" points="196.333,394.52 205.378,394.52 200.923,381.604 	"/>
	<path fill="#FFFFFF" d="M300,1C135.419,1,2,134.419,2,299s133.419,298,298,298s298-133.419,298-298S464.581,1,300,1z
		 M473.398,140.799l10.399,9l-56,65.8l-53.199,69.6l-10.2-9.2l56.8-66.6L473.398,140.799z M357.898,158.199
		c1.665-3.6,3.931-6.766,6.8-9.5c2.865-2.731,6.231-4.866,10.1-6.4c3.866-1.531,8-2.3,12.4-2.3s8.531,0.769,12.4,2.3
		c3.865,1.535,7.23,3.669,10.1,6.4c2.865,2.734,5.131,5.9,6.8,9.5c1.666,3.6,2.5,7.469,2.5,11.6c0,4.135-0.834,8-2.5,11.6
		c-1.669,3.6-3.935,6.734-6.8,9.4c-2.869,2.669-6.234,4.769-10.1,6.3c-3.869,1.534-8,2.3-12.4,2.3s-8.534-0.766-12.4-2.3
		c-3.868-1.531-7.234-3.631-10.1-6.3c-2.869-2.666-5.135-5.8-6.8-9.4c-1.669-3.6-2.5-7.465-2.5-11.6
		C355.398,165.668,356.229,161.799,357.898,158.199z M118.079,406.85h-5.13v-3.6c-2.46,2.55-5.295,3.824-8.505,3.824
		c-2.041,0-3.96-0.449-5.76-1.35c-1.8-0.9-3.368-2.107-4.702-3.623c-1.335-1.514-2.385-3.262-3.15-5.242
		c-0.765-1.98-1.147-4.034-1.147-6.164c0-2.19,0.383-4.254,1.147-6.188c0.765-1.936,1.83-3.631,3.195-5.086
		c1.365-1.455,2.97-2.609,4.815-3.465c1.845-0.855,3.848-1.282,6.007-1.282c2.91,0,5.4,0.63,7.47,1.89
		c2.07,1.26,3.629,2.955,4.68,5.085l-4.635,3.421c-0.78-1.59-1.853-2.806-3.218-3.646s-2.873-1.261-4.522-1.261
		c-1.32,0-2.513,0.286-3.577,0.855c-1.065,0.57-1.973,1.35-2.723,2.34c-0.75,0.99-1.335,2.131-1.755,3.42
		c-0.42,1.291-0.63,2.655-0.63,4.096c0,1.5,0.225,2.902,0.675,4.207s1.08,2.438,1.89,3.397s1.762,1.718,2.857,2.272
		c1.095,0.556,2.302,0.832,3.623,0.832c2.939,0,5.595-1.454,7.965-4.364v-2.25h-6.435v-4.545h11.565V406.85z M184.503,261.399
		c-5.934,3.469-12.7,5.2-20.3,5.2c-6.935,0-13.4-1.231-19.4-3.7c-6-2.465-11.2-5.831-15.6-10.1c-4.4-4.266-7.869-9.3-10.4-15.1
		c-2.535-5.8-3.8-12.031-3.8-18.7c0-6.8,1.332-13.2,4-19.2c2.666-6,6.3-11.231,10.9-15.7c4.6-4.466,10.031-7.966,16.3-10.5
		c6.266-2.531,13-3.8,20.2-3.8c7.731,0,14.8,1.435,21.2,4.3c6.4,2.869,11.866,7,16.4,12.4c4.531,5.4,8.031,12,10.5,19.8
		c2.466,7.8,3.7,16.635,3.7,26.5c0,13.6-1.3,25.5-3.9,35.7s-6.234,18.731-10.9,25.6c-4.669,6.866-10.369,12.031-17.1,15.5
		c-6.734,3.466-14.169,5.2-22.3,5.2c-9.068,0-17.369-2.068-24.9-6.2c-7.534-4.134-13.634-10-18.3-17.6l13-13.6
		c3.065,5.6,7.3,10.032,12.7,13.3c5.4,3.266,11.366,4.899,17.9,4.899c10,0,17.965-4.234,23.9-12.7
		c5.931-8.465,9.031-20.366,9.3-35.7C194.803,253.199,190.435,257.934,184.503,261.399z M145.169,406.85l-6.705-10.71h-6.12v10.71
		h-6.21v-31.95h14.13c1.47,0,2.827,0.308,4.073,0.923c1.244,0.615,2.317,1.426,3.217,2.43c0.9,1.006,1.604,2.146,2.115,3.42
		c0.51,1.275,0.765,2.559,0.765,3.848c0,2.07-0.518,3.953-1.552,5.647c-1.035,1.695-2.438,2.918-4.208,3.667l7.515,12.016H145.169z
		 M181.349,406.85h-22.185v-31.95h21.78v5.445h-15.57v7.694h13.455v5.041h-13.455v8.324h15.975V406.85z M209.428,406.85
		l-2.925-7.965h-11.205l-2.925,7.965h-6.57l12.6-31.95h5.04l12.555,31.95H209.428z M243.043,380.345h-10.17v26.505h-6.211v-26.505
		h-10.214v-5.445h26.595V380.345z M283.408,380.345h-15.255v8.235h12.69v5.039h-12.69v13.23h-6.21v-31.95h21.465V380.345z
		 M266.301,281.699c-6.334-2.866-11.769-7-16.3-12.4c-4.534-5.4-8.034-12-10.5-19.8c-2.469-7.8-3.7-16.631-3.7-26.5
		c0-13.6,1.3-25.5,3.9-35.7c2.6-10.2,6.231-18.731,10.9-25.6c4.666-6.866,10.331-12.031,17-15.5c6.666-3.466,14.131-5.2,22.4-5.2
		c9.065,0,17.366,2.069,24.899,6.2c7.531,4.134,13.632,10,18.301,17.6l-13,13.6c-3.068-5.6-7.301-10.031-12.7-13.3
		c-5.399-3.266-11.369-4.9-17.9-4.9c-10,0-17.969,4.234-23.9,12.7c-5.935,8.469-9.035,20.369-9.3,35.7c2.8-6,7.166-10.731,13.1-14.2
		c5.931-3.465,12.7-5.2,20.3-5.2c6.932,0,13.4,1.234,19.4,3.7c6,2.469,11.199,5.834,15.6,10.1c4.4,4.269,7.865,9.3,10.4,15.1
		c2.531,5.8,3.8,12.034,3.8,18.7c0,6.8-1.335,13.2-4,19.2c-2.669,6-6.3,11.234-10.899,15.7c-4.601,4.469-10.035,7.969-16.301,10.5
		c-6.269,2.531-13,3.8-20.2,3.8C279.732,285.999,272.632,284.564,266.301,281.699z M312.523,406.85h-22.185v-31.95h21.78v5.445
		h-15.57v7.694h13.455v5.041h-13.455v8.324h15.975V406.85z M342.402,406.85h-22.185v-31.95h21.78v5.445h-15.57v7.694h13.455v5.041
		h-13.455v8.324h15.975V406.85z M376.355,397.422c-0.736,1.965-1.793,3.645-3.173,5.04s-3.037,2.476-4.973,3.24
		c-1.935,0.765-4.103,1.147-6.502,1.147h-11.61v-31.95h11.61c2.609,0,4.896,0.421,6.862,1.261c1.964,0.84,3.606,1.979,4.928,3.42
		c1.319,1.439,2.31,3.127,2.97,5.062c0.659,1.935,0.99,3.998,0.99,6.188C377.458,393.26,377.09,395.457,376.355,397.422z
		 M410.037,402.17c-0.54,1.02-1.282,1.875-2.228,2.564c-0.944,0.691-2.04,1.215-3.285,1.575s-2.572,0.54-3.982,0.54h-15.435v-31.95
		h17.1c1.109,0,2.115,0.241,3.016,0.72c0.899,0.48,1.665,1.104,2.295,1.868s1.117,1.636,1.462,2.61s0.518,1.957,0.518,2.947
		c0,1.561-0.39,3.022-1.17,4.387c-0.78,1.365-1.92,2.379-3.42,3.038c1.83,0.54,3.277,1.507,4.343,2.902
		c1.064,1.396,1.598,3.144,1.598,5.243C410.848,399.965,410.577,401.15,410.037,402.17z M438.162,406.85l-2.925-7.965h-11.205
		l-2.925,7.965h-6.57l12.601-31.95h5.04l12.555,31.95H438.162z M474.679,402.867c-0.915,0.916-1.957,1.688-3.127,2.317
		s-2.4,1.11-3.69,1.44s-2.564,0.494-3.825,0.494c-2.22,0-4.252-0.479-6.097-1.439c-1.846-0.96-3.436-2.212-4.771-3.758
		c-1.335-1.545-2.37-3.299-3.104-5.265c-0.736-1.965-1.103-3.968-1.103-6.008c0-1.95,0.344-3.877,1.034-5.782
		c0.69-1.904,1.688-3.607,2.993-5.107c1.305-1.5,2.902-2.715,4.792-3.645c1.891-0.93,4.05-1.396,6.48-1.396
		c2.85,0,5.316,0.646,7.402,1.935c2.085,1.291,3.622,2.971,4.612,5.041l-4.77,3.284c-0.36-0.899-0.826-1.657-1.396-2.272
		c-0.57-0.614-1.192-1.103-1.867-1.463c-0.675-0.359-1.373-0.621-2.093-0.787c-0.72-0.164-1.41-0.248-2.07-0.248
		c-1.47,0-2.76,0.315-3.869,0.945c-1.11,0.631-2.033,1.448-2.768,2.453c-0.735,1.006-1.291,2.145-1.665,3.42
		c-0.376,1.275-0.562,2.543-0.562,3.803c0,1.41,0.217,2.768,0.652,4.072c0.435,1.305,1.05,2.452,1.845,3.442
		c0.795,0.989,1.747,1.785,2.857,2.385c1.109,0.601,2.325,0.899,3.646,0.899c0.689,0,1.395-0.09,2.114-0.27
		c0.721-0.18,1.418-0.465,2.093-0.855c0.675-0.389,1.298-0.892,1.867-1.507c0.57-0.614,1.035-1.356,1.396-2.228l5.085,2.926
		C476.291,400.895,475.594,401.952,474.679,402.867z M473.198,283.699c-3.869,1.531-8,2.3-12.4,2.3c-4.399,0-8.534-0.769-12.399-2.3
		c-3.869-1.531-7.234-3.666-10.101-6.4c-2.868-2.731-5.134-5.9-6.8-9.5c-1.669-3.6-2.5-7.465-2.5-11.6c0-4.131,0.831-8,2.5-11.6
		c1.666-3.6,3.932-6.731,6.8-9.4c2.866-2.666,6.231-4.766,10.101-6.3c3.865-1.531,8-2.3,12.399-2.3c4.4,0,8.531,0.769,12.4,2.3
		c3.865,1.535,7.231,3.634,10.1,6.3c2.866,2.668,5.132,5.8,6.801,9.4c1.665,3.6,2.5,7.469,2.5,11.6c0,4.134-0.835,8-2.5,11.6
		c-1.669,3.6-3.935,6.769-6.801,9.5C480.43,280.033,477.063,282.168,473.198,283.699z M504.356,406.85l-10.17-14.266l-4.275,4.636
		v9.63h-6.21v-31.904h6.21v15.569l13.815-15.615h6.435l-12.24,14.175l13.005,17.775H504.356z"/>
</g>
<circle fill="#00AEEF" cx="1163.957" cy="299" r="298"/>
<rect x="810" y="138" fill="none" width="609" height="165"/>
<text transform="matrix(1 0 0 1 905.0029 283.999)" fill="#FFFFFF" font-family="'Raleway-SemiBold'" font-size="200">1316</text>
<rect x="810" y="374" fill="none" width="598" height="201"/>
<text transform="matrix(1 0 0 1 926.7969 406.8496)" fill="#FFFFFF" font-family="'Raleway-Bold'" font-size="45" letter-spacing="2">LINES OF CODE</text>
</svg>
