<?xml version="1.0" encoding="UTF-8" standalone="no"?>
<svg width="153px" height="402px" viewBox="0 0 153 402" version="1.1" xmlns="http://www.w3.org/2000/svg" xmlns:xlink="http://www.w3.org/1999/xlink">
    <!-- Generator: Sketch 3.8.3 (29802) - http://www.bohemiancoding.com/sketch -->
    <title>Group 3</title>
    <desc>Created with Sketch.</desc>
    <defs></defs>
    <g id="desktop" stroke="none" stroke-width="1" fill="none" fill-rule="evenodd">
        <g id="home" transform="translate(-599.000000, -5134.000000)">
            <g id="content" transform="translate(-103.000000, 768.000000)">
                <g id="how-it-works" transform="translate(103.000000, 3781.000000)">
                    <g id="image" transform="translate(210.000000, 251.000000)">
                        <g id="logo" transform="translate(390.000000, 300.000000)">
                            <g id="arrow">
                                <g id="Group-3" transform="translate(0.000000, 35.000000)">
                                    <g id="1" transform="translate(1.000000, 192.000000)">
                                        <path d="M150,8 L0,8" id="line" stroke="#FFFFFF" stroke-width="2" stroke-linecap="round" stroke-dasharray="6"></path>
                                        <polygon id="arrow" fill="#61D3FF" points="70 14.125 76.125 8 70 1.875 71.875 0 79.875 8 71.875 16"></polygon>
                                    </g>
                                    <g id="2">
                                        <path d="M150.630578,200 C73.6729736,200 145.669266,0.80078125 0.484375,0.80078125" id="line-copy" stroke="#FFFFFF" stroke-width="2" stroke-linecap="round" stroke-dasharray="6"></path>
                                        <polygon id="Shape-Copy" fill="#2ECC71" transform="translate(75.937500, 33.000000) rotate(-315.000000) translate(-75.937500, -33.000000) " points="71 39.125 77.125 33 71 26.875 72.875 25 80.875 33 72.875 41"></polygon>
                                    </g>
                                    <g id="3" transform="translate(75.500000, 300.000000) scale(1, -1) translate(-75.500000, -300.000000) translate(0.000000, 200.000000)">
                                        <path d="M150.630578,200 C73.6729736,200 145.669266,0.80078125 0.484375,0.80078125" id="line-copy" stroke="#FFFFFF" stroke-width="2" stroke-linecap="round" stroke-dasharray="6"></path>
                                        <polygon id="Shape-Copy" fill="#FA6A17" transform="translate(75.937500, 33.000000) rotate(-315.000000) translate(-75.937500, -33.000000) " points="71 39.125 77.125 33 71 26.875 72.875 25 80.875 33 72.875 41"></polygon>
                                    </g>
                                </g>
                            </g>
                        </g>
                    </g>
                </g>
            </g>
        </g>
    </g>
</svg>