<?xml version="1.0" encoding="UTF-8" standalone="no"?>
<svg width="26px" height="20px" viewBox="0 0 26 20" version="1.1" xmlns="http://www.w3.org/2000/svg" xmlns:xlink="http://www.w3.org/1999/xlink">
    <!-- Generator: Sketch 3.8.3 (29802) - http://www.bohemiancoding.com/sketch -->
    <title>icon-check</title>
    <desc>Created with Sketch.</desc>
    <defs></defs>
    <g id="mobile-view" stroke="none" stroke-width="1" fill="none" fill-rule="evenodd">
        <g id="home-mobile" transform="translate(-104.000000, -12496.000000)" fill="#2ECC71">
            <g id="content" transform="translate(0.000000, 991.000000)">
                <g id="how-it-works" transform="translate(0.000000, 10551.000000)">
                    <g id="image" transform="translate(8.000000, 386.000000)">
                        <g id="customer-data">
                            <g id="2" transform="translate(48.000000, 464.098222)">
                                <g id="text" transform="translate(48.000000, 99.220999)">
                                    <path d="M25.1375484,9.81162758 L13.179871,21.9039033 L10.9336774,24.1753805 C10.6253748,24.4871535 10.251013,24.6430376 9.81058065,24.6430376 C9.37014834,24.6430376 8.99578649,24.4871535 8.68748387,24.1753805 L6.44129032,21.9039033 L0.462451613,15.8577654 C0.154148996,15.5459925 0,15.1674167 0,14.7220268 C0,14.2766369 0.154148996,13.8980612 0.462451613,13.5862882 L2.70864516,11.314811 C3.01694778,11.0030381 3.39130963,10.847154 3.83174194,10.847154 C4.27217425,10.847154 4.64653609,11.0030381 4.95483871,11.314811 L9.81058065,16.2419123 L20.6451613,5.26867316 C20.9534639,4.95690022 21.3278258,4.80101609 21.7682581,4.80101609 C22.2086904,4.80101609 22.5830522,4.95690022 22.8913548,5.26867316 L25.1375484,7.54015037 C25.445851,7.85192331 25.6,8.23049906 25.6,8.67588897 C25.6,9.12127889 25.445851,9.49985464 25.1375484,9.81162758 Z" id="icon-check"></path>
                                </g>
                            </g>
                        </g>
                    </g>
                </g>
            </g>
        </g>
    </g>
</svg>