<?xml version="1.0" encoding="UTF-8" standalone="no"?>
<svg width="100px" height="100px" viewBox="0 0 100 100" version="1.1" xmlns="http://www.w3.org/2000/svg" xmlns:xlink="http://www.w3.org/1999/xlink">
    <!-- Generator: Sketch 3.8.3 (29802) - http://www.bohemiancoding.com/sketch -->
    <title>Group 4</title>
    <desc>Created with Sketch.</desc>
    <defs></defs>
    <g id="desktop" stroke="none" stroke-width="1" fill="none" fill-rule="evenodd">
        <g id="home" transform="translate(-451.000000, -6676.000000)">
            <g id="content" transform="translate(-103.000000, 768.000000)">
                <g id="close-more" transform="translate(313.000000, 5762.000000)">
                    <g id="without" transform="translate(0.000000, 146.000000)">
                        <g id="Group-4" transform="translate(241.000000, 0.000000)">
                            <circle id="Oval-1" fill="#F15B44" cx="50" cy="50" r="50"></circle>
                            <path d="M69.0572391,64.4781145 L64.4781145,69.0572391 C63.849604,69.6857495 63.0864242,70 62.1885522,70 C61.2906801,70 60.5275003,69.6857495 59.8989899,69.0572391 L50,59.1582492 L40.1010101,69.0572391 C39.4724997,69.6857495 38.7093199,70 37.8114478,70 C36.9135758,70 36.150396,69.6857495 35.5218855,69.0572391 L30.9427609,64.4781145 C30.3142505,63.849604 30,63.0864242 30,62.1885522 C30,61.2906801 30.3142505,60.5275003 30.9427609,59.8989899 L40.8417508,50 L30.9427609,40.1010101 C30.3142505,39.4724997 30,38.7093199 30,37.8114478 C30,36.9135758 30.3142505,36.150396 30.9427609,35.5218855 L35.5218855,30.9427609 C36.150396,30.3142505 36.9135758,30 37.8114478,30 C38.7093199,30 39.4724997,30.3142505 40.1010101,30.9427609 L50,40.8417508 L59.8989899,30.9427609 C60.5275003,30.3142505 61.2906801,30 62.1885522,30 C63.0864242,30 63.849604,30.3142505 64.4781145,30.9427609 L69.0572391,35.5218855 C69.6857495,36.150396 70,36.9135758 70,37.8114478 C70,38.7093199 69.6857495,39.4724997 69.0572391,40.1010101 L59.1582492,50 L69.0572391,59.8989899 C69.6857495,60.5275003 70,61.2906801 70,62.1885522 C70,63.0864242 69.6857495,63.849604 69.0572391,64.4781145 Z" id="icon-no" fill="#FFFFFF"></path>
                        </g>
                    </g>
                </g>
            </g>
        </g>
    </g>
</svg>