<?xml version="1.0" encoding="UTF-8" standalone="no"?>
<svg width="80px" height="80px" viewBox="0 0 80 80" version="1.1" xmlns="http://www.w3.org/2000/svg" xmlns:xlink="http://www.w3.org/1999/xlink">
    <!-- Generator: Sketch 3.8.3 (29802) - http://www.bohemiancoding.com/sketch -->
    <title>icon</title>
    <desc>Created with Sketch.</desc>
    <defs>
        <circle id="path-1" cx="40" cy="40" r="40"></circle>
        <mask id="mask-2" maskContentUnits="userSpaceOnUse" maskUnits="objectBoundingBox" x="0" y="0" width="80" height="80" fill="white">
            <use xlink:href="#path-1"></use>
        </mask>
    </defs>
    <g id="desktop" stroke="none" stroke-width="1" fill="none" fill-rule="evenodd">
        <g id="home" transform="translate(-1087.000000, -7626.000000)">
            <g id="content" transform="translate(-103.000000, 768.000000)">
                <g id="close-more" transform="translate(313.000000, 5762.000000)">
                    <g id="with" transform="translate(600.000000, 146.000000)">
                        <g id="good" transform="translate(0.000000, 950.000000)">
                            <g id="title" transform="translate(19.000000, 0.000000)">
                                <g id="icon" transform="translate(258.000000, 0.000000)">
                                    <use id="background" stroke="#E6E6E6" mask="url(#mask-2)" stroke-width="8" fill="#2595FF" xlink:href="#path-1"></use>
                                    <path d="M30.0909091,49.8461538 C30.0909091,49.5128188 29.9649634,49.2243602 29.7130682,48.9807692 C29.461173,48.7371783 29.1628805,48.6153846 28.8181818,48.6153846 C28.4734831,48.6153846 28.1751907,48.7371783 27.9232955,48.9807692 C27.6714003,49.2243602 27.5454545,49.5128188 27.5454545,49.8461538 C27.5454545,50.1794888 27.6714003,50.4679475 27.9232955,50.7115385 C28.1751907,50.9551294 28.4734831,51.0769231 28.8181818,51.0769231 C29.1628805,51.0769231 29.461173,50.9551294 29.7130682,50.7115385 C29.9649634,50.4679475 30.0909091,50.1794888 30.0909091,49.8461538 L30.0909091,49.8461538 Z M53,38.7692308 C53,38.1153813 52.7414799,37.5416691 52.2244318,37.0480769 C51.7073838,36.5544847 51.1174276,36.3076923 50.4545455,36.3076923 L43.4545455,36.3076923 C43.4545455,35.5640988 43.7727241,34.5416732 44.4090909,33.2403846 C45.0454577,31.9390961 45.3636364,30.9102602 45.3636364,30.1538462 C45.3636364,28.8974296 45.1515173,27.9679517 44.7272727,27.3653846 C44.3030282,26.7628175 43.4545518,26.4615385 42.1818182,26.4615385 C41.8371195,26.7948735 41.5852281,27.3397398 41.4261364,28.0961538 C41.2670447,28.8525679 41.0648687,29.657047 40.8196023,30.5096154 C40.5743359,31.3621837 40.179927,32.0640998 39.6363636,32.6153846 C39.3446955,32.9102579 38.8342839,33.4935854 38.1051136,34.3653846 C38.0520831,34.4294875 37.8996225,34.6217933 37.6477273,34.9423077 C37.3958321,35.2628221 37.1870273,35.52564 37.0213068,35.7307692 C36.8555863,35.9358985 36.6268954,36.2083316 36.3352273,36.5480769 C36.0435591,36.8878222 35.7784103,37.1698707 35.5397727,37.3942308 C35.3011352,37.6185909 35.0459294,37.8461527 34.7741477,38.0769231 C34.5023661,38.3076935 34.2372172,38.4807687 33.9786932,38.5961538 C33.7201692,38.711539 33.4848495,38.7692308 33.2727273,38.7692308 L32.6363636,38.7692308 L32.6363636,51.0769231 L33.2727273,51.0769231 C33.4450766,51.0769231 33.6538813,51.0961537 33.8991477,51.1346154 C34.1444141,51.1730771 34.3631619,51.2147434 34.5553977,51.2596154 C34.7476335,51.3044874 34.999525,51.3749995 35.3110795,51.4711538 C35.6226341,51.5673082 35.8546394,51.6410254 36.0071023,51.6923077 C36.1595652,51.74359 36.3948848,51.8237174 36.7130682,51.9326923 C37.0312516,52.0416672 37.2234845,52.1089742 37.2897727,52.1346154 C40.0871352,53.0705175 42.354158,53.5384615 44.0909091,53.5384615 L46.4971591,53.5384615 C49.0426264,53.5384615 50.3153409,52.4679594 50.3153409,50.3269231 C50.3153409,49.9935881 50.2821973,49.6346173 50.2159091,49.25 C50.6136384,49.0448708 50.9285026,48.7083357 51.1605114,48.2403846 C51.3925201,47.7724336 51.5085227,47.3012844 51.5085227,46.8269231 C51.5085227,46.3525617 51.3892057,45.9102585 51.1505682,45.5 C51.8532232,44.8589712 52.2045455,44.0961583 52.2045455,43.2115385 C52.2045455,42.891024 52.1382582,42.5352584 52.0056818,42.1442308 C51.8731054,41.7532032 51.7073874,41.448719 51.5085227,41.2307692 C51.9327673,41.2179487 52.2874039,40.9166696 52.5724432,40.3269231 C52.8574825,39.7371765 53,39.217951 53,38.7692308 L53,38.7692308 Z M54.5710227,41.8846154 C54.6903415,42.3076944 54.75,42.7499977 54.75,43.2115385 C54.75,44.1987229 54.4981086,45.1217906 53.9943182,45.9807692 C54.0340911,46.2500013 54.0539773,46.5256396 54.0539773,46.8076923 C54.0539773,48.1025706 53.656254,49.2435848 52.8607955,50.2307692 C52.8740531,52.0128294 52.3106118,53.4198666 51.1704545,54.4519231 C50.0302973,55.4839795 48.5255775,56 46.65625,56 L45.9403409,56 L44.0909091,56 C42.8181755,56 41.5620327,55.8557707 40.3224432,55.5673077 C39.0828537,55.2788447 37.6477354,54.8589771 36.0170455,54.3076923 C34.479159,53.7948692 33.5643954,53.5384615 33.2727273,53.5384615 L27.5454545,53.5384615 C26.8427995,53.5384615 26.2429002,53.2980793 25.7457386,52.8173077 C25.2485771,52.3365361 25,51.7564137 25,51.0769231 L25,38.7692308 C25,38.0897402 25.2485771,37.5096178 25.7457386,37.0288462 C26.2429002,36.5480745 26.8427995,36.3076923 27.5454545,36.3076923 L32.9943182,36.3076923 C33.4715933,35.9999985 34.3797282,35.0064187 35.71875,33.3269231 C36.4876932,32.3653798 37.1969664,31.5448752 37.8465909,30.8653846 C38.1647743,30.5448702 38.4000939,29.9967987 38.5525568,29.2211538 C38.7050197,28.4455089 38.9071957,27.6346196 39.1590909,26.7884615 C39.4109861,25.9423035 39.8219668,25.2500027 40.3920455,24.7115385 C40.9090935,24.2371771 41.5056784,24 42.1818182,24 C43.2954601,24 44.2963971,24.2083312 45.1846591,24.625 C46.0729211,25.0416687 46.7490507,25.6923033 47.2130682,26.5769231 C47.6770857,27.4615429 47.9090909,28.6538387 47.9090909,30.1538462 C47.9090909,31.3461598 47.5909123,32.5769167 46.9545455,33.8461538 L50.4545455,33.8461538 C51.8333402,33.8461538 53.0265101,34.3333285 54.0340909,35.3076923 C55.0416717,36.2820562 55.5454545,37.4294806 55.5454545,38.75 C55.5454545,39.8910313 55.2206472,40.9358927 54.5710227,41.8846154 Z" id="Shape" fill="#FFFFFF"></path>
                                </g>
                            </g>
                        </g>
                    </g>
                </g>
            </g>
        </g>
    </g>
</svg>