<?xml version="1.0" encoding="UTF-8" standalone="no"?>
<svg width="100px" height="26px" viewBox="0 0 100 26" version="1.1" xmlns="http://www.w3.org/2000/svg" xmlns:xlink="http://www.w3.org/1999/xlink">
    <!-- Generator: Sketch 3.8.3 (29802) - http://www.bohemiancoding.com/sketch -->
    <title>main-logo-madkudu</title>
    <desc>Created with Sketch.</desc>
    <defs></defs>
    <g id="desktop" stroke="none" stroke-width="1" fill="none" fill-rule="evenodd">
        <g id="home" transform="translate(-1000.000000, -8870.000000)" fill="#FFFFFF">
            <g id="content" transform="translate(-103.000000, 768.000000)">
                <g id="no-manual" transform="translate(103.000000, 7490.000000)">
                    <g id="Group-5" transform="translate(310.000000, 323.000000)">
                        <g id="madkudu-way" transform="translate(500.000000, 0.000000)">
                            <g id="2" transform="translate(130.000000, 282.000000)">
                                <path d="M74.8343903,32.8520985 C74.3274821,31.0780054 72.9967416,29.5899085 71.5424688,28.511482 C69.592931,27.1023992 67.0535623,27.4004193 64.8992734,26.5802197 C63.1445474,25.2658964 64.8228822,23.8158751 66.0028282,22.9158027 C68.6390349,20.6106554 68.3150112,16.3115499 66.2158148,13.7630624 C64.8135108,11.9362932 61.8478848,10.7101449 60.3856605,10.1902558 C58.1819587,7.96841665 66.2595481,6.02427165 63.5926713,7.53498483 C62.6907439,7.92432914 61.7666659,8.65177317 63.4322214,9.09035809 C65.3786353,9.69842229 69.9882343,13.4948156 70.5209848,17.262008 C70.9299192,19.2611193 70.3772899,21.5221791 69.6423439,23.3801531 C74.441359,24.9100472 76.5025017,28.3543129 78.7931021,32.8103012 C78.7837307,32.8025716 77.7071542,32.8764325 74.8343903,32.8520985 Z M83.8383297,32.9949535 C84.3455219,31.2208604 85.6759784,29.7327635 87.1302512,28.654337 C89.079789,27.2455405 91.6191577,27.5432743 93.7734466,26.7230747 C95.5284565,25.4087514 93.8501218,23.9587302 92.6701758,23.058944 C90.0339691,20.7535104 90.3577088,16.4546912 92.4569052,13.9059174 C93.8592092,12.0791482 96.8248352,10.8529999 98.2870595,10.3331108 C100.491045,8.11155794 92.4131719,6.16741294 95.0803326,7.67812612 C95.9819761,8.06747043 96.9063381,8.79462818 95.2404986,9.23321309 C93.2943686,9.84127729 88.6844857,13.6379569 88.1517352,17.4051493 C87.7428008,19.4039743 88.2954301,21.6650341 89.0303761,23.5232944 C84.231361,25.0529022 82.1702183,28.4974542 79.8799019,32.9531563 C79.8889893,32.9457129 80.9655658,33.0195738 83.8383297,32.9949535 Z M102.503343,15.3439148 C102.666917,15.6462292 102.855481,16.0195417 103.069036,16.4638522 C103.28259,16.9081628 103.505232,17.3891175 103.736962,17.9067164 C103.968691,18.4243153 104.198149,18.9533655 104.425335,19.493867 C104.65252,20.0343686 104.866075,20.5428064 105.065998,21.0191806 C105.265922,20.5428064 105.479476,20.0343686 105.706662,19.493867 C105.933848,18.9533655 106.163306,18.4243153 106.395035,17.9067164 C106.626765,17.3891175 106.849407,16.9081628 107.062961,16.4638522 C107.276516,16.0195417 107.46508,15.6462292 107.628654,15.3439148 L109.564276,15.3439148 C109.655151,15.9760267 109.739209,16.6837172 109.816452,17.4669864 C109.893696,18.2502555 109.961851,19.0655883 110.02092,19.9129847 C110.079988,20.7603812 110.134513,21.6100679 110.184493,22.4620448 C110.234474,23.3140218 110.27764,24.115613 110.313989,24.8668185 L108.242055,24.8668185 C108.214793,23.9415532 108.178443,22.9338385 108.133006,21.8436745 C108.087569,20.7535104 108.019413,19.6541853 107.928539,18.5456991 C107.764965,18.9304629 107.583217,19.3564514 107.383293,19.8236646 C107.18337,20.2908777 106.985718,20.7580909 106.790338,21.2253041 C106.594959,21.6925173 106.406394,22.1391181 106.224646,22.5651066 C106.042897,22.991095 105.888411,23.3552465 105.761187,23.6575609 L104.275392,23.6575609 C104.148168,23.3552465 103.993682,22.991095 103.811933,22.5651066 C103.630184,22.1391181 103.44162,21.6925173 103.246241,21.2253041 C103.050861,20.7580909 102.853209,20.2908777 102.653286,19.8236646 C102.453362,19.3564514 102.271614,18.9304629 102.10804,18.5456991 C102.017166,19.6541853 101.94901,20.7535104 101.903573,21.8436745 C101.858136,22.9338385 101.821786,23.9415532 101.794524,24.8668185 L99.7225895,24.8668185 C99.7589392,24.115613 99.8021045,23.3140218 99.8520854,22.4620448 C99.9020663,21.6100679 99.9565908,20.7603812 100.015659,19.9129847 C100.074727,19.0655883 100.142883,18.2502555 100.220126,17.4669864 C100.297369,16.6837172 100.381428,15.9760267 100.472302,15.3439148 L102.503343,15.3439148 Z M114.825898,23.4376959 C115.025822,23.4376959 115.216658,23.4331153 115.398406,23.4239543 C115.580155,23.4147933 115.725554,23.4010517 115.834603,23.3827296 L115.834603,21.8299329 C115.752816,21.8116108 115.630136,21.7932887 115.466562,21.7749666 C115.302988,21.7566446 115.153046,21.7474835 115.016734,21.7474835 C114.825898,21.7474835 114.646422,21.7589348 114.478304,21.7818374 C114.310187,21.80474 114.162516,21.848255 114.035292,21.9123823 C113.908068,21.9765096 113.808106,22.0635395 113.735407,22.173472 C113.662707,22.2834045 113.626358,22.4208201 113.626358,22.5857189 C113.626358,22.9063554 113.733135,23.1285107 113.946689,23.2521847 C114.160244,23.3758588 114.453314,23.4376959 114.825898,23.4376959 Z M114.662325,17.446374 C115.262095,17.446374 115.761904,17.5150818 116.161751,17.6524975 C116.561597,17.7899131 116.881929,17.9868755 117.122746,18.2433847 C117.363563,18.4998939 117.533952,18.8113694 117.633914,19.1778111 C117.733876,19.5442528 117.783857,19.9519192 117.783857,20.4008103 L117.783857,24.660695 C117.493059,24.7248223 117.088668,24.8004009 116.570685,24.8874308 C116.052701,24.9744608 115.425669,25.0179757 114.689587,25.0179757 C114.226128,25.0179757 113.805834,24.976751 113.428706,24.8943016 C113.051578,24.8118522 112.726702,24.6767269 112.454079,24.4889255 C112.181456,24.3011241 111.972445,24.0560662 111.827046,23.7537518 C111.681648,23.4514374 111.608948,23.0804152 111.608948,22.6406852 C111.608948,22.2192772 111.693007,21.8619965 111.861124,21.5688432 C112.029242,21.2756898 112.254156,21.0420832 112.535866,20.8680234 C112.817576,20.6939636 113.14018,20.5679993 113.503677,20.4901304 C113.867174,20.4122616 114.244303,20.3733271 114.635062,20.3733271 C114.898598,20.3733271 115.132599,20.3847784 115.337066,20.407681 C115.541533,20.4305836 115.707379,20.460357 115.834603,20.4970012 L115.834603,20.3046193 C115.834603,19.9564997 115.730098,19.6770879 115.521087,19.4663839 C115.312076,19.2556799 114.948579,19.1503279 114.430595,19.1503279 C114.085273,19.1503279 113.744494,19.1755208 113.408259,19.2259065 C113.072024,19.2762923 112.781227,19.3472904 112.535866,19.4389008 L112.276874,17.7899131 C112.395011,17.753269 112.542682,17.7143345 112.719886,17.6731098 C112.897091,17.6318851 113.090199,17.595241 113.29921,17.5631773 C113.508221,17.5311137 113.728591,17.5036305 113.960321,17.4807279 C114.19205,17.4578253 114.426051,17.446374 114.662325,17.446374 L114.662325,17.446374 Z M121.355217,21.197821 C121.355217,21.8299329 121.496072,22.3383708 121.777782,22.7231345 C122.059493,23.1078983 122.477514,23.3002802 123.031848,23.3002802 C123.213596,23.3002802 123.381714,23.2934094 123.5362,23.2796679 C123.690686,23.2659263 123.81791,23.2498945 123.917872,23.2315724 L123.917872,19.5076086 C123.790648,19.4251592 123.624803,19.3564514 123.420335,19.3014851 C123.215868,19.2465189 123.009129,19.2190358 122.800118,19.2190358 C121.836851,19.2190358 121.355217,19.8786308 121.355217,21.197821 L121.355217,21.197821 Z M125.948913,24.6332119 C125.767164,24.6881782 125.558153,24.7408542 125.32188,24.7912399 C125.085607,24.8416256 124.837974,24.8851406 124.578983,24.9217848 C124.319991,24.9584289 124.056455,24.9882023 123.788376,25.0111049 C123.520297,25.0340075 123.263577,25.0454588 123.018217,25.0454588 C122.427534,25.0454588 121.900463,24.9584289 121.437004,24.7843691 C120.973545,24.6103093 120.582785,24.3606709 120.264725,24.0354539 C119.946665,23.7102369 119.703576,23.316312 119.535459,22.8536794 C119.367342,22.3910467 119.283283,21.8711576 119.283283,21.2940119 C119.283283,20.7077052 119.355982,20.178655 119.501381,19.7068613 C119.64678,19.2350676 119.855791,18.834272 120.128414,18.5044744 C120.401037,18.1746769 120.735,17.9227482 121.130303,17.7486884 C121.525606,17.5746286 121.977706,17.4875987 122.486602,17.4875987 C122.768312,17.4875987 123.020488,17.5150818 123.24313,17.5700481 C123.465772,17.6250144 123.690686,17.7028832 123.917872,17.8036547 L123.917872,14.5331625 L125.948913,14.203365 L125.948913,24.6332119 Z M133.568723,24.8668185 C133.377887,24.5553431 133.152973,24.2186747 132.893981,23.8568136 C132.634989,23.4949524 132.353279,23.1330912 132.04885,22.77123 C131.744421,22.4093688 131.428633,22.0612492 131.101486,21.7268712 C130.774338,21.3924931 130.447191,21.0970495 130.120043,20.8405403 L130.120043,24.8668185 L127.993585,24.8668185 L127.993585,15.3439148 L130.120043,15.3439148 L130.120043,18.9442045 C130.674376,18.3578978 131.230982,17.7463982 131.789858,17.1097057 C132.348735,16.4730133 132.868991,15.8844163 133.350625,15.3439148 L135.872386,15.3439148 C135.227179,16.1134423 134.579699,16.8554868 133.929948,17.5700481 C133.280197,18.2846094 132.596368,19.0037513 131.878461,19.7274736 C132.632718,20.3595856 133.361984,21.1107911 134.06626,21.9810901 C134.770536,22.8513891 135.445277,23.8132986 136.090485,24.8668185 L133.568723,24.8668185 Z M142.837902,24.6194704 C142.492579,24.7202418 142.047295,24.8141425 141.502049,24.9011724 C140.956804,24.9882023 140.384295,25.0317173 139.784525,25.0317173 C139.175667,25.0317173 138.669043,24.9492679 138.264652,24.7843691 C137.860262,24.6194704 137.53993,24.388154 137.303657,24.0904201 C137.067383,23.7926863 136.899266,23.4376959 136.799304,23.0254489 C136.699343,22.613202 136.649362,22.1597304 136.649362,21.6650341 L136.649362,17.6387559 L138.680402,17.6387559 L138.680402,21.417686 C138.680402,22.077281 138.766733,22.5536553 138.939394,22.8468086 C139.112055,23.139962 139.434659,23.2865387 139.907205,23.2865387 C140.052604,23.2865387 140.207091,23.2796679 140.370664,23.2659263 C140.534238,23.2521847 140.679637,23.2361529 140.806861,23.2178308 L140.806861,17.6387559 L142.837902,17.6387559 L142.837902,24.6194704 Z M146.477417,21.197821 C146.477417,21.8299329 146.618273,22.3383708 146.899983,22.7231345 C147.181693,23.1078983 147.599715,23.3002802 148.154048,23.3002802 C148.335797,23.3002802 148.503914,23.2934094 148.658401,23.2796679 C148.812887,23.2659263 148.940111,23.2498945 149.040073,23.2315724 L149.040073,19.5076086 C148.912849,19.4251592 148.747003,19.3564514 148.542536,19.3014851 C148.338069,19.2465189 148.13133,19.2190358 147.922319,19.2190358 C146.959051,19.2190358 146.477417,19.8786308 146.477417,21.197821 L146.477417,21.197821 Z M151.071113,24.6332119 C150.889365,24.6881782 150.680354,24.7408542 150.444081,24.7912399 C150.207807,24.8416256 149.960175,24.8851406 149.701183,24.9217848 C149.442191,24.9584289 149.178656,24.9882023 148.910577,25.0111049 C148.642498,25.0340075 148.385778,25.0454588 148.140417,25.0454588 C147.549734,25.0454588 147.022663,24.9584289 146.559204,24.7843691 C146.095745,24.6103093 145.704986,24.3606709 145.386926,24.0354539 C145.068866,23.7102369 144.825777,23.316312 144.657659,22.8536794 C144.489542,22.3910467 144.405483,21.8711576 144.405483,21.2940119 C144.405483,20.7077052 144.478183,20.178655 144.623582,19.7068613 C144.76898,19.2350676 144.977991,18.834272 145.250614,18.5044744 C145.523237,18.1746769 145.8572,17.9227482 146.252503,17.7486884 C146.647807,17.5746286 147.099906,17.4875987 147.608802,17.4875987 C147.890513,17.4875987 148.142689,17.5150818 148.365331,17.5700481 C148.587973,17.6250144 148.812887,17.7028832 149.040073,17.8036547 L149.040073,14.5331625 L151.071113,14.203365 L151.071113,24.6332119 Z M159.099858,24.6194704 C158.754535,24.7202418 158.309251,24.8141425 157.764006,24.9011724 C157.21876,24.9882023 156.646252,25.0317173 156.046481,25.0317173 C155.437623,25.0317173 154.930999,24.9492679 154.526609,24.7843691 C154.122218,24.6194704 153.801886,24.388154 153.565613,24.0904201 C153.32934,23.7926863 153.161222,23.4376959 153.06126,23.0254489 C152.961299,22.613202 152.911318,22.1597304 152.911318,21.6650341 L152.911318,17.6387559 L154.942358,17.6387559 L154.942358,21.417686 C154.942358,22.077281 155.028689,22.5536553 155.20135,22.8468086 C155.374011,23.139962 155.696615,23.2865387 156.169162,23.2865387 C156.31456,23.2865387 156.469047,23.2796679 156.63262,23.2659263 C156.796194,23.2521847 156.941593,23.2361529 157.068817,23.2178308 L157.068817,17.6387559 L159.099858,17.6387559 L159.099858,24.6194704 Z" id="main-logo-madkudu"></path>
                            </g>
                        </g>
                    </g>
                </g>
            </g>
        </g>
    </g>
</svg>