<?xml version="1.0" encoding="UTF-8" standalone="no"?>
<svg width="35px" height="49px" viewBox="0 0 35 49" version="1.1" xmlns="http://www.w3.org/2000/svg" xmlns:xlink="http://www.w3.org/1999/xlink">
    <!-- Generator: Sketch 3.8.3 (29802) - http://www.bohemiancoding.com/sketch -->
    <title>angelist</title>
    <desc>Created with Sketch.</desc>
    <defs></defs>
    <g id="mobile-view" stroke="none" stroke-width="1" fill="none" fill-rule="evenodd">
        <g id="home-mobile" transform="translate(-270.000000, -27106.000000)" fill="#228CD6">
            <g id="footer" transform="translate(0.000000, 25424.000000)">
                <g id="social" transform="translate(168.000000, 1682.000000)">
                    <g id="angelist" transform="translate(102.521008, 0.000000)">
                        <path d="M26.3356855,20.2752478 C27.9032553,16.2201983 29.0005812,12.7890438 29.9410691,10.1375568 C30.724854,7.48620407 31.1952329,5.92660058 31.1952329,5.30270552 C31.1952329,4.67894463 31.038395,4.21095624 30.724854,3.74310203 C30.4114479,3.4311545 30.097907,3.27524782 29.6275282,3.27524782 C29.0005812,3.27524782 28.3734993,3.74310203 27.7464174,4.83485131 C27.1194704,5.92660058 26.3356855,7.48620407 25.5519006,9.82574347 L22.1030851,19.4954461 L26.3356855,20.2752478 L26.3356855,20.2752478 Z M21.7895442,29.3210554 C20.8490563,29.3210554 19.9084334,29.1651487 18.9679455,29.0091078 C18.0273227,28.8532012 17.2435378,28.6971603 16.4597529,28.385347 C16.7732938,29.1651487 17.0868347,29.7889096 17.4003757,30.5687113 C17.7139166,31.3485131 17.8706196,31.9724081 18.0273227,32.7522099 C18.4977015,32.128449 19.1246485,31.5045539 19.7517304,30.8806589 C20.5355153,30.256898 21.1625972,29.7889096 21.7895442,29.3210554 L21.7895442,29.3210554 Z M18.0273227,19.1834985 L14.2651012,8.73399419 C13.3246132,6.08250726 12.6975313,4.21095624 12.0704495,3.4311545 C11.6002055,2.65135276 11.1299615,2.18349855 10.5028796,2.18349855 C10.0326357,2.18349855 9.71909473,2.33940523 9.4055538,2.65135276 C8.93530982,3.11920697 8.77847193,3.58719535 8.77847193,4.21095624 C8.77847193,5.30270552 9.24885076,7.01834985 10.0326357,9.51379593 C10.8164206,12.0091078 12.0704495,15.4403965 13.6381542,19.4954461 C13.7948572,19.1834985 13.9515602,19.0274577 14.2651012,19.0274577 C14.5786421,18.871551 14.892183,18.871551 15.205724,18.871551 L15.9895089,18.871551 C16.4597529,19.0274577 17.0868347,19.0274577 18.0273227,19.1834985 L18.0273227,19.1834985 Z M14.73548,35.4035626 C15.0488861,35.4035626 15.5192649,35.247656 15.832671,34.9357084 C16.1462119,34.6237609 16.3030498,34.1559067 16.3030498,33.8439591 C16.3030498,33.3761049 15.9895089,32.4402623 15.362427,30.8806589 C14.73548,29.3210554 13.9515602,27.7614519 13.0110723,26.3577551 C12.3839904,25.2660058 11.6002055,24.3302974 10.9731236,23.862309 C10.3461766,23.2385481 9.71909473,23.0825073 9.09201286,23.0825073 C8.62176889,23.0825073 8.15152491,23.3944548 7.52444304,24.0183499 C6.89736117,24.6421107 6.74065813,25.1100991 6.74065813,25.73386 C6.74065813,26.2018484 7.05419906,27.1375568 7.52444304,28.2293061 C8.15152491,29.3210554 8.77847193,30.4128046 9.71909473,31.6604606 C10.6597175,32.9082507 11.6002055,34 12.5408283,34.7798017 C13.4813163,35.0917493 14.1083981,35.4035626 14.73548,35.4035626 L14.73548,35.4035626 Z M4.54600643,34.6237609 C4.85954737,34.9357084 5.32979134,35.5596035 5.80017018,36.3394052 C7.2109021,38.3668629 8.62176889,39.4586122 9.87579777,39.4586122 C10.3461766,39.4586122 10.6597175,39.3027055 10.9731236,38.990758 C11.2866646,38.6788105 11.4435025,38.3668629 11.4435025,38.2109562 C11.4435025,37.8990087 11.2866646,37.2751137 10.8164206,36.4953119 C10.3461766,35.7155102 9.71909473,34.7798017 8.93530982,33.8439591 C7.99468701,32.7522099 7.2109021,31.8165015 6.74065813,31.3485131 C6.11357626,30.8806589 5.64333228,30.5687113 5.32979134,30.5687113 C4.54600643,30.5687113 3.76222152,31.0366997 3.13513965,31.8165015 C2.50819263,32.5963032 2.1946517,33.6880525 2.1946517,34.7798017 C2.1946517,35.7155102 2.35135474,36.6513528 2.82173357,37.8990087 C3.29197754,38.990758 3.91905942,40.2384139 4.85954737,41.3301632 C6.27041415,42.8899009 7.83798398,44.2934635 9.87579777,45.2293061 C11.9137464,46.1650145 13.9515602,46.6330029 16.4597529,46.6330029 C20.8490563,46.6330029 24.4545747,45.0733994 27.4330113,41.7981516 C30.4114479,38.5229038 31.8221799,34.4678542 31.8221799,29.4769621 C31.8221799,27.9173586 31.6654768,26.8256093 31.5086389,25.8899009 C31.3519359,24.9540583 30.8816919,24.3302974 30.4114479,24.0183499 C29.4708251,23.2385481 27.7464174,22.614653 25.0815217,21.990758 C22.4166261,21.3669971 19.5950274,21.0550496 16.7732938,21.0550496 C15.9895089,21.0550496 15.362427,21.2109562 15.0488861,21.5229038 C14.73548,21.8348513 14.5786421,22.3027055 14.5786421,22.9266006 C14.5786421,24.4862041 15.362427,25.5779533 17.0868347,26.2018484 C18.8111076,26.8256093 21.6328412,27.2935977 25.3950627,27.2935977 L26.8059295,27.2935977 C27.1194704,27.2935977 27.4330113,27.4495044 27.5897144,27.605411 C27.7464174,27.9173586 27.9032553,28.2293061 27.9032553,28.6971603 C27.5897144,29.0091078 26.8059295,29.4769621 25.5519006,29.9449504 C24.2977368,30.4128046 23.5139519,30.8806589 22.8868701,31.3485131 C21.4761381,32.2843557 20.3788123,33.5320116 19.5950274,34.9357084 C18.8111076,36.3394052 18.3408636,37.5870612 18.3408636,38.8348513 C18.3408636,39.614653 18.4977015,40.3944548 18.8111076,41.4862041 C19.1246485,42.5779533 19.2814864,43.2017142 19.2814864,43.3577551 L19.2814864,43.9816501 C18.3408636,43.9816501 17.5570787,43.3577551 16.9299968,42.2660058 C16.3030498,41.1742565 16.1462119,39.7705597 16.1462119,37.8990087 L16.1462119,37.5870612 C15.9895089,37.743102 15.832671,37.8990087 15.675968,37.8990087 C15.5192649,37.8990087 15.362427,38.0550496 15.0488861,38.0550496 L14.4219391,38.0550496 C14.2651012,38.0550496 14.1083981,37.8990087 13.7948572,37.8990087 C13.7948572,38.2109562 13.9515602,38.3668629 13.9515602,38.6788105 L13.9515602,39.3027055 C13.9515602,40.0825073 13.6381542,40.862309 13.0110723,41.4862041 C12.3839904,42.109965 11.6002055,42.4219125 10.6597175,42.4219125 C9.24885076,42.4219125 7.83798398,41.7981516 6.27041415,40.3944548 C4.85954737,38.990758 4.07576246,37.743102 4.07576246,36.3394052 C4.07576246,36.0274577 4.07576246,35.871551 4.2324655,35.7155102 C4.2324655,34.9357084 4.38930339,34.7798017 4.54600643,34.6237609 L4.54600643,34.6237609 Z M28.6870402,20.8990087 C30.724854,21.2109562 32.1357208,22.1467988 32.9195057,23.3944548 C33.7032906,24.6421107 34.1736695,26.8256093 34.1736695,29.6330029 C34.1736695,35.247656 32.4492617,39.9266006 29.0005812,43.5136618 C25.5519006,47.1008571 21.1625972,48.9724081 15.832671,48.9724081 C13.7948572,48.9724081 11.7570434,48.6604606 9.71909473,47.8806589 C7.68128094,47.1008571 6.11357626,46.0091078 4.70284433,44.7614519 C3.13513965,43.3577551 1.88111076,41.6421107 1.09732585,40.0825073 C0.470243976,38.3668629 0,36.6513528 0,34.9357084 C0,33.0641574 0.470243976,31.5045539 1.25402889,30.4128046 C2.0378138,29.3210554 3.44868058,28.6971603 5.1730883,28.2293061 C4.85954737,27.4495044 4.54600643,26.8256093 4.38930339,26.2018484 C4.2324655,25.73386 4.07576246,25.2660058 4.07576246,24.9540583 C4.07576246,24.0183499 4.54600643,22.9266006 5.64333228,21.8348513 C6.74065813,20.743102 7.68128094,20.2752478 8.62176889,20.2752478 C9.09201286,20.2752478 9.4055538,20.2752478 9.87579777,20.4311545 C10.3461766,20.5870612 10.8164206,20.743102 11.4435025,21.2109562 C10.0326357,16.5321458 8.62176889,12.6330029 7.83798398,9.98165015 C7.05419906,7.33029739 6.74065813,5.61465305 6.74065813,4.52290378 C6.74065813,3.11920697 7.05419906,2.02759187 7.83798398,1.24765595 C8.46506585,0.467854211 9.56239169,0 10.8164206,0 C12.8542344,0 15.5192649,4.67894463 18.8111076,14.1926064 C19.4381895,15.7522099 19.7517304,17 20.0652713,17.9357084 C20.3788123,17.3119475 20.6922184,16.2201983 21.1625972,14.9724081 C24.4545747,5.61465305 27.2761734,0.935842594 29.4708251,0.935842594 C30.568151,0.935842594 31.5086389,1.24765595 32.2925587,2.02759187 C32.9195057,2.80739361 33.3898846,3.89900871 33.3898846,5.14679884 C33.3898846,6.08250726 33.0763436,7.95405828 32.2925587,10.6055452 C31.3519359,13.256898 30.2546101,16.6880525 28.6870402,20.8990087 L28.6870402,20.8990087 Z" id="Fill-1"></path>
                    </g>
                </g>
            </g>
        </g>
    </g>
</svg>