<?xml version="1.0" encoding="UTF-8" standalone="no"?>
<svg width="16px" height="13px" viewBox="0 0 16 13" version="1.1" xmlns="http://www.w3.org/2000/svg" xmlns:xlink="http://www.w3.org/1999/xlink">
    <!-- Generator: Sketch 3.8.3 (29802) - http://www.bohemiancoding.com/sketch -->
    <title>Email</title>
    <desc>Created with Sketch.</desc>
    <defs></defs>
    <g id="desktop" stroke="none" stroke-width="1" fill="none" fill-rule="evenodd">
        <g id="home" transform="translate(-1110.000000, -10130.000000)" fill="#228CD6">
            <g id="footer" transform="translate(0.000000, 9952.000000)">
                <g id="Group-7" transform="translate(210.000000, 60.000000)">
                    <g id="contact" transform="translate(900.000000, 9.000000)">
                        <path d="M14.4225352,112.230047 L8,116.211268 L1.57746479,112.230047 L1.57746479,110.615023 L8,114.633803 L14.4225352,110.615023 L14.4225352,112.230047 Z M1.57746479,109 C1.12675831,109.025039 0.751175211,109.187792 0.450704225,109.488263 C0.150233239,109.788734 0,110.164317 0,110.615023 L0,120.230047 C0,120.680753 0.150233239,121.056337 0.450704225,121.356808 C0.751175211,121.657278 1.12675831,121.820031 1.57746479,121.84507 L14.4225352,121.84507 C14.8732417,121.820031 15.2488248,121.657278 15.5492958,121.356808 C15.8497668,121.056337 16,120.680753 16,120.230047 L16,110.615023 C16,110.164317 15.8497668,109.788734 15.5492958,109.488263 C15.2488248,109.187792 14.8732417,109.025039 14.4225352,109 L1.57746479,109 Z" id="Email"></path>
                    </g>
                </g>
            </g>
        </g>
    </g>
</svg>