<?xml version="1.0" encoding="UTF-8" standalone="no"?>
<svg width="42px" height="41px" viewBox="0 0 42 41" version="1.1" xmlns="http://www.w3.org/2000/svg" xmlns:xlink="http://www.w3.org/1999/xlink">
    <!-- Generator: Sketch 3.8.3 (29802) - http://www.bohemiancoding.com/sketch -->
    <title>linkedin</title>
    <desc>Created with Sketch.</desc>
    <defs></defs>
    <g id="mobile-view" stroke="none" stroke-width="1" fill="none" fill-rule="evenodd">
        <g id="home-mobile" transform="translate(-431.000000, -27111.000000)" fill="#228CD6">
            <g id="footer" transform="translate(0.000000, 25424.000000)">
                <g id="social" transform="translate(168.000000, 1682.000000)">
                    <g id="linkedin" transform="translate(263.991597, 5.100000)">
                        <path d="M41.0084034,40.8 L31.9310224,40.8 L31.9310224,25.5 C31.8598269,24.2958273 31.3080701,23.2687543 30.2757353,22.41875 C29.2434005,21.5687458 28.086491,21.14375 26.804972,21.14375 C25.523453,21.14375 24.5445295,21.5687458 23.8681723,22.41875 C23.191815,23.2687543 22.8180442,24.2958273 22.7468487,25.5 L22.7468487,40.8 L13.6694678,40.8 L13.6694678,13.6 L22.7468487,13.6 L22.7468487,18.16875 C23.6011947,16.8937436 24.8115001,15.9020869 26.3778011,15.19375 C27.9441021,14.4854131 29.403588,14.13125 30.7563025,14.13125 C33.675318,14.2020837 36.0959288,15.2114486 38.0182073,17.159375 C39.9404858,19.1073014 40.9372079,21.4979025 41.0084034,24.33125 L41.0084034,40.8 Z M9.07738095,40.8 L0,40.8 L0,13.6 L9.07738095,13.6 L9.07738095,40.8 Z M7.79586835,1.328125 C8.65021436,2.21354609 9.07738095,3.29374362 9.07738095,4.56875 C9.07738095,5.84375637 8.65021436,6.90624575 7.79586835,7.75625 C6.94152234,8.60625425 5.87360585,9.03125 4.59208683,9.03125 C3.31056782,9.03125 2.22485272,8.60625425 1.33490896,7.75625 C0.444965205,6.90624575 0,5.84375637 0,4.56875 C0,3.29374362 0.444965205,2.21354609 1.33490896,1.328125 C2.22485272,0.442703906 3.31056782,0 4.59208683,0 C5.87360585,0 6.94152234,0.442703906 7.79586835,1.328125 Z" id="Shape"></path>
                    </g>
                </g>
            </g>
        </g>
    </g>
</svg>