<?xml version="1.0" encoding="UTF-8" standalone="no"?>
<svg width="12px" height="16px" viewBox="0 0 12 16" version="1.1" xmlns="http://www.w3.org/2000/svg" xmlns:xlink="http://www.w3.org/1999/xlink">
    <!-- Generator: Sketch 3.8.3 (29802) - http://www.bohemiancoding.com/sketch -->
    <title>Location@1x</title>
    <desc>Created with Sketch.</desc>
    <defs></defs>
    <g id="desktop" stroke="none" stroke-width="1" fill="none" fill-rule="evenodd">
        <g id="home" transform="translate(-1110.000000, -10097.000000)" fill="#228CD6">
            <g id="footer" transform="translate(0.000000, 9952.000000)">
                <g id="Group-7" transform="translate(210.000000, 60.000000)">
                    <g id="contact" transform="translate(900.000000, 9.000000)">
                        <path d="M5.59624413,83.5868545 C5.02034141,83.5868545 4.54460282,83.3990629 4.16901408,83.0234742 C3.79342535,82.6478854 3.6056338,82.1721469 3.6056338,81.5962441 C3.6056338,81.0203414 3.79342535,80.5446028 4.16901408,80.1690141 C4.54460282,79.7934254 5.02034141,79.6056338 5.59624413,79.6056338 C6.17214685,79.6056338 6.64788545,79.7934254 7.02347418,80.1690141 C7.39906291,80.5446028 7.58685446,81.0203414 7.58685446,81.5962441 C7.58685446,82.1721469 7.39906291,82.6478854 7.02347418,83.0234742 C6.64788545,83.3990629 6.17214685,83.5868545 5.59624413,83.5868545 L5.59624413,83.5868545 Z M1.61502347,77.6150235 C0.563375023,78.6666719 0.0250392488,79.9937322 0,81.5962441 C0.225353239,83.8748158 1.15805127,86.1345741 2.79812207,88.3755869 C4.43819286,90.6165996 5.37089089,91.8247253 5.59624413,92 C5.82159737,91.8247253 6.7542954,90.6165996 8.3943662,88.3755869 C10.034437,86.1345741 10.967135,83.8748158 11.1924883,81.5962441 C11.167449,79.9937322 10.6291132,78.6666719 9.57746479,77.6150235 C8.52581634,76.563375 7.19875606,76.0250392 5.59624413,76 C3.99373221,76.0250392 2.66667192,76.563375 1.61502347,77.6150235 Z" id="Location"></path>
                    </g>
                </g>
            </g>
        </g>
    </g>
</svg>