<?xml version="1.0" encoding="UTF-8" standalone="no"?>
<svg width="20px" height="20px" viewBox="0 0 20 20" version="1.1" xmlns="http://www.w3.org/2000/svg" xmlns:xlink="http://www.w3.org/1999/xlink">
    <!-- Generator: Sketch 3.8.3 (29802) - http://www.bohemiancoding.com/sketch -->
    <title>icon-phone</title>
    <desc>Created with Sketch.</desc>
    <defs></defs>
    <g id="Page-1" stroke="none" stroke-width="1" fill="none" fill-rule="evenodd">
        <g id="icon-phone" fill="#228CD6">
            <path d="M4.01041667,8.6458333 C4.84375417,10.2430635 5.87672995,11.6579799 7.109375,12.890625 C8.3420201,14.1232701 9.7569365,15.1562458 11.3541667,15.9895833 L13.8020833,13.5416667 C14.1493073,13.2291651 14.5312479,13.1423604 14.9479167,13.28125 C16.1979229,13.6979187 17.5173542,13.90625 18.90625,13.90625 C19.2187516,13.90625 19.4791656,14.0104156 19.6875,14.21875 C19.8958344,14.4270844 20,14.6874984 20,15 L20,18.90625 C20,19.2187516 19.8958344,19.4791656 19.6875,19.6875 C19.4791656,19.8958344 19.2187516,20 18.90625,20 C13.559001,19.8611104 9.1059206,18.0121706 5.546875,14.453125 C1.98782943,10.8940794 0.13888958,6.44099896 0,1.09375 C0,0.78124844 0.10416562,0.52083437 0.3125,0.3125 C0.52083438,0.10416563 0.78124844,0 1.09375,0 L5,0 C5.31250156,0 5.57291563,0.10416563 5.78125,0.3125 C5.98958438,0.52083437 6.09375,0.78124844 6.09375,1.09375 C6.09375,2.48264583 6.30208125,3.80207708 6.71875,5.05208333 C6.85763958,5.46875208 6.7708349,5.85069271 6.45833333,6.19791667 L4.01041667,8.6458333 L4.01041667,8.6458333 Z" id="Shape"></path>
        </g>
    </g>
</svg>