<?xml version="1.0" encoding="UTF-8" standalone="no"?>
<svg width="20px" height="18px" viewBox="0 0 20 18" version="1.1" xmlns="http://www.w3.org/2000/svg" xmlns:xlink="http://www.w3.org/1999/xlink">
    <!-- Generator: Sketch 3.8.3 (29802) - http://www.bohemiancoding.com/sketch -->
    <title>“</title>
    <desc>Created with Sketch.</desc>
    <defs></defs>
    <g id="desktop" stroke="none" stroke-width="1" fill="none" fill-rule="evenodd">
        <g id="home" transform="translate(-1010.000000, -848.000000)" fill="#228CD6">
            <g id="content" transform="translate(-103.000000, 768.000000)">
                <g id="testimonials" transform="translate(103.000000, 0.000000)">
                    <g id="3" transform="translate(1010.000000, 79.000000)">
                        <g id="testi">
                            <path d="M20,4.58024691 C18.7654259,5.03292407 17.8292213,5.73250556 17.191358,6.67901235 C16.5534948,7.62551914 16.2345679,8.75719506 16.2345679,10.0740741 L20,10.0740741 L20,18.4074074 L12.2839506,18.4074074 L12.2839506,10.0740741 C12.2839506,8.92180494 12.4897099,7.85185679 12.9012346,6.86419753 C13.3127593,5.87653827 13.8683093,5.00206142 14.5679012,4.24074074 C15.2674932,3.47942006 16.0802423,2.8312784 17.0061728,2.2962963 C17.9321034,1.7613142 18.9300358,1.32921975 20,1 L20,4.58024691 Z M7.71604938,4.58024691 C6.48147531,5.03292407 5.54527068,5.73250556 4.90740741,6.67901235 C4.26954414,7.62551914 3.95061728,8.75719506 3.95061728,10.0740741 L7.71604938,10.0740741 L7.71604938,18.4074074 L0,18.4074074 L0,10.0740741 C0,8.92180494 0.205759259,7.85185679 0.617283951,6.86419753 C1.02880864,5.87653827 1.58435864,5.00206142 2.28395062,4.24074074 C2.98354259,3.47942006 3.79629167,2.8312784 4.72222222,2.2962963 C5.64815278,1.7613142 6.64608519,1.32921975 7.71604938,1 L7.71604938,4.58024691 Z" id="“"></path>
                        </g>
                    </g>
                </g>
            </g>
        </g>
    </g>
</svg>