<?xml version="1.0" encoding="UTF-8" standalone="no"?>
<svg width="48px" height="39px" viewBox="0 0 48 39" version="1.1" xmlns="http://www.w3.org/2000/svg" xmlns:xlink="http://www.w3.org/1999/xlink">
    <!-- Generator: Sketch 3.8.3 (29802) - http://www.bohemiancoding.com/sketch -->
    <title>twitter</title>
    <desc>Created with Sketch.</desc>
    <defs></defs>
    <g id="mobile-view" stroke="none" stroke-width="1" fill="none" fill-rule="evenodd">
        <g id="home-mobile" transform="translate(-168.000000, -27111.000000)" fill="#228CD6">
            <g id="footer" transform="translate(0.000000, 25424.000000)">
                <g id="social" transform="translate(168.000000, 1682.000000)">
                    <g id="twitter" transform="translate(0.000000, 5.100000)">
                        <path d="M42.0763305,6.1625 C44.1410001,4.88749363 45.5648887,3.08126169 46.3480392,0.74375 C44.4257607,1.877089 42.3611221,2.65624787 40.1540616,3.08125 C38.3029786,1.09790675 35.8823679,0.0708336875 32.8921569,0 C30.1867278,0.0708336875 27.908506,1.02707412 26.057423,2.86875 C24.20634,4.71042588 23.2452151,7.01248619 23.1740196,9.775 C23.1740196,10.5541706 23.2808113,11.2979131 23.4943978,12.00625 C19.3650587,11.7229153 15.5739552,10.6958422 12.1209734,8.925 C8.66799161,7.15415781 5.73122125,4.78126487 3.31057423,1.80625 C2.45622822,3.29375744 2.02906162,4.90519966 2.02906162,6.640625 C2.02906162,8.37605034 2.420631,9.95207625 3.20378151,11.36875 C3.98693202,12.7854237 5.0192513,13.9187457 6.30077031,14.76875 C4.66327379,14.6979163 3.20378792,14.3083369 1.92226891,13.6 C1.92226891,16.1145954 2.65201184,18.1864497 4.11151961,19.921875 C5.57102737,21.6573003 7.43988123,22.7729142 9.71813725,23.26875 C8.93498675,23.4812511 8.08065355,23.5875 7.15511204,23.5875 C6.51435254,23.5875 5.90919986,23.5166674 5.33963585,23.375 C5.98039536,25.3583433 7.11950629,26.9697855 8.7570028,28.209375 C10.3944993,29.4489645 12.2811518,30.1041663 14.4170168,30.175 C12.7795203,31.5208401 10.928465,32.5479131 8.86379552,33.25625 C6.799126,33.9645869 4.6276958,34.31875 2.34943978,34.31875 C1.56628927,34.31875 0.783150508,34.2833337 0,34.2125 C2.13586502,35.5583401 4.46748269,36.6208294 6.99492297,37.4 C9.52236324,38.1791706 12.1743559,38.56875 14.9509804,38.56875 C23.992809,38.2145816 30.8808704,35.204195 35.6153711,29.5375 C40.3498719,23.870805 42.7526841,17.6729503 42.8238796,10.94375 L42.7170868,9.66875 C44.6393654,8.25207625 46.2768373,6.55209325 47.6295518,4.56875 C45.8496643,5.34792056 43.9986091,5.87916525 42.0763305,6.1625 Z" id="Shape"></path>
                    </g>
                </g>
            </g>
        </g>
    </g>
</svg>